/* XPM */
static char *noname[] = {
/* width height ncolors chars_per_pixel */
"20 20 29 1",
/* colors */
"  c #D19849",
". c #946A2E",
"X c #FFFE89",
"o c #CF9239",
"O c #CA0D0D",
"+ c #E5A644",
"@ c #F3B255",
"# c #DB9F44",
"$ c #F8B046",
"% c #FFC35D",
"& c #FABB58",
"* c #FFCD60",
"= c #FEC05B",
"- c #FFFF86",
"; c #FEB140",
": c #FFF47C",
"> c #EAA940",
", c #FBB754",
"< c #5D391C",
"1 c #FEC264",
"2 c #F2AA41",
"3 c #FFE66E",
"4 c #E3AD59",
"5 c #803C19",
"6 c #FFB542",
"7 c #FEB958",
"8 c #443115",
"9 c #B5843B",
"0 c None",
/* pixels */
"000000000#;*00000000",
"000000.9.o>=*1000000",
"0000.99 o>;%**$60000",
"00<.9#4@+;;71*66**00",
"00<.>@,1>;;71126*300",
"00<9@771>77711>6*300",
"00<9277O>;O711>6*:00",
"08.o271O>;O711>6=::0",
"08.o;7OOOOOOOO>66::0",
"08.o;OO1>;O71>;;*3X0",
"089#;O1>>;O71>;;%330",
"089#O71>;;O71>O7=330",
"0<9+;OOOOOOOOOOO=3:0",
"0< +;71>;;O71>;;6330",
"0< +;71>;;O71>;;7*30",
".. +;71>;;O71>;763**",
"9.4+;71>;;O71>;;63-*",
"9.4>;71>;;O71>;;;*:3",
"994+2@&+222@&+2221**",
"9.999999oo>,@ooo99o>"
};
