/* XPM */
static char *noname[] = {
/* width height ncolors chars_per_pixel */
"20 21 29 1",
/* colors */
"  c #D19849",
". c #946A2E",
"X c #FFFE89",
"o c #CF9239",
"O c #CA0D0D",
"+ c #E5A644",
"@ c #F3B255",
"# c #DB9F44",
"$ c #F8B046",
"% c #FFC35D",
"& c #FABB58",
"* c #FFCD60",
"= c #FEC05B",
"- c #FFFF86",
"; c #FEB140",
": c #FFF47C",
"> c #EAA940",
", c #FBB754",
"< c #5D391C",
"1 c #FEC264",
"2 c #F2AA41",
"3 c #FFE66E",
"4 c #E3AD59",
"5 c #803C19",
"6 c #FFB542",
"7 c #FEB958",
"8 c #443115",
"9 c #B5843B",
"0 c None",
/* pixels */
"9..999999>2@4 99994#",
"994#22@&+22@&&+2263*",
"9.4,O771>O;711O;;6:*",
"05 +OOOOOO;71OOO6=:0",
"0< +O771>O;71O>;6*:0",
"0<9#OOOOOO7O1O>;6*:0",
"089#O771>OO71O>;63:0",
"08.oOOOOOOO71O>;O3:0",
"08.o;711>O777O>O6::0",
"00<92711O;771OO6*:00",
"00<9OOOOOOOO1O;6O:00",
"008.271O;O771O;O3:00",
"008.>OO>;O771OO63:00",
"008.#O1OOOOO1OO63:00",
"0085o,1>;O;7O>O=::00",
"000<o@1>;O;O1>6*3000",
"000<941>;;;7126*3000",
"000<.o4#2;6=*66**000",
"0000..99#26%*$600000",
"000000..9#6=10000000",
"00000000o26000000000"
};
