/* XPM */
static char *noname[] = {
/* width height ncolors chars_per_pixel */
"20 21 31 1",
/* colors */
"  c #D19849",
". c #946A2E",
"X c #72361A",
"o c #5F301B",
"O c #FFFE89",
"+ c #CF9239",
"@ c #E5A644",
"# c #F3B255",
"$ c #DB9F44",
"% c #F8B046",
"& c #FFC35D",
"* c #FABB58",
"= c #FFCD60",
"- c #FEC05B",
"; c #FFFF86",
": c #FEB140",
"> c #FFF47C",
", c #EAA940",
"< c #FBB754",
"1 c #5D391C",
"2 c #FEC264",
"3 c #F2AA41",
"4 c #FFE66E",
"5 c #E3AD59",
"6 c #803C19",
"7 c #562C1A",
"8 c #FFB542",
"9 c #FEB958",
"0 c #443115",
"q c #B5843B",
"w c None",
/* pixels */
"q..qqqqqq,3#5 qqqq5$",
"qq5$33#*@33#**@3384=",
"q.5<999o,::927,::8>=",
"w6 @999XX66XXX,:8->w",
"w1 @:99X,::92X,:8=>w",
"w1q$999XXoXX66,:8=>w",
"w0q$:996,::92X,:84>w",
"w0.+:92Xoooooo,:84>w",
"w0.+:922,9999,,88>>w",
"ww1q396X,:692XX8=>ww",
"ww1q39266:X9XX:84>ww",
"ww0.392,:ooo2,:-4>ww",
"ww0.,91ooX666XX84>ww",
"ww0.$<2,::692,:84>ww",
"ww06+<2XXXXXX68->>ww",
"www1+#26:::92,8=4www",
"www1q52,:::9238=4www",
"www1.+5$3:8-=88==www",
"wwww..qq$38&=%8wwwww",
"wwwwww..q$8-2wwwwwww",
"wwwwwwww+38wwwwwwwww"
};
