/* XPM */
static char *noname[] = {
/* width height ncolors chars_per_pixel */
"23 23 29 1",
/* colors */
"  c #D19849",
". c #946A2E",
"X c #72361A",
"o c #5F301B",
"O c #CF9239",
"+ c #E5A644",
"@ c #F3B255",
"# c #DB9F44",
"$ c #F8B046",
"% c #FFC35D",
"& c #FABB58",
"* c #FFCD60",
"= c #FEC05B",
"- c #FEB140",
"; c #FFF47C",
": c #EAA940",
"> c #FBB754",
", c #5D391C",
"< c #FEC264",
"1 c #F2AA41",
"2 c #FFE66E",
"3 c #E3AD59",
"4 c #803C19",
"5 c #562C1A",
"6 c #FFB542",
"7 c #FEB958",
"8 c #443115",
"9 c #B5843B",
"0 c None",
/* pixels */
"99.9999 9OO@<&OOOO99O:@",
"993#11@&#11@&&#111@+6*2",
"9.3>777<:--7<<:---7:622",
"9. +774<:--7<<:---71=22",
"0, +X7X<:-XXX<:-X-71*20",
"0,9#o7X<X7X74<:4-47$*20",
"0,9#474<4-47X<XX-77$*20",
"0,9Oo7X<o-o7o<o--7X6*20",
"08.OX7X<o7XXX:X-XX76220",
"08.O474<4-77X:XXX7<6220",
"0049474:4-XXX:oo771*200",
"00,9X7X:o-o7o:57778*200",
"00,.o7,:o-474:XXXX%*200",
"00,.44444-47o:-5576*200",
"008.#>X:--XXX:4X776*200",
"0084XX44X--7X:o7o<62;00",
"000XO@<:---7<:---<22000",
"000,9@<:---7<:---*2;000",
"000,9+&+---7<:-66*%2000",
"000,.93O:1-7<1666*>*000",
"00000999O#:><$66<=00000",
"0000000.99O3:1660000000",
"0000000000#>60000000000"
};
