/* XPM */
static char *noname[] = {
/* width height ncolors chars_per_pixel */
"22 23 26 1",
/* colors */
"  c #D19849",
". c #946A2E",
"X c #CF9239",
"o c #CA0D0D",
"O c #E5A644",
"+ c #F3B255",
"@ c #DB9F44",
"# c #F8B046",
"$ c #FFC35D",
"% c #FABB58",
"& c #FFCD60",
"* c #FEC05B",
"= c #FEB140",
"- c #FFF47C",
"; c #EAA940",
": c #FBB754",
"> c #5D391C",
", c #FEC264",
"< c #F2AA41",
"1 c #FFE66E",
"2 c #E3AD59",
"3 c #803C19",
"4 c #FFB542",
"5 c #FEB958",
"6 c #B5843B",
"7 c None",
/* pixels */
"7777777777@51777777777",
"77777777.6X2,&#7777777",
"77777.666X;5&&44477777",
"777.66 2@<=5,&#444$777",
"7>.6X2+,;==5,,;444&*&7",
"7>6X+::,;555,,;=44&&17",
"7>6@=55,;==5,,;==5*&17",
"7>6@=5o,;=55,,o==5*&17",
"7>6O=5oooooooooo=5**17",
"7> O=5o,;=o5,;==55,*17",
"7> O=5ooooooooo=55<&17",
"7> O=5o;==o5,;=555<&17",
"73 O=5oooooooo==55*&17",
".. O=5o;==o5,;===5<*11",
"6. O=5oooooooooo55<*11",
"6.2O=5,;===5,;=o=,<*-1",
"6.2O=5,;===5,;=o=,,4-1",
"6.2O=5o;o=o5o;=o=,,&-1",
"6.2;=oo;o=o5o;oo=,;411",
"6.2;=5,;===5,;o==5;4&1",
"662:=5,;===5oo==,5;$11",
"662+<+%@<<<+@@<<%%O411",
"666666666XX+O;@X 666@2"
};
