/* XPM */
static char *noname[] = {
/* width height ncolors chars_per_pixel */
"23 23 28 1",
/* colors */
"  c #D19849",
". c #946A2E",
"X c #72361A",
"o c #CF9239",
"O c #CA0D0D",
"+ c #E5A644",
"@ c #F3B255",
"# c #DB9F44",
"$ c #F8B046",
"% c #FFC35D",
"& c #FABB58",
"* c #FFCD60",
"= c #FEC05B",
"- c #FEB140",
"; c #FFF47C",
": c #EAA940",
"> c #FBB754",
", c #5D391C",
"< c #FEC264",
"1 c #F2AA41",
"2 c #FFE66E",
"3 c #E3AD59",
"4 c #803C19",
"5 c #FFB542",
"6 c #FEB958",
"7 c #443115",
"8 c #B5843B",
"9 c None",
/* pixels */
"9999999999#>*9999999999",
"99999998.8o3<<159999999",
"999998888#:><*$55599999",
"999,.8 3#1-O<<$555**999",
"999,8OOOOOOOOOOOOO2*999",
"999,8O><:O6O<<O--522999",
"999XoO6<OO-OOOOOOO**999",
"9974oO<OO-6O<<O--6**299",
"997.#OO<O66OOOOOOO**299",
"99,.:O<<O-6O<:O-66**299",
"99,.:O<::-6OOOOOOO$*299",
"99,81O<:OOOOOOO666$*299",
"99481O<:O-66<:O-66=*299",
"97.o1O<:OOOOOOO--61=2;9",
"97.o-O<:O--6<:O-O6:52;9",
"9,8o-O<:OOOOOOOOO<:52;9",
"9,8#-O<:O--6<:---<<52;9",
"9,8#OO<:OOOOOOOO-<<=2;9",
"9, +O6<:---6<:-OO<:52;9",
"8. O-6<O-O-O<O-OO6:5=;*",
"8.3>-6O:O-O6O:OO<6:6*;2",
"88#@1@&#111@#O11&&#1%2*",
"88888888ooo@+1#o o88o3@"
};
