/* XPM */
static char *noname[] = {
/* width height ncolors chars_per_pixel */
"21 22 28 1",
/* colors */
"  c #D19849",
". c #946A2E",
"X c #FFFE89",
"o c #CF9239",
"O c #CA0D0D",
"+ c #E5A644",
"@ c #F3B255",
"# c #DB9F44",
"$ c #F8B046",
"% c #FFC35D",
"& c #FABB58",
"* c #FFCD60",
"= c #FEC05B",
"- c #FEB140",
"; c #FFF47C",
": c #EAA940",
"> c #FBB754",
", c #5D391C",
"< c #FEC264",
"1 c #F2AA41",
"2 c #FFE66E",
"3 c #E3AD59",
"4 c #803C19",
"5 c #FFB542",
"6 c #FEB958",
"7 c #443115",
"8 c #B5843B",
"9 c None",
/* pixels */
"8..8888 8o:@&3oo888o:",
"883#11@&+11@&&+111=**",
"8.3>666<:--6<<:---***",
"8.3+666<:--6<<:--5***",
".. +-66<:--O<<:O-5***",
"94 +6OO<:66O<OO--5**9",
"9, +-6OO:--O<O:--=229",
"9, +-6<OO-6O<O:--=229",
"9,8#-6<<OO6O6O:--=229",
"978#-6OO:OOOOOOO6%;29",
"978#-6<O:-6O<O--6%*29",
"97.o-OO:--6O<O-66**29",
"97.o-6OO--6O<O-O6*;29",
"97.o16<OO--O<OO-5**29",
"994816<:OO-6O:--=**99",
"99,816OO-OOOOOOO52299",
"99,816<O---6<:--52X99",
"99,.:@<:---6<:555;X99",
"99,.8#3#1--6<$5552*99",
"9999.888#:-=*$5559999",
"9999998.8o:6<:-999999",
"999999999#-*999999999"
};
