/* XPM */
static char *noname[] = {
/* width height ncolors chars_per_pixel */
"21 22 27 1",
/* colors */
"  c #D19849",
". c #946A2E",
"X c #CF9239",
"o c #CA0D0D",
"O c #E5A644",
"+ c #F3B255",
"@ c #DB9F44",
"# c #F8B046",
"$ c #FFC35D",
"% c #FABB58",
"& c #FFCD60",
"* c #FEC05B",
"= c #FFFF86",
"- c #FEB140",
"; c #FFF47C",
": c #EAA940",
"> c #5D391C",
", c #FEC264",
"< c #F2AA41",
"1 c #FFE66E",
"2 c #E3AD59",
"3 c #803C19",
"4 c #FFB542",
"5 c #FEB958",
"6 c #443115",
"7 c #B5843B",
"8 c None",
/* pixels */
"888888888@-&888888888",
"88888877.X:5,,:888888",
"8888777 X:-*&&#448888",
"88>.7@2+O--o,o#44*188",
"88>.:+o,:ooooooo4&;88",
"88>7ooooo55o,o:-4&;88",
"88>7<5o,:ooooooo41;88",
"8837<5o,:-55,,:-4&;88",
"86.X<5o,:ooooooo4&;18",
"86.X-ooo:o55o:-o5&=18",
"86.Xo5o:oooooooo5&&18",
"867@o5o:-o55o:-o5$&18",
"867o-5o:-ooooooo5$118",
"8>7@-5o:oo-5,:-o-*&18",
"8> O-5,o---5,:--5**18",
"8> O-5,oooooooo5-,*18",
"83 O-5,o---5o:---,118",
".. O-5,o---5o:---,1;1",
"7.2O-5,oooooooo--,411",
"7.2:-5,:o--5,o---54&&",
"772+<+%O<<<+%O<<%+<11",
"7.777777XX:+@XXX 77O2"
};
