/* XPM */
static char *noname[] = {
/* width height ncolors chars_per_pixel */
"21 22 28 1",
/* colors */
"  c #D19849",
". c #946A2E",
"X c #FFFE89",
"o c #CF9239",
"O c #CA0D0D",
"+ c #E5A644",
"@ c #F3B255",
"# c #DB9F44",
"$ c #F8B046",
"% c #FFC35D",
"& c #FABB58",
"* c #FFCD60",
"= c #FEC05B",
"- c #FEB140",
"; c #FFF47C",
": c #EAA940",
"> c #FBB754",
", c #5D391C",
"< c #FEC264",
"1 c #F2AA41",
"2 c #FFE66E",
"3 c #E3AD59",
"4 c #803C19",
"5 c #FFB542",
"6 c #FEB958",
"7 c #443115",
"8 c #B5843B",
"9 c None",
/* pixels */
"8..8888 8o:@&3oo888o:",
"883#11@&+11@&&+111=**",
"8.3>666<:-OO<<:---***",
"8.3+O66<:-OOO<:--5***",
".. +OO6<:-O6<<:OO5***",
"94 +6OO<:6O6<<OO-5**9",
"9, +-6OO:-O6<OO--=229",
"9, +-6<OO-O6<O:--=229",
"9,8#-6<<O6O6OO:--=229",
"978#-6<<OOO6O:--6%;29",
"978#-6<O:OO6O:--6%*29",
"97.o-6O:-OO6O:-66**29",
"97.oOOO:-OO6OOOOO*;29",
"97.o1O<:-OO6<:--5**29",
"994816<:-OO6<:--=**99",
"99,816<:-OO6<:-652299",
"99,816<:-OO6<:--52X99",
"99,.:@<:--O6<:555;X99",
"99,.8#3#1--6<$5552*99",
"9999.888#:-=*$5559999",
"9999998.8o:6<:-999999",
"999999999#-*999999999"
};
