/* XPM */
static char *noname[] = {
/* width height ncolors chars_per_pixel */
"21 22 29 1",
/* colors */
"  c #D19849",
". c #946A2E",
"X c #72361A",
"o c #5F301B",
"O c #CF9239",
"+ c #E5A644",
"@ c #F3B255",
"# c #DB9F44",
"$ c #F8B046",
"% c #FFC35D",
"& c #FABB58",
"* c #FFCD60",
"= c #FEC05B",
"- c #FFFF86",
"; c #FEB140",
": c #FFF47C",
"> c #EAA940",
", c #5D391C",
"< c #FEC264",
"1 c #F2AA41",
"2 c #FFE66E",
"3 c #E3AD59",
"4 c #803C19",
"5 c #562C1A",
"6 c #FFB542",
"7 c #FEB958",
"8 c #443115",
"9 c #B5843B",
"0 c None",
/* pixels */
"000000000#;*000000000",
"00000099.O>7<<>000000",
"0000999 O>;=**$660000",
"00,.9#3@+;;7<*$66=200",
"00,.XXXXX;XXXXXX6*:00",
"00,9o7X<>7X7<<446*:00",
"00,944444;;4<<X;62:00",
"0049o7<<o;77oo>;6*:00",
"08.OXXXoo777XX>;6*:20",
"08.O474<>;74<>X;7*-20",
"08.O44444;7X<>oo7**20",
"089#;7<>ooooo5;77%*20",
"089#;7<>;X774>;;7%220",
"0,9#;7<4444Xoo5;;=*20",
"0, +;7<X;;;7<>;;7==20",
"0, +;7<4XXXXXoo7;<=20",
"04 +;7<4;;;75>;;;<220",
".. +;7<X;;;75>;;;<2:2",
"9.3+;7<XXXXXXXX;;<622",
"9.3>;7<>X;;7<X;;;76**",
"993@1@&+111@&+11&@122",
"9.999999OO>@#OOO 99+3"
};
