/* XPM */
static char *Drunk_Elephant_W_wood[] = {
/* width height ncolors chars_per_pixel */
"41 42 29 1",
/* colors */
"  c #000000",
". c #D19849",
"X c #946A2E",
"o c #72361A",
"O c #5F301B",
"+ c #CF9239",
"@ c #E5A644",
"# c #F3B255",
"$ c #DB9F44",
"% c #F8B046",
"& c #FABB58",
"* c #FFCD60",
"= c #FEC05B",
"- c #FFFF86",
"; c #FEB140",
": c #FFF47C",
"> c #EAA940",
", c #FBB754",
"< c #5D391C",
"1 c #FEC264",
"2 c #F2AA41",
"3 c #FFE66E",
"4 c #E3AD59",
"5 c #803C19",
"6 c #562C1A",
"7 c #FFB542",
"8 c #FEB958",
"9 c #B5843B",
"0 c None",
/* pixels */
"99.4+>>44444$>444444$>>>444$>>4444$>##=33",
"X9.4$2222#&&$2#2#&&&$22###&$22###&$2#=*::",
"X9.4@;;,,,11@;;;,111@;;;,,1@;;,,,1@;8*3:-",
"XX.4@;;8;811>;;8811>>;;;881>;;8881>;773-0",
"XX.4@;;88811>;;8811>;;;8Oo1>;;8881>77=3-0",
"0X94$;;;8811>;;;811>;;85555>;88881>77*3:0",
"0X94$;;;8811oo8;811>;;;OooOo;88881>77=3-0",
"0X9.$;;;881OOOO8811>;;oo881>6;;881>77=3-0",
"0X99>2;;881oooooo11>;;o;811>;;8681>77=3-0",
"0X99>2;;881o>;;8oo1>;;o;811>;55881>7**3:0",
"0XX+>2;;881>8;;81O<>;8o;811oo;8881>7733:0",
"0XX9$#,8811>;888116O;;55555>8;8o81>773300",
"00X9$2,;811>;;;81115;855511>855881>7=*:00",
"00X9+2,8811>;;88111668<;811OO;8881>7=*:00",
"005X+>,;811>;;8811155;55555>;8;58127=*:00",
"005X+#,;811>;8881OO><8<oo11>;oo88127=*:00",
"005X+>,;811>;8;6661>O;<;811oo;881127**:00",
"005X+>#8811>;866611>o;8o8ooo;;881117*3300",
"005X9$#;81>>;;;o111>o;8ooo1>;;8811*7*3000",
"000X9$#;81>;;888111>;o5o811>8;8811*7*:000",
"000X9+#;81>;58;8111>5558811>;58811*7*3000",
"000XX+#,81>;oo<Oooooooooo<Oo<<8811*7*3000",
"000XX+#,81>;oo88111>558;811>5o8811*,*3000",
"000XX+#,81>;5588811>55;;81>;558811*,*3000",
"000XX+>,11>;55;8111>558881>;o58551*=*3000",
"000XX+>#11>;5555oo5555555555555811*=*3000",
"000XX9$#11>;5888111>5;8;81>;55881*3*30000",
"0000X9$#11>;88881115;;8;81>55;881*3*30000",
"0000X9+#11>;;8881Oo>;;8881oo;;881*3*30000",
"0000X9+#11>;;;81oooo5555555;;;881*3*30000",
"0000X9+#11>;;888551>;;;8oo>;;;881*3*30000",
"0000X9+#11>;8881111>;;;8o1>;;8888*3*30000",
"0000XX+411>;8888111>;;;811>;;8881*3*30000",
"0000XX+4&1>;;888111>;;;811>;88881*3*30000",
"0000XX9$&1>;8;81111>;;;888>;;888**3*30000",
"00000X9.4&@;;881111>;;;881>;888=*33*00000",
"00000XX.@#$22,,1111>;;;881>78===*33*00000",
"000000X9.4+>>#,1111>;;;881277==1*33*00000",
"00000099..9+$4##111>;;8==*%7===11*0000000",
"00000000009+..@#&11@;;7==*%77700000000000",
"0000000000009+.$4#&$228==1200000000000000",
"00000000000000..444$>22800000000000000000"
};
