/* XPM */
static char *noname[] = {
/* width height ncolors chars_per_pixel */
"41 42 29 1",
/* colors */
"  c #D19849",
". c #946A2E",
"X c #72361A",
"o c #5F301B",
"O c #CF9239",
"+ c #E5A644",
"@ c #F3B255",
"# c #DB9F44",
"$ c #F8B046",
"% c #FFC35D",
"& c #FABB58",
"* c #FFCD60",
"= c #FEC05B",
"- c #FFFF86",
"; c #FEB140",
": c #FFF47C",
"> c #EAA940",
", c #FBB754",
"< c #5D391C",
"1 c #FEC264",
"2 c #F2AA41",
"3 c #FFE66E",
"4 c #E3AD59",
"5 c #803C19",
"6 c #562C1A",
"7 c #FFB542",
"8 c #FEB958",
"9 c #B5843B",
"0 c None",
/* pixels */
"O99999O 9OO   9OO#+#22@@@44OOOOOOO 9OO#@&",
" 9 O>2@&#22@&&#222@#22@@@&&#22@22@&#@8*33",
"O9 4@,,1>;;,11>;;;,>;;,,,1>;,;,,;,1>;7*33",
"9. #,881>;;811>;;;8>;;8881>;;88;;81>77333",
"9. O2881>;;811>;;;8>;;;888>;88;8;81>77333",
"0.9O@881>88811>;;;8>;;;881>;;;8;;8>;773:0",
"0.9O2881>;;811>;;88>;;8888>;;8;;88>;773:0",
"0.9O2811>;8811>;;88>;;;881>;;88;88>;=**:0",
"0.9O2,11>8888XXX;88>;;;881>;;8;o68>;77*:0",
"0.9O2,11>;88XXXXXX1>;;;881>;;55;88>;7*3:0",
"0.99>,1>>;88XX;;88>;;;;881>;XX8888>77*3:0",
"0..9>,1>;;88o6;888>;;;;881>5588888>7%*3:0",
"0..9>,1>;;885X;;888;;;8881>55;8;88>7%33:0",
"0..9+@1>;;;8oo;;;8>;;8;881<o;;8881>77*3-0",
"00.9#@1>;;;8X5;;88>;;8;88155;8;881>77*:00",
"00..#@1>;;;8Xoo6ooooo<<<<XXX;88881>77*:00",
"00..#@1>;;;866;;;116688881XX;88881>773:00",
"00..O@1>;;;866;;;116o8;881XX88;881>773:00",
"00..O@1>;;;8XX;;;1>XX8;881XX;88881>7=3:00",
"00..O@1>;;;8XX;;;8>XX8;881XX;8;881>7=3:00",
"00..O41>;;;855555555X5555555;88881>7*3:00",
"005.O41>;;;85X;;11>XX8;881X<;;;811273*:00",
"00..9+1>;;;85X;;18>558881155;88X5127*3:00",
"000.9+&>;;;855;;18>55;881155;5581127*:000",
"00059#&>;;;5555555555555555555881127*:000",
"00059#&>;;;855;181>X;;8811>55;881127*3000",
"0005.#&>;;;8>;;8115;;;881155;;8811$733000",
"0005. @>;;88>;;;15X;;;88155;;;8811$=*:000",
"0005. @,;888>;;XXXooXoXoXoX;;;8811$=*:000",
"0005. 4+8;88>;;;55;8888855;;;;8811$**:000",
"0005.O4+8881>;1;1>;;888X5X;;;;8812%**:000",
"0005.94+8881>;;;11;;8888>X;8888112733:000",
"0000.94+8;81>;;;8>;;;881>1;;8;81127*30000",
"0000.94+,881>;;;8>;;8811>;;;8881127*:0000",
"0000.94#2;81>;;;8>;;;;88>;;;8;811$7*:0000",
"0000.9 O@2@1+;;;8>;;8888>;;88781*$7330000",
"0000.9 O#+4@#22,,>;;;888>777=7=**$7**0000",
"00000099 O 4O>>@@+;;;8882777===11$7000000",
"000000000O  9O#+4#22;7=1$777=7=1000000000",
"0000000000009O   O#>211*277==000000000000",
"0000000000000000 9O#>;8120000000000000000",
"00000000000000000002;70000000000000000000"
};
