/* XPM */
static char *noname[] = {
/* width height ncolors chars_per_pixel */
"41 42 30 1",
/* colors */
"  c #D19849",
". c #946A2E",
"X c #72361A",
"o c #5F301B",
"O c #CF9239",
"+ c #E5A644",
"@ c #F3B255",
"# c #DB9F44",
"$ c #F8B046",
"% c #FFC35D",
"& c #FABB58",
"* c #FFCD60",
"= c #FEC05B",
"- c #FFFF86",
"; c #FEB140",
": c #FFF47C",
"> c #EAA940",
", c #FBB754",
"< c #5D391C",
"1 c #FEC264",
"2 c #F2AA41",
"3 c #FFE66E",
"4 c #E3AD59",
"5 c #803C19",
"6 c #562C1A",
"7 c #FFB542",
"8 c #FEB958",
"9 c #443115",
"0 c #B5843B",
"q c None",
/* pixels */
"qqqqqqqqqqqqqqqqqqq#;7qqqqqqqqqqqqqqqqqqq",
"qqqqqqqqqqqqqqqqOO O>;8==qqqqqqqqqqqqqqqq",
"qqqqqqqqqqqq  0OOO+#27===127=qqqqqqqqqqqq",
"qqqqqqqqqOO   O#>>@+;7===*$77==7qqqqqqqqq",
"qqqqqq0 0OO#44#222,>;;78==27==7=7=*qqqqqq",
"qqqq.00 O+4@&&+;;;8>;;;8812777=77%7**qqqq",
"qqqq.0 4#22,11>;;88>;;8888>;7877=%7**qqqq",
"qqqq.04@+;8811>;;88>;;;881>;;88;=%7*:qqqq",
"qqqq.04&>8888>>;;88>;;;881>;;8;;8=7*3qqqq",
"qqqq.04&>;881>;;881>;;;881>;;;;;8=7*3qqqq",
"qqqX.04+>;881>;o88>;;;;881>;;8888=7*3:qqq",
"qqqX.O4+;;881>;669>;;;;881>;;888887*3:qqq",
"qqqX. 4+;;881>;XX88;;;8551>;;;8;88$*3:qqq",
"qqq5. @+;;;81>6666666666<o>;;;8881$=*3qqq",
"qqq5. @>;;;81>5X88>;;85581>;;8;881$=*3qqq",
"qqq5.#&>;;;81oo8;1>;88<881>;;88881$7*3qqq",
"qqq50#&>;;;866;;;11;868881>XX8888127*:qqq",
"qqq50#&>;;;o66666666ooXXXXXXXX;88127*:qqq",
"qqq.0+&>;;XX1XX;;1>;XX;881>XX8888127*:qqq",
"qq..0+1>XX;81X5;;8>;XX;881>XX8;88127*3:qq",
"qq..O41>;;;8155;18>8X58881>5X888812733:qq",
"qq5.O41>;;;8>XXX<oXXXXXXXXX<o;;811>7**:qq",
"qq.. @1>;;;8>XX;18>;558811>5588811>7=*:qq",
"qq.0O@1>;;;8>55;18>;558811>558;811>7=3:qq",
"qq..#@1>;;;8>55818>;558811>5588811>773:qq",
"qq..#@1>;;;8>55181>;558811>55;8811>77*:qq",
"qq..#@1>;;;8>5555555555555555;8811>7**:qq",
"qq.0#@1>;;88>55;11>;;;8811>55;8811>773:qq",
"q..0+@18;888>5511>;;;;881>;XX;8811>7733-q",
"q..O>,1>8;8855;;1>;888881>;55;8811>773:-q",
"q..O>,1>8881551;1>;;8888>;;XX;881>877*:-q",
"q..O>,1>888X5;;;11;;8888>;;XX8811>;8%*:-q",
"q..O2,1>8;XX>;;;8>;;;88XXXXXo;811>;;7*:-q",
"q..O2,1>5581>;;;8>;;8811>ooo88811>;;=*:-q",
"q..#281>;;81>;;;8>;;;;88>;;;8;811>;;=*:-q",
"q..#281>8;81>;;;8>;;8888>;;88;811>;8=*:-q",
"q.0#281>8881>;;88>;;;888>;;;8;811>;87*:-q",
"0.0+281>8;81>;;88>;;;888>;;;88811>;8=*3-3",
" . #28188;81>;;81>;;;;81>;;;8;81>>;;7%3:3",
" 0 #2,>>,;,1>;,,1>;;;111>;;,,;,1>;;,8%3:3",
" 0 O>@#222@&#@@@&#2222@&#222@2@&#22@28*33",
" 000000OOOO 0   4O#>22@&###O    0OOOO 4&&"
};
