/* XPM */
static char *noname[] = {
/* width height ncolors chars_per_pixel */
"41 43 26 1",
/* colors */
"  c #D19849",
". c #946A2E",
"X c #CF9239",
"o c #CA0D0D",
"O c #E5A644",
"+ c #F3B255",
"@ c #DB9F44",
"# c #F8B046",
"$ c #FFC35D",
"% c #FABB58",
"& c #FFCD60",
"* c #FEC05B",
"= c #FFFF86",
"- c #FEB140",
"; c #FFF47C",
": c #EAA940",
"> c #FBB754",
", c #FEC264",
"< c #F2AA41",
"1 c #FFE66E",
"2 c #E3AD59",
"3 c #803C19",
"4 c #FFB542",
"5 c #FEB958",
"6 c #B5843B",
"7 c None",
/* pixels */
"X66666X 6XX   6XX@O@<<+++22XXXXXXX 6XX@+%",
" 6 X:<+%@<<+%%@<<<+@<<+++%%@<<+<<+%@+5&11",
"X6 2+>>,:-->,,:--->:-->>>,:->->>->,:-4&11",
"6. @>55,:--5,,:---5:--555,:--55--5,:44111",
"6. X<55,:--5,,:---5:---555:-55-5-5,:44111",
"7.6X+55,:555,,:---5:---55,:---5--5:-441;7",
"7.6X<55,:--5,,:--55:--5555:--5--55:-441;7",
"7.6X<5,,:-55,,:--55:--ooo,:--55-55:-*&&;7",
"7.6X<>,,:5555::--55:-oooooo--5--55:-44&;7",
"7.6X<>,,:-55,:--55,:ooo55,:o----55:-4&1;7",
"7.66:>,::-55,:--55:-oo-55,:--55555:44&1;7",
"7..6:>,:--55,:-555:-oo-55,:--55555:4$&1;7",
"7..6:>,:--55,:--555-oo555,:---5-55:4$11;7",
"7..6:+,:---5,:---5:-oo-55,:---555,:44&1=7",
"77.6@+,:---5,:--55:-oo-55,:--5-55,:44&;77",
"77.6@+,:---5,:-5-,:-oo-55,:--5555,:44&;77",
"77..@+,:---5,:---,,-oo555,:--5555,:441;77",
"77..X+,:---5,:---,,5oo-55,:-55-55,:441;77",
"77..X+,:---5,:---,:-oo-55,:--5555,:4*1;77",
"77..X+,:---5,:---5:-oo-55,:--5-55,:4*1;77",
"77..X+,:--oooooooooooooooooooooo5,:4&1;77",
"773.X2,:---oo:--,,:-oo-55,:----5,,:41&;77",
"77..X2,:---5:---,5:-oo55,,:--555,,<4&&;77",
"77..6O,:---5:---,5:-oo55,,:--5-5,,<4&;;77",
"777.6O%:---5:-,5,5:-oo55,,:--555,,<4&;777",
"77736@%:---5:--,5,:oo-o5,,:---55,,<4&1777",
"77736@%:---5:--5,,o---55,,:---55,,<411777",
"7773.@%:--55:---oo:---55,,:---55,,#*&;777",
"7773. +>-555:--oo:----55,:----55,,#*&;777",
"7773. +O5-55:-oo,:-55555,:----55,,#*&;777",
"7773. 2O555,ooooooooooooooooo-55,:$&&;777",
"7773.X2O555,:oo-,,--5555:--5555,,<411;777",
"7773.62O5-5,:---5:---55,:,--5-5,,<4&1;777",
"7777.62O555,:---5:--55,,:---555,,<4&;7777",
"7777.62O--5,:---5:----55:---5-5,,<4&;7777",
"7777.62@+-5,:---5:--5555:--55-5,,#41;7777",
"7777.6 X+++,O--55:---555:---545,&#41&7777",
"7777.6 X@O2+@<<>>:---555:444***&&#4&17777",
"7777776X X 2X::+%O----5,<444*4*,<#4777777",
"777777777X  6X@O2@<<-,,,#44**4*,777777777",
"7777777777776    X@:<4*&<444*777777777777",
"7777777777777777 6X@:-5,<7777777777777777",
"7777777777777777777<-47777777777777777777"
};
