/* XPM */
static char *noname[] = {
/* width height ncolors chars_per_pixel */
"41 42 30 1",
/* colors */
"  c #D19849",
". c #946A2E",
"X c #72361A",
"o c #5F301B",
"O c #CF9239",
"+ c #E5A644",
"@ c #F3B255",
"# c #DB9F44",
"$ c #F8B046",
"% c #FFC35D",
"& c #FABB58",
"* c #FFCD60",
"= c #FEC05B",
"- c #FFFF86",
"; c #FEB140",
": c #FFF47C",
"> c #EAA940",
", c #FBB754",
"< c #5D391C",
"1 c #FEC264",
"2 c #F2AA41",
"3 c #FFE66E",
"4 c #E3AD59",
"5 c #803C19",
"6 c #562C1A",
"7 c #FFB542",
"8 c #FEB958",
"9 c #443115",
"0 c #B5843B",
"q c None",
/* pixels */
"qqqqqqqqqqqqqqqqqqq#;7qqqqqqqqqqqqqqqqqqq",
"qqqqqqqqqqqqqqqqOO O>;8==qqqqqqqqqqqqqqqq",
"qqqqqqqqqqqq  0OOO+#27===127=qqqqqqqqqqqq",
"qqqqqqqqqOO   O#>>@+;7===*$77==7qqqqqqqqq",
"qqqqqq0 0OO#44#222,>;;78==27==7=7=*qqqqqq",
"qqqq.00 O+4@&&+;;;8>;;;8812777=77%7**qqqq",
"qqqq.0 4#22,11>;;88>;;8888>;7877=%7**qqqq",
"qqqq.04@+;8811>;;88>;;;881>;;88;=%7*:qqqq",
"qqqq.04&>8888>>;;88>;;;881>;;8;;8=7*3qqqq",
"qqqq.04&>;881>;;881>;;;881>;;;;;8=7*3qqqq",
"qqqX.04+>;881>;;o8>;;;;881>;;8888=7*3:qqq",
"qqqX.O4+;;881>;668>;;;;X51>;;888887*3:qqq",
"qqqX. 4+;;881>XXXXXX555551>;;;8;88$*3:qqq",
"qqq5. @+;;;81o6;;8>;;86681>;;;8881$=*3qqq",
"qqq5. @>;;;8X5;;88>;;5;881>;;8;881$=*3qqq",
"qqq5.#&>;;;XX>;8;1>;o8;881>;X88881$7*3qqq",
"qqq50#&>;;<66699666666o<<<XXX8888127*:qqq",
"qqq50#&>Xo;o6>;;;116o8;881>XX8;88127*:qqq",
"qqq.0+&>;;;XX>;;;1>XX8;881>XX8888127*:qqq",
"qq..0+1>;;;XX>;;;8>XX8;881>XX8;88127*3:qq",
"qq..O41>;;;555555555X5555555X888812733:qq",
"qq5.O41>;;;5>>;;11XXX8;881>;o;;811>7**:qq",
"qq.. @1>;;;8>;;;1X55;88811>;;88811>7=*:qq",
"qq.0O@1>;;;8>;;555>;5;8815>;;8;811>7=3:qq",
"qq..#@1>;;;8>55515>;5;88555;;88811>773:qq",
"qq..#@1>;;;855;181X;5;8555>;;;8811>77*:qq",
"qq..#@1>;;55>;;8555;5;5511>;;;8811>7**:qq",
"qq.0#@1>;588>;5555X;558811>;;;8811>773:qq",
"q..0+@18;88855;11>o;Xo881>;;;;8811>7733-q",
"q..O>,1>8;55>;;;55X88X881>;;;;8811>773:-q",
"q..O>,1>8581>;XXX55;8XX8>;;;;;881>877*:-q",
"q..O>,1>888155;;115;88XX>;;888811>;8%*:-q",
"q..O2,1>8;XX>;;;8>X;;88XX1;;8o811>;;7*:-q",
"q..O2,1>8581>;;;8>X;8811<oooo6811>;;=*:-q",
"q..#281>;;81X;;;8XX;;;88>;X<o<811>;;=*:-q",
"q..#281>8;81>55555;;8888>;;55;811>;8=*:-q",
"q.0#281>8881>;6<o<;;;888>;;;8;811>;87*:-q",
"0.0+281>8;81>;;XX>;;;888>;;;88811>;8=*3-3",
" . #28188;81>;;81>;;;;81>;;;8;81>>;;7%3:3",
" 0 #2,>>,;,1>;,,1>;;;111>;;,,;,1>;;,8%3:3",
" 0 O>@#222@&#@@@&#2222@&#222@2@&#22@28*33",
" 000000OOOO 0   4O#>22@&###O    0OOOO 4&&"
};
