/* XPM */
static char *noname[] = {
/* width height ncolors chars_per_pixel */
"37 38 29 1",
/* colors */
"  c #D19849",
". c #946A2E",
"X c #72361A",
"o c #5F301B",
"O c #CF9239",
"+ c #E5A644",
"@ c #F3B255",
"# c #DB9F44",
"$ c #F8B046",
"% c #FFC35D",
"& c #FABB58",
"* c #FFCD60",
"= c #FEC05B",
"- c #FFFF86",
"; c #FEB140",
": c #FFF47C",
"> c #EAA940",
", c #FBB754",
"< c #5D391C",
"1 c #FEC264",
"2 c #F2AA41",
"3 c #FFE66E",
"4 c #E3AD59",
"5 c #803C19",
"6 c #562C1A",
"7 c #FFB542",
"8 c #FEB958",
"9 c #B5843B",
"0 c None",
/* pixels */
"9999999 9OO   OO#>@+224+#  9OOO99 4+2",
" 9 O>2@&#22@&&#222@#22@@@&&#22@228***",
"9. @,,,1>;;,11>;;;,>;;,,,1>;,;,,;%3**",
"9. #,881>;;811>;;;8>;;8881>;;88;7%3**",
"0.9O2881>;;811>;;;8>;;;888>;88;87*:*0",
"0.9O@881>88855>;;;8>;;;855>;;;8;7**30",
"0.9O2881>;;8XXXXXXXooXXXoo>;;8;;=**30",
"059O2811>;88oo>;;88>;;;8XX>;;88;=**30",
"05.9>,11>888XX>;;88>;;;8XX>;;8;;%**30",
"05.9>,11>;88XX;;881>;;;8XX>;;;;7%3*30",
"00.9>,1>>;88XXoooooo<ooXXX>;;888*3*00",
"00.9#@1>;;88o6;888>;;;;855>;;888*3*00",
"00..#@1>;;885X;;888;;;8855>;;;87*3*00",
"00..O@1>;;;8oo;;;8>;;8;8<o>;;;8=*:*00",
"005.O@1>XX;8X55X5555555555>;;55=*:*00",
"005.O@1>XXXX1>;8;1oo88;881XXX88%*:*00",
"005.O415Xo<66>;;;1668888<<X;;88%3-*00",
"0005941>;;oo66;;;16688XXX1>;887*3-000",
"00059+1>;;;81XX;;1XX8XXX81>;;8=*3-000",
"000X.#&>;;;81>;X;8XX;XX881>;;87*3-000",
"0005. &>;;;81>;;5855X58881>;;8=*3-000",
"0005. @XooX55XXX<oXXXXXXXXX<oX<*:-000",
"000<. @+55;8>;;;1855;88811>;;8%3--000",
"000X.94+;;;8>;;;18558;8811>;;873--000",
"0000.94+;;;8>;181855;;8811>;;8*3-0000",
"0000594+;;;8>;;181XX5555555557*3-0000",
"0000594+;;;8>5555555;;8811>;;7*3-0000",
"00005. #;;55555511>;;;8811>;;7*3-0000",
"00005. @;8855;;11>;;;;881>;;;7*3-0000",
"0000X. #,;88>;;;1>;888881>;;773:-0000",
"00000.9O@881>;1;1>;;8888>;;;773:00000",
"00000.9O@,,1>;;;11;;8888>;;8=*3-00000",
"00000.9O42@1+;;;8>;;;881>177%73:00000",
"00000.99 #+@#22;,>;;88112777%**:00000",
"000000099O  O#>>@+;777==$777=70000000",
"00000000009 9OOO+#27====2770000000000",
"00000000000000O  O>;78800000000000000",
"00000000000000000#;700000000000000000"
};
