/* XPM */
static char *noname[] = {
/* width height ncolors chars_per_pixel */
"37 38 28 1",
/* colors */
"  c #D19849",
". c #946A2E",
"X c #72361A",
"o c #CF9239",
"O c #CA0D0D",
"+ c #E5A644",
"@ c #F3B255",
"# c #DB9F44",
"$ c #F8B046",
"% c #FFC35D",
"& c #FABB58",
"* c #FFCD60",
"= c #FEC05B",
"- c #FFFF86",
"; c #FEB140",
": c #FFF47C",
"> c #EAA940",
", c #FBB754",
"< c #5D391C",
"1 c #FEC264",
"2 c #F2AA41",
"3 c #FFE66E",
"4 c #E3AD59",
"5 c #803C19",
"6 c #FFB542",
"7 c #FEB958",
"8 c #B5843B",
"9 c None",
/* pixels */
"8888888 8oo   oo#>@+224+#  8ooo88 4+2",
" 8 o>2@&#22@&&#222@#22@@@&&#22@227***",
"8. @,,,1>;;,11>;;;,>;;,,,1>;,;,,;%3**",
"8. #,771>;;711>;;;7>;;7771>;;77;6%3**",
"9.8o2771>;;711>;;;7>;;;7OO>;77;76*:*9",
"9.8o@77OOOOOOOOOOOOO;;;7OO>;;;7;6**39",
"9.8o2771OO;71OO;;77>;;77OO>;;7;;=**39",
"958o2711>;771OO;;77>;;;7OO>;;77;=**39",
"95.8>,11>7777OO;;77>;;;7OO>;;7;;%**39",
"95.8>,11>OOOOOOOOOO>;;;7OO>;;O;6%3*39",
"99.8>,1>>;771OO;77>;;;;7OO>OO777*3*99",
"99.8#@1>;;771OO777>;;;;7OO>O;777*3*99",
"99..#@1>;;77OOO;777;OO77OOOO;;76*3*99",
"99..o@1>;;;71>;;;7>;;OO7OOO;;;7=*:*99",
"995.o@1OOOOOOOOOOOOO;7;OOOO;;7;=*:*99",
"995.o@1>OO;71OO7;1>;77;7OO>;;77%*:*99",
"995.o41>;;;71OO;;11;7777OO>;;77%3-*99",
"9995841>;;;71OO;;117OOOOOOOOOO6*3-999",
"99958+1>;OOOOOOOOOO;77;7OO>;;7=*3-999",
"999X.#&>;;;71OO;;7>;;7;7OO>;;76*3-999",
"9995. &>;;;71OO;17>77777OO>;;7=*3-999",
"9995. @>;;;7>>;;11>;77;771>;;;6*:-999",
"999<. @+;;;7OO;;17>;;77711O;;7%3--999",
"999X.84+;;;OO;;;17>;7;77OO>;;763--999",
"9999.84+;;OO>;1OO7>;;;7OO1>;;7*3-9999",
"9999584+;;OO>;;OO1>;;;7OO1>;;6*3-9999",
"9999584+;;OO>;;OO1>OOOOOOOOOO6*3-9999",
"99995. #;;OO>;;OO1>;;;7OO1>;;6*3-9999",
"99995. @;7OO>;;OO>;;;;7OO>;;;6*3-9999",
"9999X. #,;77>;;;1>;777771>;;663:-9999",
"99999.8o@771>;1;1>;;7777>;;;663:99999",
"99999.8o@,,1>;;;11;;7777>;;7=*3-99999",
"99999.8o42@1+;;;7>;;;771>166%63:99999",
"99999.88 #+@#22;,>;;77112666%**:99999",
"999999988o  o#>>@+;666==$666=69999999",
"99999999998 8ooo+#26====2669999999999",
"99999999999999o  o>;67799999999999999",
"99999999999999999#;699999999999999999"
};
