/* XPM */
static char *noname[] = {
/* width height ncolors chars_per_pixel */
"39 40 29 1",
/* colors */
"  c #D19849",
". c #946A2E",
"X c #72361A",
"o c #5F301B",
"O c #CF9239",
"+ c #E5A644",
"@ c #F3B255",
"# c #DB9F44",
"$ c #F8B046",
"% c #FFC35D",
"& c #FABB58",
"* c #FFCD60",
"= c #FEC05B",
"- c #FEB140",
"; c #FFF47C",
": c #EAA940",
"> c #FBB754",
", c #5D391C",
"< c #FEC264",
"1 c #F2AA41",
"2 c #FFE66E",
"3 c #E3AD59",
"4 c #803C19",
"5 c #562C1A",
"6 c #FFB542",
"7 c #FEB958",
"8 c #443115",
"9 c #B5843B",
"0 c None",
/* pixels */
"9999999 99OO  9OO#3#11@3+3 9OOOO99 9O1@",
" 9 O11@&#11@&&#111@#11@@@&&#11@11@&:*2*",
"9. @>>><:--><<:--->:-->>><:->->>-><$=*2",
"9. #>77<:--7<<:---7:--777<:--77--7<6**2",
"9. O177<:--7<<:---7:---777:-77-7-7<6*22",
"0.9O@77<:777<<:---7:---77<:---7--716*20",
"0.9O177<:447<<:--77:o-7777:--X--7716*20",
"0.9O17<<:ooo<<:--7XXX--77<:Xo,7-77162;0",
"0.9O17<<oXXXX::-XXXXXX-77X444XX-7716*20",
"0.9O1><<:-74X:XX77XX--XXXX4-----77$=*;0",
"0..9:><::-77XX--77oo---77XX--77777$=*;0",
"04.9:><:--77<5-77785---7444-4X7777$*2;0",
"04.9:><:--77<XX-77XX--74744-447-776*2;0",
"00.9+@<:---Xo:5--755-7557o,--o777<6*200",
"00.9#@<:-XXX<:4-7744-444744--7477<6*200",
"00..#@<:XXX7<:-5-<oo77-,7XX--7777<6*200",
"00..O@<:--,7<:-8-<5577777,X--7777<6*200",
"00..O@<:---7<:-5-<557oXXXXXXXXX77*6*200",
"00..O@<:--XX<:-X-<XX77XX7XX--7777*6*200",
"004.O@<:--XXXX4XXXXX-7-77XX--7-X7*=*200",
"004.O3<:--44<:--<7447777744--7X77*=2;00",
"004.93<:--X4::--<<XX77XXXXX,oX-7<*=2;00",
"000.9+<:--44:---<744-7744<:--477<**2000",
"000.9+&:--44444444447-77<<:-47-7<2*2000",
"00049#&:--44:-<7<744-447<<:44777<2*2000",
"0004.#&:--44:--<7<XX-447<<:4--77<2*2000",
"000X. &:--44:--7<<44--44<<44--77*2*2000",
"000X. @+-444444444XX--774<44--77*2*2000",
"000,. 3>-744:--<<:-o--77<oX---77*2*2000",
"0004.O3+7-77:---<:-77777<44---77*2*2000",
"0000.93+777<:-<-<:--7777:-----7=*=;0000",
"0000.93+777<:---<<--7777:--7777<2*20000",
"0000.93#>-7<:---7:---77<:<--7-7*2*20000",
"0000.9 O@@><:---7:--77<<:--67==*2**0000",
"0000.9 O#+@@+1--7:----77:666=6%*2=*0000",
"00000099 O 3O:11>+--777=166==6=**000000",
"0000000009O 9O#+@#1-6===$666=6000000000",
"0000000000009OO  O:16===166000000000000",
"0000000000000009 9O:-6=<000000000000000",
"000000000000000000:-6000000000000000000"
};
