/* XPM */
static char *noname[] = {
/* width height ncolors chars_per_pixel */
"21 21 29 1",
/* colors */
"  c #D19849",
". c #946A2E",
"X c #72361A",
"o c #5F301B",
"O c #CF9239",
"+ c #E5A644",
"@ c #F3B255",
"# c #DB9F44",
"$ c #FFC35D",
"% c #FABB58",
"& c #FFCD60",
"* c #FEC05B",
"= c #FFFF86",
"- c #FEB140",
"; c #FFF47C",
": c #EAA940",
"> c #FBB754",
", c #5D391C",
"< c #FEC264",
"1 c #F2AA41",
"2 c #FFE66E",
"3 c #E3AD59",
"4 c #803C19",
"5 c #562C1A",
"6 c #FFB542",
"7 c #FEB958",
"8 c #443115",
"9 c #B5843B",
"0 c None",
/* pixels */
"99.9999 O:17<<OOO99O#",
"993+11@%+11@%%+1117*&",
"99@7X77<:-o7<<5---*&&",
"O.3+444XX447<XXX--$&&",
"0, +X77X:-X7<X:--6&&&",
"0,9+o77X:7X7<4:--62&0",
"089#44444447<X:--*220",
"089#o7<X:-o7<o:-o*220",
"089#X7<o:7X77X:X-*220",
"089#444X4447<XX-7*;20",
"089#-7<::-77<X--o$&20",
"08.O-X<:-o77<5-57&&20",
"00,9oo,ooX47<XX-*2;00",
"00,914<:-4-7<o5-62200",
"008.14<:-X-7X:4-$2200",
"008.:><:---7<:-76=200",
"0084O@<:---7<:66&=000",
"000,. 3+---7<166&=000",
"0000..9O:1-*&666*0000",
"000000..9#17&66000000",
"00000000O:1*200000000"
};
