/* XPM */
static char *noname[] = {
/* width height ncolors chars_per_pixel */
"21 21 30 1",
/* colors */
"  c #D19849",
". c #946A2E",
"X c #72361A",
"o c #5F301B",
"O c #CF9239",
"+ c #E5A644",
"@ c #F3B255",
"# c #DB9F44",
"$ c #F8B046",
"% c #FFC35D",
"& c #FABB58",
"* c #FFCD60",
"= c #FEC05B",
"- c #FFFF86",
"; c #FEB140",
": c #FFF47C",
"> c #EAA940",
", c #FBB754",
"< c #5D391C",
"1 c #FEC264",
"2 c #F2AA41",
"3 c #FFE66E",
"4 c #E3AD59",
"5 c #803C19",
"6 c #562C1A",
"7 c #FFB542",
"8 c #FEB958",
"9 c #443115",
"0 c #B5843B",
"q c None",
/* pixels */
"qqqqqqqq0>2=3qqqqqqqq",
"qqqqqq.00#28**$qqqqqq",
"qqqq..0 O2;=**777qqqq",
"qqq<. 4&+;;8XX$7**qqq",
"qqq<0@,1>;;8X1>7=*:qq",
"qq95ooXXX8XX55555*:qq",
"qq9.5885>;58X1X;73:qq",
"qq<.ooXXo;o81ooo73:qq",
"qq<0X81o>8X88>>;73:qq",
"q9.O555X5;58XXXXX*-3q",
"q90#5815>;X8X>o;o%*3q",
"q90#XXXXo;o8o6666=*3q",
"q90#o81>;;585>X;X=33q",
"q90#55555;58oo666=*3q",
"q<0+;81>X;X81>;;8=*3q",
"q< X;X15X;X8Xoo6oo*3q",
"..o+X8X>X;<86>9;6133q",
".0@>;81>X;o866666633*",
"00&>;XXX;;X81>;;;1$*3",
"004+2@X+2X2@&+222@>*=",
"00000000O>281+#O 00#+"
};
