/* XPM */
static char *noname[] = {
/* width height ncolors chars_per_pixel */
"21 21 28 1",
/* colors */
"  c #D19849",
". c #946A2E",
"X c #CF9239",
"o c #CA0D0D",
"O c #E5A644",
"+ c #F3B255",
"@ c #DB9F44",
"# c #F8B046",
"$ c #FFC35D",
"% c #FABB58",
"& c #FFCD60",
"* c #FEC05B",
"= c #FFFF86",
"- c #FEB140",
"; c #FFF47C",
": c #EAA940",
"> c #FBB754",
", c #5D391C",
"< c #FEC264",
"1 c #F2AA41",
"2 c #FFE66E",
"3 c #E3AD59",
"4 c #803C19",
"5 c #FFB542",
"6 c #FEB958",
"7 c #443115",
"8 c #B5843B",
"9 c None",
/* pixels */
"999999998:1*299999999",
"999999.88@16&&#999999",
"9999..8 X1-*&&5559999",
"999,. 3ooooooo#5&&999",
"999,8+><:-o6<<:5*&;99",
"9974@>6<:6o6<<:-5&;99",
"997.:66ooooooo:-52;99",
"99,.16<<:-o6<<:-52;99",
"99,816<<:o6o6::-52;99",
"97.X-6<oo-66oo--6&=29",
"978@-6oo:-66<oo-6$&29",
"978@-6<:--66<:-66*&29",
"978@-6ooooooooo-6*229",
"978@-6<:--o6<:---*&29",
"9,8O-6<:--o6<:--6*&29",
"9, O-6<ooooooo-6-<&29",
"..3O-6<:--o6<:---<229",
".8+:-6<:--o6<:---<22&",
"88%:-6ooooooooo--<#&2",
"883O1+%O111+%O111+:&*",
"88888888X:16<O@X 88@O"
};
