/* XPM */
static char *noname[] = {
/* width height ncolors chars_per_pixel */
"21 21 29 1",
/* colors */
"  c #D19849",
". c #946A2E",
"X c #72361A",
"o c #5F301B",
"O c #CF9239",
"+ c #E5A644",
"@ c #F3B255",
"# c #DB9F44",
"$ c #FFC35D",
"% c #FABB58",
"& c #FFCD60",
"* c #FEC05B",
"= c #FFFF86",
"- c #FEB140",
"; c #FFF47C",
": c #EAA940",
"> c #FBB754",
", c #5D391C",
"< c #FEC264",
"1 c #F2AA41",
"2 c #FFE66E",
"3 c #E3AD59",
"4 c #803C19",
"5 c #562C1A",
"6 c #FFB542",
"7 c #FEB958",
"8 c #443115",
"9 c #B5843B",
"0 c None",
/* pixels */
"99.9999 O:17<<OOO99O#",
"993+1XX%+11@XXo1117*&",
"99@7X77o:--5<<:---*&&",
"O.3+477<:--X<<X---$&&",
"0, +X77XX--X<X:-X6&&&",
"0,9+o77<X77X4<:4-62&0",
"089#477<:--4<<X--*220",
"089#o7<<:-oo<o:-o*220",
"089#X7<<:X7XXX:X-*220",
"089#444X4-74<:X-7*;20",
"089#-7<4:-7X<X--7$&20",
"08.O-7X:--7oo5-77&&20",
"00,917,:--44<:X-X2;00",
"00,917<:-44X<:-562200",
"008.17<:-X-7X:4-$2200",
"008.:><:---7<o-76=200",
"0084O@<:---55:66&=000",
"000,. 3+---7<166&=000",
"0000..9O:1-*&666*0000",
"000000..9#17&66000000",
"00000000O:1*200000000"
};
