/* XPM */
static char *noname[] = {
/* width height ncolors chars_per_pixel */
"21 21 27 1",
/* colors */
"  c #D19849",
". c #946A2E",
"X c #CF9239",
"o c #CA0D0D",
"O c #E5A644",
"+ c #F3B255",
"@ c #DB9F44",
"# c #F8B046",
"$ c #FABB58",
"% c #FFCD60",
"& c #FEC05B",
"* c #FFFF86",
"= c #FEB140",
"- c #FFF47C",
"; c #EAA940",
": c #FBB754",
"> c #5D391C",
", c #FEC264",
"< c #F2AA41",
"1 c #FFE66E",
"2 c #E3AD59",
"3 c #803C19",
"4 c #FFB542",
"5 c #FEB958",
"6 c #443115",
"7 c #B5843B",
"8 c None",
/* pixels */
"888888887;<&188888888",
"888888.77@<5%%#888888",
"8888..7 X<=&%%4448888",
"888>. 2$O==5,,#4%%888",
"888>7+:,;==5,,;4&%-88",
"8863@:5,;555,,;=4%-88",
"886.;5oo;==5,,;=o1-88",
"88>.<oo,o=5ooooooo-88",
"88>7<o,,;o5o5;;=4o-88",
"86.Xo5,,;=5o,ooo5o*18",
"867o=oooo=5o,;==5o%18",
"867@=5o;==5o,ooo5o%18",
"867ooooooo5o,o=o5o118",
"867@=5o;===o,o=o=o%18",
"8>7o=5o;=o=o,ooo5o%18",
"8> Oo5o;o==o,;=5=o%18",
"..2Oo5o;=o=o,;===o118",
".7+;=5ooo==o,;===o11%",
"77$;oo,;===o,;o=oo#%1",
"772Oo+$O<<<+$O<oo+;%&",
"77777777X;<5,O@X 77@O"
};
