/* XPM */
static char *noname[] = {
/* width height ncolors chars_per_pixel */
"21 21 27 1",
/* colors */
"  c #D19849",
". c #946A2E",
"X c #CF9239",
"o c #CA0D0D",
"O c #E5A644",
"+ c #F3B255",
"@ c #DB9F44",
"# c #FFC35D",
"$ c #FABB58",
"% c #FFCD60",
"& c #FEC05B",
"* c #FFFF86",
"= c #FEB140",
"- c #FFF47C",
"; c #EAA940",
": c #FBB754",
"> c #5D391C",
", c #FEC264",
"< c #F2AA41",
"1 c #FFE66E",
"2 c #E3AD59",
"3 c #803C19",
"4 c #FFB542",
"5 c #FEB958",
"6 c #443115",
"7 c #B5843B",
"8 c None",
/* pixels */
"77.7777 X;<5,,XXX77X@",
"772O<<+oooooooO<<<5&%",
"77+5555,;=o5,,;===&%%",
"X.2O555,;=o5,,;===#%%",
"8> O=55,ooooo,;==4%%%",
"8>7O55o,;5o5,,o==41%8",
"867@=5oo;ooo,o;==&118",
"867@=5,,o=55o,;==&118",
"867@=5,,;ooo5;;==&118",
"867@=5,o;=o5,;o=5&-18",
"867@=5o;;=55,o==5#%18",
"86.X=ooooooooooo5%%18",
"88>7<5,;==55,;==&1-88",
"88>7<o,;==o5,;=o41188",
"886.<5o;ooooo;o=#1188",
"886.;:,o==o5,o=54*188",
"8863X+,;o==5o;44%*888",
"888>. ooooooooo4%*888",
"8888..7X;<=&o444&8888",
"888888..7@<5%44888888",
"88888888X;<&188888888"
};
