/* XPM */
static char *noname[] = {
/* width height ncolors chars_per_pixel */
"21 21 27 1",
/* colors */
"  c #D19849",
". c #946A2E",
"X c #CF9239",
"o c #CA0D0D",
"O c #E5A644",
"+ c #F3B255",
"@ c #DB9F44",
"# c #FFC35D",
"$ c #FABB58",
"% c #FFCD60",
"& c #FEC05B",
"* c #FFFF86",
"= c #FEB140",
"- c #FFF47C",
"; c #EAA940",
": c #FBB754",
"> c #5D391C",
", c #FEC264",
"< c #F2AA41",
"1 c #FFE66E",
"2 c #E3AD59",
"3 c #803C19",
"4 c #FFB542",
"5 c #FEB958",
"6 c #443115",
"7 c #B5843B",
"8 c None",
/* pixels */
"77.7777 X;<5,,XXX77X@",
"772O<<+$O<<+$$O<<<5&%",
"77+5555,;==5,,;===&%%",
"X.2O5o5,;==o,,;===#%%",
"8> O=ooooooo,,;o=4%%%",
"8>7O5o5,;55o,,o==41%8",
"867@=o5,;==o,oo==&118",
"867@=o,,;=5o,o;==&118",
"867@=o,,;55ooo;==&118",
"867@=oooooooo;==5&-18",
"867@=5,;;=55o;==5#%18",
"86.X=5,;==55o;=55%%18",
"88>7<5,;==5oo;==&1-88",
"88>7<ooooooooooo41188",
"886.<5o;===5,;==#1188",
"886.;:,;===5,;=54*188",
"8863X+,;===5,;44%*888",
"888>. 2O===5,<44%*888",
"8888..7X;<=&%444&8888",
"888888..7@<5%44888888",
"88888888X;<&188888888"
};
