/* XPM */
static char *noname[] = {
/* width height ncolors chars_per_pixel */
"21 21 27 1",
/* colors */
"  c #D19849",
". c #946A2E",
"X c #CF9239",
"o c #CA0D0D",
"O c #E5A644",
"+ c #F3B255",
"@ c #DB9F44",
"# c #FFC35D",
"$ c #FABB58",
"% c #FFCD60",
"& c #FEC05B",
"* c #FFFF86",
"= c #FEB140",
"- c #FFF47C",
"; c #EAA940",
": c #FBB754",
"> c #5D391C",
", c #FEC264",
"< c #F2AA41",
"1 c #FFE66E",
"2 c #E3AD59",
"3 c #803C19",
"4 c #FFB542",
"5 c #FEB958",
"6 c #443115",
"7 c #B5843B",
"8 c None",
/* pixels */
"77.7777 X;<5,,XXX77X@",
"772O<<+$O<<+$$O<<<5&%",
"77+oo5oo;=oo,,oo==&%%",
"X.2Oo55o;=o5,,o===#%%",
"8> O=55,;==oo,;=o4%%%",
"8>7Oooooo55o,,;=o41%8",
"867@o55,o==oooooo&118",
"867@=5,oo=5o,,;=o&118",
"867@ooo,o55oooooo&118",
"867@=o,,o=5o,;==o&-18",
"867@=5,;;=5oooooo#%18",
"86.Xooooo=55,;=55%%18",
"88>7o5,;o=o5,;=o&1-88",
"88>7<5,oo=ooooooo1188",
"886.ooo;o==o,;o=#1188",
"886.;o,;o==5,o=54*188",
"8863X+,;===5oo44%*888",
"888>. 2O===5,<44%*888",
"8888..7X;<=&%444&8888",
"888888..7@<5%44888888",
"88888888X;<&188888888"
};
