/* XPM */
static char *noname[] = {
/* width height ncolors chars_per_pixel */
"21 21 28 1",
/* colors */
"  c #D19849",
". c #946A2E",
"X c #CF9239",
"o c #CA0D0D",
"O c #E5A644",
"+ c #F3B255",
"@ c #DB9F44",
"# c #F8B046",
"$ c #FFC35D",
"% c #FABB58",
"& c #FFCD60",
"* c #FEC05B",
"= c #FFFF86",
"- c #FEB140",
"; c #FFF47C",
": c #EAA940",
"> c #FBB754",
", c #5D391C",
"< c #FEC264",
"1 c #F2AA41",
"2 c #FFE66E",
"3 c #E3AD59",
"4 c #803C19",
"5 c #FFB542",
"6 c #FEB958",
"7 c #443115",
"8 c #B5843B",
"9 c None",
/* pixels */
"999999998:1*299999999",
"999999.88@16&&#999999",
"9999..8 X1-*&&5559999",
"999,. 3%O--6<<#5&&999",
"999,8+>oo--6<<:5*&;99",
"9974@>6o:666o<:o5&;99",
"997.:6o<:o-6o<ooo2;99",
"99,.ooooooo6oo:-52;99",
"99,81o<<:6o6o::-o2;99",
"97.X-6<<:-66ooooo&=29",
"978@oooooo66<:--6$&29",
"978@o6<:-o66o:-o6*&29",
"978@oooooo66o:ooo*229",
"978@o6<:-o-6oo---*&29",
"9,8Ooooooo-6o:--o*&29",
"9, Oo6<:-o-6ooooo<&29",
"..3Oo6<:oo-6<:---<229",
".8+:-6o:--o6<o--o<22&",
"88%:-oo:-oo6<oo-oo#&2",
"883O1+%O111+%O111+:&*",
"88888888X:16<O@X 88@O"
};
