/* XPM */
static char *noname[] = {
/* width height ncolors chars_per_pixel */
"19 19 29 1",
/* colors */
"  c #D19849",
". c #946A2E",
"X c #72361A",
"o c #5F301B",
"O c #CF9239",
"+ c #E5A644",
"@ c #F3B255",
"# c #DB9F44",
"$ c #F8B046",
"% c #FABB58",
"& c #FFCD60",
"* c #FEC05B",
"= c #FFFF86",
"- c #FEB140",
"; c #FFF47C",
": c #EAA940",
"> c #FBB754",
", c #5D391C",
"< c #FEC264",
"1 c #F2AA41",
"2 c #FFE66E",
"3 c #E3AD59",
"4 c #803C19",
"5 c #562C1A",
"6 c #FFB542",
"7 c #FEB958",
"8 c #443115",
"9 c #B5843B",
"0 c None",
/* pixels */
"0000000091*00000000",
"00000.999:67%<00000",
"000..9#3#-6*&&66000",
"008. 3@<:--7<&6&200",
"008.:>7<:--7<<$&200",
"008.@77<:777<<:6220",
"0089177<:4-7<<:6&=0",
"00,917X<:o77o<:6&=0",
"08.O-7X<:XXXXX:6&=0",
"089#-74<:477<:-62=0",
"089+-74::477<X-62=0",
"089+XXXXooooo55*2=0",
"089+-7<:-X774:-62=0",
"089+-44:-4-7oo-6&;0",
"0, +-4<:-X-X<446&;0",
"..3:X7<:--XX<:-76=&",
"99@:-7<:-o,7<:--6;;",
"99@+1@%XX11@%+11-22",
"999.99 9O16@3OO993O"
};
