/* XPM */
static char *noname[] = {
/* width height ncolors chars_per_pixel */
"19 19 27 1",
/* colors */
"  c #D19849",
". c #946A2E",
"X c #CF9239",
"o c #CA0D0D",
"O c #E5A644",
"+ c #F3B255",
"@ c #DB9F44",
"# c #F8B046",
"$ c #FABB58",
"% c #FFCD60",
"& c #FEC05B",
"* c #FFFF86",
"= c #FEB140",
"- c #FFF47C",
"; c #EAA940",
": c #FBB754",
"> c #5D391C",
", c #FEC264",
"< c #F2AA41",
"1 c #FFE66E",
"2 c #E3AD59",
"3 c #803C19",
"4 c #FFB542",
"5 c #FEB958",
"6 c #443115",
"7 c #B5843B",
"8 c None",
/* pixels */
"888888887<&88888888",
"88888.777;45$,88888",
"888..7@2@=4&%%44888",
"886. 2+,;==5,%4%188",
"886.;:5,;==5,,#%188",
"886.+o5,;555,,;4118",
"8867<oo,;==5,,;4%*8",
"88>7<5o,;=5oo,;4%*8",
"86.X=5,o;5ooo;;4%*8",
"867@=5,o;oo5,;=41*8",
"867O=5,oo=55,;=41*8",
"867O=5oo==55,;=&1*8",
"867O=5o;==55,;=41*8",
"867O=5o;===5,;=4%-8",
"8> O=5oo===5,;=4%-8",
"..2;=5,oooooo;=54*%",
"77+;=5,;=oooo;==4--",
"77+O<+$O<<<+$O<<=11",
"777.77 7X<4+2XX772X"
};
