/* XPM */
static char *Grey_whale_sea_B[] = {
/* width height ncolors chars_per_pixel */
"59 59 33 1",
/* colors */
"  c #000000",
". c #2038D2",
"X c #32519E",
"o c #3222D3",
"O c #19336E",
"+ c #214DCF",
"@ c #2423D5",
"# c #4225E2",
"$ c #122142",
"% c #1D1767",
"& c #3635C5",
"* c #554EB5",
"= c #3271DB",
"- c #4E6BBB",
"; c #5083D7",
": c #4022E2",
"> c #61E8AB",
", c #3F36E4",
"< c #10133E",
"1 c #2D54D8",
"2 c #253CE4",
"3 c #1C236D",
"4 c #87A8E6",
"5 c #5258BF",
"6 c #225ADF",
"7 c #5C6ECC",
"8 c #2272E2",
"9 c #303872",
"0 c #868DE4",
"q c #2263DE",
"w c #2269E1",
"e c #2F64D0",
"r c None",
/* pixels */
"rrrrrrrrrrrrrrrrrrrrrrrrrrrrrrrrrrrrrrrrrrrrrrrrrrrrrrrrrrr",
"rrrrrrrrrrrrrrrrrrrrrrrrrrrrrrrrrrrrrrrrrrrrrrrrrrrrrrrrrrr",
"rrrrrrrrrrrrrrrrrrrrrrrrrrrrrrrrrrrrrrrrrrrrrrrrrrrrrrrrrrr",
"rrrrrrrrrrrrrrrrrrrrrrrrrrrrrrrrrrrrrrrrrrrrrrrrrrrrrrrrrrr",
"rrrrrrrrrrrrrrrrrrrrrrrrrrrrrrrrrrrrrrrrrrrrrrrrrrrrrrrrrrr",
"rrrrrrrrrrrrrrrrrrrrrrrrrr$<<$<<$rrrrrrrrrrrrrrrrrrrrrrrrrr",
"rrrrrrrrrrrrrrrrrrrrrrr$$%OO%OO%%%$$rrrrrrrrrrrrrrrrrrrrrrr",
"rrrrrrrrrrrrrrrrrrrrr$%OO9XX*--X99O%%$rrrrrrrrrrrrrrrrrrrrr",
"rrrrrrrrrrrrrrrrrr$%O39XX57000007*XX9993%$rrrrrrrrrrrrrrrrr",
"rrrrrrrrrrrrrrrr$%O3XX5-7040400400;75XXX993$$rrrrrrrrrrrrrr",
"rrrrrrrrrrrrr$$O99XX-704044440444400077--XX9%$$rrrrrrrrrrrr",
"rrrrrrrrrr$<$399X-770000400440000044444007-X9O$rrrrrrrrrrrr",
"rrrrrrrrrr$$9X--70400000077;5577770444444407-9$<rrrrrrrrrrr",
"rrrrrrrrr$$9**7400400075-&&e&oe&11e7;0040040;XO$rrrrrrrrrrr",
"rrrrrrrrr$%X7004004;75&ee+1=..we+1e&e57000400*9<rrrrrrrrrrr",
"rrrrrrrrr$3*000407;*e+1o:#8=88:#q#81e.1-75;;;-9$rrrrrrrrrrr",
"rrrrrrrrr$3*700;-ee.e8w@:@w886:o62q#w6eeeee***3$rrrrrrrrrrr",
"rrrrrrrrr$OX57*&&o#+:#82228#:6@2qq8288#::8eoo&33rrrrrrrrrrr",
"rrrrrrrrrO9X+e@ooo262@8q2w82@w628##6#62@@6wo..3O<rrrrrrrrrr",
"rrrrrrrrrO9Xe+.22226@68:8:86668q8:@66w2228q22.XO$rrrrrrrrrr",
"rrrrrrrr$9X+#862226qq8w2628#88:8q2268qq268#86e&%$rrrrrrrrrr",
"rrrrrrrr$9Xe2w82268:#::w66826q2w#628#:#8:q2w8q&3$rrrrrrrrrr",
"rrrrrrrr$OXow#:868w:@@:q##8wwqw82w88@:#628q::8.OOrrrrrrrrrr",
"rrrrrrrr$OX+q@:ww:82222w@:w8::##8#:822@w8:6@@w+X3rrrrrrrrrr",
"rrrrrrrr<%&eq2266286226w22w6>>>>>>>>=2q8626268oXO$rrrrrrrrr",
"rrrrrrrr<%&+#6@68w#:66#866>>>>>>>>>>>;,##8268w.XO<rrrrrrrrr",
"rrrrrrrr<3&q2668:6@@w62w>>>>>---->>>>-5,#88:::q&O$rrrrrrrrr",
"rrrrrrr$$OX+68#w6q@26#8>>>>7*XX***>>99512q6:@@6XO$rrrrrrrrr",
"rrrrrrr<%9+8#w28866262>>>>*XXX-555*X9X-=q86@226X3<rrrrrrrrr",
"rrrrrrr<%Xe+286:::wq6>>>>X99-5;,1115-*5=##w266:+3%rrrrrrrrr",
"rrrrrrr<3Xe8q82@@:q:>>>>-99*;1=1221=;,,6:@w88w2+33rrrrrrrrr",
"rrrrrrr$3&888#w222q>>>>X99X5;=8822w#w,2q@288::8+X3$rrrrrrrr",
"rrrrrrr$OXq88286266>>>>99*5=#8#:ww82w22866:2@:wwXO$rrrrrrrr",
"rrrrrrr$%Xo::6##w8#>>>9$95,q26@@6#:>>1ww#626228:&%$rrrrrrrr",
"rrrrrrr$3Xo@@6@@w6>>>>$9-7,>>>>>>>>>,;,=2ww6688@&3$rrrrrrrr",
"rrrrrr<O9+o2@w226w>>>>$9-;>>>>>>>>>>--7=w:::8:8..3%rrrrrrrr",
"rrrrrr<OX+666w62#8>>>>$X5,#=7--->>>>X-;,6@@26286.X%rrrrrrrr",
"rrrrrr$%&e##::#62w>>>>$X5,,=;*-->>>$9*;1622@w68:6X3$rrrrrrr",
"rrrrrr$%&+@:@@@w8#>>>>>X512==7;>>>>$9*;=6666w8w2q&O<rrrrrrr",
"rrrrrr$%@q22222866>>>>>9-1q8==,>>>>$9-;#888##::6q&O<rrrrrrr",
"rrrrrr$OXq6226w##81>>>>>*;=##6>>>>>$9;=2www@:@@28+O$rrrrrrr",
"rrrrr$O9+:86288::8=;>>>>>-=2>>>>>>$$X5,6#:8@2228:eX3rrrrrrr",
"rrrrr$OX+.w#6:822w8=;>>>>>>>>>7>>><9-,,6@@862268@+&Orrrrrrr",
"rrrrr$9&eq8262866##=;;>>>>>>>->>>>$9-,2w226#26#86qXO<rrrrrr",
"rrrrr<O&+8#ww8##w@:6=,5X999XXX>>>$$X;12666w26w2w8oXO<rrrrrr",
"rrrrr$OXoq2w#w:@w2:28,,7-XXXX>>>>$9*;=68#8w6886:6.X%$rrrrrr",
"rrrrr$%X.868262@w2:2822=;77;>>>>9$9-=#8w@6#8#:668+X3$rrrrrr",
"rrrrr$3Xq:8#66@6w226666=,11,,77*99-;=26#6w26@@w8::&O$rrrrrr",
"rrrr$O9&+262w66w8w6q8w,2:22:,,5--*5,#ww26#66@2#6oo&O%rrrrrr",
"rrrr$%X+q6+68::::::oq222@6..211;;5,oo6:6w2qq66.6@.@X3$rrrrr",
"rrrr$3Xeooe&e&o&&&&&eee1+ee&+1e&e&++&e++&e&&&eee+++XO$rrrrr",
"rrrr$O&+&577;5777777;7;;;5;77;;5777777;;77555;55;ee&%<rrrrr",
"rrrr<OXe5704440000004444004040404404440044000000;;+&%<rrrrr",
"rrrr$OXe5;4000000000044044400040000044004400040075e&3<rrrrr",
"rrrr$3&oe;;555;7777575757;5;;;5755557557;55;;;75-1eXO$rrrrr",
"rrr<O3&o+ee&&&&&+&&+e+e+&e&e&e&&&&&&+&++e&&e&&+++eo&O%<rrrr",
"rrr<$3XXXX&XXXX&XXX&&X&XXXXXXX&XXXXXXXXXX&&X&&XX&X33O$<rrrr",
"rrr$$OO%%O33O3333O3%%O3OO%O%O3%3OO3O3%O3O%%3%%%O3O%%$<<rrrr",
"rrr<<$<<<<<$<<<<<<$<<$$<<<<<<<$$<$$<<<<<$<<<<<<$$$<<<<<rrrr"
};
