/* XPM */
static char *Humpback_whale_sea_B[] = {
/* width height ncolors chars_per_pixel */
"59 59 33 1",
/* colors */
"  c #000000",
". c #3923E4",
"X c #2722DF",
"o c #222ADA",
"O c #162D71",
"+ c #2274E3",
"@ c #6878DC",
"# c #4349BB",
"$ c #2246E3",
"% c #6D65DA",
"& c #226BDF",
"* c #2263DF",
"= c #1946A1",
"- c #425EBC",
"; c #2A58CC",
": c #61E8AB",
"> c #71A2E6",
", c #1A37A1",
"< c #4323E4",
"1 c #3D22D7",
"2 c #215DDC",
"3 c #29178B",
"4 c #16246E",
"5 c #2965D6",
"6 c #2256DC",
"7 c #3677D8",
"8 c #3F3AA9",
"9 c #6990DF",
"0 c #2B39CD",
"q c #0D124C",
"w c #284BD0",
"e c #3B24AE",
"r c None",
/* pixels */
"rrrrrrrrrrrrrrrrrrrrrrrrrrrrrrrrrrrrrrrrrrrrrrrrrrrrrrrrrrr",
"rrrrrrrrrrrrrrrrrrrrrrrrrrrrrrrrrrrrrrrrrrrrrrrrrrrrrrrrrrr",
"rrrrrrrrrrrrrrrrrrrrrrrrrrrrrrrrrrrrrrrrrrrrrrrrrrrrrrrrrrr",
"rrrrrrrrrrrrrrrrrrrrrrrrrrrrrrrrrrrrrrrrrrrrrrrrrrrrrrrrrrr",
"rrrrrrrrrrrrrrrrrrrrrrrrrrrrrrrrrrrrrrrrrrrrrrrrrrrrrrrrrrr",
"rrrrrrrrrrrrrrrrrrrrrrrrrrrrrrrrrrrrrrrrrrrrrrrrrrrrrrrrrrr",
"rrrrrrrrrrrrrrrrrrrrrrrrrrrrrrrrrrrrrrrrrrrrrrrrrrrrrrrrrrr",
"rrrrrrrrrrrrrrrrrrrrrrrrrrrrrrrrrrrrrrrrrrrrrrrrrrrrrrrrrrr",
"rrrrrrrrrrrrrrrrrrrrrrrrrrrrrrrrrrrrrrrrrrrrrrrrrrrrrrrrrrr",
"rrrrrrrrrrrrrrrrrrrrrrrrrrr3O44O4Orrrrrrrrrrrrrrrrrrrrrrrrr",
"rrrrrrrrrrrrrrrrrrrrrrrr4O44444OOO43rrrrrrrrrrrrrrrrrrrrrrr",
"rrrrrrrrrrrrrrrrrrrrrrr4O44O=88883O4OOrrrrrrrrrrrrrrrrrrrrr",
"rrrrrrrrrrrrrrrrrrrr3444O38-%%@%%#==OOO4OOrrrrrrrrrrrrrrrrr",
"rrrrrrrrrrrrrrrr34O44O,,--@9@@>@9@@#-e3O44O3rrrrrrrrrrrrrrr",
"rrrrrrrrrrrrrrrOqqOO,8#-999>99>>9>>@@##-8OO444rrrrrrrrrrrrr",
"rrrrrrrrrrrrr44O4,-8-@9%%%>>9>%%9%>>9@@9@#-OO4Orrrrrrrrrrrr",
"rrrrrrrrrrrr4q4O--9@9>>%%%@777##7-7%99>>>9@83q4rrrrrrrrrrrr",
"rrrrrrrrrrrr4q38%%@9%%9--0711;o0555-@9%%%>9%844rrrrrrrrrrrr",
"rrrrrrrrrrrr4O8%%%@9@%75w55oo*6$+11;15-%%99%8O4rrrrrrrrrrrr",
"rrrrrrrrrrrrOO8%@@%7#551&.+6$$+*+.X6w50w#7@-8OOrrrrrrrrrrrr",
"rrrrrrrrrrrr4O=#-w5555*$*$&<++.+*$$6+25w5515==3rrrrrrrrrrrr",
"rrrrrrrrrrrrOO=w0w511..&**+o$*o*<6$+<<<&1205;=43rrrrrrrrrrr",
"rrrrrrrrrrrrO3e56+&.XX.*<<+*&**+$&++X..6$&211=44rrrrrrrrrrr",
"rrrrrrrrrrrOO31*&.+o$$o*X<*+<.<<+<.+$$X*&<$Xo=OOrrrrrrrrrrr",
"rrrrrrrrrrrOO,o66$+2o$*&oo&2oX..*XX+::::2$6o6;3Orrrrrrrrrrr",
"rrrrrrrrrrrO3,o6+&<<6$<+66&+o$$X&$$::::115$2+;,Orrrrrrrrrrr",
"rrrrrrrrrrrOO=6+.6X::::::::+2$$*&&::::eee;5..1=3Orrrrrrrrrr",
"rrrrrrrrrrrO,;1*$*X$:::::::;1**<<<::::eee;w.Xo=4Orrrrrrrrrr",
"rrrrrrrrrrr=3;o++66o600::::#0;2...:::88ew5$X$0=O4rrrrrrrrrr",
"rrrrrrrrrr=O,56.<<&*6;;:::88#16X$::::ee#1<*$$6eO4rrrrrrrrrr",
"rrrrrrrrrrOO=&$XX.*.+11:::8e#0*$$::::ee01X&++2,O4rrrrrrrrrr",
"rrrrrrrrrrOO=1&$$o*$6X::::8e;5&+$:::8ee;X$++<1;,Orrrrrrrrrr",
"rrrrrrrrrrO=;0+*$*2**o::::e81&<<::::8ee566<$XX;=Orrrrrrrrrr",
"rrrrrrrrrr33e6<<&+<.&6::::e806XX::::88w5<*$*$$5e33rrrrrrrrr",
"rrrrrrrrrr33o6XX&6XX*<::::e8;6X$::::::15$&&*6&5344rrrrrrrrr",
"rrrrrrrrrr3,o*o$*&$:::::::::::::::::::e;2.<.+.&,44rrrrrrrrr",
"rrrrrrrrr,O=6&2$<+:::::::::::::::::::88ewXXo2o&=OOrrrrrrrrr",
"rrrrrrrrrO3e1.<6$::11e:::ee88e-::::eee80wo$X**+e=Orrrrrrrrr",
"rrrrrrrrrO3eXXX*&.6oe::::ee88e#::::eee#;w6$**+*0=3Orrrrrrrr",
"rrrrrrrrrO3,$$$+6$5o0::::e8#;w1::::ee8;1+++<<<.;=4Orrrrrrrr",
"rrrrrrrrr=,o$$*<<+66w::::8#11$X::::8e;5o&**X.XXw=OOrrrrrrrr",
"rrrrrrrrr3=wo++..&+++::::880o2o::::88116<.&X$$$5eOOrrrrrrrr",
"rrrrrrrrO4=12.+oo&+++::::8#0$*$::::881X$XX+*$o*&,,3rrrrrrrr",
"rrrrrrrrOO=0$$+26<<++:::8ee;&&*:::::81o*o$6<$2<&w=Orrrrrrrr",
"rrrrrrrrOOe5*+<<*X.6::::8eew*.*<:::::::62$*o6&$*53OOrrrrrrr",
"rrrrrrrr3O,2<*.X&o.$::::8ee2$$$.1:::::051+**++2.;,O4rrrrrrr",
"rrrrrrrrO==&$*oX&$.$::::88w*&**oo;e88e##o6<+<.*$5=O4rrrrrrr",
"rrrrrrrrO3;1*6X6&$o6:::8e80<<$$$$5;##8#ew*$$XX&+1e3Orrrrrrr",
"rrrrrrr3O,w$***&+*6*&;e8e80.XXX&+.111;;06<*2X$<6Xe3Orrrrrrr",
"rrrrrrrOO=w2+.<<<.<.*00eewo$$$$+*.XX.612&$**22o6o,344rrrrrr",
"rrrrrrrO4e&<*XX.X...26;w026o$$*<6.$$X2$$<*<.<+*2$0,4Orrrrrr",
"rrrrrrrO4,w$&o$$$o$0&6&&&1&6o+&X6$$$66&2$6XX1211&;=44rrrrrr",
"rrrrrrrO4,;5;;w000005555w051;15055;577115;00o;11;;,44rrrrrr",
"rrrrrrrOO=7##%7--#--777#777-7-77%#%%77##777-77-#-#=44rrrrrr",
"rrrrrrr4=-9%%@99@@@@9%@@99%999%%%%%%9%%@9%%9>9@%@@-O4rrrrrr",
"rrrrrr44=-9@@@@@9@@@9@99%9@9%9%@%@@%9%@99%%9%%@@@@83O3rrrrr",
"rrrrrr4qO=8-8--8-##88-8-#---8-88-88--#-8-88-88--8-34q4rrrrr",
"rrrrrrOqq444O4444O44444OO4O4O444O44O44O4O444444O44qqq4rrrrr",
"rrrrrr4qqqqqqqqqqqqqqqqqqqqqqqqqqqqqqqqqqqqqqqqqqqqqqqrrrrr"
};
