/* XPM */
static char *noname[] = {
/* width height ncolors chars_per_pixel */
"59 59 33 1",
/* colors */
"  c #000000",
". c #3923E4",
"X c #2722DF",
"o c #222ADA",
"O c #162D71",
"+ c #2274E3",
"@ c #6878DC",
"# c #4349BB",
"$ c #2246E3",
"% c #6D65DA",
"& c #226BDF",
"* c #2263DF",
"= c #1946A1",
"- c #425EBC",
"; c #2A58CC",
": c #61E8AB",
"> c #71A2E6",
", c #1A37A1",
"< c #4323E4",
"1 c #3D22D7",
"2 c #215DDC",
"3 c #29178B",
"4 c #16246E",
"5 c #2965D6",
"6 c #2256DC",
"7 c #3677D8",
"8 c #3F3AA9",
"9 c #6990DF",
"0 c #2B39CD",
"q c #0D124C",
"w c #284BD0",
"e c #3B24AE",
"r c None",
/* pixels */
"rrrrrqqqqqqqqqqqqqqqqqqqqqqqqqqqqqqqqqqqqqqqqqqqqqqq4rrrrrr",
"rrrrr4qqq44O444444O4O44O44O444O4O4OO44444O4444O444qqOrrrrrr",
"rrrrr4q43-8--88-88-8-#--88-88-8---#-8-88##-8--8-8=Oq4rrrrrr",
"rrrrr3O38@@@@%%9%%99@%9%@@%@%9%9@9%99@9@@@9@@@@@9-=44rrrrrr",
"rrrrrr4O-@@%@9>9%%9@%%9%%%%%%999%99@@%9@@@@99@%%9-=4rrrrrrr",
"rrrrrr44=#-#-77-777##77%%#%77-7-777#777--#--7%##7=OOrrrrrrr",
"rrrrrr44,;;11;o00;511775;55051;150w555500000w;;5;,4Orrrrrrr",
"rrrrrr44=;&1121XX6$2&66$$$6X&+o6&1&&&6&0$o$$$o&$w,4Orrrrrrr",
"rrrrrrO4,0$2*+<.<*<$$2X$$.6<*$$o620w;62...X.XX*<&e4Orrrrrrr",
"rrrrrr443,o6o22**$&216.XX.*+$$$$owee00*.<.<<<.+2w=OOrrrrrrr",
"rrrrrrrO3eX6<$X2*<60;;111.+&XXX.08e8e;&*6*+&***$w,O3rrrrrrr",
"rrrrrrrO3e1+&XX$$*we#8##;5$$$$<<08e8:::6o$&6X6*1;3Orrrrrrrr",
"rrrrrrr4O=5$*.<+<6o##e88e;oo**&*w88::::$.$&Xo*$&==Orrrrrrrr",
"rrrrrrr4O,;.2++**+150:::::1.$$$2ee8::::$.o&X.*<2,O3rrrrrrrr",
"rrrrrrrOO35*$&6o*$26:::::::<*.*wee8::::6.X*<<+*5eOOrrrrrrrr",
"rrrrrrrrO=w&<2$<6$o*o18:::::*&&;ee8:::++<<62+$$0=OOrrrrrrrr",
"rrrrrrrr3,,&*o$*+XX$X188::::$*$0#8::::+++&oo+.21=4Orrrrrrrr",
"rrrrrrrrOOe5$$$X&.<61188::::o2o088::::+++&..++ow=3rrrrrrrrr",
"rrrrrrrrOO=wXX.X**&o5;e8::::X$11#8::::w66+<<*$$o,=rrrrrrrrr",
"rrrrrrrrO4=;.<<<+++1;8ee::::1w;#8e::::0o5$6+$$$,3Orrrrrrrrr",
"rrrrrrrrO3=0*+**$6w;#eee::::#e88ee::::eo6.&*XXXe3Orrrrrrrrr",
"rrrrrrrrrO=e+**X$ow08eee::::-e88ee:::e11::$6<.1e3Orrrrrrrrr",
"rrrrrrrrrOO=&o2oXXwe88:::::::::::::::::::+<$2&6=O,rrrrrrrrr",
"rrrrrrrrr44,&.+.<.2;e:::::::::::::::::::$&*$o*o,3rrrrrrrrrr",
"rrrrrrrrr4435&6*&&$51::::::$X6;8e::::<*XX6&XX6o33rrrrrrrrrr",
"rrrrrrrrr33e5$$*$*<5w88::::XX608e::::6&.<+&<<6e33rrrrrrrrrr",
"rrrrrrrrrrO=;XX$<665ee8::::<<&18e::::o**2*$*+0;=Orrrrrrrrrr",
"rrrrrrrrrrO,;1<++$X;ee8:::$+&5;e8::::X6$*o$$&1=OOrrrrrrrrrr",
"rrrrrrrrrr4O,2++&X10ee::::$$*0#e8:::11+.*.XX$&=OOrrrrrrrrrr",
"rrrrrrrrrr4Oe6$$*<1#ee::::$X61#88:::;;6*&<<.65,O=rrrrrrrrrr",
"rrrrrrrrrr4O=0$X$5we88:::...2;0#::::006o66++o;3=rrrrrrrrrrr",
"rrrrrrrrrrO4=oX.w;eee::::<<<**1;:::::::$X*$*1;,Orrrrrrrrrrr",
"rrrrrrrrrrO3=1..5;eee::::&&*$$2+::::::::X6.+6=OOrrrrrrrrrrr",
"rrrrrrrrrrrO,;+2$511::::$$&X$$o+&66+<$6<<&+6o,3Orrrrrrrrrrr",
"rrrrrrrrrrrO3;6o6$2::::+XX*..Xo2&oo&*$o2+$66o,OOrrrrrrrrrrr",
"rrrrrrrrrrrOO=oX$<&*X$$+.<+<<.<+*<X*o$$o+.&*13OOrrrrrrrrrrr",
"rrrrrrrrrrr44=112&$6..X++&$+**&*+<<*.XX.&+65e3Orrrrrrrrrrrr",
"rrrrrrrrrrr34=;5021&<<<+$6<*o*$o+**&..115w0w=OOrrrrrrrrrrrr",
"rrrrrrrrrrrr3==5155w52+6$$*+.++<&$*$*5555w-#=O4rrrrrrrrrrrr",
"rrrrrrrrrrrrOO8-@7#w05w6X.+*+$$6+.&155#7%@@%8OOrrrrrrrrrrrr",
"rrrrrrrrrrrr4O8%99%%-51;11+$6*oo55w57%@9@%%%8O4rrrrrrrrrrrr",
"rrrrrrrrrrrr448%9>%%%9@-5550o;1170--9%%9@%%83q4rrrrrrrrrrrr",
"rrrrrrrrrrrr4q38@9>>>99%7-7##777@%%%>>9@9--O4q4rrrrrrrrrrrr",
"rrrrrrrrrrrrO4OO-#@9@@9>>%9%%>9>>%%%9@-8-,4O44rrrrrrrrrrrrr",
"rrrrrrrrrrrrr444OO8-##@@>>9>>99>999-#8,OOqqOrrrrrrrrrrrrrrr",
"rrrrrrrrrrrrrrr3O44O3e-#@@9@>@@9@--,,O44O43rrrrrrrrrrrrrrrr",
"rrrrrrrrrrrrrrrrrOO4OOO==#%%@%%-83O4443rrrrrrrrrrrrrrrrrrrr",
"rrrrrrrrrrrrrrrrrrrrrOO4O38888=O44O4rrrrrrrrrrrrrrrrrrrrrrr",
"rrrrrrrrrrrrrrrrrrrrrrr34OOO44444O4rrrrrrrrrrrrrrrrrrrrrrrr",
"rrrrrrrrrrrrrrrrrrrrrrrrrO4O44O3rrrrrrrrrrrrrrrrrrrrrrrrrrr",
"rrrrrrrrrrrrrrrrrrrrrrrrrrrrrrrrrrrrrrrrrrrrrrrrrrrrrrrrrrr",
"rrrrrrrrrrrrrrrrrrrrrrrrrrrrrrrrrrrrrrrrrrrrrrrrrrrrrrrrrrr",
"rrrrrrrrrrrrrrrrrrrrrrrrrrrrrrrrrrrrrrrrrrrrrrrrrrrrrrrrrrr",
"rrrrrrrrrrrrrrrrrrrrrrrrrrrrrrrrrrrrrrrrrrrrrrrrrrrrrrrrrrr",
"rrrrrrrrrrrrrrrrrrrrrrrrrrrrrrrrrrrrrrrrrrrrrrrrrrrrrrrrrrr",
"rrrrrrrrrrrrrrrrrrrrrrrrrrrrrrrrrrrrrrrrrrrrrrrrrrrrrrrrrrr",
"rrrrrrrrrrrrrrrrrrrrrrrrrrrrrrrrrrrrrrrrrrrrrrrrrrrrrrrrrrr",
"rrrrrrrrrrrrrrrrrrrrrrrrrrrrrrrrrrrrrrrrrrrrrrrrrrrrrrrrrrr",
"rrrrrrrrrrrrrrrrrrrrrrrrrrrrrrrrrrrrrrrrrrrrrrrrrrrrrrrrrrr"
};
