/* XPM */
static char * crane_xpm[] = {
"59 58 14 1",
" 	c None",
".	c #80FFFF",
"+	c #000000",
"@	c #030303",
"#	c #FFFFFF",
"$	c #E4A3C0",
"%	c #000080",
"&	c #E9ADC2",
"*	c #0080FF",
"=	c #FFFF00",
"-	c #FF8040",
";	c #C0C0C0",
">	c #808080",
",	c #FE9A81",
"...........................................................",
"...........................................................",
"...........................+@@@@...........................",
"........................+@@####@@@@........................",
".....................+@@#########+@@@@.....................",
".................+@@@###############+@@@@..................",
"..............+@@######################+@@@@...............",
"...........+@@#####################+######+@@@@............",
".........+@@########################+########+@............",
".........+###########################+########+@...........",
".........+######################$$$$##+#######+@...........",
".........+########%%###########&&$$$$#++######+@...........",
"........+###**####%%####**####&&&$$$$$++#######+@..........",
"........+###**####%%####**###&&&###$$+$+#######+@..........",
"........+#####**##%%##**####&&&####$$=$+#######+@..........",
"........+#####**##%%##**####&&#####$=+=$#######+@..........",
"........+#######**%%**######&&#####$$=$--######+@..........",
"........+#######**%%**######&&######$$$+-######+@..........",
"........+#######**%%**######;&&######$$=--######++.........",
".......+########**%%**#######;&#########=--#####++.........",
".......+######**##%%##**#####;&&#########=-#####++.........",
".......+######**##%%##**######;&################++.........",
".......+####**####%%####**####;;+###############+@.........",
".......+####**####%%####**#####;&###############+@.........",
".......+##########%%###########;;+###############+@........",
".......+########################;$;##############+@........",
"......+####################;;;;#;;;$#############+@........",
"......+##################;;;;;;;;&+;;############+@........",
"......+################;;;;;;;;+;;&;;############+@........",
"......+##############;;;;;;;;>;;+&;;$$###########+@........",
"......+#############;;;#;>;#>;#;;+;>;;############+@.......",
"......+############;;;;;>;;>;;>;;+>;$;############+@.......",
"......+###########;;;#;>;#>;#>;>&+;>;;############+@.......",
".....+###########;;;;;>;;>;;>;>;;+>$>;############+@.......",
".....+##########;;;#;>;#>;;>;;>;;+;>;#############+@.......",
".....+#########;;;;;>;;>;;>;;>;;+;>;>#############+@.......",
".....+########;;;;;>;#>;;>;>;;;+;>;>##############++.......",
".....+#######;>;;#;;;;;;>;>;;++;>;>;###############+@......",
".....+######;>;;;;;#;;;>;;;++;;>;>;################+@......",
".....+#####;>;;#;;>;;;>;;++>,,,;>;#################+@......",
"....+#####;>;;>>;>;;>;;++,,>>,,>###################+@......",
"....+#####>;;>>+>>>>+++##,,##,,####################+@......",
"....+#######>++>#########>>##>>####################+@......",
"....+####################>>##>>#####################+@.....",
"....+####################++##++#####################+@.....",
"....+#####################+###+#####################+@.....",
"....+#####################+###+#####################+@.....",
"...+######################+###+#####################+@.....",
"...+#####################++##+++####################+@.....",
"...+######################+####+++###################+@....",
"...+######################+######+++#################+@....",
"...+######################+########+++###############+@....",
"...+######################+#########+#+##############+@....",
"...+######################+##########################+@....",
"..+#######################+#+########################+@....",
"..+######################+++#+########################+@...",
"..+###################################################+@...",
"..+@@@@@@@@@@@@@@@@@@@++@++@@@@@@@@@@@@@@@@@@@@@@@@@@@@@..."};
