/* XPM */
static char * lquail_xpm[] = {
"59 58 16 1",
" 	c None",
".	c #80FFFF",
"+	c #030303",
"@	c #FFFFFF",
"#	c #000080",
"$	c #000000",
"%	c #0080FF",
"&	c #FF8040",
"*	c #808080",
"=	c #808040",
"-	c #C0C0C0",
";	c #804000",
">	c #FFFF00",
",	c #808000",
"'	c #FFFF80",
")	c #800000",
"...........................................................",
"...........................................................",
"............................+++++..........................",
".........................+++@@@+++++.......................",
"......................+++@@@@@@@@@+++++....................",
"..................++++@@@@@@@@@@@@@@@++++++................",
"...............+++@@@@@@@@@@@@@@@@@@@@@@++++++.............",
"............+++@@@@@@@@@@@@@@@@@@@@@@@@@@@@+++++...........",
"..........++@@@@@@##@@@@@@@@@@@@@@@@@@@@@@@@@@+++..........",
"..........+@@@@@@####@@@@@@@@@@@@@@@@@@@@@@@@@@++..........",
"..........+@@@@@######@@@@@@@@@@@@@@@@@@@@@@@@@++..........",
"..........+@@@@@@@##@@@@@@@@@@@@@@@@@@@@@@@@@@@++..........",
".........+@@@@@@@@##@@@@@@@@@@@@@@@@@@@@$$$@@@@@++.........",
".........+@@@@@@@@##@@@@@@@@@@@@@@@@@@@$$$$@@@@@++.........",
".........+@@@@@@@@##@@@@@@@@@@@@@@@@@@$$$$@@@@@@++.........",
".........+@@@@@@@@##@@@@@@@@@@@@@@@@@@$$@@@@@@@@++.........",
".........+@@@@@@@@##@@@@@@@@@@@@@@@@@@$@@@@@@@@@++.........",
".........+@@@@@@@@##@@@@@@@@@@@@@@@@@@$@@@@@@@@@++.........",
".........+@@@@@@%%@@##@@@@@@@@@@@@@&&&$$@@@@@@@@@++........",
"........+@@@@@@@%%@@##@@@@@@@@@@@&&&&&$@$@@@@@@@@++........",
"........+@@@@@%%@@@@@@##@@@@@@@@&&&&&$@$$$@@@@@@@++........",
"........+@@@@@%%@@@@@@##@@#@@@@&&&&&$@$$$$$@@@@@@++........",
"........+@@%%%@@@@@@@@@@###@@@@&&&*$@$$*$$$=@@@@@++........",
"........+@@%@%@@@@@@@@@@###@@@@-&**$@$*@*$===@@@@++........",
"........+@@%%%@@@@@@@@@####@@@*--**$@$$*$$====@@@@++.......",
"........+@@@@@@@@@@@@@@@@@@@@*--*-**$@$$$$$=@@@@@@++.......",
".......+@@@@@@@@@@@@@@@@@@@@---*----*$@$$$@@@@@@@@++.......",
".......+@@@@@@@@@@@@@@@@@@@--*----*-**$@$@@@@@@@@@++.......",
".......+@@@@@@@@@@@@@@@@@@--*---*--*--*$$@@@@@@@@@++.......",
".......+@@@@@@@@@@@@@@@@-*-*--*------****@@@@@@@@@++.......",
".......+@@@@@@@@@@@@@@@-*------*--*--*-*-*@@@@@@@@@++......",
".......+@@@@@@@@@@@@@@----**;;---*--*-***-*@@@@@@@@++......",
".......+@@@@@@@@@@@@@---;>;;>;;,-----*-****@@@@@@@@++......",
"......+@@@@@@@@@@@@@---@>;;>;>;*,---*-**-**@@@@@@@@++......",
"......+@@@@@@@@@@@@@--;>;;',;,*;--**-*--***@@@@@@@@++......",
"......+@@@@@@@@@@@@--@*;*';*);,;*---*-****@@@@@@@@@++......",
"......+@@@@@@@@@@@---*>*';=;*,;*-*-*-*-***@@@@@@@@@++......",
"......+@@@@@@@@@@@-*@;*';);;,;*;,-*-*-***@@@@@@@@@@@++.....",
"......+@@@@@@@@@@-*-;>;;=;;*)*;,@'>>>***@@@@@@@@@@@@++.....",
"......+@@@@@@@@@-*-;-;');;*;,,,>>>>@>'*@@@@@@@@@@@@@++.....",
".....+@@@@@@@@@-*-*;>;;=*;,,,@>>>@>>''@@@@@@@@@@@@@@++.....",
".....+@@@@@@@@----;*;');;,,@>>>>>>>''@@@@@@@@@@@@@@@++.....",
".....+@@@@@@@---*-*;*;=,,,>>>$$$$$''@@@@@@@@@@@@@@@@++.....",
".....+@@@@@@---$;*;$;$;,'>>>$$$$$''@@@@@@@@@@@@@@@@@@++....",
".....+@@@@@@--*;$;$;$;$>>>>'''''''@@@@@@@@@@@@@@@@@@@++....",
".....+@@@@@--*--;@;@;@@@@>*>'''''@@@@@@@@@@@@@@@@@@@@++....",
".....+@@@@--*--@@@@@@@@@@@&**@@&*@@@@@@@@@@@@@@@@@@@@++....",
"....+@@@@@-*-@@@@@@@@@@@@&**@@&**@@@@@@@@@@@@@@@@@@@@++....",
"....+@@@@---@@@@@@@@@@@@@**@@@**@@@@@@@@@@@@@@@@@@@@@++....",
"....+@@@--@@@@@@@@@@@@@@@$@@@@$@@@@@@@@@@@@@@@@@@@@@@@++...",
"....+@@@@@@@@@@@@@@@@@@@@@$@@@@$@@@@@@@@@@@@@@@@@@@@@@++...",
"....+@@@@@@@@@@@@@@@@@@@@@@$@@@@$@@@@@@@@@@@@@@@@@@@@@++...",
"....+@@@@@@@@@@@@@@@@@@@@@@@$@@@@$@@@@@@@@@@@@@@@@@@@@++...",
"....+@@@@@@@@@@@@@@@@@@@@@@@@$$$$@$$$@@@@@@@@@@@@@@@@@++...",
"...+@@@@@@@@@@@@@@@@@@@@@@@@$@@@@$@@@$@@@@@@@@@@@@@@@@++...",
"...+@@@@@@@@@@@@@@@@@@@@@@@@@@@@@@@@@@@@@@@@@@@@@@@@@@@++..",
"...+@@@@@@@@@@@@@@@@@@@@@@@@@@@@@@@@@@@@@@@@@@@@@@@@@@@++..",
"...+++++++++++++++++++$$+++++++++++++++++++++++++++++++++.."};
