/* XPM */
static char * phasant_xpm[] = {
"59 58 18 1",
" 	c None",
".	c #80FFFF",
"+	c #030303",
"@	c #FFFFFF",
"#	c #FF0080",
"$	c #804000",
"%	c #000000",
"&	c #FF0000",
"*	c #800080",
"=	c #FFFF00",
"-	c #808000",
";	c #8080FF",
">	c #808040",
",	c #FF8040",
"'	c #FFFF80",
")	c #00FF80",
"!	c #808080",
"~	c #800000",
"...........................................................",
"...........................................................",
"...........................................................",
"............................+++++..........................",
".........................+++@@@+++++.......................",
"......................+++@@@@@@@@@+++++....................",
"..................++++@@@@@@@@@@@@@@@++++++................",
"...............+++@@@@@@@@@@@@@@@@@@@@@@++++++.............",
"............+++@@@@@@@@@@@@@@@@@@@@@@@@@@@@+++++...........",
"..........++@@@@@@@@##@@@@@@@@@@@@@@@@@@@@@@@@+++..........",
"..........+@@@@@@@@####@@@@@@@@@@@@@@@@@@@@@@@@++..........",
"..........+@@@@@@@##@@##@@@@@@@@@@@@@@@$$$@@@@@++..........",
"..........+@@@@@@@##@@##@@@@@@@@@@@@@@$$$$$@@@@++..........",
".........+@@@@@@@@@####@@@@@@@@@@@@%@$$.&&&&@@@@++.........",
".........+@@@@@@@@@@##@@@@@@@@@@@@@@**.&&&=&&@@@++.........",
".........+@@@@@@@@@@##@@@@@@@@@@@@@@***&&=%=--@@++.........",
".........+@@@@@@@@@@##@@@@@@@@@@@@@@**;;&&=&---@++.........",
".........+@@@@@@@@@@##@@@@@@@@@@@@@**;;;;&&&&@@@++.........",
".........+@@@@@@@@@@##@@@@@@@@@@@@@***;;;;&&@@@@++.........",
".........+@@@@@@@@@@##@@@@@@@@@@@@@***;;;;&@@@@@@++........",
"........+@@@@@@@@@@@;;@@@@@@@@@@@@@****;;;@@@@@@@++........",
"........+@@@@@@@@@@@;;@@@@@@@@@@@@@****;;;@@@@@@@++........",
"........+@@@@@@@@@;;@@;;@@@@@@@@@@@*****;;@@@@@@@++........",
"........+@@@@@@@@@;;@@;;@@@@@@@@@@@*@@@@@%@@@@@@@++........",
"........+@@@@@@@;;@@@@@@;;@@@@@@@@@%@@@@@$@@@@@@@++........",
"........+@@@@@@@;;@@@@@@;;@@@@@@@@@%@@@@@>$@@@@@@@++.......",
"........+@@@@;;;@@@@@@@@@@;;;@@@@@@,,%,>>$$@@@@@@@++.......",
".......+@@@@@;@;@@@@@@@@@@;@;@@@@@,,,,,,,$>$@@@@@@++.......",
".......+@@@@@;;;@@@@@@@@@@;;;@@@@%,%,%,,>,$$@@@@@@++.......",
".......+@@@@@@@@@@@@@@@@@@@@@@@@@,,,,,,%,,%$@@@@@@++.......",
".......+@@@@@@@@@@@@@@@@@@@@@@@@,,%,%,,,,>$>$@@@@@++.......",
".......+@@@@@@@@@@@@@@@@@@@@@@@@%,,,,,,,,%,$>@@@@@@++......",
".......+@@@@@@@@@@@@@@@@@@@@@@@,,,,%@%,%,,%,$@@@@@@++......",
".......+@@@@@@@@@@@@@@@@@@@@@@,,,,,,%,,,,,>$>@@@@@@++......",
"......+@@@@@@@@@@@@@@@@@@@@@@,,,%@%,,,,,%,,>$@@@@@@++......",
"......+@@@@@@@@@@@@@@@@@@@@@@%@%,%,%@%=,,,,$>$@@@@@++......",
"......+@@@@@@@@@@@@@@@@@@@@@,,%,,,,,%,,=,,%>,>@@@@@++......",
"......+@@@@@@@@@@@@@@@@@@@@,,,,>%@%,,,,,=,,%>$@@@@@++......",
"......+@@@@@@@@@@@@@@@@@@@@,,%@%,%,>,,%,'%,,$>@@@@@@++.....",
"......+@@@@@@@@@@@@@@@@@@@,),,%,>,>,,%,%',,>,$@@@@@@++.....",
"......+@@@@@@@@@@@@@@@@@@%)')')>,-%,%,%>'%>%$>@@@@@@++.....",
".....+@@@@@@@@@@@@@@@@@@))')')=,>,>%,%%=,>%,>$@@@@@@++.....",
".....+@@@@@@@@@@@@@@@@@)%))')',%,%,%,%=,,,$>%@@@@@@@++.....",
".....+@@@@@@@@@@@@@@@)%,,%=,,,>,>,%,%',>%$,,@@@@@@@@++.....",
".....+@@@@@@@@@@@@@)%,,%,,,,,%!>%%,%',,,$,$@@@@@@@@@@++....",
".....+@@@@@@@@@@@%,,,%,,%,,,%!!%!,>',>%$,$@@@@@@@@@@@++....",
".....+@@@@@@@@@%,,%,,,,,,,,%!!%!%!'%,,$%$@@@@@@@@@@@@++....",
".....+@@@@@@@,,,%,,,,,,@@@%!!%!%!%!>%$,$@@@@@@@@@@@@@++....",
"....+@@@@@@@,%,,,,,@@@@@@@@!%!%!%~>>$$$@@@@@@@@@@@@@@++....",
"....+@@@@@@%,,%,@@@@@@@@@@!%!%!$$~$$@@@@@@@@@@@@@@@@@++....",
"....+@@@@%,,%,@@@@@@@@@@@@@!%$~$@@~$@@@@@@@@@@@@@@@@@@++...",
"....+@@@,,%@@@@@@@@@@@@@@@@@@@@%%@@%%@@@@@@@@@@@@@@@@@++...",
"....+@@%,@@@@@@@@@@@@@@@@@@@@@@@%%@@%%@@@@@@@@@@@@@@@@++...",
"....+@,@@@@@@@@@@@@@@@@@@@@@@@@@@%%@@%%@@@@@@@@@@@@@@@++...",
"....+@@@@@@@@@@@@@@@@@@@@@@@@@@@@@%%@@%%@@@@@@@@@@@@@@++...",
"...+@@@@@@@@@@@@@@@@@@@@@@@@@@@@@@@%%@@%%@@@@@@@@@@@@@++...",
"...+@@@@@@@@@@@@@@@@@@@@@@@@@@@@@@%%%%%@%%%@@@@@@@@@@@@++..",
"...+@@@@@@@@@@@@@@@@@@@@@@@@@@@@@@@@@@@@@@@@@@@@@@@@@@@++.."};
