/* XPM */
static char * rquail_xpm[] = {
"59 57 16 1",
" 	c None",
".	c #80FFFF",
"+	c #000000",
"@	c #030303",
"#	c #FFFFFF",
"$	c #000080",
"%	c #FF8040",
"&	c #0080FF",
"*	c #808040",
"=	c #808080",
"-	c #C0C0C0",
";	c #804000",
">	c #808000",
",	c #FFFF00",
"'	c #FFFF80",
")	c #800000",
"...........................................................",
"...........................................................",
"...........................+@@@++..........................",
"........................+@@@###@@@++.......................",
".....................+@@@#########@@@+++...................",
"..................+@@@###############++++++................",
"...............+@@@######################+++++.............",
".............@@@############################++++...........",
"............@##########################$$######++..........",
"...........@##########################$$$$######++.........",
"...........@#########################$$$$$$#####++.........",
"...........@###########################$$#######++.........",
"..........@#####+++####################$$########++........",
"..........@#####++++###################$$########++........",
"..........@######++++##################$$########++........",
"..........@########++##################$$########++........",
"..........@#########+##################$$########++........",
"..........@#########+##################$$########++........",
".........@#########++%%%#############$$##&&######++........",
".........@########+#+%%%%%###########$$##&&#######++.......",
".........@#######+++#+%%%%%########$$######&&#####++.......",
".........@######+++++#+%%%%%####$##$$######&&#####++.......",
".........@#####*+++=++#+=%%%####$$$##########&&&##++.......",
".........@####***+=#=+#+==%-####$$$##########&#&##++.......",
"........@####****++=++#+==--=###$$$$#########&&&##++.......",
"........@######*+++++#+==-=--=####################++.......",
"........@########+++#+=----=---####################++......",
"........@#########+#+==-=----=--###################++......",
"........@#########++=--=--=---=--##################++......",
"........@#########====------=--=-=-################++......",
".......@#########=-=-=--=--=------=-###############++......",
".......@########=-===-=--=---;;==----##############++......",
".......@########====-=----->;;,;;,;---#############++......",
".......@########==-==-=--->=;,;,;;,#---#############++.....",
".......@########===--=-==--;=>;>';;,;--#############++.....",
".......@#########====-=---=;>;)=;'=;=#--############++.....",
".......@#########===-=-=-=-=;>=;*;'=,=---###########++.....",
"......@###########===-=-=->;=;>;;);'=;#=-###########++.....",
"......@############===,,,'#>;=)=;;*;;,;-=-##########++.....",
"......@#############=',#,,,,>>>;=;;)';-;-=-#########++.....",
"......@##############'',,#,,,#>>>;=*;;,;=-=-#########++....",
"......@###############'',,,,,,,#>>;;)';=;----########++....",
"......@################''+++++,,,>>>*;=;=-=---#######++....",
".....@##################''+++++,,,'>;+;+;=;+---######++....",
".....@###################''''''',,,,+;+;+;+;=--######++....",
".....@####################''''',=,####;#;#;--=--#####++....",
".....@####################=%##==%###########--=--####++....",
".....@####################==%##==%############-=-#####++...",
".....@#####################==###==#############---####++...",
"....@#######################+####+###############--###++...",
"....@######################+####+#####################++...",
"....@#####################+####+######################++...",
"....@####################+####+#######################++...",
"....@#################+++#++++########################++...",
"....@################+###+####+########################++..",
"...@###################################################++..",
"...@###################################################++.."};
