/* XPM */
static char *Flying_Dragon_B_wood[] = {
/* width height ncolors chars_per_pixel */
"27 28 32 1",
/* colors */
"  c #000000",
". c #D19849",
"X c #946A2E",
"o c #72361A",
"O c #5F301B",
"+ c #FFFE89",
"@ c #CF9239",
"# c #E5A644",
"$ c #F3B255",
"% c #DB9F44",
"& c #F8B046",
"* c #FFC35D",
"= c #FABB58",
"- c #FFCD60",
"; c #FEC05B",
": c #FFFF86",
"> c #FEB140",
", c #FFF47C",
"< c #EAA940",
"1 c #FBB754",
"2 c #5D391C",
"3 c #FEC264",
"4 c #F2AA41",
"5 c #FFE66E",
"6 c #E3AD59",
"7 c #803C19",
"8 c #562C1A",
"9 c #FFB542",
"0 c #FEB958",
"q c #443115",
"w c #B5843B",
"e c None",
/* pixels */
"eeeeeeeeeeeww@%$*eeeeeeeeee",
"eeeeeeeeeww.@<4;-5eeeeeeeee",
"eeeeeewww@.6%>>9-5-49eeeeee",
"eeeeXXw@%6$=#>09;--&99;eeee",
"eeee7w@<$$33<>>0033&99--eee",
"eee2X@<41033<>>0033<99--,ee",
"eee2X@4>0033<>>0333<>9--,ee",
"eee2X%4>003<0>>0333<>0--,ee",
"eee2X#1003O<>080333<>9--,ee",
"eee2w<1>777oo>oooo7<>0--,ee",
"eee7w<10033<>>80333<>0*-,ee",
"ee2X@40>0o37>>77777<>>9;,:e",
"ee2X@$0>03o<>00033O<>0;95+e",
"ee2X%40>2888q088888<>>095+e",
"ee2X%>00033<>080333<>>0-5+e",
"ee2w<>0>ooooo>ooooo<>>095,e",
"eeow<10>o3<>70o0333<>>9-5+e",
"e2X@4>0>7777707777o<>>0-5+e",
"e2X@4>00o3<>o020333<>>9-5+e",
"e2X%4>00777oo0oo777<>>095:e",
"e2X%>>0073<>7>70033<>>>95:e",
"e2X<>>>0737>7070337<>00;-:5",
"eXw<>>>073<7>>07oo3<>>09-,5",
"2Xw4>>>033<>>000333<>>09-,5",
"2X@4>>>033<>0000333<>>09-,5",
"2w@400>033<>>000333<>>00-,5",
"7w@<4$4$==%444$====%44$$;5-",
"Xww@%%%%66@%%%%%666@%%%#$**"
};
