/* XPM */
static char *King_B_wood[] = {
/* width height ncolors chars_per_pixel */
"29 30 32 1",
/* colors */
"  c #000000",
". c #D19849",
"X c #946A2E",
"o c #72361A",
"O c #5F301B",
"+ c #FFFE89",
"@ c #CF9239",
"# c #E5A644",
"$ c #F3B255",
"% c #DB9F44",
"& c #F8B046",
"* c #FFC35D",
"= c #FABB58",
"- c #FFCD60",
"; c #FEC05B",
": c #FFFF86",
"> c #FEB140",
", c #FFF47C",
"< c #EAA940",
"1 c #FBB754",
"2 c #5D391C",
"3 c #FEC264",
"4 c #F2AA41",
"5 c #FFE66E",
"6 c #E3AD59",
"7 c #803C19",
"8 c #562C1A",
"9 c #FFB542",
"0 c #FEB958",
"q c #443115",
"w c #B5843B",
"e c None",
/* pixels */
"eeeeeeeeeeeeew@6>eeeeeeeeeeee",
"eeeeeeeeeeww.w%49;33eeeeeeeee",
"eeeeeeewww.66%49;;--99eeeeeee",
"eeeeeXw@.#6$=#>>0;--999-eeeee",
"eeeeXX@%<$$33<>>>033&9;5-eeee",
"eeeeXX%4>0033<>0>033<99-5eeee",
"eee2Xw<>>0033<>>0033<99--,eee",
"eee2X@4>>0033<>>0033<>9--,eee",
"eee2X%4>>0033<>>0333<>>*-5:ee",
"eee2X%>>>003<0>>0332<>0;95+ee",
"eee2w<10OOOO8888qq88O>>095+ee",
"eeeow<>0>033<oo>0333<>0095+ee",
"ee2X@4>00033<8800333<>0095:ee",
"ee2X@4>0>033<7o00333<>>>95:ee",
"ee2X%400>033<O800333<>009-::e",
"ee2X%>>0>033<qq>0338<>>09-,+e",
"ee2X%>>0OOO88888888OO>>00-,+e",
"ee2X%>>0>03<<oo>0333<>>09-5+e",
"ee2X<>00>03<>7o00o33<>>>0-,+e",
"eeXw<>>0>03<>77>0773<>>00-,+e",
"e2Xw4>>0003<>oo00333<>>>0-,:e",
"e2X@4>>0003<>oo00337<>>0>*5:e",
"e2w@4>>07777777777777>>>>;5-5",
"e2w@>>>>033<>>0>0333<>000;5-5",
"e2w@>>>>033<>>>00333<>>0>05-5",
"e2w@>>>>033<>>000333<>>0>0--5",
"e2w@>>>>033<>0000333<>>0>0--5",
"eXw%>00>033<>>000333<>>000--5",
"7X.@44$4$==%444$====%44$$$3;5",
"Xw.@%%%%%66@%%%%%666@%%%%#$&-"
};
