/* XPM */
static char *P_Gold_General_W_wood[] = {
/* width height ncolors chars_per_pixel */
"26 27 28 1",
/* colors */
"  c #000000",
". c #D19849",
"X c #946A2E",
"o c #72361A",
"O c #CF9239",
"+ c #CA0D0D",
"@ c #E5A644",
"# c #F3B255",
"$ c #DB9F44",
"% c #F8B046",
"& c #FFC35D",
"* c #FABB58",
"= c #FFCD60",
"- c #FEC05B",
"; c #FEB140",
": c #FFF47C",
"> c #EAA940",
", c #FBB754",
"< c #5D391C",
"1 c #FEC264",
"2 c #F2AA41",
"3 c #FFE66E",
"4 c #E3AD59",
"5 c #803C19",
"6 c #FFB542",
"7 c #FEB958",
"8 c #B5843B",
"9 c None",
/* pixels */
"X8.4O$$$$$$4O$$$$444O$$>&3",
"58$#$2222#**$2#2#***$22-3:",
"<X4*>;;77711>;;;7111>;;63:",
"<X.*>;;7;711>;;7711>>;663:",
"9584>;;77711>;;7711>;;6=3:",
"9<84@;;;7711>;;;711>;;763:",
"9<84@;;;7711>;7;711>;;6=3:",
"9<84@;;;+++++++++++>;;--::",
"9<8O;;;;7711>+;7711>;;&=:9",
"9<8O;;;;77++>+;++11>;6==:9",
"9<X$2;;;77+>7+;7+11>;7==:9",
"9<XO2777711>;+77111>;6==:9",
"9<X.2;7;71+++++++11>;-==:9",
"99o8>;77711>;+77111>;-=3:9",
"99<8>;7++11+++++11++;6=399",
"99<X$,7;++1>;7771++>6=3399",
"99<X$;7;7++>;7;7++1>663399",
"99<X$;7771++;77++11>663:99",
"99<X$27;71>>+++7111>663399",
"99<XO#7;71>;;+77111>66=:99",
"99<XO>,;71>;;7;7111>6=::99",
"99958$#,71>;;777111>6=3999",
"9995XO4#,1>;;777111%6=:999",
"9999XX.@#1@2;;77711%-=3999",
"99999X8O44O>276-111%6=9999",
"99999998..8O$2-7#4*2999999",
"999999999998O4,99999999999"
};
