/* XPM */
static char *Pawn_W_wood[] = {
/* width height ncolors chars_per_pixel */
"24 24 30 1",
/* colors */
"  c #000000",
". c #D19849",
"X c #946A2E",
"o c #72361A",
"O c #5F301B",
"+ c #CF9239",
"@ c #E5A644",
"# c #F3B255",
"$ c #DB9F44",
"% c #F8B046",
"& c #FFC35D",
"* c #FABB58",
"= c #FFCD60",
"- c #FEC05B",
"; c #FEB140",
": c #FFF47C",
"> c #EAA940",
", c #FBB754",
"< c #5D391C",
"1 c #FEC264",
"2 c #F2AA41",
"3 c #FFE66E",
"4 c #E3AD59",
"5 c #803C19",
"6 c #562C1A",
"7 c #FFB542",
"8 c #FEB958",
"9 c #443115",
"0 c #B5843B",
"q c None",
/* pixels */
"X0.+$$$$$$4+$$$$444+$>73",
"5X.+2222#**$2#2#***$273:",
"qX0$;;88811>;;;8111>77=:",
"q<0+;;8;811>;;8811>>7=3:",
"q<0+;;88811>oo8811>;7=:q",
"q<0+2;;88155;;;811>7733q",
"q<X+2;;88oo>;8;8O1>77=:q",
"q<X02;OO8O1O;;8o11>7733q",
"qqo0>;;oo11o;;oo11>7-:3q",
"qq<0>;;8511o;;8111>7=:qq",
"qq<X$;5ooooOOOOOO1>73:qq",
"qq<X@,8O11>6889111>7=:qq",
"qq<X$,;811>o;;o111>73:qq",
"qq<X$,85oOO6;86111273:qq",
"qq<X+#;8o1>5;8511127=3qq",
"qq<X.#;811>O888111%-::qq",
"qqq504;811>;8;8111%=3qqq",
"qqqo0@,811>;8881117=3qqq",
"qqq<X@281>>;;;81117=3qqq",
"qqq<X.2,1>;;88811=7=3qqq",
"qqq5X0$#*@;;87-===7==qqq",
"qqqqX0+.4+2;-&===1%qqqqq",
"qqqqqq00.0$28&&=qqqqqqqq",
"qqqqqqqqq0+$>8qqqqqqqqqq"
};
