/* XPM */
static char *Side_Mover_B_wood[] = {
/* width height ncolors chars_per_pixel */
"26 27 32 1",
/* colors */
"  c #000000",
". c #D19849",
"X c #946A2E",
"o c #72361A",
"O c #5F301B",
"+ c #FFFE89",
"@ c #CF9239",
"# c #E5A644",
"$ c #F3B255",
"% c #DB9F44",
"& c #F8B046",
"* c #FFC35D",
"= c #FABB58",
"- c #FFCD60",
"; c #FEC05B",
": c #FFFF86",
"> c #FEB140",
", c #FFF47C",
"< c #EAA940",
"1 c #FBB754",
"2 c #5D391C",
"3 c #FEC264",
"4 c #F2AA41",
"5 c #FFE66E",
"6 c #E3AD59",
"7 c #803C19",
"8 c #562C1A",
"9 c #FFB542",
"0 c #FEB958",
"q c #443115",
"w c #B5843B",
"e c None",
/* pixels */
"eeeeeeeeeeew@<1eeeeeeeeeee",
"eeeeeew....w%490==4eeeeeee",
"eeeeXw@%666%409;33&9;eeeee",
"eee2X@%$133#>>0033&9-5eeee",
"eeeoX@41033<>>003349;5-eee",
"eee7w<>0033<>>0333<9955eee",
"ee2X@4>003<0>>0333<>*-5,ee",
"ee2X%$0033<>000333<>9--,ee",
"ee2X%1>033<>>o0o33<>0--,ee",
"ee2X%100o3<>>80833<>0--,ee",
"ee2X%1>0o3<7o77777<>99-,ee",
"eeow61ooooO>0O0O33<>0--,ee",
"ee7w<1>083<qq88888<>9--,ee",
"e2X@4000O3<>000333<>>*5,ee",
"e2X@40>0o<<ooooooo<>>;;,,e",
"e2X%10>ooo>700o33o<>>9-5+e",
"e2X%>0o07<7777777o<>>0-5+e",
"e2w<>0O07<>o00O33o<>>9-5+e",
"eow<>7007<>oooo777<>>095+e",
"2X@4>0007<>>700073<>>995+e",
"2X@4>>037<>>7>0373<>00-5+e",
"2X%4>>033<>7>00337<>>095:e",
"2X%>>>033<>>000333<>>095:e",
"2X%>>>033<>0000333<>>09-:5",
"2X%10>033<>>000333<>>0;-,5",
"XX%<$4$==%444$====%44$$;5-",
"XX@%%%%66@%%%%%666@%%%#$*-"
};
