/* XPM */
static char *Tokin_B_wood[] = {
/* width height ncolors chars_per_pixel */
"24 24 29 1",
/* colors */
"  c #000000",
". c #D19849",
"X c #946A2E",
"o c #72361A",
"O c #CF9239",
"+ c #CA0D0D",
"@ c #E5A644",
"# c #F3B255",
"$ c #DB9F44",
"% c #F8B046",
"& c #FFC35D",
"* c #FABB58",
"= c #FFCD60",
"- c #FEC05B",
"; c #FFFF86",
": c #FEB140",
"> c #FFF47C",
", c #EAA940",
"< c #FBB754",
"1 c #5D391C",
"2 c #FEC264",
"3 c #F2AA41",
"4 c #FFE66E",
"5 c #E3AD59",
"6 c #803C19",
"7 c #FFB542",
"8 c #FEB958",
"9 c #B5843B",
"0 c None",
/* pixels */
"00000000009O$#8000000000",
"00000000999$38-223000000",
"00000999..O3:-===%7=0000",
"000XX9.$5$#::822=7-4>000",
"000oX.#*2@:888222%7=>000",
"00019$#22,:::8222374>000",
"000o9@<22,::88222,74>000",
"00069,<2+,::88222,7=4000",
"001X.382++:888222,7=>400",
"001X$3822+:8:8++2,774400",
"001X@<822,+88+++2,774>00",
"001X@:82,,+:++222,774400",
"0019@:82,:++88222,77=>00",
"00o95:82,++8:8222,774>00",
"00695<82,+:888222,77=>00",
"01XO#882,+:888222,:74400",
"01XO#882,++:88822,:7-4>0",
"01X$3822,:++++++2,:-=4>0",
"0o9@:822,:::++++2,:7==>0",
"069,:822,::888222,:7==>0",
"1XO3:822,:8888222,:7==>0",
"1X$#:822,::888222,::&4>0",
"o9O#3#**$333#****$338=4;",
"X9.$$$55O$$$$$555O$$$<=4"
};
