/* XPM */
static char *noname[] = {
/* width height ncolors chars_per_pixel */
"21 21 30 1",
/* colors */
"  c #D19849",
". c #946A2E",
"X c #72361A",
"o c #5F301B",
"O c #CF9239",
"+ c #E5A644",
"@ c #F3B255",
"# c #DB9F44",
"$ c #F8B046",
"% c #FFC35D",
"& c #FABB58",
"* c #FFCD60",
"= c #FEC05B",
"- c #FFFF86",
"; c #FEB140",
": c #FFF47C",
"> c #EAA940",
", c #FBB754",
"< c #5D391C",
"1 c #FEC264",
"2 c #F2AA41",
"3 c #FFE66E",
"4 c #E3AD59",
"5 c #803C19",
"6 c #562C1A",
"7 c #FFB542",
"8 c #FEB958",
"9 c #443115",
"0 c #B5843B",
"q c None",
/* pixels */
"qqqqqqqq0>2=3qqqqqqqq",
"qqqqqq.00#28**$qqqqqq",
"qqqq..0 O2;=**777qqqq",
"qqq<. 4&+;;811$7**qqq",
"qqq<0@,1>;;811>7=*:qq",
"qq95#,81>o8X11>;7*:qq",
"qq9.>8515;;511>;73:qq",
"qq<.28XX>ooooo>o73:qq",
"qq<028Xo>88X8>XX73:qq",
"q9.O;51X>;851X;;8*-3q",
"q90#5815>5XXXXooo%*3q",
"q90#;8XX;;88o>;88=*3q",
"q90#;o1o;;851>;;8=33q",
"q90#5815;;5Xoo666=*3q",
"q<0+;81X;;XX1>;;5=*3q",
"q< +;815;X;XXoo6o1*3q",
"..4+;815;;;61>;;6133q",
".0@>;XXX;;;o66666133*",
"00&>;8X>;;;X1>;;X1$*3",
"004+2@&+222@&+222@>*=",
"00000000O>281+#O 00#+"
};
