/* XPM */
static char *noname[] = {
/* width height ncolors chars_per_pixel */
"21 21 29 1",
/* colors */
"  c #D19849",
". c #946A2E",
"X c #72361A",
"o c #5F301B",
"O c #CF9239",
"+ c #E5A644",
"@ c #F3B255",
"# c #DB9F44",
"$ c #F8B046",
"% c #FABB58",
"& c #FFCD60",
"* c #FEC05B",
"= c #FFFF86",
"- c #FEB140",
"; c #FFF47C",
": c #EAA940",
"> c #FBB754",
", c #5D391C",
"< c #FEC264",
"1 c #F2AA41",
"2 c #FFE66E",
"3 c #E3AD59",
"4 c #803C19",
"5 c #562C1A",
"6 c #FFB542",
"7 c #FEB958",
"8 c #443115",
"9 c #B5843B",
"0 c None",
/* pixels */
"00000000O:1*200000000",
"00000.999#17&<+600000",
"000049#3#1-*&&$*&0000",
"000,. @<:4-7<<1X&&000",
"000,9XXXXXXXXXXXX&;00",
"0084#o7<:777<<:-6&;00",
"008.:47<:4-7<<X-62;00",
"00,.1o<Xooo7ooooo2;00",
"00,91X<<oXX77XXX62;00",
"08.O-4<X:477X:X-X&=20",
"089#-444:47XX:o-oo&20",
"089#-X<:--77<:-77*&20",
"089#-o<:oX444XX-7*220",
"089#-4<:---X<:---*&20",
"0,9+-4<XXXXXX44X7*&20",
"0, +-X<:---X<:-7-<&20",
"..3+-X<4Xo,55588-<220",
".9@:-X<:---o<:---<22&",
"99%:4X<:X--X<:---<$&2",
"993X1@%+1XXX%+111@:&*",
"999999 9O:47<+#O 99#+"
};
