/* XPM */
static char *noname[] = {
/* width height ncolors chars_per_pixel */
"21 21 29 1",
/* colors */
"  c #D19849",
". c #946A2E",
"X c #72361A",
"o c #5F301B",
"O c #CF9239",
"+ c #E5A644",
"@ c #F3B255",
"# c #DB9F44",
"$ c #F8B046",
"% c #FFC35D",
"& c #FABB58",
"* c #FFCD60",
"= c #FEC05B",
"- c #FEB140",
"; c #FFF47C",
": c #EAA940",
"> c #FBB754",
", c #5D391C",
"< c #FEC264",
"1 c #F2AA41",
"2 c #FFE66E",
"3 c #E3AD59",
"4 c #803C19",
"5 c #562C1A",
"6 c #FFB542",
"7 c #FEB958",
"8 c #443115",
"9 c #B5843B",
"0 c None",
/* pixels */
"0000000000O>200000000",
"000000.999O@*<+-00000",
"0000..93#::7**$66=000",
"000,. 3&:--7<<166*;00",
"000,9@XX:--7<X:66*;00",
"0084#>X<:7774<:-66220",
"008.:74<:--4XXXXX%220",
"008.ooXXoo7o<<:-o=220",
"008.17X<o77XXXXXX=220",
"008.174<4-74<:--X=;20",
"00,9174:4-7XXXooo==20",
"00,917X:o-7o<:-777622",
"08.O-7,:o-744XXXXX%*2",
"089#-74:44-X<:---7$*2",
"089#-4<:---XX44X444*2",
"089#-X<:--X7X:o7o<o*;",
"089#X7<:-o-5<5-8-55*;",
"0,9X-7<:---7<:--55*2;",
"0, +-7<:---7<:XXX<$*;",
"#.3#1@&+111@&+111@:**",
"9.9999 9OOO@<+#O O9#@"
};
