/* XPM */
static char *noname[] = {
/* width height ncolors chars_per_pixel */
"21 21 30 1",
/* colors */
"  c #D19849",
". c #946A2E",
"X c #72361A",
"o c #5F301B",
"O c #CF9239",
"+ c #E5A644",
"@ c #F3B255",
"# c #DB9F44",
"$ c #F8B046",
"% c #FFC35D",
"& c #FABB58",
"* c #FFCD60",
"= c #FEC05B",
"- c #FFFF86",
"; c #FEB140",
": c #FFF47C",
"> c #EAA940",
", c #FBB754",
"< c #5D391C",
"1 c #FEC264",
"2 c #F2AA41",
"3 c #FFE66E",
"4 c #E3AD59",
"5 c #803C19",
"6 c #562C1A",
"7 c #FFB542",
"8 c #FEB958",
"9 c #443115",
"0 c #B5843B",
"q c None",
/* pixels */
"qqqqqqqq0>2=3qqqqqqqq",
"qqqqqq.00#28**$qqqqqq",
"qqqq..0 O2;=**777qqqq",
"qqq<. 4&+;;811$7**qqq",
"qqq<0@,1X;;8X1>7=*:qq",
"qq95#,8XXoXX55>;7*:qq",
"qq9.>855>;;511>;73:qq",
"qq<.2oX1>;o811>;73:qq",
"qq<0X8XooXXXXXX;73:qq",
"q9.O;851>;581>X;8*-3q",
"q90#;85555XXXXo;8%*3q",
"q90#;81>ooo81>;88=*3q",
"q90#;81o;X581XX;8=33q",
"q90#;85>55;Xo>;;;=*3q",
"q<0+551X;X;X1>;;8=*3q",
"q< +;85>XX;8X>;8;1*3q",
"..4+;X15;o;866;;;133q",
".0@>;8X>;o;8166;;133*",
"00&>;81XXX;81>XX;1$*3",
"004+2@&+X22@&+222@>*=",
"00000000O>281+#O 00#+"
};
