/* XPM */
static char *noname[] = {
/* width height ncolors chars_per_pixel */
"21 21 30 1",
/* colors */
"  c #D19849",
". c #946A2E",
"X c #72361A",
"o c #5F301B",
"O c #CF9239",
"+ c #E5A644",
"@ c #F3B255",
"# c #DB9F44",
"$ c #F8B046",
"% c #FFC35D",
"& c #FABB58",
"* c #FFCD60",
"= c #FEC05B",
"- c #FFFF86",
"; c #FEB140",
": c #FFF47C",
"> c #EAA940",
", c #FBB754",
"< c #5D391C",
"1 c #FEC264",
"2 c #F2AA41",
"3 c #FFE66E",
"4 c #E3AD59",
"5 c #803C19",
"6 c #562C1A",
"7 c #FFB542",
"8 c #FEB958",
"9 c #443115",
"0 c #B5843B",
"q c None",
/* pixels */
"qqqqqqqq0>2=3qqqqqqqq",
"qqqqqq.00#28**$qqqqqq",
"qqqq..0 O2;=**777qqqq",
"qqq<. 4XX;5XXXX7**qqq",
"qqq<0@XX>;;8X1>7=*:qq",
"qq95#o8X>8XX555;7*:qq",
"qq9.>885>;;8X1>;73:qq",
"qq<.28XX>;ooo1>;73:qq",
"qq<02X1o>8888>>;73:qq",
"q9.O;81X>555XXXX8*-3q",
"q90#;515>58X1X;o8%*3q",
"q90#;8X>ooooo6666=*3q",
"q90#;81>;;881>;;8=33q",
"q90#;815555Xoo;;;=*3q",
"q<0+;81X;;;815;;8=*3q",
"q< +;815XXXXXoo6;1*3q",
"..4+;815;;;81>;;;133q",
".0@>;81XXooo66;;;133*",
"00&>;8X>X;X81X;;;1$*3",
"004+2X&o2X2X&X222@>*=",
"00000000O>2855#O 00#+"
};
