/* XPM */
static char *noname[] = {
/* width height ncolors chars_per_pixel */
"21 21 28 1",
/* colors */
"  c #D19849",
". c #946A2E",
"X c #72361A",
"o c #5F301B",
"O c #CF9239",
"+ c #E5A644",
"@ c #F3B255",
"# c #DB9F44",
"$ c #FFC35D",
"% c #FABB58",
"& c #FFCD60",
"* c #FEC05B",
"= c #FFFF86",
"- c #FEB140",
"; c #FFF47C",
": c #EAA940",
"> c #FBB754",
", c #5D391C",
"< c #FEC264",
"1 c #F2AA41",
"2 c #FFE66E",
"3 c #E3AD59",
"4 c #803C19",
"5 c #FFB542",
"6 c #FEB958",
"7 c #443115",
"8 c #B5843B",
"9 c None",
/* pixels */
"88.8888 O:16<<OOO88O#",
"883+11@%+11@%%+1116*&",
"88@6666<:--6<<:---*&&",
"O.3+666X:--6<<:-X-$&&",
"9, +-6XXX--6<<:X-5&&&",
"9,8+666XXo66<<4--52&9",
"978#-66<:4-6<X:--*229",
"978#-6<<:oo6oo:--*229",
"978#-6<<:6X6X::--*229",
"978#-6<<:-44X:--6*;29",
"978#-44444XXXXooo$&29",
"97.O-6X:--6o<:-66&&29",
"99,816<:--44<:--*2;99",
"99,816<:--4X<:--52299",
"997.16<:-XXX<:--$2299",
"997.:><:---6<:-65=299",
"9974O@<:---6<:55&=999",
"999,. 3+---6<155&=999",
"9999..8O:1-*&555*9999",
"999999..8#16&55999999",
"99999999O:1*299999999"
};
