/* XPM */
static char *noname[] = {
/* width height ncolors chars_per_pixel */
"21 21 28 1",
/* colors */
"  c #D19849",
". c #946A2E",
"X c #72361A",
"o c #5F301B",
"O c #CF9239",
"+ c #E5A644",
"@ c #F3B255",
"# c #DB9F44",
"$ c #FFC35D",
"% c #FABB58",
"& c #FFCD60",
"* c #FEC05B",
"= c #FFFF86",
"- c #FEB140",
"; c #FFF47C",
": c #EAA940",
"> c #5D391C",
", c #FEC264",
"< c #F2AA41",
"1 c #FFE66E",
"2 c #E3AD59",
"3 c #803C19",
"4 c #562C1A",
"5 c #FFB542",
"6 c #FEB958",
"7 c #443115",
"8 c #B5843B",
"9 c None",
/* pixels */
"88.8888 o:<6,,OOO88O#",
"882+<<XX+X<X%X+o<<6*&",
"88@66Xo,o-o64,4--4*&&",
"O.2+633,:--6,,:-X-$&&",
"9> +-6XXXXXXXX:X-5&&&",
"9>8+666,:666,3:3-51&9",
"978#-3333333XX:X-*119",
"978#-o,X:-66,o:o-*119",
"978#-6,ooXXXXX:X-*119",
"978#-6,X:-66,X-X6*;19",
"978#-6,333XXXX-o6$&19",
"97.O-XXXooo6,:-46&&19",
"99>8<6,o--36,X-X*1;99",
"99>8<3333336,o-451199",
"997.<6,X--X6,33X$1199",
"997.<X33XXX6Xo-45=199",
"99>.#@,3-->64:57&=999",
"99>.8XXXXooo4444&=999",
"9999.88O:<-*&555*9999",
"999999..8#<6&55999999",
"99999999O:<*199999999"
};
