/* XPM */
static char *noname[] = {
/* width height ncolors chars_per_pixel */
"21 21 29 1",
/* colors */
"  c #D19849",
". c #946A2E",
"X c #72361A",
"o c #5F301B",
"O c #CF9239",
"+ c #E5A644",
"@ c #F3B255",
"# c #DB9F44",
"$ c #FFC35D",
"% c #FABB58",
"& c #FFCD60",
"* c #FEC05B",
"= c #FFFF86",
"- c #FEB140",
"; c #FFF47C",
": c #EAA940",
"> c #FBB754",
", c #5D391C",
"< c #FEC264",
"1 c #F2AA41",
"2 c #FFE66E",
"3 c #E3AD59",
"4 c #803C19",
"5 c #562C1A",
"6 c #FFB542",
"7 c #FEB958",
"8 c #443115",
"9 c #B5843B",
"0 c None",
/* pixels */
"99.9999 O:17<<OOO99O#",
"993+11@%+XX@%%+o117*&",
"99@X777<o-o5<55o-5*&&",
"O.3X477XX--X<<X-X-$&&",
"0, +-77<:-XX<XX-X6&&&",
"0,9o777<X77X<<4-462&0",
"089X44444-44<XX-X*220",
"089o-7<<o-77<<:-o*220",
"089XXXXoo7XXXXXXX*220",
"0894-7<<4-47X:X-X*;20",
"089444444-X7X:o-o$&20",
"0894-7<:o-ooo5555&&20",
"089ooo,oo-77<:--X2;00",
"0894-7<:4-4Xoo5552200",
"0894-7<:X--7<4--$2200",
"08.91><:---7<o-76=200",
"00,.O@<:---7<:66&=000",
"000X. 3+---7<166&=000",
"0000..9O:1-*&666*0000",
"000000..9#17&66000000",
"00000000O:1*200000000"
};
