/* XPM */
static char *noname[] = {
/* width height ncolors chars_per_pixel */
"21 19 30 1",
/* colors */
"  c #D19849",
". c #946A2E",
"X c #72361A",
"o c #5F301B",
"O c #FFFE89",
"+ c #CF9239",
"@ c #E5A644",
"# c #F3B255",
"$ c #DB9F44",
"% c #F8B046",
"& c #FFC35D",
"* c #FABB58",
"= c #FFCD60",
"- c #FEC05B",
"; c #FEB140",
": c #FFF47C",
"> c #EAA940",
", c #FBB754",
"< c #5D391C",
"1 c #FEC264",
"2 c #F2AA41",
"3 c #FFE66E",
"4 c #E3AD59",
"5 c #803C19",
"6 c #562C1A",
"7 c #FFB542",
"8 c #FEB958",
"9 c #443115",
"0 c #B5843B",
"q c None",
/* pixels */
"qqqqqqqq+>2-3qqqqqqqq",
"qqqq.0+00$28=1@7qqqqq",
"qqq<.$#4$2;-==%-=qqqq",
"qqq<0#,1>;;8112-=3qqq",
"qq95+,81>;X811>7=3qqq",
"qq9.#881>8X851>7=3qqq",
"qq<.28855555XX>7=:qqq",
"qq<02811>;o811>7=:qqq",
"q9.+;811>8X88X>773:qq",
"q90$;55X5555XXX;&3Oqq",
"q90$;8155;X81>;;-33qq",
"q90$;81X;;o816;8-33qq",
"q90$;8<oo;555XX;-3:qq",
"q<0@;51>;5581>;;733qq",
"q< @581>;;XXX>;;-==qq",
"..4@;81>;;;8Xoo87=oo&",
"00#>;81>;;;816;;;1363",
"004@2#*@222#*@222*16=",
"000.0  0+>281@$++ 0X@"
};
