/* XPM */
static char *noname[] = {
/* width height ncolors chars_per_pixel */
"21 21 31 1",
/* colors */
"  c #D19849",
". c #946A2E",
"X c #72361A",
"o c #5F301B",
"O c #FFFE89",
"+ c #CF9239",
"@ c #E5A644",
"# c #F3B255",
"$ c #DB9F44",
"% c #F8B046",
"& c #FFC35D",
"* c #FABB58",
"= c #FFCD60",
"- c #FEC05B",
"; c #FFFF86",
": c #FEB140",
"> c #FFF47C",
", c #EAA940",
"< c #FBB754",
"1 c #5D391C",
"2 c #FEC264",
"3 c #F2AA41",
"4 c #FFE66E",
"5 c #E3AD59",
"6 c #803C19",
"7 c #562C1A",
"8 c #FFB542",
"9 c #FEB958",
"0 c #443115",
"q c #B5843B",
"w c None",
/* pixels */
".q.qqqqqqq+  qqqqq$8w",
"1q5@33XXoXXXXXo33:44w",
"0q#9999o,:o922,::844w",
"1.5@9992,:6922,::844w",
"w1 @:99XXXXXXX,::844w",
"w1q@9992X9X922,::844w",
"w0q$:992,:6922,:8=44w",
"w0q$:9X2,:o922o:84>ww",
"w0q$:9Xo,9999XX:84>ww",
"w0q$:9226:99X,::&4Oww",
"w0.+666666XXXXo8=44ww",
"ww1q3X2X::9927:-4>www",
"ww1q392o::992X:84>www",
"ww0.3926:::92o:8=>www",
"ww0.,6XXXXXXX6:84>www",
"ww1.+56@:::92o8==;www",
"www6.q +Xo17778==wwww",
"wwwww.qq+,8-=888wwwww",
"wwwwwww..+:9*,wwwwwww",
"wwwwwwwwwq,wwwwwwwwww",
"wwwwwwwwwwwwwwwwwwwww"
};
