/* XPM */
static char *noname[] = {
/* width height ncolors chars_per_pixel */
"21 21 30 1",
/* colors */
"  c #D19849",
". c #946A2E",
"X c #72361A",
"o c #5F301B",
"O c #FFFE89",
"+ c #CF9239",
"@ c #E5A644",
"# c #F3B255",
"$ c #DB9F44",
"% c #F8B046",
"& c #FFC35D",
"* c #FABB58",
"= c #FFCD60",
"- c #FEC05B",
"; c #FFFF86",
": c #FEB140",
"> c #FFF47C",
", c #EAA940",
"< c #5D391C",
"1 c #FEC264",
"2 c #F2AA41",
"3 c #FFE66E",
"4 c #E3AD59",
"5 c #803C19",
"6 c #562C1A",
"7 c #FFB542",
"8 c #FEB958",
"9 c #443115",
"0 c #B5843B",
"q c None",
/* pixels */
"00.0000 0+28*4+++00+$",
"004@22X*@22#**@2228-=",
"+0#88Xoo,::811,:::-==",
" .4@8581X::811,X::-==",
"q< @:X81,:X811,X::&=3",
"q<0@8o81,8X811,5:7==3",
"q90$:5855555XX,X:-3=q",
"q90$:o11,:o811,o:-33q",
"q90$:X11oXXXX,,X:-33q",
"q9.+:511,:881,:X8->3q",
"qq<025155:88XX:o8-=3q",
"qq<02X1X::8816:68-=3q",
"qq9.2o<ooX555XXX8&33q",
"qq9.281,::581,::7==3q",
"qq9.,81,::X81,::-3=qq",
"qq95+X55XXXXXoo67>3qq",
"qqq<0#X,::<81,:77>Oqq",
"qqq<. 4@:::812777>;qq",
"qqqq.. +,,:-=%77:=qqq",
"qqqqqq0.0+,-1@:qqqqqq",
"qqqqqqqqq+2=qqqqqqqqq"
};
