/* XPM */
static char *noname[] = {
/* width height ncolors chars_per_pixel */
"21 21 29 1",
/* colors */
"  c #D19849",
". c #946A2E",
"X c #72361A",
"o c #5F301B",
"O c #CF9239",
"+ c #E5A644",
"@ c #F3B255",
"# c #DB9F44",
"$ c #FFC35D",
"% c #FABB58",
"& c #FFCD60",
"* c #FEC05B",
"= c #FFFF86",
"- c #FEB140",
"; c #FFF47C",
": c #EAA940",
"> c #FBB754",
", c #5D391C",
"< c #FEC264",
"1 c #F2AA41",
"2 c #FFE66E",
"3 c #E3AD59",
"4 c #803C19",
"5 c #562C1A",
"6 c #FFB542",
"7 c #FEB958",
"8 c #443115",
"9 c #B5843B",
"0 c None",
/* pixels */
"99.9999 O:17<<OOO99O#",
"993+X1@%+11@%%+1117*&",
"99@XX77<:--7<<:o--*&&",
"O.3+444XX44XXXXX--$&&",
"0, +-X7<:-X7<<:--6&&&",
"0,9+77X<:o77<4:--62&0",
"089#-77<4--7XX:--*220",
"089#-7<<o-77<oo--*220",
"089#-7<o:7777X:X-*220",
"089#-7<X:-77X:--X*;20",
"089#-744:-7X<:--7$&20",
"08.O-7<X--oo<:-77&&20",
"00,917<:--74<:--*2;00",
"00,91444444Xoo5562200",
"008.17X:--X7<:--$2200",
"008.:><:--X7<:-76=200",
"0084O@<:--,7<:66&=000",
"000,. 3+---7<166&=000",
"0000..9O:1-*&666*0000",
"000000..9#17&66000000",
"00000000O:1*200000000"
};
