/* XPM */
static char *noname[] = {
/* width height ncolors chars_per_pixel */
"21 21 29 1",
/* colors */
"  c #D19849",
". c #946A2E",
"X c #72361A",
"o c #5F301B",
"O c #CF9239",
"+ c #E5A644",
"@ c #F3B255",
"# c #DB9F44",
"$ c #F8B046",
"% c #FFC35D",
"& c #FABB58",
"* c #FFCD60",
"= c #FEC05B",
"- c #FEB140",
"; c #FFF47C",
": c #EAA940",
"> c #FBB754",
", c #5D391C",
"< c #FEC264",
"1 c #F2AA41",
"2 c #FFE66E",
"3 c #E3AD59",
"4 c #803C19",
"5 c #562C1A",
"6 c #FFB542",
"7 c #FEB958",
"8 c #443115",
"9 c #B5843B",
"0 c None",
/* pixels */
"0..99999999   99999O6",
"0,9#1XXX+1X@&&+1117=2",
"089@7X7o:o-75<5-5-5*2",
"08.O>47X:4-X<X:X-X=*2",
"00,9177X:X-7<<:---=*2",
"00,9@77X:o7744444-%*2",
"008.177<:--7X<X-X7**2",
"008.1oXXo-o7o<o-o=2*0",
"008.1X<<o7X7XXXXX=220",
"008.:4<<4-47X:X-X=;20",
"0084O4444-X7X:o-o%*20",
"000,OX<:o-o7o55558*20",
"00089o<:o-47<X--X2;00",
"000894444-47oo5562200",
"0008.3<:---7<:--%2200",
"0008. 3+---7<:6==;*00",
"0000..9O:1-7<166*;000",
"000000..9O:=*$6660000",
"00000000..O><+-000000",
"000000000093000000000",
"000000000000000000000"
};
