/* XPM */
static char *noname[] = {
/* width height ncolors chars_per_pixel */
"52 54 29 1",
/* colors */
"  c #D19849",
". c #946A2E",
"X c #72361A",
"o c #5F301B",
"O c #CF9239",
"+ c #E5A644",
"@ c #F3B255",
"# c #DB9F44",
"$ c #F8B046",
"% c #FFC35D",
"& c #FABB58",
"* c #FFCD60",
"= c #FEC05B",
"- c #FFFF86",
"; c #FEB140",
": c #FFF47C",
"> c #EAA940",
", c #FBB754",
"< c #5D391C",
"1 c #FEC264",
"2 c #F2AA41",
"3 c #FFE66E",
"4 c #E3AD59",
"5 c #803C19",
"6 c #562C1A",
"7 c #FFB542",
"8 c #FEB958",
"9 c #B5843B",
"0 c None",
/* pixels */
"0000000000000000000000000&12000000000000000000000000",
"0000000000000000000000  #4@>77=000000000000000000000",
"00000000000000000009OO #+@+7=7%%70000000000000000000",
"0000000000000000OO OO#+4@&>77=%77%*$0000000000000000",
"000000000000009OOO#O>>2@@,>7==7=7%*$77%0000000000000",
"00000000000   OO#>4#222,,1>;77877=$777%%*00000000000",
"000000009OO 44O>>@@+;;,888>;;8;78=2777%%**7700000000",
"000000999O#+4@#22,,>;;;881>;;88;88>7==7=**77**000000",
"000000.99#4@@++;;88>;;;881>;;8;;88>;777=1*7=*3000000",
"000000.99>@@1>;;881>;;;881>;;;;;88>;;888117=**000000",
"000000.9O>@,1>;;88>;;;;881>;;88888>;;88811$=**000000",
"00000..9O>,81>;888>;;;;881>;;88888>;888811$7**300000",
"00000..9#2,81>;;888;;;8881>;;;8;88>;888811$7**:00000",
"00000.99#2;81>;;;8>;;8;881>;;;8881>;;;811127**:00000",
"00000.99+2;81>;;88>;;8;881>;;8;881>;;;811127*3:00000",
"00000.99>2;81>;8;1>;88;881>;;88881>;;;811127=*300000",
"00000.9O>2;81>;;;11;888881>;;88881>;;8811127=*300000",
"00000.9O>2;81>;;;11888;881>;88;881>;;8811127=*300000",
"00000.9O>;;81>;;;1>;88;881>;;88881>;;88111>7*3300000",
"0000..9O2;;81>;;;8>;;8;88XXXXXXXX1>;;88111>77*3:0000",
"0000.. O2;;81>;;18>888855555XXX555>;888111>77*3:0000",
"0000.9 O2;;8>>;;11>;8XXXXX>;;;<<XX>;8;8111>7733:0000",
"0000.9 O2;;8>;;;18>;555511>;;88X51>;;;8111>77*3:0000",
"0000.9 #2;;8>;;;18>5555811>;;8;811>;;8811>>77=330000",
"0000.9 #2;;8>;181855558811>;;88811>;;8811>;77*330000",
"0000.94#2;;8>;;185XX5;8811>;;;8811>;;;811>;7%=330000",
"0000.94#;;;8>;;85555;;8811>;;;8811>;8;811>;77*330000",
"000..94#;;88>;;;55XX;;8811>;;;8811>;;8811>;7=733-000",
"000..O4@;888>;;1XXo;;;881>;;;;88XX>;;8811>;;=73:-000",
"000.. 4+,;88>;;555X88888555555X551>;;8111>;;=73:-000",
"000.. 4+8881>;1XX55;888X5XXXXXXXX>8;;8111>;8=7*:-000",
"000.9 4+8881>;;5555;8888>;;88XXXX>;888111>;;=7*:-000",
"000.9 @+8;81>;;XXXX;;881>1;;8o6o1>;;;8111>;887*::000",
"000.9#@+8881>;;XXXXX8811>;;;o6661>;;88111>;887*::000",
"00..9#@+;;81>;;XXXXX;;88>;;;o<<<1>;;88111>;;77*3:*00",
"00..9#&+8;81>;;;55555888>;;555551>;888111>;887*3:*00",
"00..O+&>8881>;;88<<<oo88><6666611>;8;8111>;;87*3:*00",
"00..O+&>8;81>;;88>555555555;55X11>;888111>;;8=*3:*00",
"00..O4&88;81>;;81>;XX55555;oo661>>;;;8111>;;87%*:*00",
"00..O4+>8;81>;881>;;;111>;;<<<81>;;888111>;;;=%3:*00",
"00..O@+;;;81>8881>;;;;81>;XXXX81>;;8;8111>;;88%3:*00",
"00.9O@+;;;81>8881>;;;;81>XXXX881>;;888111>;;;8%3:*00",
"0..9#@+;;;81>;;81>;;;;81>;;;8881>;;888111>;;87=33*:0",
"0.99#@>;;;81>;881>;;;;81>;;;8881>;;;88811>;;;;=3=*30",
"0..O#@>;;;81>;;81>;88;81>;;;;811>;;8;8111>;888=*=*30",
"0..O>@>;;;81>;;81>;88881>;;;;811>;;;88111>;;8;=*=*30",
"0.. 4@>;;;81>;;81>8;8881>;;;;811>;;888111>;;8;=*,*30",
"0.. @,>;;;81>;;81>;;8881>;;;;811>;8888111>;;8;8*7**0",
"0.9 >,>;;;81>;;81>;;8881>;88;811>;;888111>;;888*7**0",
"0.9#2,>;;881>;;81>;;;881>;;8;811>;;;81111>;;888*7**0",
" .9#2,>;;;81>;;81>;;;881>;88;811>;;888111>;;;88=7***",
" .O+2@+;,,,1+;;,1+;;;,,1+;;,;,11+;,,,1111+;;;,117***",
" .9#>@#2@@@&#22@&#222@&&#22@2@&&#2@@@@&&&#222@&127**",
" 999O 9OO   9OO  9OO  44O>222@@4OOO      9OOO   O#,@"
};
