/* XPM */
static char *noname[] = {
/* width height ncolors chars_per_pixel */
"48 50 29 1",
/* colors */
"  c #D19849",
". c #946A2E",
"X c #72361A",
"o c #5F301B",
"O c #CF9239",
"+ c #E5A644",
"@ c #F3B255",
"# c #DB9F44",
"$ c #F8B046",
"% c #FFC35D",
"& c #FABB58",
"* c #FFCD60",
"= c #FEC05B",
"- c #FFFF86",
"; c #FEB140",
": c #FFF47C",
"> c #EAA940",
", c #FBB754",
"< c #5D391C",
"1 c #FEC264",
"2 c #F2AA41",
"3 c #FFE66E",
"4 c #E3AD59",
"5 c #803C19",
"6 c #562C1A",
"7 c #FFB542",
"8 c #FEB958",
"9 c #B5843B",
"0 c None",
/* pixels */
"00000000000000000000000@8*0000000000000000000000",
"00000000000000000009OO#+@11$70000000000000000000",
"00000000000000000.99O#4@,127*=300000000000000000",
"00000000000000000.9O#>@,81277*300000000000000000",
"0000000000000000..OO>2;,8827***30000000000000000",
"0000000000000000.9 O2;;881>77=3*0000000000000000",
"0000000000000000.9##2;8888>77***0000000000000000",
"000000000000000.. ++;;;881>;7*3*3000000000000000",
"000000000000000.9 4+;;;881>;7%=*3000000000000000",
"00000000000000..9#@+;;;881>;777*3300000000000000",
"00000000000000.. ++;;;;881>;;=**3300000000000000",
"00000000000000.9 @+;;;;881>;;8%*3300000000000000",
"0000000000000..9#@,;;;8881>;;7=733*0000000000000",
"0000000000000..O>@>;;8;881>;;;=**:*0000000000000",
"0000000000000.9O@,>;;8;881>;;87%*:*0000000000000",
"000000000000..9+21>;88;881>;;85XXX*3000000000000",
"000000000000..O>211;888881>;;XXXX3**000000000000",
"000000000000.6666666o8;881>;XXXX%3%*000000000000",
"00000000000.99XXXXXXX8;881>;XXXX=*=*300000000000",
"00000000000.99>2;XXXX8;881>;XXX8=*7**00000000000",
"0000000000..9O2;1555888881>5XXX88*7*330000000000",
"0000000000.99O2;1oXX88;881><oX<8117*3*0000000000",
"0000000000.9O>2;XX55;88811>5558811$=**0000000000",
"000000000..9O2;;55558;88115555;811$7*33000000000",
"000000000.. O2185555;;88115555881127*33000000000",
"000000000.9 #2;155XX;;88115555551127=*3000000000",
"00000000..9##555555555555555555511>7**3-00000000",
"00000000.. 4555555XX55X55555555811>77*3:00000000",
"00000000.9#55;;1XXo;;;881oXXX;8811>77*3:00000000",
"0000000..O+@>;;555X8888815555;8811>;7*3:-0000000",
"0000000.9 41>;1XX55;8888>XXXX;881>8;7%3::0000000",
"0000000.9#@1>;;5555;8888>XXXX8811>;88%33:0000000",
"000000.. #@1>;;XXXX;;881>XXXo;811>;;;=*3:*000000",
"000000.. @@1>;;XXXX;8811>oooo8811>;;88*3:*000000",
"00000..9#2,1>;;XXX;;;;88>XX<o<811>;;88*33*300000",
"00000.9942,1>;5555;;8888>;5555555>;8881*3**00000",
"00000.9O@,81>;6<o<;;;888>;;666661>;8;81*3**00000",
"0000.. O@;81>;XXX5;;;888>;;;88811>;8881*3=*30000",
"0000.9 4@;81>;X55>;;;;81>;;;8;81>>;;;811*,**0000",
"0000.9O#,;81>;881>;;;111>;;88;81>;;88811*7**0000",
"000..OO2;;81>8881>;;;;81>;;;8;81>;;8;811*7**3000",
"000.9 #2;;81>8881>;;;;81>;;;8881>;;8881117=**000",
"000.9##;;;81>;;81>;;;;81>;;;8881>;;888111$7*3000",
"00..O++;;;81>;881>;;;;81>;;;8881>;;;8881127***00",
"00.9O4+;;;81>;;81>;88;81>;;;;811>;;8;811127*3300",
"0..9#@+;;;81>;;81>;88881>;;;;811>;;;88111>773*30",
"0.. 4@>;;;81>;;81>8;8881>;;;;811>;;888111>77**30",
"0.. 4@+;;;,1+;;,1+;;,,,1+;;;;,11+;,,,,111>;7**30",
" .9#>@#222@&#22@&#22@@@&#2@@2@&&#22@@@&&&#2;%*33",
" .999O9OOOO 9OO  9OO#+4@+22@>4449OOO     9OO 481"
};
