/* XPM */
static char *noname[] = {
/* width height ncolors chars_per_pixel */
"52 54 28 1",
/* colors */
"  c #D19849",
". c #946A2E",
"X c #72361A",
"o c #5F301B",
"O c #CF9239",
"+ c #E5A644",
"@ c #F3B255",
"# c #DB9F44",
"$ c #F8B046",
"% c #FFC35D",
"& c #FABB58",
"* c #FFCD60",
"= c #FEC05B",
"- c #FFFF86",
"; c #FEB140",
": c #FFF47C",
"> c #EAA940",
", c #FBB754",
"< c #5D391C",
"1 c #FEC264",
"2 c #F2AA41",
"3 c #FFE66E",
"4 c #E3AD59",
"5 c #803C19",
"6 c #FFB542",
"7 c #FEB958",
"8 c #B5843B",
"9 c None",
/* pixels */
"9999999999999999999999999&12999999999999999999999999",
"9999999999999999999999  #4@>66=999999999999999999999",
"99999999999999999998OO #+@+6=6%%69999999999999999999",
"9999999999999999OO OO#+4@&>66=%66%*$9999999999999999",
"999999999999998OOO#O>>2@@,>6==6=6%*$66%9999999999999",
"99999999999   OO#>4#222,,1>;66766=$666%%*99999999999",
"999999998OO 44O>>@@+;;,777>;;7;67=2666%%**6699999999",
"999999888O#+4@#22,,>;;;771>;;77;77>6==6=**66**999999",
"999999.88#4@@++;;77>;;;771>;;7;;77>;666=1*6=*3999999",
"999999.88>@@1>;;771>;;;771>;;;;;77>;;777116=**999999",
"999999.8O>@,1>;;77>;;;;771>;;77777>;;77711$=**999999",
"99999..8O>,71>;777>;;;;771>;;77777>;777711$6**399999",
"99999..8#2,71>;;777;;;7771>;;;7;77>;777711$6**:99999",
"99999.88#2;71>;;;7>;;7;771>;;;7771>;;;711126**:99999",
"99999.88+2;71>;;77>;;7;771>;;7;771>;;;711126*3:99999",
"99999.88>2;71>;7;1>;77;771>;;77771>;;;711126=*399999",
"99999.8O>2;71>;;;11;777771>;;77771>;;7711126=*399999",
"99999.8O>2;71>;;;11777;7XXXXXXXXX1>;;7711126=*399999",
"99999.8O>;;71>;;;1>;7XXX5XXXXXXX555;;77111>6*3399999",
"9999..8O2;;71>;;;7>XXXXX51>;;7XXXXX5;77111>66*3:9999",
"9999.. O2;;71>;;1755X57771>;;7755555777111>66*3:9999",
"9999.8 O2;;7>>;;1oXXX7XXXX>;;;;7XXX57;7111>6633:9999",
"9999.8 O2;;7>;;;1X55;75555>;;7775555;;7111>66*3:9999",
"9999.8 #2;;7>;;;155;7;5555>;;7;75555;7711>>66=339999",
"9999.8 #2;;7>;1717>;;;5555>;;777555;;7711>;66*339999",
"9999.84#2;;7>;;171>;;55551>;;;75555;;;711>;6%=339999",
"9999.84#;;;7>;;711>;;55551>;;;5555>;7;711>;66*339999",
"999..84#;;77>;;;15X;;5X551>;;555X1>;;7711>;6=633-999",
"999..O4@;777>;;11XooXoXoX>;XXXX711>;;7711>;;=63:-999",
"999.. 4+,;77>;;;1>;XXX5555555;7711>;;7111>;;=63:-999",
"999.. 4+7771>;1;1>;;XXXX>;;;;;771>7;;7111>;7=6*:-999",
"999.8 4+7771>;;;11;;XXXX>;;777711>;777111>;;=6*:-999",
"999.8 @+7;71>;;;7>;;XXXX>1;;7;711>;;;7111>;776*::999",
"999.8#@+7771>;;;7>;;XXXX>;;;77711>;;77111>;776*::999",
"99..8#@+;;71>;;;7>;;XXXX>;;;7;711>;;77111>;;66*3:*99",
"99..8#&+7;71>;;;7>;55557>;;77;711>;777111>;776*3:*99",
"99..O+&>7771>;;77>;<ooo7>;;;7;711>;7;7111>;;76*3:*99",
"99..O+&>7;71>;;77>;55557>;;;77711>;777111>;;7=*3:*99",
"99..O4&77;71>;;71>;XX551>;;;7;71>>;;;7111>;;76%*:*99",
"99..O4+>7;71>;771>;;;111>;;77;71>;;777111>;;;=%3:*99",
"99..O@+;;;71>7771>;;;;71>;;;7;71>;;7;7111>;;77%3:*99",
"99.8O@+;;;71>7771>;;;;71>;;;7771>;;777111>;;;7%3:*99",
"9..8#@+;;;71>;;71>;;;;71>;;;7771>;;777111>;;76=33*:9",
"9.88#@>;;;71>;771>;;;;71>;;;7771>;;;77711>;;;;=3=*39",
"9..O#@>;;;71>;;71>;77;71>;;;;711>;;7;7111>;777=*=*39",
"9..O>@>;;;71>;;71>;77771>;;;;711>;;;77111>;;7;=*=*39",
"9.. 4@>;;;71>;;71>7;7771>;;;;711>;;777111>;;7;=*,*39",
"9.. @,>;;;71>;;71>;;7771>;;;;711>;7777111>;;7;7*6**9",
"9.8 >,>;;;71>;;71>;;7771>;77;711>;;777111>;;777*6**9",
"9.8#2,>;;771>;;71>;;;771>;;7;711>;;;71111>;;777*6**9",
" .8#2,>;;;71>;;71>;;;771>;77;711>;;777111>;;;77=6***",
" .O+2@+;,,,1+;;,1+;;;,,1+;;,;,11+;,,,1111+;;;,116***",
" .8#>@#2@@@&#22@&#222@&&#22@2@&&#2@@@@&&&#222@&126**",
" 888O 8OO   8OO  8OO  44O>222@@4OOO      8OOO   O#,@"
};
