/* XPM */
static char *noname[] = {
/* width height ncolors chars_per_pixel */
"26 27 29 1",
/* colors */
"  c #D19849",
". c #946A2E",
"X c #72361A",
"o c #5F301B",
"O c #CF9239",
"+ c #E5A644",
"@ c #F3B255",
"# c #DB9F44",
"$ c #F8B046",
"% c #FFC35D",
"& c #FABB58",
"* c #FFCD60",
"= c #FEC05B",
"- c #FEB140",
"; c #FFF47C",
": c #EAA940",
"> c #FBB754",
", c #5D391C",
"< c #FEC264",
"1 c #F2AA41",
"2 c #FFE66E",
"3 c #E3AD59",
"4 c #803C19",
"5 c #562C1A",
"6 c #FFB542",
"7 c #FEB958",
"8 c #443115",
"9 c #B5843B",
"0 c None",
/* pixels */
"99.9999 9OO#@&+:#O 9O99 @@",
"993#11@&#11@&&#111@#11@%22",
"9.3@777<:--7<<:---7:--7*2;",
"9. +777<:--7<<:---7:--=*;;",
"0. #-77<:--7<<:---7:--62;0",
"04 #777<:777<<:-4-7:4-62;0",
"0,9#-77<44-7<<:X-77o--%2;0",
"0,9#-7<X:-o7<<oo-77X--62;0",
"0,9O-7<<:7X77:X--7X:-662;0",
"0,.O17<<:-44XXX-77X:-662;0",
"0,.O17<::-77<:--77o--6=;;0",
"0,.917<:-oooo:-7778--6=;;0",
"00.917<:-X77<X--X7X--62;00",
"00,917<:---7<o55575--=*;00",
"00,.:7<:---XX4--774--%*;00",
"00,.:><:---7<o-7-<o-7%*;00",
"00,.#><:Xo,55588555-7*2;00",
"00,.O><:---7<5---<577**;00",
"00,.O@<:-XXXXX---<:-=*2;00",
"00,4O@<:---7<X---7:-6*2;00",
"00049@<:---7<:--<7:7=2;000",
"000,9@<:---7::--<<:6%22000",
"000,9#@+---7:---<71662;000",
"000..9 O:11>:-66*=$6%=2000",
"00000999OO#@+6*=*=:--00000",
"00000000999 #--<><00000000",
"00000000000++6000000000000"
};
