/* XPM */
static char *noname[] = {
/* width height ncolors chars_per_pixel */
"26 27 27 1",
/* colors */
"  c #D19849",
". c #946A2E",
"X c #CF9239",
"o c #CA0D0D",
"O c #E5A644",
"+ c #F3B255",
"@ c #DB9F44",
"# c #F8B046",
"$ c #FFC35D",
"% c #FABB58",
"& c #FFCD60",
"* c #FEC05B",
"= c #FFFF86",
"- c #FEB140",
"; c #FFF47C",
": c #EAA940",
"> c #FBB754",
", c #5D391C",
"< c #FEC264",
"1 c #F2AA41",
"2 c #FFE66E",
"3 c #E3AD59",
"4 c #803C19",
"5 c #FFB542",
"6 c #FEB958",
"7 c #B5843B",
"8 c None",
/* pixels */
"8888888888883<588888888888",
"88888888.77  +:5--88888888",
"8888877 7X@3+<1555*:588888",
"8884.7 3X:1><<:555$#5*2888",
"888,7@+%O--6<<:--5*#5&2888",
"888,7+><:666<<:---6:5&2888",
"888,7+6<:--6<<:--66:5&;888",
"88,4X+<<:-66o<:--66:5&2;88",
"88,.X+<<:66ooo:--66:5*2;88",
"88,.X><<:oo6<:oo66<:55&;88",
"88,.@><:oo66<:-oo6:-55&;88",
"88,.:><oo-66<:-6oo:--5&;88",
"88,.:6oo--ooooo-6oo--52;88",
"88,716<:---6o:---6:--*&;88",
"88.716<:-ooooooo66:--*&;88",
"8,.716<:---6o:-6-<:-6**;;8",
"8,.X16<:-o-6o:-o-<<-6*&;;8",
"8,.X16<:-oo6o:oo-<<66652;8",
"8,7X-6<:---6o:---<:-6652;8",
"8,7@-6<ooooooooooo:--652;8",
"8,7+-6<:---6<:--<6:666$2;8",
"847+-6<:---6::--<<:-6652;8",
"8. @66<:---6:---<6:--6*2=8",
"7. +-6<:---6:---<6:-6-*&=;",
"7.3O66<:---6:-<6<6:---6&;;",
"773@1+%@111+@11%+%@111+$;2",
"77777777XXX X11+33XXX77 ++"
};
