/* XPM */
static char *noname[] = {
/* width height ncolors chars_per_pixel */
"26 27 30 1",
/* colors */
"  c #D19849",
". c #946A2E",
"X c #72361A",
"o c #5F301B",
"O c #CF9239",
"+ c #E5A644",
"@ c #F3B255",
"# c #DB9F44",
"$ c #F8B046",
"% c #FFC35D",
"& c #FABB58",
"* c #FFCD60",
"= c #FEC05B",
"- c #FFFF86",
"; c #FEB140",
": c #FFF47C",
"> c #EAA940",
", c #FBB754",
"< c #5D391C",
"1 c #FEC264",
"2 c #F2AA41",
"3 c #FFE66E",
"4 c #E3AD59",
"5 c #803C19",
"6 c #562C1A",
"7 c #FFB542",
"8 c #FEB958",
"9 c #443115",
"0 c #B5843B",
"q c None",
/* pixels */
"qqqqqqqqqqqq417qqqqqqqqqqq",
"qqqqqqqq.00  @>7;;qqqqqqqq",
"qqqqq00 0O#4@12777=>7qqqqq",
"qqq5.0 4O>2,11>777%$7=3qqq",
"qqq<0#@&+;;811>;;7=$7*3qqq",
"qqq<0@,1>88811>;;;8>7*3qqq",
"qqq<0@81>;;811>;;88>7*:qqq",
"qq<5O@11>;8811>;;88>7*3:qq",
"qq<.O@11>8888X>X;88>7=3:qq",
"qq<.O,115;881X;X881>77*:qq",
"qq<.#,1>5;8XXXoooo>;77*:qq",
"qq<.>,XXooo816;688>;;7*:qq",
"qq<.>81>o;855XXXXX8;;73:qq",
"qq<0281>5;;81>;;;8>;;=*:qq",
"qq.0281>X;;XX55X55>;;=*:qq",
"q<.02815XX;X1>o8;o>;8==::q",
"q<.O28X>X;<66699661;8=*::q",
"q<.O28X>X;;o1>6;;6188873:q",
"q<0O;X1>X;;XXXXXXX>;8873:q",
"q<0#;81>X;;8X>;;X8>;;873:q",
"q<0@;81>X;;85>;;58>888%3:q",
"q50@;81>;;;5>>;;1o>;8873:q",
"q. #881>;;;8>;;;18>;;8=3-q",
"0. @;81>;;;8>;;;18>;8;=*-:",
"0.4+881>;;;8>;1818>;;;8*::",
"004#2@&#222@#22&@&#222@%:3",
"00000000OOO O22@44OOO00 @@"
};
