/* XPM */
static char *noname[] = {
/* width height ncolors chars_per_pixel */
"24 24 28 1",
/* colors */
"  c #D19849",
". c #946A2E",
"X c #72361A",
"o c #5F301B",
"O c #CF9239",
"+ c #E5A644",
"@ c #F3B255",
"# c #DB9F44",
"$ c #F8B046",
"% c #FFC35D",
"& c #FABB58",
"* c #FFCD60",
"= c #FEC05B",
"- c #FEB140",
"; c #FFF47C",
": c #EAA940",
"> c #FBB754",
", c #5D391C",
"< c #FEC264",
"1 c #F2AA41",
"2 c #FFE66E",
"3 c #E3AD59",
"4 c #803C19",
"5 c #562C1A",
"6 c #FFB542",
"7 c #FEB958",
"8 c #B5843B",
"9 c None",
/* pixels */
"88.888888OO3&&OOOO888O+3",
"883#11@&#11@&&#111@#162*",
"883>777<:--7<<:---7:-622",
"8.3+777<:--7<<:---7:6622",
"8.3+-77XXXXX<<:---7:66*2",
"8.3+777X:77X4<:---7:6622",
"8.3+-77<:--7X<:--77:66;2",
"8. +-7<<ooooooooo77:6=22",
"8. +-7<<o777X::-X77:6=22",
"8. +-7<<4444XXXXX7<:6=22",
"9. +-7<:4-77X:--o7:-6*29",
"94 +-7<:ooooo55557:-6*29",
"9X #-7<:--77<:--777-6*;9",
"9, #-7<4444Xoo5555:-6229",
"9,8#-7<X---X<4--77:-6229",
"9,8#-7<:--X7<:o7-<:-=229",
"9,8#-7<:---7<:---<<-=2;9",
"9,8#-7<:Xooo55555<<7%229",
"9,8O1><:---XX:---<16*229",
"9,.8O+@+---7<:-66=$66**9",
"999888 O:117<166*%$==999",
"99999888OO:>1$66<<999999",
"99999999.8O3:66-99999999",
"9999999999#>699999999999"
};
