/* XPM */
static char *noname[] = {
/* width height ncolors chars_per_pixel */
"24 24 28 1",
/* colors */
"  c #D19849",
". c #946A2E",
"X c #72361A",
"o c #5F301B",
"O c #CF9239",
"+ c #E5A644",
"@ c #F3B255",
"# c #DB9F44",
"$ c #F8B046",
"% c #FFC35D",
"& c #FABB58",
"* c #FFCD60",
"= c #FEC05B",
"- c #FEB140",
"; c #FFF47C",
": c #EAA940",
"> c #FBB754",
", c #5D391C",
"< c #FEC264",
"1 c #F2AA41",
"2 c #FFE66E",
"3 c #E3AD59",
"4 c #803C19",
"5 c #562C1A",
"6 c #FFB542",
"7 c #FEB958",
"8 c #B5843B",
"9 c None",
/* pixels */
"99999999999+<*9999999999",
"99999999.88 3<1699999999",
"999999888O#@<*$666=99999",
"999.88 3O:1><<1666%$6999",
"94.8O+@&+--7<<:666%66**9",
"9,8O@@><:o77<4:---716*29",
"9,8#-77<4444XXX--77:6*;9",
"9,8#-7<Xo-77o<:--77:6*29",
"9,8#-7Xo:77X7::--77:6*29",
"9,8#-4<X4444XXXX77<:6*29",
"9, #-7<4:-7X<:-o77:-6*29",
"9X #-7<Xooooo55577:-6*29",
"94 +-7<:-X44<:--777-6*;9",
"9. +-7<:4-4X<:55-7:-6*29",
"8. +-7<X-XX7X4--77:-6*22",
"8. +-X4:X-X7X:-7-<:-=*22",
"8. +-7<4-o,7<5---<<-=*;2",
"8.3+-7X:X-o7<55--<<77*22",
"8.3+-7<X--X7<:XX-<:-7*22",
"8.3+-7<:XXX7<:-XX7:-6**2",
"8.3>-7<:-X-7<:--<7:77*22",
"883>-7<:---7::--<<:-7**2",
"883#@@&#111@#111&@#11=2*",
"888888888OO##11#  888O+3"
};
