/* XPM */
static char *noname[] = {
/* width height ncolors chars_per_pixel */
"24 24 27 1",
/* colors */
"  c #D19849",
". c #946A2E",
"X c #72361A",
"o c #CF9239",
"O c #CA0D0D",
"+ c #E5A644",
"@ c #F3B255",
"# c #DB9F44",
"$ c #F8B046",
"% c #FFC35D",
"& c #FABB58",
"* c #FFCD60",
"= c #FEC05B",
"- c #FEB140",
"; c #FFF47C",
": c #EAA940",
"> c #FBB754",
", c #5D391C",
"< c #FEC264",
"1 c #F2AA41",
"2 c #FFE66E",
"3 c #E3AD59",
"4 c #803C19",
"5 c #FFB542",
"6 c #FEB958",
"7 c #B5843B",
"8 c None",
/* pixels */
"77.777777oo3&&oooo777o+3",
"773#11@&#O1@&&#111@#152*",
"773>666OO-O6O<O-O-6:-522",
"7.3+66OO:O-O<O:O--6:5522",
"7.3+-6OO:--6<<:---6:55*2",
"7.3+666OOOOOOOOO--6:5522",
"7.3+-66<:--6<<:O-66:55;2",
"7. +-6OOOOOOOOOO-66:5=22",
"7. +-6O<O6666::O-66:5=22",
"7. +-6<<OOOOOOOO66<:5=22",
"8. +-6<:O-66<:-O66:-5*28",
"84 +-6<:OOOOOOOO66:-5*28",
"8X #-6<:--66<O--O6O-5*;8",
"8, #-OOOO--O<O-O-O:-5228",
"8,7#-O<:O-OO<OOOOO:-5228",
"8,7#-6<:O-O6<O-6-O:-=228",
"8,7#-6<:-O-6<OOOOO<-=2;8",
"8,7#-OOOOOOO<:---<<6%228",
"8,7o1><:-O-6<OOOOO15*228",
"8,.7o+@O-O-6<:-O5=$55**8",
"888777 o:116<155*%$==888",
"88888777oo:>1$55<<888888",
"88888888.7o3:55-88888888",
"8888888888#>588888888888"
};
