/* XPM */
static char *noname[] = {
/* width height ncolors chars_per_pixel */
"24 24 29 1",
/* colors */
"  c #D19849",
". c #946A2E",
"X c #72361A",
"o c #5F301B",
"O c #CF9239",
"+ c #E5A644",
"@ c #F3B255",
"# c #DB9F44",
"$ c #F8B046",
"% c #FFC35D",
"& c #FABB58",
"* c #FFCD60",
"= c #FEC05B",
"- c #FEB140",
"; c #FFF47C",
": c #EAA940",
"> c #FBB754",
", c #5D391C",
"< c #FEC264",
"1 c #F2AA41",
"2 c #FFE66E",
"3 c #E3AD59",
"4 c #803C19",
"5 c #562C1A",
"6 c #FFB542",
"7 c #FEB958",
"8 c #443115",
"9 c #B5843B",
"0 c None",
/* pixels */
"00000000000+<*0000000000",
"00000000.99 3<1600000000",
"000000999O#@<*$666=00000",
"000.99 3O:1><<1666%$6000",
"04.9O+@&+--7<<:666%66**0",
"0,9O@oXXXoXX444444716*20",
"0,9#-47<:--7<<:--X7:6*;0",
"0,9#-o<<:-7o<<:--X7:6*20",
"0,9#-X<<oXXXXXX--X7:6*20",
"0,9#-4<<4-77<:X-7X<:6*20",
"0, #-4<:44XXXXo-7o:-6*20",
"0X #-X<:o-77<:5778:-6*20",
"04 +-o<:oX444XX-7X7-6*;0",
"0. +-4<:4--7<:---5:-6*20",
"9. +-4<:XXXXX44-74:-6*22",
"9. +-X<:X--7<:-7-o:-=*22",
"9. +-X<:Xo,55588-5<-=*;2",
"9.3+-X<:---7<:-5-5<77*22",
"9.3+-X<:X-X7X:XX-X:X7*22",
"9.3+XX<o-X-X<X-X-XXX6**2",
"9.3XX7<:---7<:44<7477*22",
"993>-7<:---74XX-<<:-7**2",
"993#@@&#111@#111&@#11=2*",
"999999999OO##11#  999O+3"
};
