/* XPM */
static char *noname[] = {
/* width height ncolors chars_per_pixel */
"22 23 30 1",
/* colors */
"  c #D19849",
". c #946A2E",
"X c #72361A",
"o c #5F301B",
"O c #CF9239",
"+ c #E5A644",
"@ c #F3B255",
"# c #DB9F44",
"$ c #F8B046",
"% c #FFC35D",
"& c #FABB58",
"* c #FFCD60",
"= c #FEC05B",
"- c #FFFF86",
"; c #FEB140",
": c #FFF47C",
"> c #EAA940",
", c #FBB754",
"< c #5D391C",
"1 c #FEC264",
"2 c #F2AA41",
"3 c #FFE66E",
"4 c #E3AD59",
"5 c #803C19",
"6 c #562C1A",
"7 c #FFB542",
"8 c #FEB958",
"9 c #443115",
"0 c #B5843B",
"q c None",
/* pixels */
"0..0000 0O>@&4OO0000>>",
"004#22@&#22@&&#222@$**",
"0.4,8881>;;811>;;;873*",
".. +8881>;;811>;;;=73*",
"q< +;XXX>;;811X;;X==3q",
"q<0#888X>88815>;5;==3q",
"q<0#;8815;;5X1>X;8%*3q",
"q90#;811>o8o11o;;8%*3q",
"q9.O;811>XX88>X;;8**3q",
"q9.O2811>5581>X;883*3q",
"qq50281>558X1>o;8==3qq",
"qq<0281>o;88o>688==3qq",
"qq<.281ooX555XX;8=33qq",
"qq9.>81>;;;81>6;;%*3qq",
"qq9.#,1>;;;81>5;8**3qq",
"qq95O,15XXXXXoo873*3qq",
"qqqXO@1>;;;81>9;73-qqq",
"qqq<0@1>;;;81>;;73-qqq",
"qqq<0+&+;;;81>777:*qqq",
"qqq<.04#22;81$777**qqq",
"qqqqq.00O>;=*$771qqqqq",
"qqqqqqq.0O>82>;qqqqqqq",
"qqqqqqqqqO2*qqqqqqqqqq"
};
