/* XPM */
static char *noname[] = {
/* width height ncolors chars_per_pixel */
"23 24 29 1",
/* colors */
"  c #D19849",
". c #946A2E",
"X c #72361A",
"o c #5F301B",
"O c #CF9239",
"+ c #E5A644",
"@ c #F3B255",
"# c #DB9F44",
"$ c #F8B046",
"% c #FFC35D",
"& c #FABB58",
"* c #FFCD60",
"= c #FEC05B",
"- c #FEB140",
"; c #FFF47C",
": c #EAA940",
"> c #FBB754",
", c #5D391C",
"< c #FEC264",
"1 c #F2AA41",
"2 c #FFE66E",
"3 c #E3AD59",
"4 c #803C19",
"5 c #562C1A",
"6 c #FFB542",
"7 c #FEB958",
"8 c #443115",
"9 c #B5843B",
"0 c None",
/* pixels */
"0000000000O>20000000000",
"00000000.9O3<*$00000000",
"000000.99O:>**666000000",
"0000.9O O117<*$666%0000",
"00,.9#3&+--7<<1666*=*00",
"00,.+@><:777<<:-66**200",
"00,9177<:--7<<:--7=%200",
"00,917<<:-77<<:o-7==200",
"004917XooXXXXXXXX7==200",
"08.917<<:447<:--77<>220",
"08.O17<::477<:--771=220",
"08.O-7<:-o77<:-777:6220",
"08.O-7<:-X444XXXX776*20",
"089#-7<:4447<:--57:6*;0",
"0,9#-7<:X-X7<:--47:6*;0",
"0,9#-7<4X-X7<:-7o<:62;0",
"0, #-7<4--,7<:--5<<62;0",
"0, +-7X:--oo55555<<=2;0",
"0. +-7<:--X7<:--X<:6*;0",
"9. +-7<:---7<:---7:6=;*",
"9.3>-7<:---7<:--<7:7*;2",
"9.+>-7<:---7::--<<:-*2*",
"993#@@&#111@#111&@#1622",
"999999999OO3+:#O 999O:@"
};
