/* XPM */
static char *noname[] = {
/* width height ncolors chars_per_pixel */
"21 21 30 1",
/* colors */
"  c #D19849",
". c #946A2E",
"X c #72361A",
"o c #5F301B",
"O c #FFFE89",
"+ c #CF9239",
"@ c #E5A644",
"# c #F3B255",
"$ c #DB9F44",
"% c #F8B046",
"& c #FFC35D",
"* c #FABB58",
"= c #FFCD60",
"- c #FEC05B",
"; c #FEB140",
": c #FFF47C",
"> c #EAA940",
", c #FBB754",
"< c #5D391C",
"1 c #FEC264",
"2 c #F2AA41",
"3 c #FFE66E",
"4 c #E3AD59",
"5 c #803C19",
"6 c #562C1A",
"7 c #FFB542",
"8 c #FEB958",
"9 c #443115",
"0 c #B5843B",
"q c None",
/* pixels */
"qqqqqqqqq+;=qqqqqqqqq",
"qqqqqqq0.+>-=1qqqqqqq",
"qqqqq.0 +>;-==%7qqqqq",
"qqq<.+$4$;;81=77==qqq",
"qqq<04#1>;;81127=3qqq",
"qqq< #81>o8X11>7=3qqq",
"qq95+,515;;511>7-::qq",
"qq9.$,XX>ooooo>o7::qq",
"qq9.>8Xo>88X8>XX73:qq",
"qq<.251X>;851X;;-3Oqq",
"qq<05815>5XXXXooo33qq",
"qqX028XX;;88o>;8-==qq",
"q9.+;o1o;;851>;;8=:3q",
"q9.+5815;;5Xoo666==3q",
"q90$;81X;;XX1>;;5&=3q",
"q<0$;815;X;XXoo6o==3q",
"q< @;815;;;61>;;6133q",
"q5 @;XXX;;;o6666613:q",
"0.4@;8X>;;;X1>;;X1733",
"0.4$2#*@222#*@222#%==",
"0.000000++>##+++0004#"
};
