/* XPM */
static char *noname[] = {
/* width height ncolors chars_per_pixel */
"21 21 31 1",
/* colors */
"  c #D19849",
". c #946A2E",
"X c #72361A",
"o c #5F301B",
"O c #FFFE89",
"+ c #CF9239",
"@ c #E5A644",
"# c #F3B255",
"$ c #DB9F44",
"% c #F8B046",
"& c #FFC35D",
"* c #FABB58",
"= c #FFCD60",
"- c #FEC05B",
"; c #FFFF86",
": c #FEB140",
"> c #FFF47C",
", c #EAA940",
"< c #FBB754",
"1 c #5D391C",
"2 c #FEC264",
"3 c #F2AA41",
"4 c #FFE66E",
"5 c #E3AD59",
"6 c #803C19",
"7 c #562C1A",
"8 c #FFB542",
"9 c #FEB958",
"0 c #443115",
"q c #B5843B",
"w c None",
/* pixels */
"q..qqqq q+o<*5+++q+$3",
"q.5$33#*@XXX**@33o&==",
".. <9992,o:972,o78===",
"w1 @9992,6:922,X:844w",
"w1q$:XXXXXXXXX,X:844w",
"w0q$<992,o9922,6:844w",
"w0.+:6666666XX,X8=>4w",
"ww6q3922,o9922,o8=>ww",
"ww1q39XooXXXX,,X84>ww",
"ww1.,922,:992,:X&4Oww",
"ww066<6,669X2Xoo=44ww",
"ww06X<X,o:9o27:7=>4ww",
"www1+o1o::666,:X4>www",
"www066666:6Xoo:7=>www",
"www0.5X,:::X2,:X4>www",
"www0.$2,:::92,874Owww",
"wwwwXXX6Xo1777004wwww",
"wwww1X5$3::o238=4wwww",
"wwwwX. +@3:-=%88=wwww",
"wwwwwwq.q+,92,:wwwwww",
"wwwwwwwww$:=wwwwwwwww"
};
