/* XPM */
static char *noname[] = {
/* width height ncolors chars_per_pixel */
"21 21 30 1",
/* colors */
"  c #D19849",
". c #946A2E",
"X c #72361A",
"o c #5F301B",
"O c #FFFE89",
"+ c #CF9239",
"@ c #E5A644",
"# c #F3B255",
"$ c #DB9F44",
"% c #F8B046",
"& c #FFC35D",
"* c #FABB58",
"= c #FFCD60",
"- c #FEC05B",
"; c #FEB140",
": c #FFF47C",
"> c #EAA940",
", c #FBB754",
"< c #5D391C",
"1 c #FEC264",
"2 c #F2AA41",
"3 c #FFE66E",
"4 c #E3AD59",
"5 c #803C19",
"6 c #562C1A",
"7 c #FFB542",
"8 c #FEB958",
"9 c #443115",
"0 c #B5843B",
"q c None",
/* pixels */
"qqqqqqqqq+;=qqqqqqqqq",
"qqqqqqq0.+>-=1qqqqqqq",
"qqqqq.0 +>;-==%7qqqqq",
"qqq<.+$4$;;81=77==qqq",
"qqq<04#1>;;81127=3qqq",
"qqq<ooXXXoXX515753qqq",
"qq955,51>;58X1X7X::qq",
"qq9.o,XX>oo8o1o7o::qq",
"qq9.X811>888X>X;X3:qq",
"qq<.585X5558X>X;X3Oqq",
"qq<0581>5;88X>o;o33qq",
"qqX0X8X>o;o8o>686==qq",
"q9.+o8<>o;585>X;X=:3q",
"q9.+585>5;58o>6;6==3q",
"q90$58XXXXX8X>5;5&=3q",
"q<0$X85>X;X8X>o8o==3q",
"q< @X81>;;;66>;;6133q",
"q5 @X81X;;oo1>;6613:q",
"0.4@581>XXX81XXX;1733",
"0.4$2#*@2X2#*@522#%==",
"0.000000++>##+++0004#"
};
