/* XPM */
static char *noname[] = {
/* width height ncolors chars_per_pixel */
"21 21 30 1",
/* colors */
"  c #D19849",
". c #946A2E",
"X c #72361A",
"o c #5F301B",
"O c #FFFE89",
"+ c #CF9239",
"@ c #E5A644",
"# c #F3B255",
"$ c #DB9F44",
"% c #F8B046",
"& c #FFC35D",
"* c #FABB58",
"= c #FFCD60",
"- c #FEC05B",
"; c #FEB140",
": c #FFF47C",
"> c #EAA940",
", c #FBB754",
"< c #5D391C",
"1 c #FEC264",
"2 c #F2AA41",
"3 c #FFE66E",
"4 c #E3AD59",
"5 c #803C19",
"6 c #562C1A",
"7 c #FFB542",
"8 c #FEB958",
"9 c #443115",
"0 c #B5843B",
"q c None",
/* pixels */
"qqqqqqqqq+;=qqqqqqqqq",
"qqqqqqq0.+>-=1qqqqqqq",
"qqqqq.0 +>;-==%7qqqqq",
"qqq<.+$4$;;81=77==qqq",
"qqq<04#1>;;81127=3qqq",
"qqq< oXXXo8X5555=3qqq",
"qq95+581>;;811>X-::qq",
"qq9.$oXXo;88oooo7::qq",
"qq9.>X11>8888>>X73:qq",
"qq<.255X5555XXXX-3Oqq",
"qq<0281>>;881>;;-33qq",
"qqX0X8XX;o8o16;8-==qq",
"q9.+o81>;X881X;;8=:3q",
"q9.+5855;5;X1o;;;==3q",
"q90$581>;X;815;;8&=3q",
"q<0$X85>;X;X1o;8;==3q",
"q< @XX1>;o<816;;;133q",
"q5 XX81XXo;8166;;63:q",
"0.45;81>X;;81>XXX1733",
"0.4$2#*@222#*@2X2#%==",
"0.000000++>##+++0004#"
};
