/* XPM */
static char *noname[] = {
/* width height ncolors chars_per_pixel */
"21 21 30 1",
/* colors */
"  c #D19849",
". c #946A2E",
"X c #72361A",
"o c #5F301B",
"O c #FFFE89",
"+ c #CF9239",
"@ c #E5A644",
"# c #F3B255",
"$ c #DB9F44",
"% c #F8B046",
"& c #FFC35D",
"* c #FABB58",
"= c #FFCD60",
"- c #FEC05B",
"; c #FEB140",
": c #FFF47C",
"> c #EAA940",
", c #FBB754",
"< c #5D391C",
"1 c #FEC264",
"2 c #F2AA41",
"3 c #FFE66E",
"4 c #E3AD59",
"5 c #803C19",
"6 c #562C1A",
"7 c #FFB542",
"8 c #FEB958",
"9 c #443115",
"0 c #B5843B",
"q c None",
/* pixels */
"qqqqqqqqq+;=qqqqqqqqq",
"qqqqqqq0.+>-=1qqqqqqq",
"qqqqq.0 +>;-==%7qqqqq",
"qqq<.+$4$;;81=77==qqq",
"qqq<XXXXXXXXXXXXX3qqq",
"qqq<o#81>8X811>753qqq",
"qq955,855555XX>7X::qq",
"qq9.o,1X>;881o>7o::qq",
"qq9.X81ooXXXXX>;X3:qq",
"qq<.581X>;881X;;X3Oqq",
"qq<0581555XXXX;;o33qq",
"qqX0X81X;;881>;86==qq",
"q9.+o81ooX555X;;X=:3q",
"q9.+5815;;;81>;;6==3q",
"q90$581XXXXXX5;;5&=3q",
"q<0$X81>;;;81o;8o==3q",
"q< @X8X>X;<866;;6133q",
"q5 X;X1X;o;o16;;663:q",
"0.5@;81>;;;8XX;;;XX33",
"0.4$2#*@2XXXX@222#%==",
"0.000000++>##+++0004#"
};
