/* XPM */
static char *noname[] = {
/* width height ncolors chars_per_pixel */
"21 21 31 1",
/* colors */
"  c #D19849",
". c #946A2E",
"X c #72361A",
"o c #5F301B",
"O c #FFFE89",
"+ c #CF9239",
"@ c #E5A644",
"# c #F3B255",
"$ c #DB9F44",
"% c #F8B046",
"& c #FFC35D",
"* c #FABB58",
"= c #FFCD60",
"- c #FEC05B",
"; c #FFFF86",
": c #FEB140",
"> c #FFF47C",
", c #EAA940",
"< c #FBB754",
"1 c #5D391C",
"2 c #FEC264",
"3 c #F2AA41",
"4 c #FFE66E",
"5 c #E3AD59",
"6 c #803C19",
"7 c #562C1A",
"8 c #FFB542",
"9 c #FEB958",
"0 c #443115",
"q c #B5843B",
"w c None",
/* pixels */
"q..qqqqqq+,##5q+qq++,",
"q.5$3XXX@3X#*X@333-==",
"q.5<999oo:o972,::8===",
"w6 @9662X:69X2,::8==w",
"w1 @:992XXXXXXX::844w",
"w1q$9oXX,9X962,::844w",
"w0q$:9966:69X2,::&44w",
"w0.+:oX2ooooooo::=44w",
"w0.+:922,9999,,:8=>4w",
"wwXq392X,6992,X:-=;ww",
"ww1q366666XX2,o:-44ww",
"ww1.3X2,o:9o2,79744ww",
"ww0.,o1ooX666,X:X4>ww",
"ww0.$62,6::X2o778>4ww",
"ww06+6XXXXXX2,68=>4ww",
"www1+#26:X:92,o-=;www",
"www1q5X6Xo197700=;www",
"www1.+5X3o:92%78=>www",
"wwwww.qq+,:-=888wwwww",
"wwwwwww.q+,-=3wwwwwww",
"wwwwwwwww+:=wwwwwwwww"
};
