/* XPM */
static char *Dolphin_W_wood[] = {
/* width height ncolors chars_per_pixel */
"43 46 29 1",
/* colors */
"  c #000000",
". c #D19849",
"X c #946A2E",
"o c #72361A",
"O c #5F301B",
"+ c #CF9239",
"@ c #E5A644",
"# c #F3B255",
"$ c #DB9F44",
"% c #F8B046",
"& c #FFC35D",
"* c #FABB58",
"= c #FFCD60",
"- c #FEC05B",
"; c #FEB140",
": c #FFF47C",
"> c #EAA940",
", c #FBB754",
"< c #5D391C",
"1 c #FEC264",
"2 c #F2AA41",
"3 c #FFE66E",
"4 c #E3AD59",
"5 c #803C19",
"6 c #562C1A",
"7 c #FFB542",
"8 c #FEB958",
"9 c #B5843B",
"0 c None",
/* pixels */
"9..@4#$>######$>>>###$>>####$>#####$>##8=3-",
"99+@#*$2#2#***$22###*$22###*$2###**$22,-=3=",
"X9.@#1@222,111@222,,1@22,,,1@2,,,11@2;7&=:=",
"X9+@*1>;;8811>>;;;881>;;8881>;;;811>;;-=3:=",
"X9.@*1>;;8811>;;;8881>;;8881>;;;811>;77=3:=",
"XX.@*1>;;;811>;;8;881>;88881>;;8881>;7&=3:=",
"XX+$#1>;8;811>;;;8881>;88881>;;;811>;87=3:=",
"XX9$#1>;;8811>;;8;881>;;;881>;;;811>;7&=3:0",
"0X9.4*>;;8811>;;8;811>;;8881>;;;811>;77=3:0",
"0X9.4*>;;8111>;;8;811>;88881>;8;881>;77=3:0",
"0X9.4$,;;8111>;88;811>ooooo<6;;8881>;77=3:0",
"0X9.4$;888111>;;8;855ooooo5ooo;8881>77==3:0",
"0X9.4$2;;8111>;885555>8;88oooo;;881>77=33:0",
"0XX94$2;88111>;6<O<11>;;88<O<<;;881>77733:0",
"00X9.$2;88111>5555811>;8;85555;;881>77733:0",
"00X9.+2,88111<<<<;811>;888o5oo;;881>77=3300",
"00X9.+2,;81166O<8;811>;;88ooo;;;881>77=3300",
"00X9.+2,8811OOo;88811>;;8oooo>;8;811%7=3300",
"00X99+2;;81oooo;8;881>;;85555>;;8811%7=3300",
"00X99$2,881ooo;;;8811>8;8oo55>;88811%733300",
"00X99$2,;855o5;;88811>;;85555>;;8811%733300",
"00X99+>#88oooo;;;8811>;;8oo55>;;;811%-33000",
"00099+>#,85555;;8;811>8;85551>;;88817-=3000",
"000XX+>2,85555;;;;81>;;855551>;;881=7==3000",
"000XX+@#;85555588881>;;;55551>;5581=7=33000",
"000XX+$2,8oo555;8;81>;;;55551>55581=7==3000",
"000XX+$#,81555558;81>;;855511555881=7=33000",
"000XX9$##81o55o55;81>;;;881oo555881=7==0000",
"0000X9+4#,11oOoOoOo1>;;;ooooo5;;881=,=30000",
"0000X9+>#1111>55555555o55o555>;;881=,==0000",
"0000X9+@#,111>;;5ooooooooo111>;;88-=-==0000",
"0000XX+$#1111>;;;811>;;888811>;;88==-=30000",
"0000XX9$##111>;;;811>;;888111>;;;8=3-==0000",
"00000X9.4#111>;;;811>;8888111>;;88=3-=30000",
"00000X9+4*111>;;;888>;;888111>;8;8=3-=30000",
"00000X9.@*111>;;;881>;8888111>;;;-=3==00000",
"00000XX+$#111>;;;881>;8888111>;;;-=33=00000",
"00000XX9$#*11>;;;881>;;881111>;;7-====00000",
"000000X9.4*11>;;8881>;8881111>;77&=3==00000",
"000000X9.$#*1@;;;881>;;;811112777&=3==00000",
"000000X99.4#*@2;,,,1>;;8811112777==3-=00000",
"000000099.444$222#,1>;8881111%777&==0000000",
"000000009..44+>>###*@;;8-1===%777&000000000",
"00000000000..++$@44#$288-1===%7000000000000",
"00000000000000+$$$@4$22;8-==000000000000000",
"000000000000000000$4+>#,8000000000000000000"
};
