/* XPM */
static char *Humpback_Whale_B_wood[] = {
/* width height ncolors chars_per_pixel */
"48 50 30 1",
/* colors */
"  c #000000",
". c #D19849",
"X c #946A2E",
"o c #72361A",
"O c #5F301B",
"+ c #CF9239",
"@ c #E5A644",
"# c #F3B255",
"$ c #DB9F44",
"% c #F8B046",
"& c #FFC35D",
"* c #FABB58",
"= c #FFCD60",
"- c #FEC05B",
"; c #FEB140",
": c #FFF47C",
"> c #EAA940",
", c #FBB754",
"< c #5D391C",
"1 c #FEC264",
"2 c #F2AA41",
"3 c #FFE66E",
"4 c #E3AD59",
"5 c #803C19",
"6 c #562C1A",
"7 c #FFB542",
"8 c #FEB958",
"9 c #443115",
"0 c #B5843B",
"q c None",
/* pixels */
"qqqqqqqqqqqqqqqqqqqqq44+>#8-qqqqqqqqqqqqqqqqqqqq",
"qqqqqqqqqqqqqqqqqq.+.44$2;8-&=qqqqqqqqqqqqqqqqqq",
"qqqqqqqqqqqqqqqqq+.+$4#$,;--&=77qqqqqqqqqqqqqqqq",
"qqqqqqqqqqqqqq.0+.$$4#*@8;--&=%777-&qqqqqqqqqqqq",
"qqqqqqqqqq...44+$@4>#*1>;;8--=%777-&=7qqqqqqqqqq",
"qqqqqqqqq+..444$>>22,11>;8;8812777-&=7-=qqqqqqqq",
"qqqqqqqX0..@4##$2#,;,11>;888812777-&=7==3qqqqqqq",
"qqqqqq0X0.$4**1@;;,;811>;;8811>;;78-=7==3qqqqqqq",
"qqqqqqXX0$4#111>;;88811>;;88111>;8;8=3-=3qqqqqqq",
"qqqqqqXX+$>#111>;;8;881>;;88111>;;88==-==qqqqqqq",
"qqqqqqX0+@#,111>;;;8811>8;88111>;8881=,=3qqqqqqq",
"qqqqqqX0+@2,111>;;88811>;;88111>;;881=7=3qqqqqqq",
"qqqqqqX0+4#,111>;;;8811>;;88111>;;;81=7=33qqqqqq",
"qqqqqqX0+4#,111>;;8;811>8;88111>;;888=7==3qqqqqq",
"qqqqqXX0+>#8811>;;;;81>;;888111>;;881=7==3qqqqqq",
"qqqqqXX+$#28111>;88881>;;;8811555588117-33qqqqqq",
"qqqqqXX+$2,8111>;;8;81>;;;8815555;88117-=3qqqqqq",
"qqqqqXX+@#,81555555551>;;8885555;88811%7333qqqqq",
"qqqqqXX+4#,81155o55551>;;;88Ooo5;;8811%7=33qqqqq",
"qqqqq00+>#,8111>;OoOo1>;;;88ooo>;;8811%7333qqqqq",
"qqqqX00+>281111>;55581>;;;8o555>;;8811%7=33qqqqq",
"qqqqX00$2,88111>;o5o88>;;;8o55o>;;888127-33qqqqq",
"qqqqX00$#,81111>oooo11>;;88ooo1>;;881127==3qqqqq",
"qqqqX00$#,88111>oooo11>;;866661>;;;81127-33qqqqq",
"qqqqX00@2,88111>oo<O11>;8869991>;;881127=3=3qqqq",
"qqqqX00>#;81111>oooo88>;;8OO6OOo;8;81127=333qqqq",
"qqqq00+>2,81155555555555555oo555;;;811>77=33qqqq",
"qqqXX0+>2881<<OOOOO<6666666666O>;;;881877-=3qqqq",
"qqqX0.+22885511>555881>;;oooo11>;;;888>7&=33qqqq",
"qqqX0.+2;8881115555881>;8699611>;;;881>7&==3:qqq",
"qqqX0.+2,888111oooo881>;;OOOO11>;;;881>77==3:qqq",
"qqqX0.+2;888111555o881>;;oooo11>;;;881>777=3:qqq",
"qqqX0.$2;8881115555881>;8oooo11>;;;888>;77=3:qqq",
"qqXX04$2;;;8111Oooo881>;;ooOO11>;;;881>;77=3:qqq",
"qqXX+4$28888111Ooo8881>;8ooooo1>;88881>;77=3:qqq",
"qqX0.4$;;;881155558881>;;;55555oo;;881>;7&=3:=qq",
"qqX0.4$;;;8811OooO;881>;888ooooo;8;888>;7&=3:=qq",
"qqX0.4@;;88811OOOO;881>;;888111>;;;881>;8-==:=qq",
"qqX0.4*>;;;811oOO8;881>;8888111>;;;881>;;-=3==qq",
"qXX0$#1>;;88111>;88881>;;888811>;;;811>;8-&3==qq",
"qX0+$#1>;;88111>;;;881>;;;88111>;;;811>;;8&3-==q",
"qXX.@#1>;;;8111>;88881>;;;88811>;;8881>;;8&3-==q",
"qX0+@*1>;;;8111>;88881>;;;88811>;;;811>;;8-=-==q",
"qX0.@#1>;888111>;88881>;;;88111>;;;888>;;8-=-==q",
"qX0+4#1>;;88111>;;8881>;;;;8111>;;;881>;88-=,==q",
"qX0.>#1>;;88111>;;;8811>;;;8111>;8;881>;;8-=7==q",
"XX0+>#1>;;;8111>;;;8811>;;88111>;;8811>;;88=7===",
"X0+$##1@222,111@2222,11@222,111@222,11@2,,817-==",
"X0.$>#*$22##***$22###**$222#***$222#**$222#1%7==",
"0++@>##$>######$>>#####$>>>####$>>>###$>>>#*>77="
};
