/* XPM */
static char *Narwhal_W_wood[] = {
/* width height ncolors chars_per_pixel */
"52 54 30 1",
/* colors */
"  c #000000",
". c #D19849",
"X c #946A2E",
"o c #72361A",
"O c #5F301B",
"+ c #CF9239",
"@ c #E5A644",
"# c #F3B255",
"$ c #DB9F44",
"% c #F8B046",
"& c #FFC35D",
"* c #FABB58",
"= c #FFCD60",
"- c #FEC05B",
"; c #FEB140",
": c #FFF47C",
"> c #EAA940",
", c #FBB754",
"< c #5D391C",
"1 c #FEC264",
"2 c #F2AA41",
"3 c #FFE66E",
"4 c #E3AD59",
"5 c #803C19",
"6 c #562C1A",
"7 c #FFB542",
"8 c #FEB958",
"9 c #443115",
"0 c #B5843B",
"q c None",
/* pixels */
"0.+$>#####$>######$>>>###$>>####$>#####$>#####$2;&=3",
"000$>22#**$2#2#***$22###*$22###*$2###**$22##**@;7=3:",
"000$>#,,11@222,111@222,,1@22,,,1@2,,,11@222,,1>77=3:",
"X00+>#;811>;;8811>>;;;881>;;8881>;;;811>;;881127=33:",
"q00+>#,811>;;8811>;;;8881>;;8881>;;;811>;;;81127-33q",
"qXX+>2,811>;;;811>;;8;881>;88881>;;8881>;;888127-33q",
"qXX+@2,811>;8;811>;;;8881>;88881>;;;811>;8;88127-33q",
"qXX+$2,811>;;8811>;;8;881>;;;881>;;;811>;;8881%7==3q",
"qXX+$2,811>;;8811>;;8;811>;;8881>;;;811>;;;881%7=33q",
"qXX0+>#811>;;8111>;;8;811>;88881>;8;881>;;;881%7==3q",
"qqX0+>#,1>8;;8111>;88;811>;;8881>;;8881>;;;881%7333q",
"qqX0.4#11>;888111>;;8;811>8;8881>;;8881>;;8881%-33qq",
"qqX0.@#11>;;;8111>;88;811>8;8881>;;;881>;;88817-=3qq",
"qqX0.@#11>;;88111>;6<O811>;;88<O<<<;881>;;;8817-33qq",
"qqXX+$#11>;;88111>5555511>;8;885555;881>;;;88=7=33qq",
"qqXX0+#11>;888111><<<ooo1>;88885ooo;881>;;888-7==3qq",
"qqqX0+4*1>;8;81116O<8<ooo>;;881oooo;881>;;888=7==3qq",
"qqqX0.4*1>;888111Ooo8oooo>;;881oooO8;811>;888=7==3qq",
"qqqX0+@*>>;;;8111ooo8;oooo;;881555;;8811>;;8-=7=3qqq",
"qqqX0+@*@;;888111ooo;8oooo8;881555;88811>;88-=,=3qqq",
"qqqX0+$#@;;8;811o55;8885ooo;881555;;8811>;88-=-=3qqq",
"qqqXX0$#@;;88811ooo;;88<Oo<;881555;;;811>;88-=-==qqq",
"qqqqX0.4@;;88811555;8;81555o881555;;8881>;;8&3-==qqq",
"qqqqX0.4@;;;8881555;;;81555588555>;;8811>;;8&33==qqq",
"qqqqX0.4$;;8;81155588881>5o558555>;;8811>;8-&3:=qqqq",
"qqqqX0.4$;;;881o555;8;81>55558555>;;8811>;;-=3:=qqqq",
"qqqqX0.4$2;88815555;8;81>55555555>;88811>;8-=3:=qqqq",
"qqqqXX04$288881o55o;8;81>;55ooOoo>;;8811>;;-=3:=qqqq",
"qqqqqX0.$2;8881OoOo;8881>;oooooo1>;;8811>;8-=3:=qqqq",
"qqqqqX0.+2;;811ooo5;8881>;;55o551>;;8811>;7-=3:=qqqq",
"qqqqqX0.+2;88815ooo;;888>;;ooo551>;;8881>;7&=3:=qqqq",
"qqqqqX0.+2,8811ooooo;811>;;8oooo1>;;8811>;87=3:=qqqq",
"qqqqqX0.+2,88811oooo;811>;;866666>;;;811>;7&=3:qqqqq",
"qqqqqX0.+22888111>;;;811>;8869996>;;8811>;-=-3:qqqqq",
"qqqqqX00+>#;81111>;;;888>;;88O6OO>;8;811>;-==3:qqqqq",
"qqqqqq00+>2,81111>;;;881>;8888111>;;;811>;7==3:qqqqq",
"qqqqqqX00>2,81111>;;;881>;8888111>;;;8818777=3:qqqqq",
"qqqqqqX00@2,81111>;;;881>;;881111>;;;888>7&=33:qqqqq",
"qqqqqqX00$2,88111>;;8881>;8881111>;;;881>7&==3:qqqqq",
"qqqqqqX00$#,88111>;;;881>;;;81111>;;;881>77==3qqqqqq",
"qqqqqqX00+>#88111>;;8881>;;881111>;;;881>77-=3qqqqqq",
"qqqqqqq00+>#,8111>;;;881>;8881111>;;;888>77-=3qqqqqq",
"qqqqqqqXX+>2;8111>;;8881>;;881111>;;;881>77=33qqqqqq",
"qqqqqqqXX+@#,8111>;;8881>;8881111>;88881277=33qqqqqq",
"qqqqqqqXX+$2,8111>;88881>;;;88111>;;;88127733:qqqqqq",
"qqqqqqqXX+$>#,111>;8;881>;8888811>;8788-%7733:qqqqqq",
"qqqqqqqXX0+4##111>;;;881>;;888111>777--=%7==3qqqqqqq",
"qqqqqqqq00+$>#**1@2,;881>;88881112777&&=%77==qqqqqqq",
"qqqqqqqq00++$@4##$2##,,1>;;888811%777&==%7qqqqqqqqqq",
"qqqqqqqqqq++.$444+>>2##1>;;78-1==%777&=qqqqqqqqqqqqq",
"qqqqqqqqqqqqq.444++@4##*@;;7---==%77&qqqqqqqqqqqqqqq",
"qqqqqqqqqqqqqqqqq0+.$@4#$2;7--&==%qqqqqqqqqqqqqqqqqq",
"qqqqqqqqqqqqqqqqqqq...$4$22;--==qqqqqqqqqqqqqqqqqqqq",
"qqqqqqqqqqqqqqqqqqqqqq$4+>2;7qqqqqqqqqqqqqqqqqqqqqqq"
};
