/* XPM */
static char *Promoted_Knight_W_wood[] = {
/* width height ncolors chars_per_pixel */
"43 46 25 1",
/* colors */
"  c #000000",
". c #D19849",
"X c #946A2E",
"o c #CF9239",
"O c #CA0D0D",
"+ c #E5A644",
"@ c #F3B255",
"# c #DB9F44",
"$ c #F8B046",
"% c #FFC35D",
"& c #FABB58",
"* c #FFCD60",
"= c #FEC05B",
"- c #FEB140",
"; c #FFF47C",
": c #EAA940",
"> c #FBB754",
", c #FEC264",
"< c #F2AA41",
"1 c #FFE66E",
"2 c #E3AD59",
"3 c #FFB542",
"4 c #FEB958",
"5 c #B5843B",
"6 c None",
/* pixels */
"5..+2@#:@@@@@@#:::@@@#::@@@@#:@@@@@#:@@4*1=",
"55o+@&#<@<@&&&#<<@@@&#<<@@@&#<@@@&&#<<>=*1*",
"X5.+&,+--->,,,+--->>,+-->>>,+->>>,,+--3%*;*",
"X5o+&,:--44,,::---44,:--444,:---4,,:--=*1;*",
"X5.+&,:--44,,:---444,:--444,:---4,,:-33*1;*",
"XX.+&,:---4,,:--4-44,:-4444,:--444,:-3%*1;*",
"XXo#@,:-4-4,,:---444,:-4444,:---4,,:-43*1;*",
"XX5#@,:--44,,:--4-44,:---44,:---4,,:-3%*1;6",
"6X5.2,:--44,,:--4-4,,:--444OO---4,,:-33*1;6",
"6X5.2&:--4OOOOOOOOOOOOO4444OO-4-44,:-33*1;6",
"6X5.2+>--4,OO:-4OO4,,:--444OO--444,:-33*1;6",
"6X5.2#-444,,,:--OO4,,:4-444OO--444,:-3**1;6",
"6X5.2#---4,,,:-4OO4,,:4-444OO---44,:33*11;6",
"6XX52#<-44,,OOOOOOOOOO--444OO---O4,:33311;6",
"66X5.#<-44,,,:--OO4,,:-4-44OO-OO44,:33311;6",
"66X5.o<>44,,,:-4OO4,,:-4444OO-O-44,:33*1166",
"66X5.o<>-4,,,:-OOO4,,:-OO4,OOOO-44,:33*1166",
"66X5.o<>44,,,:--444,,:--OO,OOO-4-4,,<3*1166",
"66X55o<--4OOOOOOOOOOOOO-44OOOO--44,,$3*1166",
"66X55#<>44,OO:--OO4,,:4-44,OO:-444,,$311166",
"66X55#<>-4,,,:--OO4,,:--44,OO:--44,,$311166",
"66X55o:>44,,,:--OO4,,:-OOOOOOOOOO4,,$=11666",
"666X5o:@44,,OOOOOOOOOO4-44,OO:--444,3=*1666",
"666XXo:<>44,,:--OO4,:--444,OO:--44,,3**1666",
"666XXo+@-4,,,:-4OO4,:---44,OO:--44,*3*11666",
"666XXo#<>4,,,:--4-4,:---44,,,:--44,*3**1666",
"666XXo#@>4,,,:-OO-4,:--444,,,O-444,*3*11666",
"666XX5#@>4,,,:OO4-4,:---44,OO:--44,*3**6666",
"6666X5o2@>,,,OO-44OO:---44OO,:--44,*3*16666",
"6666X5o:@,,,,OO-44OO:---44OO,:--44,*>**6666",
"6666X5o+@>,,,OO--4OO:-OOOOOOOOOO44=*=**6666",
"6666XXo#@,,,,OO--4OO:--444OO,:--44**=*16666",
"6666XX5#@>,,,OO--4OO:--444OO,:---4*1=**6666",
"66666X5.2@,,,:---4,,:-4444,,,:--44*1=*16666",
"66666X5o2&,,,:---444:--444,,,:-4-4*1=*16666",
"66666X5.+&,,,:---44,:-4444,,,:---=*1**66666",
"66666XXo#@,,,:---44,:-4444,,,:---=*11*66666",
"66666XX5#@,,,:---44,:--44,,,,:--3=****66666",
"666666X5.2&,,:--444,:-444,,,,:-33%*1**66666",
"666666X5.#@&,+---44,:---4,,,,:333%*1**66666",
"666666X55.2@&+<->>>,:--44,,,,<333**1=*66666",
"666666655.222#<<<@>,:-444,,,,$333%**6666666",
"666666665..22o::@@@&+--4=,***$333%666666666",
"66666666666..oo#+22@+<44=,***$3666666666666",
"66666666666666o###+2#<<-4=**666666666666666",
"666666666666666666#2o:@>4666666666666666666"
};
