/* XPM */
static char *noname[] = {
/* width height ncolors chars_per_pixel */
"29 30 32 1",
/* colors */
"  c #000000",
". c #D19849",
"X c #946A2E",
"o c #72361A",
"O c #5F301B",
"+ c #FFFE89",
"@ c #CF9239",
"# c #E5A644",
"$ c #F3B255",
"% c #DB9F44",
"& c #F8B046",
"* c #FFC35D",
"= c #FABB58",
"- c #FFCD60",
"; c #FEC05B",
": c #FFFF86",
"> c #FEB140",
", c #FFF47C",
"< c #EAA940",
"1 c #FBB754",
"2 c #5D391C",
"3 c #FEC264",
"4 c #F2AA41",
"5 c #FFE66E",
"6 c #E3AD59",
"7 c #803C19",
"8 c #562C1A",
"9 c #FFB542",
"0 c #FEB958",
"q c #443115",
"w c #B5843B",
"e c None",
/* pixels */
"Xw.6@%%%%%%6@%%%%666@%%%#639-",
"7w%$%4444$==%4$4$===%44$$05-5",
"ow6=<>>11133<>>>1333<>>>0*5-e",
"2w63<>>0>033<>>0033<<>>>0-,-e",
"2X63<>>00033<>>003o<>>>O0-,5e",
"2X6=<>>Ooo33<>>>773<>>7>;-,5e",
"2X.=<>7777o3<>0oo33<>oO0;-,5e",
"2X.$<>O>0OO3<>>oo33<oo0>;-,5e",
"eXw@>>>>0oo3<>oo033<oo0>;5,5e",
"e7w@4>>>07oooooo333<oo0>*5:-e",
"e2X%4>>>0oo<0>OO333<Oo09-,:ee",
"e2X%4000033<>000333<oo09-,:ee",
"e2X64>0>077ooooo333<7709-,:ee",
"e2X@4>000o3<>>88338<8809-,+ee",
"e2X@4>0>033<>>77773<77>9-,+ee",
"e2X@<10>033OO8OO333<2209-,+ee",
"ee7w<>0>0338q088333<O209-,:ee",
"ee2w%400O33<>088333<oo0*-::ee",
"ee2X%40ooooooooooooooo095,eee",
"ee2X@$0>03<>>0oo333<>o9-5:eee",
"ee2X@40>03<>>077333<>>0-5:eee",
"ee2X@<10o77ooo2O333<>>9-5+eee",
"eee7w%$007<>>0oo333<>>;;5:eee",
"eee7X@$103<>>>07033<>99-5:eee",
"eeeeXw@$33<>>0>0333<9;-55eeee",
"eeeeXX@%6=#>>>00333499--5eeee",
"eeeeeXww.6%4410033-&99--eeeee",
"eeeeeeeww.@%6$0;---499eeeeeee",
"eeeeeeeeeww@@#1;333eeeeeeeeee",
"eeeeeeeeeeeew@63eeeeeeeeeeeee"
};
