/* XPM */
static char *noname[] = {
/* width height ncolors chars_per_pixel */
"31 31 28 1",
/* colors */
"  c #000000",
". c #D19849",
"X c #946A2E",
"o c #72361A",
"O c #CF9239",
"+ c #CA0D0D",
"@ c #E5A644",
"# c #F3B255",
"$ c #DB9F44",
"% c #F8B046",
"& c #FFC35D",
"* c #FABB58",
"= c #FFCD60",
"- c #FEC05B",
"; c #FEB140",
": c #FFF47C",
"> c #EAA940",
", c #FBB754",
"< c #5D391C",
"1 c #FEC264",
"2 c #F2AA41",
"3 c #FFE66E",
"4 c #E3AD59",
"5 c #803C19",
"6 c #FFB542",
"7 c #FEB958",
"8 c #B5843B",
"9 c None",
/* pixels */
"99999999999998O$$44@%9999999999",
"99999999998.8O$4#*1266999999999",
"9999998O...4O>22,11%66&;7=99999",
"9999XX8O@44#@2,;7112666-&=:9999",
"9999X8O>##11>;;7711>66-6&=:=999",
"999<XO>2,711>;;7711>;;7;-3:=999",
"999<XO2;7711>;;7111>;;7;-3:3999",
"999<XO2;771>7;;7111>;77;73:3999",
"999<X$#7711>;77711+>;;7;7=:=999",
"999<X$#;71++++++++++;77;7=:=999",
"999<X$#7711>;;771++>;77;7=3=399",
"999oX$#;711>;;77++1>;;;;713=399",
"99958@,;711>;77+111>;77;713=399",
"99958>,;711>;7+7111>;;7;713=399",
"99<XO>,7711>;7+7111>;;77713=399",
"99<XO27;71>>;;++111>+;7;773=399",
"99<XO#7;++++++++++++++;771==:99",
"99<X$27;71>;;7++111>;;7771=&399",
"99<X$27771>;;7++111>;;;771=-339",
"99<X$27771>;;7++111>;;7;7116339",
"99<X$27771>;;;++711>;;;;7126=:9",
"99<8$2;711>;;7++111>;7777126=39",
"9958>;;711>;;;++111>;;7;71>6=39",
"9<XO>;;711+;;+++111>;;7;71>6=3:",
"9<XO2;;711>++++7111>;;7;71>6-=:",
"9<XO#7;711>;++77111>;;7771>66=:",
"9<X$27;711>;;;71111>;;7771>66=:",
"95X$,7;711>;;777111>;;;777>66=:",
"9X8>2,;,11>;,,,1111>;;;,11>663:",
"XX8@>#2#**$2####***$222#**$263:",
"X88O$$$$44O$$$$$444O$$$$44O$#=3"
};
