/* XPM */
static char *noname[] = {
/* width height ncolors chars_per_pixel */
"29 30 29 1",
/* colors */
"  c #000000",
". c #D19849",
"X c #946A2E",
"o c #72361A",
"O c #CF9239",
"+ c #CA0D0D",
"@ c #E5A644",
"# c #F3B255",
"$ c #DB9F44",
"% c #F8B046",
"& c #FFC35D",
"* c #FABB58",
"= c #FFCD60",
"- c #FEC05B",
"; c #FFFF86",
": c #FEB140",
"> c #FFF47C",
", c #EAA940",
"< c #FBB754",
"1 c #5D391C",
"2 c #FEC264",
"3 c #F2AA41",
"4 c #FFE66E",
"5 c #E3AD59",
"6 c #803C19",
"7 c #FFB542",
"8 c #FEB958",
"9 c #B5843B",
"0 c None",
/* pixels */
"00000000000009.52000000000000",
"000000000099OO$<2237000000000",
"000000099..O$538==%7770000000",
"00000X9O.55$33<822%77=7=00000",
"0000XXO$#*2@::8822,77=-4>0000",
"0000X9O#<22,::8222,:7-74>0000",
"000oXO,<82,8::8222,:887=>;000",
"0001X.#+22,:888222,+:87=>;000",
"0001X$3++++++++++++++87&4>=00",
"000oX$#++2,::88222,:88:-4>400",
"00069@3++2,+:88+22,::::-4>400",
"000695:++2,++88++2,:88:84>400",
"001XO#:++++++++++++++8:8=>=00",
"001XO#8++2,++88++2,++888=>=00",
"001XO#:++,,++:8++2,++8:8&4=40",
"001X$#:++,:++88++2,++:8824=>0",
"001X$#:++++++++++++++88824=40",
"00oX$#8++,::888222,:::8824=40",
"0069$<8++,++88822++::8:824=>0",
"0069,<8++,++:+882++:+::827=40",
"01XO,:8++,+++++22+++++8827=40",
"01XO3:8++,++:8822++::8:827=40",
"01XO3:++2,++88822++::8:82%=4>",
"01X$3:+22,++88++2++::+:823-=4",
"01X$#++22,++++8222++++88237=4",
"01X$+:82++++:82222,++888237=4",
"019@<:822+::888222,:::88837=4",
"069,<:<22,:<<<2222,:::<22,7=>",
"XXO@#3#**$3####***$333#**@7=>",
"XXOO$$$55O$$$$$555O$$$$55O3=4"
};
