/* XPM */
static char *noname[] = {
/* width height ncolors chars_per_pixel */
"31 31 29 1",
/* colors */
"  c #000000",
". c #D19849",
"X c #946A2E",
"o c #72361A",
"O c #5F301B",
"+ c #CF9239",
"@ c #E5A644",
"# c #F3B255",
"$ c #DB9F44",
"% c #F8B046",
"& c #FFC35D",
"* c #FABB58",
"= c #FFCD60",
"- c #FEC05B",
"; c #FEB140",
": c #FFF47C",
"> c #EAA940",
", c #FBB754",
"< c #5D391C",
"1 c #FEC264",
"2 c #F2AA41",
"3 c #FFE66E",
"4 c #E3AD59",
"5 c #803C19",
"6 c #562C1A",
"7 c #FFB542",
"8 c #FEB958",
"9 c #B5843B",
"0 c None",
/* pixels */
"00000000000009+$$44@%0000000000",
"00000000009.9+$4#*1277000000000",
"0000009+...4+>22,11%77&;8=00000",
"0000XX9+@44#@2,;8112777-&=:0000",
"0000X9+>##11>;;8811>77-7&=:=000",
"000<X+>2,811>;oo811>o;8;-3:=000",
"000<X+2;88oooooooooooo8;-3:3000",
"000<X+2;881>8OO81O1>;88;83:3000",
"000<X$#8811>6688166>;;8;8=:=000",
"000<X$#;811oo;;o1155;88;8=:=000",
"000<X$#881OO;6666616688;8=3=300",
"000oX$#;8o1>;;85111>55;;813=300",
"00059@,;811>;8881OO>;88;813=300",
"00059>,;811>;866161>O;8;813=300",
"00<X+>,88166666666OOoo88813=300",
"00<X+28;81>>;oo81o1>;;8;883=300",
"00<X+#8;81>;5o881o1>;;;881==:00",
"00<X$28;81>558;8151>;;8881=&300",
"00<X$288815o;8881o1>;;;881=-330",
"00<X$28885>;;888111>5;8;8117330",
"00<X$28881>5555555555;;;8127=:0",
"00<9$2;811>;;8;5511>;8888127=30",
"0059>;;811>;;;85o115;;8;81>7=30",
"0<X+>;;811>;55555555;;8;81>7=3:",
"0<X+2;;811>;8885o11>;;8;81>7-=:",
"0<X+#8;811>;;88oO11>o;8881>77=:",
"0<X$28;811>55555oooo5;8881>77=:",
"05X$,8;811>;;888111>;;;888>77=:",
"0X9>2,;,11>;,,,1111>;;;,11>773:",
"XX9@>#2#**$2####***$222#**$273:",
"X99+$$$$44+$$$$$444+$$$$44+$#=3"
};
