/* XPM */
static char *noname[] = {
/* width height ncolors chars_per_pixel */
"31 31 30 1",
/* colors */
"  c #000000",
". c #D19849",
"X c #946A2E",
"o c #72361A",
"O c #5F301B",
"+ c #CF9239",
"@ c #E5A644",
"# c #F3B255",
"$ c #DB9F44",
"% c #F8B046",
"& c #FFC35D",
"* c #FABB58",
"= c #FFCD60",
"- c #FEC05B",
"; c #FEB140",
": c #FFF47C",
"> c #EAA940",
", c #FBB754",
"< c #5D391C",
"1 c #FEC264",
"2 c #F2AA41",
"3 c #FFE66E",
"4 c #E3AD59",
"5 c #803C19",
"6 c #562C1A",
"7 c #FFB542",
"8 c #FEB958",
"9 c #443115",
"0 c #B5843B",
"q c None",
/* pixels */
"qqqqqqqqqqqqq0+$$44@%qqqqqqqqqq",
"qqqqqqqqqq0.0+$4#*1277qqqqqqqqq",
"qqqqqq0+...4+>22,11%77&;8=qqqqq",
"qqqqXX0+@44#@2,;8112777-&=:qqqq",
"qqqqX0+>##11>;;8811>77-7&=:=qqq",
"qqq<X+>2,811>;;8811>;;8;-3:=qqq",
"qqq<X+2;8811>;;8111>;;8;-3:3qqq",
"qqq<X+2;881>8;;8111>;88;83:3qqq",
"qqq<X$#88OO>;888161>;;5;8=:=qqq",
"qqq<X$O;855>;o;81o5>;8558=:=qqq",
"qqq<X$555oOO6668166>;8<O8O3=3qq",
"qqqoX$oo811>;;8855555555553=3qq",
"qqq50@oo8oo>O6881OO>;8<o813=3qq",
"qqq50>oO<6669966166>;;<<813=3qq",
"qq<X+>oO816>688616OOoooo813=3qq",
"qq<X+2oo81o>o;;o1oo>;;5o883=3qq",
"qq<X+#oooooo5ooo1oo>;;5o81==:qq",
"qq<X$2oo81>;;8;815o5555581=&3qq",
"qq<X$2OO85>o;o8O1oo>;;oo81=-33q",
"qq<X$255855o;ooo155>;;55851733q",
"qq<X$255855;;558555555555527=:q",
"qq<0$25515>;;5;8155>;8558127=3q",
"qq50>;5515>5;588111>;;8;81>7=3q",
"q<X+>;58155;;5851155;;5581>7=3:",
"q<X+25;855>;85551o5>;;8551>7-=:",
"q<X+#5;851>;;oo81Oo>;;8Oo1>77=:",
"q<X$28;811>;;;81111>;;8881>77=:",
"q5X$,8;811>;;888111>;;;888>77=:",
"qX0>2,;,11>;,,,1111>;;;,11>773:",
"XX0@>#2#**$2####***$222#**$273:",
"X00+$$$$44+$$$$$444+$$$$44+$#=3"
};
