/* XPM */
static char *noname[] = {
/* width height ncolors chars_per_pixel */
"27 28 32 1",
/* colors */
"  c #000000",
". c #D19849",
"X c #946A2E",
"o c #72361A",
"O c #5F301B",
"+ c #FFFE89",
"@ c #CF9239",
"# c #E5A644",
"$ c #F3B255",
"% c #DB9F44",
"& c #F8B046",
"* c #FFC35D",
"= c #FABB58",
"- c #FFCD60",
"; c #FEC05B",
": c #FFFF86",
"> c #FEB140",
", c #FFF47C",
"< c #EAA940",
"1 c #FBB754",
"2 c #5D391C",
"3 c #FEC264",
"4 c #F2AA41",
"5 c #FFE66E",
"6 c #E3AD59",
"7 c #803C19",
"8 c #562C1A",
"9 c #FFB542",
"0 c #FEB958",
"q c #443115",
"w c #B5843B",
"e c None",
/* pixels */
"eeeeeeeeeeew.@63-eeeeeeeeee",
"eeeeeeeeeww@%$$3-9eeeeeeeee",
"eeeeeeww..@%410--999;eeeeee",
"eeeeXXw.66%4>033-&99*9-eeee",
"eeeeXw.6=#1>>033349;*9-,eee",
"eeeoX@633<>000333<>9;9-,:ee",
"eee2X@$33<>>>033377009-,:ee",
"eee2X%$3OO888888888009-,+ee",
"eeeow%$33<>>07733<>>>9-,:ee",
"eee7w%133<>00OO33<2009-,:ee",
"eee7w<1388qq888888O209-,:ee",
"ee2X.$133<>88888O<>>00*5:-e",
"ee2X.403<<oo>oo3oo>>0>;-,5e",
"ee2X%40ooo>00oo33<oo>0;5,5e",
"eeoX%403<>>0>7733<>>00;5,5e",
"ee7w#1037>>000333<o>>0;5,5e",
"ee7w61037ooooo77777>0>;5,5e",
"e2X@$10377>>0003377>>>;5-5e",
"e2X@403377>0>03337700005-5e",
"e2X@4033777777oo777>0>0--5e",
"eoX%403377>00033377>0>0-*5e",
"e7w%40337700003337o>0>0-;55",
"e7w6>033777oooOOoOo>00039-5",
"2X@$>0337>>>03333<>>00039-5",
"2X.$>033<>>000333<>>>00;9-5",
"2X@$>133<>1113333<>>>1339-5",
"7w@$4$==%4$$$$===%444$==&-5",
"Xw@%%%66@%%%%%666@%%%%66%95"
};
