/* XPM */
static char *noname[] = {
/* width height ncolors chars_per_pixel */
"27 28 32 1",
/* colors */
"  c #000000",
". c #D19849",
"X c #946A2E",
"o c #72361A",
"O c #5F301B",
"+ c #FFFE89",
"@ c #CF9239",
"# c #E5A644",
"$ c #F3B255",
"% c #DB9F44",
"& c #F8B046",
"* c #FFC35D",
"= c #FABB58",
"- c #FFCD60",
"; c #FEC05B",
": c #FFFF86",
"> c #FEB140",
", c #FFF47C",
"< c #EAA940",
"1 c #FBB754",
"2 c #5D391C",
"3 c #FEC264",
"4 c #F2AA41",
"5 c #FFE66E",
"6 c #E3AD59",
"7 c #803C19",
"8 c #562C1A",
"9 c #FFB542",
"0 c #FEB958",
"q c #443115",
"w c #B5843B",
"e c None",
/* pixels */
"Xw.@%%%%%%6@%%%%666@%%%#$-;",
"Xw6%4444$==%4$4$===%44$$;5-",
"ow6#>>11133<>>>1333<>>>0-,-",
"2w6#>>0>033<>>0033<<>>>;-,5",
"2w6#>>00033<>>0033O>>>0*-:-",
"2X.#>>>0o7777777777>>09-5:e",
"2X.%>>>07o3<>0>03Oo>>>0-5:e",
"eXw@>>>0OO3<>>003oo>>09-5:e",
"e7X%4>>0ooooooooooo>>09-,+e",
"e2X%4>>07o3<>>033oo>>09-,:e",
"e2X%4>>0oo<0>>0332O>009-::e",
"e2X%$000OO8888qq88O>>095:ee",
"e2w%40>073<>>>03337>0095:ee",
"e2X%400033<>880333<>0095:ee",
"e2X@40>oo3<>o7033777>995+ee",
"e2X@$0>03oO>8O0OO3<>0;;5:ee",
"e2X@<1>0338qq88833<>>*-5:ee",
"ee7w<10OO88888888OO>9-5,eee",
"ee7w%1>0o<<>oo0333<>9--,eee",
"eeoX%$>03<>>oo0333<>995,eee",
"ee2X@$>0777777777o7>9-5,eee",
"eeoX@$1077>>000333<>9;5,eee",
"ee7Xw#$13<>>000333<99--,eee",
"eeeXX.%$=#4>>00033499--eeee",
"eeeeXw@.6@<41>03--&9--5eeee",
"eeeeeewwww@<40;---&99eeeeee",
"eeeeeeeeeXw@6$0---eeeeeeeee",
"eeeeeeeeeew.%#$3eeeeeeeeeee"
};
