/* XPM */
static char *noname[] = {
/* width height ncolors chars_per_pixel */
"31 31 29 1",
/* colors */
"  c #000000",
". c #D19849",
"X c #946A2E",
"o c #72361A",
"O c #CF9239",
"+ c #CA0D0D",
"@ c #E5A644",
"# c #F3B255",
"$ c #DB9F44",
"% c #F8B046",
"& c #FFC35D",
"* c #FABB58",
"= c #FFCD60",
"- c #FEC05B",
"; c #FFFF86",
": c #FEB140",
"> c #FFF47C",
", c #EAA940",
"< c #FBB754",
"1 c #5D391C",
"2 c #FEC264",
"3 c #F2AA41",
"4 c #FFE66E",
"5 c #E3AD59",
"6 c #803C19",
"7 c #FFB542",
"8 c #FEB958",
"9 c #B5843B",
"0 c None",
/* pixels */
"00000000000009O$$5*300000000000",
"0000000000099O$5#22%77000000000",
"00000009....O$33<22%77&7=000000",
"0000XX9O$@55$3<:8223777==400000",
"000069O@##22@::8822,77-7=4>0000",
"0000X9$3<<22,::8822,::87=>;0000",
"0001XO,:8822,::8222,::87&4>=000",
"0001XO3:882,8:++222,:88:-4>4000",
"0001X$#8822,:8++222+::8:-4>4000",
"0001X$#:82+++++++++++88:8=>=000",
"00069$<8822,::88222,:88:8=>=000",
"00069,<:822++:882++,::::8=4=400",
"001XO#<:822,++882+2,:88:824=400",
"001XO38:822,:+:8+22,:+8:824=400",
"001XO388+++++++++++++++8824=400",
"001X$38:82,,:::8222,::8:884=400",
"001X$#8:8++++++++++++::882==>00",
"001X$38:8++::8++222++:8882=&400",
"0019$3888++::8++222++::882=-440",
"0069,:888++++++++++++:8:8227440",
"01XO,:888++:::++822++:::8237=>0",
"01XO3::82++::8++222++8888237=40",
"01XO3::82++++++++++++:8:82,7=40",
"01X$3::822,::8++222,::8:82,7=4>",
"01X$3::822,:88++222,::+:82,7-=>",
"01X$#8:822,::88++22,:+8882,77=>",
"06X$38:822,:::82++++++8882,77=>",
"0X9,<8:822,::8882++++::888,77=>",
"oX9,:<:<22,:<<<2222,:::<22,774>",
"X9O,3#3#**$3####***$333#**$374>",
"X99$$$$$55O$$$$$555O$$$$55O$#=4"
};
