/* XPM */
static char * P_Free_King_B_wood_xpm[] = {
"31 31 27 1",
" 	c None",
".	c #B5843B",
"+	c #CF9239",
"@	c #DB9F44",
"#	c #E5A644",
"$	c #E3AD59",
"%	c #FFB542",
"&	c #D19849",
"*	c #EAA940",
"=	c #F3B255",
"-	c #FABB58",
";	c #FEC264",
">	c #F2AA41",
",	c #FBB754",
"'	c #F8B046",
")	c #FEB958",
"!	c #FFCD60",
"~	c #946A2E",
"{	c #FEB140",
"]	c #FEC05B",
"^	c #FFC35D",
"/	c #FFF47C",
"(	c #FFE66E",
"_	c #5D391C",
":	c #CA0D0D",
"<	c #72361A",
"[	c #803C19",
"             .+@#$$#%          ",
"          .&.+@*=-;>%%         ",
"      .+&&&$+*=>,;;'%%%))!     ",
"    ~~.+#$$=#>{));;>%%]%^!/    ",
"    ~.+*==;;*{{));;*%%]%^(/!   ",
"   _~+*>,);;*{::;;;*:{){](/!   ",
"   _~+>{))::::::::::::){](/(   ",
"   _~@=));;*{::);:;*{{){)(/(   ",
"   _~@={);;*::{);::*{)){)!/!   ",
"   _~@=));;::{):;;::{)){)!/!   ",
"   _~@={);::{:::::;::{{{)!(!(  ",
"   <~@={):;*{)):;;;*::){);(!(  ",
"   [.@,{);;*{){);::*{{){);(!(  ",
"   [.*,));;*{)::;:;*:{)));(!(  ",
"  _~+*,{);::::::::::::){)](!(  ",
"  _~+=){);*{{::);:;*{{{));(!/  ",
"  _~+>){);*{::{);:;*{{)));!!(  ",
"  _~@>)));*::)));:;*{{{));!^(  ",
"  _~@>)));::{)));:;*{{){);!](( ",
"  _~@>))):*{{{)));;*:{{{);>]!/ ",
"  _~@>{);;*::::::::::))));>%!( ",
"  _.@>{);;*{{{)::;;*{{){);>%!( ",
"  [.*{{);;*{{))::;;:{{){);*%!/ ",
" _~+*{{);;*{::::::::{{){);*%!(/",
" _~+=){);;*{{))::;;*{{)));*%]!/",
" _~+>){);;*{{{)::;;*:{)));*%%!/",
" _~@=){);;*::::::::::{{)))*%%!/",
" [~@>){);;*{)));;;;*{{{);;*%%(/",
" ~.*>,{,;;*{,,,,;;;*{{{,;;*%%(/",
"~~.#*>>=--@>>===---@>>>=--@>](/",
"~..+@@@@$$+@@@@$$$$+@@@@@@+@>!("};
