/* XPM */
static char *noname[] = {
/* width height ncolors chars_per_pixel */
"27 28 32 1",
/* colors */
"  c #000000",
". c #D19849",
"X c #946A2E",
"o c #72361A",
"O c #5F301B",
"+ c #FFFE89",
"@ c #CF9239",
"# c #E5A644",
"$ c #F3B255",
"% c #DB9F44",
"& c #F8B046",
"* c #FFC35D",
"= c #FABB58",
"- c #FFCD60",
"; c #FEC05B",
": c #FFFF86",
"> c #FEB140",
", c #FFF47C",
"< c #EAA940",
"1 c #FBB754",
"2 c #5D391C",
"3 c #FEC264",
"4 c #F2AA41",
"5 c #FFE66E",
"6 c #E3AD59",
"7 c #803C19",
"8 c #562C1A",
"9 c #FFB542",
"0 c #FEB958",
"q c #443115",
"w c #B5843B",
"e c None",
/* pixels */
"Xw.@%%%%%%6@%%%%666@%%%#$-;",
"Xw6%4444$==%4$4$===%44$$;5-",
"ow6#>>11133<>>>1333<>>>0-,-",
"2w6#>>7>033<>>o033<<>>>;-,5",
"2w6#>>0oo33<oo0033<O>>0*-:-",
"2X.#>>>oo33<77>03377>09-5:e",
"2X.%>>>0033<>0>o33oo>>0-5:e",
"eXw@>OOOOOOOOOoo33oo>09-5:e",
"e7X%4Oo003o<>>oo33oo>09-,+e",
"e2X%477003o<>>oo33oo>097,:e",
"e2X%477ooooOOOOO33OO0oo-::e",
"e2X%$OO0338>00qq33Ooo795:ee",
"e2w%4Oo033o>>>oo33777095:ee",
"e2X%4777oOO8888883888095:ee",
"e2X@4o>03o7>>0073777>995+ee",
"e2X@$0>033<>000333220;;5:ee",
"e2X@<1O2888qq888338O>*-5:ee",
"ee7w<10O388>880333Oo9-5,eee",
"ee7w%1>03oo>oo03ooooo7-,eee",
"eeoX%$ooooo7oooo33oo995,eee",
"ee2X@$>7377>770333779-5,eee",
"eeoX@$1037o>o20333<o9;5,eee",
"ee7Xw#$13<>>000333<99--,eee",
"eeeXX.%$=#4>>00033499--eeee",
"eeeeXw@.6@<41>03--&9--5eeee",
"eeeeeewwww@<40;---&99eeeeee",
"eeeeeeeeeXw@6$0---eeeeeeeee",
"eeeeeeeeeew.%#$3eeeeeeeeeee"
};
