/* XPM */
static char *noname[] = {
/* width height ncolors chars_per_pixel */
"26 27 30 1",
/* colors */
"  c #000000",
". c #D19849",
"X c #946A2E",
"o c #72361A",
"O c #FFFE89",
"+ c #CF9239",
"@ c #CA0D0D",
"# c #E5A644",
"$ c #F3B255",
"% c #DB9F44",
"& c #F8B046",
"* c #FFC35D",
"= c #FABB58",
"- c #FFCD60",
"; c #FEC05B",
": c #FFFF86",
"> c #FEB140",
", c #FFF47C",
"< c #EAA940",
"1 c #FBB754",
"2 c #5D391C",
"3 c #FEC264",
"4 c #F2AA41",
"5 c #FFE66E",
"6 c #E3AD59",
"7 c #803C19",
"8 c #FFB542",
"9 c #FEB958",
"0 c #B5843B",
"q c None",
/* pixels */
"qqqqqqqqqqq0.63qqqqqqqqqqq",
"qqqqqq0..0++#133#48qqqqqqq",
"qqqqX0.66%<<$333488-;qqqqq",
"qqq7X0%$#144133348*--5qqqq",
"qqq70.$3<>999333<88-;5,qqq",
"qqqX0#33<>>>9333<>9;85:qqq",
"qq2X.$33<>>99333<>9985,:qq",
"qq2X+$33<>>99333<>>>8-,:qq",
"qq2X+$3@@@999333<>998-,Oqq",
"qq2X%$33@@@>933@@>>98-,Oqq",
"qqo0%$33<>@@933@@>>9;-,Oqq",
"qq70%13<<>>@93@@<>>98-5:qq",
"qqX0<13<>>9@@@33<>>>9-,:qq",
"q2X.<13<>>@@@333<>>99-,:qq",
"q2X.$93<>@@99333<>>>9*5:-q",
"q2X%$93<@>999333<>>9>;5,5q",
"qoX%$93<@>>99933<>>>>;5-5q",
"q70%133<@>9>9333<>999;5-5q",
"q70<133<@@>99333<>>9>;5-5q",
"2X+<133<>@@@@@@@@>>9>;5-5q",
"2X+4933<>9@@@@@@@>>9>95-5q",
"2X%4933<>>999333<>>999--5q",
"2X%4933<>>>93333<>>999-*5q",
"20%4933<>>999333<>>>99*;55",
"oX%4133<>1113333<>>>1338-5",
"70%<$==%4$$$$===%444$=3&-5",
"X0+%%66+%%%%%666+%%%%66%85"
};
