/* XPM */
static char *Copper_General_W_wood[] = {
/* width height ncolors chars_per_pixel */
"21 22 32 1",
/* colors */
"  c #000000",
". c #D19849",
"X c #946A2E",
"o c #72361A",
"O c #5F301B",
"+ c #FFFE89",
"@ c #CF9239",
"# c #E5A644",
"$ c #F3B255",
"% c #DB9F44",
"& c #F8B046",
"* c #FFC35D",
"= c #FABB58",
"- c #FFCD60",
"; c #FEC05B",
": c #FFFF86",
"> c #FEB140",
", c #FFF47C",
"< c #EAA940",
"1 c #FBB754",
"2 c #5D391C",
"3 c #FEC264",
"4 c #F2AA41",
"5 c #FFE66E",
"6 c #E3AD59",
"7 c #803C19",
"8 c #562C1A",
"9 c #FFB542",
"0 c #FEB958",
"q c #443115",
"w c #B5843B",
"e c None",
/* pixels */
"Xw..6@@@....6@@..%63,",
"2w#$=%4444$==%4$4$35:",
"2w633OO>00033<>>>8-,+",
"qX#377>o0>o33<>>oo-,5",
"qX.3o<>>00o33ooo00-,5",
"eow=O<>>>0o37<>7>7-,5",
"e2w$7<>>>0733o>o>o5:5",
"e2w$O<oOO0O3O<>O0;5:e",
"e2w6o>O>o0o33<>o0*,+e",
"e2X67>o>7073oooooo,+e",
"e2X@7>7770o3<0>O0-,+e",
"eeowo>0000O3<888q-,+e",
"ee2XO>OOo073<>>>0o,+e",
"ee2X7>>000o3O>>08-,+e",
"ee2X7oooooo3<7>775:+e",
"ee2X%700>033<>8O;5:ee",
"ee2X@4>0>033<>0>*,+ee",
"eee2w<410033<>0;-,+ee",
"eee2X@#$413<4999-,:ee",
"eeeeXXw%%$3&99*;05eee",
"eeeeeeXww.$49>0eeeeee",
"eeeeeeeeew6#eeeeeeeee"
};
