/* XPM */
static char *Crown_Prince_B_wood[] = {
/* width height ncolors chars_per_pixel */
"23 24 30 1",
/* colors */
"  c #000000",
". c #D19849",
"X c #946A2E",
"o c #72361A",
"O c #FFFE89",
"+ c #CF9239",
"@ c #CA0D0D",
"# c #E5A644",
"$ c #F3B255",
"% c #DB9F44",
"& c #F8B046",
"* c #FFC35D",
"= c #FABB58",
"- c #FFCD60",
"; c #FEC05B",
": c #FFFF86",
"> c #FEB140",
", c #FFF47C",
"< c #EAA940",
"1 c #FBB754",
"2 c #5D391C",
"3 c #FEC264",
"4 c #F2AA41",
"5 c #FFE66E",
"6 c #E3AD59",
"7 c #FFB542",
"8 c #FEB958",
"9 c #443115",
"0 c #B5843B",
"q c None",
/* pixels */
"qqqqqqqqqqq06#qqqqqqqqq",
"qqqqqqqq000.$&77qqqqqqq",
"qqqqqX00.+#$3&77;85qqqq",
"qqqXX0+%6$$33477*-,:qqq",
"qqqX0+44>1833<>77-,Oqqq",
"qq2X.%>>>8833<@8>*,Oqqq",
"qq2X6#>>@@@@@@@@8;5:qqq",
"qq20%>>>>8833@@>8;5:5qq",
"qq20%>>>>883@<>>83-,5qq",
"qq2X<>>>>88@<8>>83-,5qq",
"qqo04>88883@<>8883-,5qq",
"q2X+3>>8>83@@>>>8@-,5qq",
"q2X+>@@@@@@@@@@@@@@5-qq",
"q20%>>>8>83@@>>88335-5q",
"q20%>>88>83@@>88833--5q",
"q20%>>>8>83@@>8>833--5q",
"q20%>>>8883@@>88833--5q",
"q20%>>>8>83@@>>>833-;5q",
"q20%>>8@>83@@>888333755",
"qo.%>>>8@@@@>>8>83337-5",
"9X.#>>>88@@<>>888333&-5",
"2X6#>>>8883<>>888333&-5",
"206%444$$$=%444$$$==<-5",
"X0.+++++.66+++.+.666+75"
};
