/* XPM */
static char *Crown_Prince_W_wood[] = {
/* width height ncolors chars_per_pixel */
"23 24 28 1",
/* colors */
"  c #000000",
". c #D19849",
"X c #946A2E",
"o c #72361A",
"O c #CF9239",
"+ c #CA0D0D",
"@ c #E5A644",
"# c #F3B255",
"$ c #DB9F44",
"% c #F8B046",
"& c #FFC35D",
"* c #FABB58",
"= c #FFCD60",
"- c #FEC05B",
"; c #FEB140",
": c #FFF47C",
"> c #EAA940",
", c #FBB754",
"< c #5D391C",
"1 c #FEC264",
"2 c #F2AA41",
"3 c #FFE66E",
"4 c #E3AD59",
"5 c #FFB542",
"6 c #FEB958",
"7 c #443115",
"8 c #B5843B",
"9 c None",
/* pixels */
"X8..4OOO....4OO...4442=",
"<8@#*$2222#**$2#2#**1-3",
"<8#11>;;66611>;;;611==3",
"78411>;;6;61++;;66115=3",
"7X@11>;;666++++;661=-39",
"7X.11>;;;6++1>;+;61==39",
"9o8*1>;;;6++1>;6;61==39",
"9<8#1>;;;6++1>;;661==39",
"9<84>;;;;6++1>;;661==39",
"9<X4@;;;;6++1>;;611==39",
"9<XO2;;;;6++>6;;611==39",
"99o8++++++++++++++1==39",
"99<X#+;6;6++>;;;6113=39",
"99<X>;;6661+>;;661=3=99",
"99<X>;;6;61+>;;661=:399",
"99<X$;66;6+1>;6661=:399",
"99<XO2;6++11>;6;61=:399",
"999<82;++++++++661=:399",
"999<8>;6+61>>;;;613:399",
"9997X$#,;61>;;66-=3:999",
"999<XO$42,1>55&5-=3:999",
"9999X888.41%55&-,199999",
"9999999X8.#25;699999999",
"99999999984@99999999999"
};
