/* XPM */
static char *Dog_B_wood[] = {
/* width height ncolors chars_per_pixel */
"19 20 32 1",
/* colors */
"  c #000000",
". c #D19849",
"X c #946A2E",
"o c #72361A",
"O c #5F301B",
"+ c #FFFE89",
"@ c #CF9239",
"# c #E5A644",
"$ c #F3B255",
"% c #DB9F44",
"& c #F8B046",
"* c #FFC35D",
"= c #FABB58",
"- c #FFCD60",
"; c #FEC05B",
": c #FFFF86",
"> c #FEB140",
", c #FFF47C",
"< c #EAA940",
"1 c #FBB754",
"2 c #5D391C",
"3 c #FEC264",
"4 c #F2AA41",
"5 c #FFE66E",
"6 c #E3AD59",
"7 c #803C19",
"8 c #562C1A",
"9 c #FFB542",
"0 c #FEB958",
"q c #443115",
"w c #B5843B",
"e c None",
/* pixels */
"eeeeeeeew63eeeeeeee",
"eeeeeXww.$34>0eeeee",
"eeeXXw@#$3-&99--eee",
"ee2X@#4$133499-5,ee",
"eeqX%4>0033<>9*5:ee",
"ee2X<>>003<0>>;5:+e",
"ee2w$0003O<8000-,+e",
"eeow40>037<o>>0-,+e",
"eqX@40003O<>>80-,+e",
"eqX%>ooooo77o77-,+e",
"eqX<00>03o<>000-,+e",
"eqX<>0>0888>0>0-,+e",
"eqw<>000O38>000-,+e",
"e2w<>0>oo<oo>>0-,+e",
"e2w400oo3<>7oo0-5:e",
"2X@4>oo03<>>77035:5",
"2X%>>0003<>>0003-,5",
"2X<>>0003<>>0003-,5",
"2X#44$$$=%444$$$35-",
"XX@@@@.66@@@.@.663-"
};
