/* XPM */
static char *Drunk_Elephant_B_wood[] = {
/* width height ncolors chars_per_pixel */
"23 23 29 1",
/* colors */
"  c #000000",
". c #D19849",
"X c #946A2E",
"o c #72361A",
"O c #5F301B",
"+ c #CF9239",
"@ c #E5A644",
"# c #F3B255",
"$ c #DB9F44",
"% c #F8B046",
"& c #FABB58",
"* c #FFCD60",
"= c #FEC05B",
"- c #FEB140",
"; c #FFF47C",
": c #EAA940",
"> c #FBB754",
", c #5D391C",
"< c #FEC264",
"1 c #F2AA41",
"2 c #FFE66E",
"3 c #E3AD59",
"4 c #803C19",
"5 c #562C1A",
"6 c #FFB542",
"7 c #FEB958",
"8 c #443115",
"9 c #B5843B",
"0 c None",
/* pixels */
"00000000009.3$-00000000",
"0000000999.3&:66>=00000",
"0000XX9+$@3&<166=*2;000",
"000,X9$:1#><<:666*2;000",
"00049$1--47<<o-7-=2;200",
"00,X.@--OOOOOOO-77*;200",
"00,X+--Oo77<o:--77*;200",
"00,9$-o4-77o<:--7<*;200",
"00,X:4-44ooooOOO7<*;200",
"00,X:-7O77<O:-757<*2*00",
"00,X#--Oo444oooo7<<2*20",
"00o91--774oO:--77<<**20",
"0,X+1--7o7oo:-o47<<**20",
"0,X+--7o-oo<OO777<<**20",
"0,9$-o47O75<5-7-7<<**20",
"0,9$---o7OO<:5777<<**20",
"0,9$--o7o7o::oo-7<<*=20",
"0o.$--7o-7o:--oo7<<<622",
"8X.@---7o44:--744<<<6*2",
"8X3@---77o<:--777<<<%*2",
",93:---777<:--777<<<%*2",
",93$111###&$111###&&:*2",
"X9.+++++.33+++.+.333+62"
};
