/* XPM */
static char *Free_Boar_W_wood[] = {
/* width height ncolors chars_per_pixel */
"20 21 30 1",
/* colors */
"  c #000000",
". c #D19849",
"X c #946A2E",
"o c #72361A",
"O c #FFFE89",
"+ c #CF9239",
"@ c #CA0D0D",
"# c #E5A644",
"$ c #F3B255",
"% c #DB9F44",
"& c #F8B046",
"* c #FFC35D",
"= c #FABB58",
"- c #FFCD60",
"; c #FEC05B",
": c #FFFF86",
"> c #FEB140",
", c #FFF47C",
"< c #EAA940",
"1 c #FBB754",
"2 c #5D391C",
"3 c #FEC264",
"4 c #F2AA41",
"5 c #FFE66E",
"6 c #E3AD59",
"7 c #FFB542",
"8 c #FEB958",
"9 c #443115",
"0 c #B5843B",
"q c None",
/* pixels */
"X0.6+++....6++..%63,",
"20#=%4444$==%4$4$35:",
"2063@>>88@33<>@>8-,O",
"2X63@@@@@@33<@@@8-,5",
"2X.3@>>88@33<@>88-,5",
"qo.=@@@@@@3@<@>>;5:5",
"q20$@>>>8@@3<@8>;5:q",
"q20$@@@@@@@3<@>8@,Oq",
"q20%>>>>8@33<@>@*,Oq",
"q20%>>>>@833<@@8-,Oq",
"q2X%@@@@@@@@8@>8@,Oq",
"q2X+488@8@3<>@8@5:Oq",
"qq2.4@@>8@3<>@@;5:qq",
"qq20<@8@@@@@>@@*,Oqq",
"qq9X<>8>8@3<@>@*,Oqq",
"qq9X%$1>8@3@>88-,Oqq",
"qq2X+%$4133<>87-,:qq",
"qqqXX0.#$3347*--,qqq",
"qqqqqX00.$<&777-qqqq",
"qqqqqqqX0.#7>8qqqqqq",
"qqqqqqqqq.%qqqqqqqqq"
};
