/* XPM */
static char *Great_General_W_wood[] = {
/* width height ncolors chars_per_pixel */
"23 23 30 1",
/* colors */
"  c #000000",
". c #D19849",
"X c #946A2E",
"o c #72361A",
"O c #5F301B",
"+ c #CF9239",
"@ c #E5A644",
"# c #F3B255",
"$ c #DB9F44",
"% c #FFC35D",
"& c #FABB58",
"* c #FFCD60",
"= c #FEC05B",
"- c #FFFF86",
"; c #FEB140",
": c #FFF47C",
"> c #EAA940",
", c #FBB754",
"< c #5D391C",
"1 c #FEC264",
"2 c #F2AA41",
"3 c #FFE66E",
"4 c #E3AD59",
"5 c #803C19",
"6 c #562C1A",
"7 c #FFB542",
"8 c #FEB958",
"9 c #443115",
"0 c #B5843B",
"q c None",
/* pixels */
"X0..4+++....4++...4442*",
"<0@#&$2222#&&$2#2#&&1=3",
"<0#11>;;88811>;;;811**3",
"90411>;o55811>o;88117*3",
"9X@11>;o888o1>o;oo11733",
"9X.11>;o;8815>5;581*=3q",
"qo0&155555511>o8;81**3q",
"q<0#1>;O;881O>O;oo1**3q",
"q<0#>oO;;o8o1>o;8o1**3q",
"q<0#>;;5555oo>oo811**3q",
"q<0$;;;;;881>8;;8113*3q",
"q<X+;;88OO11>;6881*3*qq",
"q<X+1;;8;551>o;;81*:3qq",
"qqo02;;888o1O;;881*:3qq",
"qq<X>;;8;81o>;;881*:3qq",
"qq<X>;88;81o>;8881*:3qq",
"qq<X>;;oO<66699681*:3qq",
"qq<X$;;o8816>;88813-3qq",
"qq<X+2;8;81o>;;78*3-qqq",
"qqqo0$##;81>77=%%*3:qqq",
"qqq5X0+@>#1277=7=13qqqq",
"qqqqqX00.$&>77,8qqqqqqq",
"qqqqqqqq0+4$;qqqqqqqqqq"
};
