/* XPM */
static char *Lion_W_wood[] = {
/* width height ncolors chars_per_pixel */
"23 23 30 1",
/* colors */
"  c #000000",
". c #D19849",
"X c #946A2E",
"o c #72361A",
"O c #5F301B",
"+ c #CF9239",
"@ c #E5A644",
"# c #F3B255",
"$ c #DB9F44",
"% c #FFC35D",
"& c #FABB58",
"* c #FFCD60",
"= c #FEC05B",
"- c #FFFF86",
"; c #FEB140",
": c #FFF47C",
"> c #EAA940",
", c #FBB754",
"< c #5D391C",
"1 c #FEC264",
"2 c #F2AA41",
"3 c #FFE66E",
"4 c #E3AD59",
"5 c #803C19",
"6 c #562C1A",
"7 c #FFB542",
"8 c #FEB958",
"9 c #443115",
"0 c #B5843B",
"q c None",
/* pixels */
"X0..4+++....4++...4442*",
"<0@#&$2222#&&$2#2#&&1=3",
"<0#11>;;88811>;;;811**3",
"90411>o;8;811>;;88117*3",
"9X@1o>o;88ooo>;;o811733",
"9X.1O>o;O8o15>;5;51*=3q",
"qo0&5>5;5851o>oo;81**3q",
"q<0#O>o;O8O1O>O;88o**3q",
"q<0#o;O;o8ooo>o;oo1**3q",
"q<0#5;o;5881o>ooo11**3q",
"q<0$5;5;58ooo8OO8113*3q",
"q<X+o;o8O8O16;688163*qq",
"q<X+O;O8o851o;oooo*:3qq",
"qqo0555558o1O;;661*:3qq",
"qq<X>;o8;8oo5;o581*:3qq",
"qq<Xo55oo811O;68O1*:3qq",
"qq<X>;;8;811>;8;81*:3qq",
"qq<X$;;88811>;88813-3qq",
"qq<X+2;8;81>>;;78*3-qqq",
"qqqo0$##;81>77=%%*3:qqq",
"qqq5X0+@>#1277=7=13qqqq",
"qqqqqX00.$&>77,8qqqqqqq",
"qqqqqqqq0+4$;qqqqqqqqqq"
};
