/* XPM */
static char *P_Chariot_Soldier_B_wood[] = {
/* width height ncolors chars_per_pixel */
"21 22 28 1",
/* colors */
"  c #000000",
". c #D19849",
"X c #946A2E",
"o c #CF9239",
"O c #CA0D0D",
"+ c #E5A644",
"@ c #F3B255",
"# c #DB9F44",
"$ c #F8B046",
"% c #FFC35D",
"& c #FABB58",
"* c #FFCD60",
"= c #FEC05B",
"- c #FFFF86",
"; c #FEB140",
": c #FFF47C",
"> c #EAA940",
", c #FBB754",
"< c #5D391C",
"1 c #FEC264",
"2 c #F2AA41",
"3 c #FFE66E",
"4 c #E3AD59",
"5 c #FFB542",
"6 c #FEB958",
"7 c #443115",
"8 c #B5843B",
"9 c None",
/* pixels */
"99999999984+999999999",
"999999888.@25;6999999",
"999X88o#+@1$555*39999",
"99<Xo#>@@11>5=5*::999",
"99<X#2;,611>;;6%3-999",
"99<8>;;661O>;;6=3-399",
"99<82;;661O>;;61*:399",
"97Xo2;OOOOOOOOO1*:399",
"97X#,66611O;6661*:399",
"978>;6OOOOOOOOO1*:399",
"97X>;6O611O;;6O1*3*99",
"97X>;6OOOOOOOOO113*39",
"978>66O611O;66O11**39",
"9<8>;6OOOOOOOOO11**39",
"9<82;66611O;66611**39",
"<Xo2;6OOOOOOOOO11**39",
"<X#;66;61>O;66611*=39",
"<X>;;6;61>O;6;6111533",
"<X>;;6661>;;6661115*3",
"<X>;;6661>;;666111$*3",
"<X+22@@@&#222@@@&&>*3",
"XXoooo.44ooo.o.444o53"
};
