/* XPM */
static char *P_Dragon_Horse_B_wood[] = {
/* width height ncolors chars_per_pixel */
"22 23 28 1",
/* colors */
"  c #000000",
". c #D19849",
"X c #946A2E",
"o c #72361A",
"O c #CF9239",
"+ c #CA0D0D",
"@ c #E5A644",
"# c #F3B255",
"$ c #DB9F44",
"% c #F8B046",
"& c #FFC35D",
"* c #FABB58",
"= c #FFCD60",
"- c #FEC05B",
"; c #FEB140",
": c #FFF47C",
"> c #EAA940",
", c #FBB754",
"< c #5D391C",
"1 c #FEC264",
"2 c #F2AA41",
"3 c #FFE66E",
"4 c #E3AD59",
"5 c #803C19",
"6 c #FFB542",
"7 c #FEB958",
"8 c #B5843B",
"9 c None",
/* pixels */
"99999999998.O;99999999",
"9999999888.4>66&999999",
"9999X88.$@41266=-13999",
"995X8O$>##11>666&=:=99",
"99<XO22;,711>;76-=:399",
"99<8$;;;7711>;;77=3=99",
"99<X>;;;7711>;;7713=39",
"99o82;+;7711>;+711==39",
"9<XO2;++++++++++11==39",
"9<X$;7+771+>;77711==39",
"9<X4;;+++++++++711==39",
"9<X>;;+771+>;;7711==39",
"9<X>;;++++++++7711=-39",
"9<X>;7+;71+>;77711163:",
"9<X>;;++++++++++1116=3",
"9<X>;;77711>;77+111%=3",
"9<X>;;7;71>>;;;+111%=3",
"9o82;7+;+1+;+77+111%=3",
"<XO2;++;+1+;+7++111%=3",
"<XO;;;7771>;;7+7111%=3",
"<8$;;;7771>;++77111%=3",
"<8O222###*$222###**>=3",
"X88OOOO.44OOO.O.444O63"
};
