/* XPM */
static char *P_Free_King_B_wood[] = {
/* width height ncolors chars_per_pixel */
"23 23 29 1",
/* colors */
"  c #000000",
". c #D19849",
"X c #946A2E",
"o c #72361A",
"O c #FFFE89",
"+ c #CF9239",
"@ c #CA0D0D",
"# c #E5A644",
"$ c #F3B255",
"% c #DB9F44",
"& c #F8B046",
"* c #FFC35D",
"= c #FABB58",
"- c #FFCD60",
"; c #FEC05B",
": c #FFFF86",
"> c #FEB140",
", c #FFF47C",
"< c #EAA940",
"1 c #FBB754",
"2 c #5D391C",
"3 c #FEC264",
"4 c #F2AA41",
"5 c #FFE66E",
"6 c #E3AD59",
"7 c #FFB542",
"8 c #FEB958",
"9 c #B5843B",
"0 c None",
/* pixels */
"0000000000096#000000000",
"000000099+9.$&770000000",
"0000XX9+%66$3&77-*00000",
"000X9+%<411334777-5,000",
"002X.%4>>8@33<>87-,:000",
"002X6#>@@@@@@@@@8*,O000",
"0029%>>>>@833@>>8;5:000",
"0029%>>>@88@3<@>835:500",
"002X<>>@>@@@@@>@83-,500",
"002X<@@8883@<>88@3-,500",
"00o9=>>8>833<>>>83-,500",
"02X+4>@@@@@@@@@@@3-,500",
"02X+>>>8>@33<@>883-5-00",
"029%>>8@@833<@888335-50",
"029%>>@@>833<@8>833--50",
"029%>>>88833<>88833--50",
"029%>>>8@@@@@@@>833--50",
"029%>>88>83@>>88833-;50",
"029%>>>8>@@@@@8>8333755",
"0o.%>>>8883@>>8883337-5",
"2X.#>>>8@@@@@@@88333&-5",
"296%444$$$=%444$$$==<-5",
"X9.+++++.66+++.+.666+75"
};
