/* XPM */
static char *P_Free_Eagle_B_wood[] = {
/* width height ncolors chars_per_pixel */
"23 23 29 1",
/* colors */
"  c #000000",
". c #D19849",
"X c #946A2E",
"o c #72361A",
"O c #FFFE89",
"+ c #CF9239",
"@ c #CA0D0D",
"# c #E5A644",
"$ c #F3B255",
"% c #DB9F44",
"& c #F8B046",
"* c #FFC35D",
"= c #FABB58",
"- c #FFCD60",
"; c #FEC05B",
": c #FFFF86",
"> c #FEB140",
", c #FFF47C",
"< c #EAA940",
"1 c #FBB754",
"2 c #5D391C",
"3 c #FEC264",
"4 c #F2AA41",
"5 c #FFE66E",
"6 c #E3AD59",
"7 c #FFB542",
"8 c #FEB958",
"9 c #B5843B",
"0 c None",
/* pixels */
"000000000009.+>00000000",
"0000009+.+9.6<778*00000",
"0000XX9%$$663477*-,0000",
"000X99<4>1@33<777-,:000",
"002X.%4@@@@@@@@@7-,O000",
"002X6#>>>@833@>>8*,O000",
"0029%>>>@88@3<@>8;5:000",
"0029%>>@>@@@@@>@835:500",
"002X<>@>>88@<8>>@3-,500",
"002X<>888833<>8883-,500",
"00o9=>@@@@@@@@@@@3-,500",
"02X+4>>8@833<@>883-,500",
"02X+>>>@>833@@>883-5-00",
"029%>>88>833<>888335-50",
"029%>>>8@@@@@@@>833--50",
"029%>>>8@833<>@8833--50",
"029%>>>8@@@@@@@@@33--50",
"029%>>88@83<>>88833-;50",
"029%>>>8@@@@@@@>8333755",
"0o.%>>>@8@3@>>@883337-5",
"2X.#>>@8@8@<@>@88333&-5",
"296%444$$$=%4@@$$$==<-5",
"X9.+++++.66+++.+.666+75"
};
