/* XPM */
static char *P_Side_Soldier_W_wood[] = {
/* width height ncolors chars_per_pixel */
"21 22 29 1",
/* colors */
"  c #000000",
". c #D19849",
"X c #946A2E",
"o c #72361A",
"O c #FFFE89",
"+ c #CF9239",
"@ c #CA0D0D",
"# c #E5A644",
"$ c #F3B255",
"% c #DB9F44",
"& c #F8B046",
"* c #FFC35D",
"= c #FABB58",
"- c #FFCD60",
"; c #FEC05B",
": c #FFFF86",
"> c #FEB140",
", c #FFF47C",
"< c #EAA940",
"1 c #5D391C",
"2 c #FEC264",
"3 c #F2AA41",
"4 c #FFE66E",
"5 c #E3AD59",
"6 c #FFB542",
"7 c #FEB958",
"8 c #443115",
"9 c #B5843B",
"0 c None",
/* pixels */
"X9..5+++....5++..%52,",
"19#$=%3333$==%3$3$24:",
"19522<>@7772@<>>>7-,O",
"8X#22<@@@@@@@@>>77-,4",
"8X.22<>>@7722@>>77-,4",
"0o9=2<>>@7722@>>>7-,4",
"019$2<@@@@@@@@>7>;4:4",
"019$2<>>>7722@>>7;4:0",
"0195<@>>>77@@<@>7*,O0",
"01X5#@@@@@@@2<@>7@,O0",
"01X+3@>>@77@<7@>@-,O0",
"00o93@@@@@@@@>@7@-,O0",
"001X$@>7@72@<@@@7-,O0",
"001X#@@@@@@@<>@77-,O0",
"001X+3>7>722<>@7;4:O0",
"00019@@@@@@@<>@7;4:00",
"00019<>@>@22@@@@@,O00",
"0008X@@@@@@@<>@;-,O00",
"0001X+#@3@2<3666-,:00",
"0000XX9%%$2&66*;74000",
"000000X99.$36>7000000",
"00000000095#000000000"
};
