/* XPM */
static char *Phoenix_B_wood[] = {
/* width height ncolors chars_per_pixel */
"23 23 29 1",
/* colors */
"  c #000000",
". c #D19849",
"X c #946A2E",
"o c #72361A",
"O c #5F301B",
"+ c #CF9239",
"@ c #E5A644",
"# c #F3B255",
"$ c #DB9F44",
"% c #F8B046",
"& c #FABB58",
"* c #FFCD60",
"= c #FEC05B",
"- c #FEB140",
"; c #FFF47C",
": c #EAA940",
"> c #FBB754",
", c #5D391C",
"< c #FEC264",
"1 c #F2AA41",
"2 c #FFE66E",
"3 c #E3AD59",
"4 c #803C19",
"5 c #562C1A",
"6 c #FFB542",
"7 c #FEB958",
"8 c #443115",
"9 c #B5843B",
"0 c None",
/* pixels */
"00000000009.3$-00000000",
"0000000999.3&:66>=00000",
"0000XX9+$@3&<166=*2;000",
"000,X9$:1#><<:666*2;000",
"00049$1--77<<:-7-=2;200",
"00,X.ooOOOOOOOOOoo*;200",
"00,X+o---77o<:--7o*;200",
"00,9$4--444oooo-7o*;200",
"00,X:4--477<:7O-7O*;200",
"00,X:o77OOOO555778*2*00",
"00,X#,-7o7<<:-o-7o<2*20",
"00o914-744oOO55775<**20",
"0,X+1o-7o7<<:--774<**20",
"0,X+-477ooooOO577O<**20",
"0,9$-o-7O7<<:-7-75<**20",
"0,9$-o-7OOO5555775<**20",
"0,9$-o-7-7<::-o-7o<*=20",
"0o.$-o7o-o<o-4o77o<<622",
"8X.@o-o7o74:4-4-744<6*2",
"8X3O---777<:-oo77<oo%*2",
",93:---77744oo777<<<%*2",
",93$111###&$111###&&:*2",
"X9.+++++.33+++.+.333+62"
};
