/* XPM */
static char *Side_Mover_B_wood[] = {
/* width height ncolors chars_per_pixel */
"20 21 32 1",
/* colors */
"  c #000000",
". c #D19849",
"X c #946A2E",
"o c #72361A",
"O c #5F301B",
"+ c #FFFE89",
"@ c #CF9239",
"# c #E5A644",
"$ c #F3B255",
"% c #DB9F44",
"& c #F8B046",
"* c #FFC35D",
"= c #FABB58",
"- c #FFCD60",
"; c #FEC05B",
": c #FFFF86",
"> c #FEB140",
", c #FFF47C",
"< c #EAA940",
"1 c #FBB754",
"2 c #5D391C",
"3 c #FEC264",
"4 c #F2AA41",
"5 c #FFE66E",
"6 c #E3AD59",
"7 c #803C19",
"8 c #562C1A",
"9 c #FFB542",
"0 c #FEB958",
"q c #443115",
"w c #B5843B",
"e c None",
/* pixels */
"eeeeeeeee.$eeeeeeeee",
"eeeeeeXww.3&9eeeeeee",
"eeeeXXw%#=399-9eeeee",
"eee7X@#$133&99--5eee",
"ee2X@<41033<99*-,:ee",
"eeqX%4>0033o>o;-,+ee",
"ee2X<>7003<O>O0-,+ee",
"ee2w$0O03O8888qq,+ee",
"eeowOOo773<o>o0-5:ee",
"eqX@40703OO888885:5e",
"eqX#>0o033<>>003-,5e",
"e2w<00o03oOO8OOO-,5e",
"e2w4>oO238<>q>08-,5e",
"2X@4o0O0O8888888-,5e",
"2X%>o0o03o<>o>0o-,5e",
"2X<o00o03oo7oooo-5-e",
"2X<>>0o03<7>0>7335-5",
"2X<>>0O03<o>00O33--5",
"2X<>>00037>>00073--5",
"2X#44$$$=%444$$$=3;5",
"XX@@@@.66@@@.@.6664-"
};
