/* XPM */
static char *Soaring_Eagle_B_wood[] = {
/* width height ncolors chars_per_pixel */
"23 23 29 1",
/* colors */
"  c #000000",
". c #D19849",
"X c #946A2E",
"o c #72361A",
"O c #5F301B",
"+ c #CF9239",
"@ c #E5A644",
"# c #F3B255",
"$ c #DB9F44",
"% c #F8B046",
"& c #FABB58",
"* c #FFCD60",
"= c #FEC05B",
"- c #FEB140",
"; c #FFF47C",
": c #EAA940",
"> c #FBB754",
", c #5D391C",
"< c #FEC264",
"1 c #F2AA41",
"2 c #FFE66E",
"3 c #E3AD59",
"4 c #803C19",
"5 c #562C1A",
"6 c #FFB542",
"7 c #FEB958",
"8 c #443115",
"9 c #B5843B",
"0 c None",
/* pixels */
"00000000009.3$-00000000",
"0000000999.3&:66>=00000",
"0000XX9+$@3&<166=*2;000",
"000,X9$o1#><<4646*2;000",
"00049444447<<o-7-=2;200",
"00,X.@---77OOOOOoo*;200",
"00,X+oOOoo7<<o--77*;200",
"00,9$4---47<o:o-7<*;200",
"00,X:4444o7oo7O-7O*;200",
"00,X:o7O7O<O:-5588*2*00",
"00,XO-O7-4<<:---7<<2*20",
"00o91--444oOO5577<<**20",
"0,X+1--o-7<<:-o77<<**20",
"0,X+--7oooooOO577<<**20",
"0,9$---o-7<<:-8-5<<**20",
"0,9$---oOOO555555<<**20",
"0,9$---o-7<::---7<<*=20",
"0o.$--7oooooo4oo7<<<622",
"8X.@---7-7<:--744<<<6*2",
"8X3@---O7o<4-o7,O<<<%*2",
",93:--47474:o-oo7<<<%*2",
",93$111###&$141###&&:*2",
"X9.+++++.33+++.+.333+62"
};
