/* XPM */
static char *Vertical_Soldier_W_wood[] = {
/* width height ncolors chars_per_pixel */
"21 22 32 1",
/* colors */
"  c #000000",
". c #D19849",
"X c #946A2E",
"o c #72361A",
"O c #5F301B",
"+ c #FFFE89",
"@ c #CF9239",
"# c #E5A644",
"$ c #F3B255",
"% c #DB9F44",
"& c #F8B046",
"* c #FFC35D",
"= c #FABB58",
"- c #FFCD60",
"; c #FEC05B",
": c #FFFF86",
"> c #FEB140",
", c #FFF47C",
"< c #EAA940",
"1 c #FBB754",
"2 c #5D391C",
"3 c #FEC264",
"4 c #F2AA41",
"5 c #FFE66E",
"6 c #E3AD59",
"7 c #803C19",
"8 c #562C1A",
"9 c #FFB542",
"0 c #FEB958",
"q c #443115",
"w c #B5843B",
"e c None",
/* pixels */
"Xw..6@@@....6@@..%63,",
"2w#$=%4444$==%4$4$35:",
"2w633<>O00038<>>>0-,+",
"qX#33<oo77oooo>>00-,5",
"qX.33<>>o0033o>>00-,5",
"eow=3<>>O00337>>>0-,5",
"e2w$3<77777ooo>0>;5:5",
"e2w$3<>>>0033O>>0;5:e",
"e2w6<>OOoooooo>>0*,+e",
"e2X6#>>>700o3<>>0-,+e",
"e2X@4>>77oooo0>>0-,+e",
"eeow4oo00O338888q-,+e",
"ee2X$>O0>733<>o>o-,+e",
"ee2X<>>77033O8888-,+e",
"ee2X<>>oo0337>>075:+e",
"ee2X%>70>o33OO8OO5:ee",
"ee2X@o70>083<>q>8,+ee",
"eee2woooOOO388888,+ee",
"eee2X@#$413<4999-,:ee",
"eeeeXXw%%$3&99*;05eee",
"eeeeeeXww.$49>0eeeeee",
"eeeeeeeeew6#eeeeeeeee"
};
