/* XPM */
static char *Water_Buffalo_B_wood[] = {
/* width height ncolors chars_per_pixel */
"23 23 29 1",
/* colors */
"  c #000000",
". c #D19849",
"X c #946A2E",
"o c #72361A",
"O c #5F301B",
"+ c #CF9239",
"@ c #E5A644",
"# c #F3B255",
"$ c #DB9F44",
"% c #F8B046",
"& c #FABB58",
"* c #FFCD60",
"= c #FEC05B",
"- c #FEB140",
"; c #FFF47C",
": c #EAA940",
"> c #FBB754",
", c #5D391C",
"< c #FEC264",
"1 c #F2AA41",
"2 c #FFE66E",
"3 c #E3AD59",
"4 c #803C19",
"5 c #562C1A",
"6 c #FFB542",
"7 c #FEB958",
"8 c #443115",
"9 c #B5843B",
"0 c None",
/* pixels */
"00000000009.3$-00000000",
"0000000999.3&:66>=00000",
"0000XX9+$@3&<166=*2;000",
"000,X9$:1#><<:666*2;000",
"00049$1--77o<:-7-=2;200",
"00,X.@---77OO:--77*;200",
"00,X+----77oo:--77*;200",
"00,9$----77oo:--7<*;200",
"00,X:----77oo7--O<*;200",
"00,X:ooOOO<O5-7588*2*00",
"00,X#--7-4<4o--o7<<2*20",
"00o91--774<OO-577<<**20",
"0,X+1--7-o<o44-77<<**20",
"0,X+--77oo<o:O777<<**20",
"0,9$---7O7<5:88-7<<**20",
"0,9$---oO7<5:-557<<**20",
"0,9$--oo-7<o:--oo<<*=20",
"0o.$-oO7-7<o--77oo<<622",
"8X.@o--7-444--7-74<<6*2",
"8X3@---77744--777<<<%*2",
",93:---777<:--777<<<%*2",
",93$111###&$111###&&:*2",
"X9.+++++.33+++.+.333+62"
};
