/* XPM */
static char *noname[] = {
/* width height ncolors chars_per_pixel */
"21 21 30 1",
/* colors */
"  c #D19849",
". c #946A2E",
"X c #72361A",
"o c #5F301B",
"O c #FFFE89",
"+ c #CF9239",
"@ c #E5A644",
"# c #F3B255",
"$ c #DB9F44",
"% c #F8B046",
"& c #FFC35D",
"* c #FABB58",
"= c #FFCD60",
"- c #FEC05B",
"; c #FEB140",
": c #FFF47C",
"> c #EAA940",
", c #FBB754",
"< c #5D391C",
"1 c #FEC264",
"2 c #F2AA41",
"3 c #FFE66E",
"4 c #E3AD59",
"5 c #803C19",
"6 c #562C1A",
"7 c #FFB542",
"8 c #FEB958",
"9 c #443115",
"0 c #B5843B",
"q c None",
/* pixels */
"qqqqqqqqq+;=qqqqqqqqq",
"qqqqqqq0.+>-=1qqqqqqq",
"qqqqq.0 +>;-==%7qqqqq",
"qqq<.+$4$;;81=77==qqq",
"qqq<04#1>;;81127=3qqq",
"qqq< o81>oX81557=3qqq",
"qq95+581>5;81X>7-::qq",
"qq9.$,1X>ooooooo7::qq",
"qq9.X81o>X88X>>;73:qq",
"qq<.5851>588X>X;-3Oqq",
"qq<0285>>5XXXXoo-33qq",
"qqX02X1>;o88o>;8-==qq",
"q9.+;o1>;X885>X;8=:3q",
"q9.+551>;55Xoo66;==3q",
"q90$;51>;X;8X>;;8&=3q",
"q<0$;X1>;X;8X>o8;==3q",
"q< @;X1>;o<66699;133q",
"q5 @;XX>;o;81>;;;13:q",
"0.4@;XX>;;;81>;;;1733",
"0.4$2#*@222#*@222#%==",
"0.000000++>##+++0004#"
};
