/* XPM */
static char *noname[] = {
/* width height ncolors chars_per_pixel */
"21 21 31 1",
/* colors */
"  c #D19849",
". c #946A2E",
"X c #72361A",
"o c #5F301B",
"O c #FFFE89",
"+ c #CF9239",
"@ c #E5A644",
"# c #F3B255",
"$ c #DB9F44",
"% c #F8B046",
"& c #FFC35D",
"* c #FABB58",
"= c #FFCD60",
"- c #FEC05B",
"; c #FFFF86",
": c #FEB140",
"> c #FFF47C",
", c #EAA940",
"< c #FBB754",
"1 c #5D391C",
"2 c #FEC264",
"3 c #F2AA41",
"4 c #FFE66E",
"5 c #E3AD59",
"6 c #803C19",
"7 c #562C1A",
"8 c #FFB542",
"9 c #FEB958",
"0 c #443115",
"q c #B5843B",
"w c None",
/* pixels */
"q..qqqqqq+,##5q+qq++,",
"q.5$33#*@33X**o333-==",
"q.5<9992,:o9277o:8===",
"w6 X666XX:69X2,::8==w",
"w1 @X9X2X:X9X2X:X8X4w",
"w1qoooXXX9X966,6:644w",
"w0q$:992,:69X2,::&44w",
"w0.+ooXXo:o9ooooo=44w",
"w0.+X9X2o9X99,,:X=>4w",
"wwXq666X6:69XXXXX=;ww",
"ww1q696,6:X92X::o44ww",
"ww1.XXXXo:o9o777744ww",
"ww0.,92,::692X::X4>ww",
"ww0.$666::69oo777>4ww",
"ww06+<X,X:X926:86>4ww",
"www1XX66XXX9Xoo7o;www",
"www1q5*@X::92,88=;www",
"www1.+5XX::92%88=>www",
"wwwww.qq+,:-=888wwwww",
"wwwwwww.q+,-=3wwwwwww",
"wwwwwwwww+:=wwwwwwwww"
};
