/* XPM */
static char *noname[] = {
/* width height ncolors chars_per_pixel */
"21 21 29 1",
/* colors */
"  c #D19849",
". c #946A2E",
"X c #72361A",
"o c #5F301B",
"O c #FFFE89",
"+ c #CF9239",
"@ c #E5A644",
"# c #F3B255",
"$ c #DB9F44",
"% c #F8B046",
"& c #FABB58",
"* c #FFCD60",
"= c #FEC05B",
"- c #FEB140",
"; c #FFF47C",
": c #EAA940",
"> c #FBB754",
", c #5D391C",
"< c #FEC264",
"1 c #F2AA41",
"2 c #FFE66E",
"3 c #E3AD59",
"4 c #803C19",
"5 c #562C1A",
"6 c #FFB542",
"7 c #FEB958",
"8 c #443115",
"9 c #B5843B",
"0 c None",
/* pixels */
"000000000+-*000000000",
"00000009.+:=*<0000000",
"00000.9 +:-=**%600000",
"000,.+$3$--7<*66**000",
"000,93XX:--7<X16*2000",
"000, #X<:7774<:6*2000",
"0084+>4<:--4XXXXX;;00",
"008.ooXXoo7o<<:6o;;00",
"008.:7X<o77XXXXXX2;00",
"00,.174<4-74<:--X2O00",
"00,9174:4-7XXXooo2200",
"00X917X:o-7o<:-7=**00",
"08.+-7,:o-744XXXXX;20",
"08.+-74:44-X<:---**20",
"089$-4<:---XX44X44420",
"0,9$-X<:--X7X:o7o*o20",
"0, @X7<:-o-5<5-8-5520",
"04 X-7<:---7<:--552;0",
"9.3@-7<:---7<:XXX<622",
"9.3$1#&@111#&@111#%**",
"9.999999++:##+++9993#"
};
