/* XPM */
static char *noname[] = {
/* width height ncolors chars_per_pixel */
"20 20 31 1",
/* colors */
"  c #D19849",
". c #946A2E",
"X c #72361A",
"o c #5F301B",
"O c #FFFE89",
"+ c #CF9239",
"@ c #E5A644",
"# c #F3B255",
"$ c #DB9F44",
"% c #F8B046",
"& c #FFC35D",
"* c #FABB58",
"= c #FFCD60",
"- c #FEC05B",
"; c #FFFF86",
": c #FEB140",
"> c #FFF47C",
", c #EAA940",
"< c #FBB754",
"1 c #5D391C",
"2 c #FEC264",
"3 c #F2AA41",
"4 c #FFE66E",
"5 c #E3AD59",
"6 c #803C19",
"7 c #562C1A",
"8 c #FFB542",
"9 c #FEB958",
"0 c #443115",
"q c #B5843B",
"w c None",
/* pixels */
"wwwwwwwww+:=wwwwwwww",
"wwwwwww..q,-==wwwwww",
"wwwww.q +,:&==88wwww",
"www1.+$5$::9==8==www",
"www1q5#2,::922%=4www",
"www1 #92X999223=4www",
"ww06+696,666XXXX4>ww",
"ww0.$oX2,o99o2,o=>ww",
"ww0.,XX2,X99X,,X=>ww",
"ww1q6962,666XXXX4>ww",
"ww16396,,699X,:o4>ww",
"w0.+3XX,:o99o,:7=>4w",
"w0.+o91,:X666XXX=>>w",
"w0q6:96,:::9o,::844w",
"w0q$:9X,:::9X,6:-44w",
"w1 @:96,:XXXXoo7844w",
"w6 @:9X,:::97,::84;w",
"q.5@XXX,:::97,:784;4",
"q.5$3X*@XXXXXXXXX===",
"q.qqqqqq++,##++qqq+,"
};
