/* XPM */
static char *noname[] = {
/* width height ncolors chars_per_pixel */
"20 20 31 1",
/* colors */
"  c #D19849",
". c #946A2E",
"X c #72361A",
"o c #5F301B",
"O c #FFFE89",
"+ c #CF9239",
"@ c #E5A644",
"# c #F3B255",
"$ c #DB9F44",
"% c #F8B046",
"& c #FFC35D",
"* c #FABB58",
"= c #FFCD60",
"- c #FEC05B",
"; c #FFFF86",
": c #FEB140",
"> c #FFF47C",
", c #EAA940",
"< c #FBB754",
"1 c #5D391C",
"2 c #FEC264",
"3 c #F2AA41",
"4 c #FFE66E",
"5 c #E3AD59",
"6 c #803C19",
"7 c #562C1A",
"8 c #FFB542",
"9 c #FEB958",
"0 c #443115",
"q c #B5843B",
"w c None",
/* pixels */
"wwwwwwwww+:=wwwwwwww",
"wwwwwww..q,-==wwwwww",
"wwwww.q +,:&==88wwww",
"www1.+$5$::9==8==www",
"www1q5#2,::X22%=4www",
"www1 #92XoXX666=4www",
"ww06+<92,::622,84>ww",
"ww0.ooXX,:o9o2,8=>ww",
"ww0.X92o,X999X,8=>ww",
"ww1q692X,:992,:84>ww",
"ww1q6926,6XXXXoo4>ww",
"w0.+X92X::992,79=>4w",
"w0.+o92o:X666,X:=>>w",
"w0q$6926:6:9o,7:844w",
"w0q$66XX:XXXX,6:-44w",
"w1 @X926:::92,o9844w",
"w6 @X92,:::72,0:84;w",
"q.5@:92,:::9777:84;4",
"q.5$3#*@333#*X333===",
"q.qqqqqq++,##++qqq+,"
};
