/* XPM */
static char *noname[] = {
/* width height ncolors chars_per_pixel */
"21 21 31 1",
/* colors */
"  c #D19849",
". c #946A2E",
"X c #72361A",
"o c #5F301B",
"O c #FFFE89",
"+ c #CF9239",
"@ c #E5A644",
"# c #F3B255",
"$ c #DB9F44",
"% c #F8B046",
"& c #FFC35D",
"* c #FABB58",
"= c #FFCD60",
"- c #FEC05B",
"; c #FFFF86",
": c #FEB140",
"> c #FFF47C",
", c #EAA940",
"< c #FBB754",
"1 c #5D391C",
"2 c #FEC264",
"3 c #F2AA41",
"4 c #FFE66E",
"5 c #E3AD59",
"6 c #803C19",
"7 c #562C1A",
"8 c #FFB542",
"9 c #FEB958",
"0 c #443115",
"q c #B5843B",
"w c None",
/* pixels */
"q..qqqqqq+,##5q+qq++,",
"q.5$33#*@33#**@333-==",
"q.5<99o2,::922,::8===",
"w6 @6962,:6XX2,:X8==w",
"w1 @X9X2X:X9X2,X:X44w",
"w1q$o9X2X9X96266:844w",
"w0q$69626:69X2X::&44w",
"w0.+o9X2o:ooo2o:oX44w",
"w0.+X9X2o999X,XXX=>4w",
"wwXq69626:66X,XX-=;ww",
"ww1q696,6:X9X,o:-44ww",
"ww1.X9X,o:o9o,77704ww",
"ww0.oo1oo:696,:XX4>ww",
"ww0.$<6,::6Xo,778>4ww",
"ww0666XXX::9X,686>4ww",
"www1+#2,:::92,:-=;www",
"www1q5*@:::92,88=;www",
"www1.+5$3::92%88=>www",
"wwwww.qq+,:-=888wwwww",
"wwwwwww.q+,-=3wwwwwww",
"wwwwwwwww+:=wwwwwwwww"
};
