/* XPM */
static char *noname[] = {
/* width height ncolors chars_per_pixel */
"21 21 30 1",
/* colors */
"  c #D19849",
". c #946A2E",
"X c #72361A",
"o c #FFFE89",
"O c #CF9239",
"+ c #CA0D0D",
"@ c #E5A644",
"# c #F3B255",
"$ c #DB9F44",
"% c #F8B046",
"& c #FFC35D",
"* c #FABB58",
"= c #FFCD60",
"- c #FEC05B",
"; c #FFFF86",
": c #FEB140",
"> c #FFF47C",
", c #EAA940",
"< c #FBB754",
"1 c #5D391C",
"2 c #FEC264",
"3 c #F2AA41",
"4 c #FFE66E",
"5 c #E3AD59",
"6 c #803C19",
"7 c #FFB542",
"8 c #FEB958",
"9 c #443115",
"0 c #B5843B",
"q c None",
/* pixels */
"0..000000O,##50O00OO,",
"0.5$33#*@33#**@333-==",
"0.5<+++2,::822,::7===",
"q6 ++882,::822,::+==q",
"q1++:+8+,+:+22,:+744q",
"q1+$+8+2+8+822,+:744q",
"q9++++++++:822,+:&44q",
"q9.O:822,+8++2+::=44q",
"q9.+++++++88+,+:7=>4q",
"qqX03822,+88+,+:-=;qq",
"qq10++++++88+,+:-44qq",
"qq1.+82,:+88+,+8-44qq",
"qq9.++++++88+,+:&4>qq",
"qq9.+<2,:+:++++++>4qq",
"qq96++++++:82,+7=>4qq",
"qqq1O#2,+::82,+-=;qqq",
"qqq105*+:::82++7=;qqq",
"qqq1.O5$3::82%77=>qqq",
"qqqqq.00O,:-=777qqqqq",
"qqqqqqq.0O,-=3qqqqqqq",
"qqqqqqqqqO:=qqqqqqqqq"
};
