/* XPM */
static char *noname[] = {
/* width height ncolors chars_per_pixel */
"21 21 30 1",
/* colors */
"  c #D19849",
". c #946A2E",
"X c #72361A",
"o c #5F301B",
"O c #CF9239",
"+ c #E5A644",
"@ c #F3B255",
"# c #DB9F44",
"$ c #F8B046",
"% c #FFC35D",
"& c #FABB58",
"* c #FFCD60",
"= c #FEC05B",
"- c #FFFF86",
"; c #FEB140",
": c #FFF47C",
"> c #EAA940",
", c #FBB754",
"< c #5D391C",
"1 c #FEC264",
"2 c #F2AA41",
"3 c #FFE66E",
"4 c #E3AD59",
"5 c #803C19",
"6 c #562C1A",
"7 c #FFB542",
"8 c #FEB958",
"9 c #443115",
"0 c #B5843B",
"q c None",
/* pixels */
"0..0000 0O>@&4OO00OO>",
"004#22XX+22@&&o222=**",
"0.4,8Xooo;;8166;;;6**",
"0.4+8581X;;XXX>;XX***",
".. +;881X;X81X>;X7***",
"qX +8881X88815>5;7*3q",
"q< +;5555;55XX>X;=33q",
"q<0+;811o;881o>o;=33q",
"q90#;811>8888>>X;=33q",
"q90#;85X5555XXXX8%:3q",
"q9.O;85>>588X>;o8**3q",
"q9.O;8X>;o88o>;68**3q",
"q9.O28<ooX555XXX8*:3q",
"qq50281>;5;8o>;67**qq",
"qq<0281>;;;81>;X=33qq",
"qq<02855XXXXXoo6733qq",
"qq<.>@1>;;<81>777:-qq",
"qq<.0#4#2;;81$7773:qq",
"qqqq.000#>;=*$777qqqq",
"qqqqqq0.0O>81>;qqqqqq",
"qqqqqqqqq#;*qqqqqqqqq"
};
