/* XPM */
static char *noname[] = {
/* width height ncolors chars_per_pixel */
"20 19 31 1",
/* colors */
"  c #D19849",
". c #946A2E",
"X c #72361A",
"o c #5F301B",
"O c #FFFE89",
"+ c #CF9239",
"@ c #E5A644",
"# c #F3B255",
"$ c #DB9F44",
"% c #F8B046",
"& c #FFC35D",
"* c #FABB58",
"= c #FFCD60",
"- c #FEC05B",
"; c #FFFF86",
": c #FEB140",
"> c #FFF47C",
", c #EAA940",
"< c #FBB754",
"1 c #5D391C",
"2 c #FEC264",
"3 c #F2AA41",
"4 c #FFE66E",
"5 c #E3AD59",
"6 c #803C19",
"7 c #562C1A",
"8 c #FFB542",
"9 c #FEB958",
"0 c #443115",
"q c #B5843B",
"w c None",
/* pixels */
"wwwwwwwww@:=wwwwwwww",
"wwwww.qqq+,922,wwwww",
"wwwX.+ 5$3:-==%-=www",
"www1q5#2,::922%=4www",
"www1+#92,:X9223=4www",
"ww06 <92,9X962,844ww",
"ww0.$<966666XX,8=>ww",
"ww0.,922,:o922,8=>ww",
"ww1q3922,9X99X,8=>ww",
"ww1q366X6666XXX84>ww",
"w0.+39266:X92,:8=>4w",
"w0.+:92X::o927:9=>4w",
"w0q$:91oo:666XX:&4>w",
"w0q$:62,:6692,::844w",
"w1 @692,::XXX,::-44w",
"w6 @:92,:::9Xoo984=w",
"q.5@:92,:::927::84;=",
"q.5$3#*@333#*@333=>4",
"q.q.qq q+$3<*++++ +,"
};
