/* XPM */
static char *noname[] = {
/* width height ncolors chars_per_pixel */
"21 21 30 1",
/* colors */
"  c #D19849",
". c #946A2E",
"X c #72361A",
"o c #5F301B",
"O c #CF9239",
"+ c #E5A644",
"@ c #F3B255",
"# c #DB9F44",
"$ c #F8B046",
"% c #FFC35D",
"& c #FABB58",
"* c #FFCD60",
"= c #FEC05B",
"- c #FFFF86",
"; c #FEB140",
": c #FFF47C",
"> c #EAA940",
", c #FBB754",
"< c #5D391C",
"1 c #FEC264",
"2 c #F2AA41",
"3 c #FFE66E",
"4 c #E3AD59",
"5 c #803C19",
"6 c #562C1A",
"7 c #FFB542",
"8 c #FEB958",
"9 c #443115",
"0 c #B5843B",
"q c None",
/* pixels */
"0..0000 0O>@&4OO00OO>",
"004#22@&+22@&&+222=**",
"0.4,888o>;;861>;;;***",
"0.4+885XX;;XXX>;;7***",
".. +;8X1>X;X11>X;7***",
"qX +88X1>88X11>5;7*3q",
"q< +;851>;;511>X;=33q",
"q<0+;8X1>o8ooooo;=33q",
"q90#;8X1>X8X8>>X;=33q",
"q90#;851>585XXXX8%:3q",
"q9.O;85>>58X1>;o8**3q",
"q9.O;XX>oo8oo6668**3q",
"q9.O281>;;881>;;8*:3q",
"qq502555555Xoo667**qq",
"qq<0281>;X;8X>;;=33qq",
"qq<0281>X;;81o;8733qq",
"qq<.>@15X;;816777:-qq",
"qq<.0#4#2;;81$7773:qq",
"qqqq.000#>;=*$777qqqq",
"qqqqqq0.0O>81>;qqqqqq",
"qqqqqqqqq#;*qqqqqqqqq"
};
