/* XPM */
static char *noname[] = {
/* width height ncolors chars_per_pixel */
"21 21 30 1",
/* colors */
"  c #D19849",
". c #946A2E",
"X c #72361A",
"o c #5F301B",
"O c #CF9239",
"+ c #E5A644",
"@ c #F3B255",
"# c #DB9F44",
"$ c #F8B046",
"% c #FFC35D",
"& c #FABB58",
"* c #FFCD60",
"= c #FEC05B",
"- c #FFFF86",
"; c #FEB140",
": c #FFF47C",
"> c #EAA940",
", c #FBB754",
"< c #5D391C",
"1 c #FEC264",
"2 c #F2AA41",
"3 c #FFE66E",
"4 c #E3AD59",
"5 c #803C19",
"6 c #562C1A",
"7 c #FFB542",
"8 c #FEB958",
"9 c #443115",
"0 c #B5843B",
"q c None",
/* pixels */
"qqqqqqqqq#;*qqqqqqqqq",
"qqqqqq00.O>811>qqqqqq",
"qqqq000 O>;=**$77qqqq",
"qq<.0#4@+;;81*$77=3qq",
"qq<.>@,X>;;8XX>77*:qq",
"qq<0@88X>88851>;7*:qq",
"qq<028815;;511>;73:qq",
"qq502oXXoooooooo7*:qq",
"q9.O2811>8888>>;7*:3q",
"q9.O;55X5585X>XX8*-3q",
"q9.O;51>>58X1>o;8**3q",
"q90#;XXXoo8o1>688%*3q",
"q90#;o1>;X851>X;8=33q",
"q<0+;55555;X1>6;;=%3q",
"q< +;51>;X;81>5;8==3q",
"qX +;X1>;X;81>o8;1=3q",
".. +;X1>;o;61>9;;1333",
"0.4+;81XXo;8666;;13:3",
"0.4>;81>X;;81X;;;17*3",
"004#2@&+222@&+222@2**",
"0.000000OO>@&OOO 0044"
};
