/* XPM */
static char *noname[] = {
/* width height ncolors chars_per_pixel */
"21 21 30 1",
/* colors */
"  c #D19849",
". c #946A2E",
"X c #72361A",
"o c #5F301B",
"O c #CF9239",
"+ c #E5A644",
"@ c #F3B255",
"# c #DB9F44",
"$ c #F8B046",
"% c #FFC35D",
"& c #FABB58",
"* c #FFCD60",
"= c #FEC05B",
"- c #FFFF86",
"; c #FEB140",
": c #FFF47C",
"> c #EAA940",
", c #FBB754",
"< c #5D391C",
"1 c #FEC264",
"2 c #F2AA41",
"3 c #FFE66E",
"4 c #E3AD59",
"5 c #803C19",
"6 c #562C1A",
"7 c #FFB542",
"8 c #FEB958",
"9 c #443115",
"0 c #B5843B",
"q c None",
/* pixels */
"0..0000 0O>@&4OO00OO>",
"004#22@&+22@&&+222=**",
"0.4,8881>;;811>;;;***",
"0.4+8581>;;811>X;7***",
".. +;XXXXXXXXXXX;7***",
"qX +8o81>88811>5;7*3q",
"q< +;58555;811XX;=33q",
"q<0+;o1X>o881o>o;=33q",
"q90#;X11>X88X>>X;=33q",
"q90#;511>5851>;X8%:3q",
"q9.O;51>>58X1>;o8**3q",
"q9.O;XXXooooo6668**3q",
"q9.O2o1>;X851>;X8*:3q",
"qq50281>;5;X1>;;7**qq",
"qq<025XXXXXXX55X=33qq",
"qq<0285>;;;81>;8733qq",
"qq<.>@1>;;;81>777:-qq",
"qq<.0#4#2;;81$7773:qq",
"qqqq.000#>;=*$777qqqq",
"qqqqqq0.0O>81>;qqqqqq",
"qqqqqqqqq#;*qqqqqqqqq"
};
