/* XPM */
static char *noname[] = {
/* width height ncolors chars_per_pixel */
"20 20 31 1",
/* colors */
"  c #D19849",
". c #946A2E",
"X c #72361A",
"o c #5F301B",
"O c #FFFE89",
"+ c #CF9239",
"@ c #E5A644",
"# c #F3B255",
"$ c #DB9F44",
"% c #F8B046",
"& c #FFC35D",
"* c #FABB58",
"= c #FFCD60",
"- c #FEC05B",
"; c #FFFF86",
": c #FEB140",
"> c #FFF47C",
", c #EAA940",
"< c #FBB754",
"1 c #5D391C",
"2 c #FEC264",
"3 c #F2AA41",
"4 c #FFE66E",
"5 c #E3AD59",
"6 c #803C19",
"7 c #562C1A",
"8 c #FFB542",
"9 c #FEB958",
"0 c #443115",
"q c #B5843B",
"w c None",
/* pixels */
"wwwwwwwww+:=wwwwwwww",
"wwwwwww..q,-==wwwwww",
"wwwww.q +,:&==88wwww",
"www1.+$5$::9==8==www",
"www1q5#2,::922%=4www",
"www1 #92,999223=4www",
"ww06+6666:69XXXX4>ww",
"ww0.o<2X,:o9o2,o=>ww",
"ww0XXXXoo9X9X,,X=>ww",
"ww1q69626:69XXXX4>ww",
"ww1q696,6:X9X,:o4>ww",
"w0.+XXXXo:o9o,:7=>4w",
"w0.+o91,o:696XXX=>>w",
"w0q$696,6::92,::844w",
"w0q$66XXX::X26::-44w",
"w1 @:92,:::X2o:9844w",
"w6 o:X26:o:727:084;w",
"q.X@X9X,X::o27:784;4",
"q.5$3#*@33X#*XXX3===",
"q.qqqqqq++,##++qqq+,"
};
