/* XPM */
static char *noname[] = {
/* width height ncolors chars_per_pixel */
"21 21 29 1",
/* colors */
"  c #D19849",
". c #946A2E",
"X c #72361A",
"o c #5F301B",
"O c #CF9239",
"+ c #E5A644",
"@ c #F3B255",
"# c #DB9F44",
"$ c #F8B046",
"% c #FFC35D",
"& c #FFCD60",
"* c #FEC05B",
"= c #FFFF86",
"- c #FEB140",
"; c #FFF47C",
": c #EAA940",
"> c #FBB754",
", c #5D391C",
"< c #FEC264",
"1 c #F2AA41",
"2 c #FFE66E",
"3 c #E3AD59",
"4 c #803C19",
"5 c #562C1A",
"6 c #FFB542",
"7 c #FEB958",
"8 c #443115",
"9 c #B5843B",
"0 c None",
/* pixels */
"000000000#-&000000000",
"00000099.O:7<<:000000",
"0000999 Ooo*&&$660000",
"00,.9#3@+4-7<&$66*200",
"00,.:@>XXXXXXX:66&;00",
"00,9@77X:777<4:-6&;00",
"00,917744444XX:-62;00",
"004917<X:-77<o:-6&;00",
"08.O17<ooXXXXX:-6&;20",
"08.O-7<<:-77<:--7&=20",
"08.O-7<444XX<:--7&&20",
"089#-7XX--o7<:-77%&20",
"089#-o<ooX444X--7*220",
"0,9+-7<4--47<o---*%20",
"0, +-7<XXXXXX4--7**20",
"0X +-7<:X-X7<:-7-<*20",
".. +-7<4-o,7<58--<222",
"9.3+-7X:Xo-o5:---<2;2",
"9.3:-7<X-X-X<:---<6&2",
"993#1@X+1X1@XX111@1&&",
"9.99999XXO:@4OOO 9933"
};
