/* XPM */
static char *noname[] = {
/* width height ncolors chars_per_pixel */
"21 21 31 1",
/* colors */
"  c #D19849",
". c #946A2E",
"X c #72361A",
"o c #5F301B",
"O c #FFFE89",
"+ c #CF9239",
"@ c #E5A644",
"# c #F3B255",
"$ c #DB9F44",
"% c #F8B046",
"& c #FFC35D",
"* c #FABB58",
"= c #FFCD60",
"- c #FEC05B",
"; c #FFFF86",
": c #FEB140",
"> c #FFF47C",
", c #EAA940",
"< c #FBB754",
"1 c #5D391C",
"2 c #FEC264",
"3 c #F2AA41",
"4 c #FFE66E",
"5 c #E3AD59",
"6 c #803C19",
"7 c #562C1A",
"8 c #FFB542",
"9 c #FEB958",
"0 c #443115",
"q c #B5843B",
"w c None",
/* pixels */
"w..qqqqqqq+   qqq+58w",
"w1.+33#*@33XX*@33844w",
"w0.$XXo2,:o722,:88>4w",
"ww6q6962,:69X2X:X->ww",
"ww1qX992,:XX2X,X8=>ww",
"ww1.o992,9X922,:8=>ww",
"ww0.6<666:66XXXX84>ww",
"ww0.o<X2o:99o2,o8>>ww",
"ww0XX<X2o99XXXXX->>ww",
"www16#6X6:69X,:X4>www",
"www06#2,,69XXXoo4>www",
"www0XXXXo:99o,:74>www",
"www0.@2o::666XXX4>www",
"www06 6,:::92,874>www",
"wwwwX *,:::92,8=>wwww",
"wwww1q5@:::923844wwww",
"wwww1. +,3:9=88==wwww",
"wwwww...+$:&=888wwwww",
"wwwwwww..q,-=%wwwwwww",
"wwwwwwwww.+<wwwwwwwww",
"wwwwwwwwwwwwwwwwwwwww"
};
