/* XPM */
static char *noname[] = {
/* width height ncolors chars_per_pixel */
"21 21 30 1",
/* colors */
"  c #D19849",
". c #946A2E",
"X c #72361A",
"o c #5F301B",
"O c #CF9239",
"+ c #E5A644",
"@ c #F3B255",
"# c #DB9F44",
"$ c #F8B046",
"% c #FFC35D",
"& c #FABB58",
"* c #FFCD60",
"= c #FEC05B",
"- c #FFFF86",
"; c #FEB140",
": c #FFF47C",
"> c #EAA940",
", c #FBB754",
"< c #5D391C",
"1 c #FEC264",
"2 c #F2AA41",
"3 c #FFE66E",
"4 c #E3AD59",
"5 c #803C19",
"6 c #562C1A",
"7 c #FFB542",
"8 c #FEB958",
"9 c #443115",
"0 c #B5843B",
"q c None",
/* pixels */
"0..0000 0O>@&4OO00OO>",
"004#22XXo22@&X+22o=**",
"0.4,88o1o;;861>;6;***",
"0.4+8881X55X11>X;7***",
".. +;881>;;811>X;7***",
"qX +888XXoXX15>5;7*3q",
"q< +;885>;;5X1>X;=33q",
"q<0+;811>;oo11>o;=33q",
"q90#;8XooXXXXXXX;=33q",
"q90#;811>;851>;X8%:3q",
"q9.O;81555XX1>;;8**3q",
"q9.O;81>;;881>;88**3q",
"q9.O281ooX555X;;8*:3q",
"qq502815;;;81o;;7**qq",
"qq<0281XXXXXX5;;=33qq",
"qq<02815;;;81o;8733qq",
"qq<.>@15Xo<666777:-qq",
"qq<.0#4#2;;o1$7773:qq",
"qqqq.000#>XX*$777qqqq",
"qqqqqq0.0O>81>;qqqqqq",
"qqqqqqqqq#;*qqqqqqqqq"
};
