/* XPM */
static char *Golden_Bird_W_wood[] = {
/* width height ncolors chars_per_pixel */
"27 28 28 1",
/* colors */
"  c #000000",
". c #D19849",
"X c #946A2E",
"o c #72361A",
"O c #CF9239",
"+ c #CA0D0D",
"@ c #E5A644",
"# c #F3B255",
"$ c #DB9F44",
"% c #F8B046",
"& c #FFC35D",
"* c #FABB58",
"= c #FFCD60",
"- c #FEC05B",
"; c #FFFF86",
": c #FEB140",
"> c #FFF47C",
", c #EAA940",
"< c #FBB754",
"1 c #FEC264",
"2 c #F2AA41",
"3 c #FFE66E",
"4 c #E3AD59",
"5 c #803C19",
"6 c #FFB542",
"7 c #FEB958",
"8 c #B5843B",
"9 c None",
/* pixels */
"X8O$@@@@4O$@@@444O$$$@@4@6=",
"XXO,22#**$2#2#***$22###1%==",
"XXO2<<<11,:::<111,:::<716=3",
"5XO27:711,::7711,,:::77=6=3",
"5XO277711,::7711,:::777=-33",
"5XO2:7+++++++++++++++77==39",
"5XO,:77++,:7:++1,:::77-3=39",
"958@27711,::7++1,::7:7-3=39",
"958$27711,:+7++1+::7:713=39",
"95XO27711,++7++1++:7:7=3=39",
"9oXO2771,7::7++1,:77:7=3=39",
"9oX$#711,+++++++++:7:7=>=99",
"9oX$2711,:+:7++1,:77:-3>=99",
"9oX$#7++,::77++1,:77+-3>=99",
"9oX.27+++:+++++++:++:-3>=99",
"9oX.2<11++7+7111,++7:-3>=99",
"9oXO,<11,++:7111++:76&3;=99",
"99X8@<11,:++711++::77=>;999",
"9958$#1,,::+7+++,::76=3;999",
"9958O#1,::77+++1,:::-=>;999",
"995XO#1,::7:7+11,::7-=>;999",
"995X.#1,::777111,::6&=>;999",
"995X8$#@::777111,:6-63>;999",
"999X8.4$222<7711266663>9999",
"9999X8.O$$#2<111%6&&==>9999",
"999999888OO4#11=666-6999999",
"99999999988.4*1=%6999999999",
"99999999998.$4*199999999999"
};
