/* XPM */
static char *P_Violent_Wolf_W_wood[] = {
/* width height ncolors chars_per_pixel */
"31 32 27 1",
/* colors */
"  c #000000",
". c #D19849",
"X c #946A2E",
"o c #72361A",
"O c #CF9239",
"+ c #CA0D0D",
"@ c #E5A644",
"# c #F3B255",
"$ c #DB9F44",
"% c #F8B046",
"& c #FABB58",
"* c #FFCD60",
"= c #FEC05B",
"- c #FEB140",
"; c #FFF47C",
": c #EAA940",
"> c #FBB754",
", c #5D391C",
"< c #FEC264",
"1 c #F2AA41",
"2 c #FFE66E",
"3 c #E3AD59",
"4 c #803C19",
"5 c #FFB542",
"6 c #FEB958",
"7 c #B5843B",
"8 c None",
/* pixels */
"X7.O$$@@@@3O$@@@333O$$$@@3O:5*2",
"X73$1111#&&$1#1#&&&$11###&@5=2;",
"473@-->>><<:---><<<:--->><:5*;8",
"473@--6-6<<:--66<<::---66<15*;8",
"o73@--666<<:--66<<:---666<15*;8",
"o73@---66<<:---6<<:--++66<152;8",
"oX.$---66<<:-6-++<:-++++6<152;8",
"oX.$---66<<:-+++++:++6-+6<15*28",
"8X7@1--6+<<:++6++<:++6-6<<1=*;8",
"8XX$1--+++<+--6++<:++6-6<<%=2;8",
"8,XO1--66++6--6++<:++6-6+<%*2;8",
"8,XO#666<<++666++<:++6-+<<52288",
"8,XO1>-6<+:++-6++<:++6+6<<52288",
"8,XO:>66++:-+66++<:+++-6<<5*288",
"88X7@>-6<<:--+6++<:+++-6<<5*;88",
"8847$#-6+++++++++<:++6-6<<5*;88",
"884XO#-6++:-6-6++<:++6-6+<5*288",
"884XO#66++:-666++<:++66+<<5*288",
"88oXO#-6+++++++++<:++6+66*5*288",
"88oXO3-6++--666++<:++++6<*=2288",
"888X7@16++--6-6++<:-++66<**2888",
"88847$#6+++++++++<:+++66<2*2888",
"8884X$#6<:--+66<+<++-+-6<2*;888",
"8884X$#6<:++-666<<:+---6<5*2888",
"888oXO#<<:-+6-6<<<:-6666*5*2888",
"8884XO3<<:---66<<<:--6-6*=*2888",
"8888X7$#&@--666<<<:--65=*=*8888",
"8888XX.33$1>666<<<155=5=*=*8888",
"88888X77.O@1>>6<<<%55===<5*8888",
"8888888877O$:#<<<*555==88888888",
"888888888X7O$3#<<*%588888888888",
"888888888887.$33&<8888888888888"
};
