/* XPM */
static char *Strutting_Crow_W_wood[] = {
/* width height ncolors chars_per_pixel */
"29 30 31 1",
/* colors */
"  c #000000",
". c #D19849",
"X c #946A2E",
"o c #72361A",
"O c #5F301B",
"+ c #CF9239",
"@ c #E5A644",
"# c #F3B255",
"$ c #DB9F44",
"% c #F8B046",
"& c #FFC35D",
"* c #FABB58",
"= c #FFCD60",
"- c #FEC05B",
"; c #FFFF86",
": c #FEB140",
"> c #FFF47C",
", c #EAA940",
"< c #FBB754",
"1 c #5D391C",
"2 c #FEC264",
"3 c #F2AA41",
"4 c #FFE66E",
"5 c #E3AD59",
"6 c #803C19",
"7 c #562C1A",
"8 c #FFB542",
"9 c #FEB958",
"0 c #443115",
"q c #B5843B",
"w c None",
/* pixels */
"Xq.+$$@@@@5+$@@@555+$$$@@#3-=",
"Xq5$3333#**$3#3#***$33###28=4",
"6q5@::<<<277:::<272,:::<9=&4w",
"6q5@::9:92ooo:99oo,,:::9-4=4w",
"oq5@::999oo,:o992o,:O:99-4=4w",
"oq5@:::9966,:::926,6:9:9-4=4w",
"oX.$:::99oo,:9:92Oo:::99-4=4w",
"oX.$:::99OO,::99oo,:o9:9-4=4w",
"wXq@3::oooooooo9o2,o:9:9=4=4w",
"wXX$3::9922,::922oo::9:9=4=4w",
"w1X+3::ooooOOO9OO1,:99:9=>=ww",
"w1X+#999O2,:999272,::9:-4>=ww",
"w1q+39:922,o::9222,:99:-4>=ww",
"w1X+39992OO::79727,799:-4>=ww",
"w1X+3<:9oo,:o962626::::-4>=ww",
"w1X+5<:9oo,:999222,:99:-4>=ww",
"wwXq@<:977700777777::9:-4>=ww",
"ww6q$#9922,:99922OO::99&4;=ww",
"ww6X+#:92oooooooooo::98=4;www",
"ww6X$#:92,::99922oo:::-=>;www",
"wwoX+#:92,6666666o6::9-=>;www",
"ww6Xq5<92,oo99922oo:::-=>;www",
"wwwXq$#<2,oo9992266::98=>;www",
"www6X.5#2,666666666::884>=www",
"wwwwXq$#2@::9692226:9&=4>wwww",
"wwwwXXq55$3:699222388=-4>wwww",
"wwwwwXq..+,3#<922=%88&8=wwwww",
"wwwwwwwqqq+$5#92==%88&wwwwwww",
"wwwwwwwwwqq+.@#2223wwwwwwwwww",
"wwwwwwwwwwww+.#2wwwwwwwwwwwww"
};
