/* XPM */
static char *Tenacious_Falcon_B_wood[] = {
/* width height ncolors chars_per_pixel */
"33 34 29 1",
/* colors */
"  c #000000",
". c #D19849",
"X c #946A2E",
"o c #72361A",
"O c #CF9239",
"+ c #CA0D0D",
"@ c #E5A644",
"# c #F3B255",
"$ c #DB9F44",
"% c #F8B046",
"& c #FFC35D",
"* c #FABB58",
"= c #FFCD60",
"- c #FEC05B",
"; c #FFFF86",
": c #FEB140",
"> c #FFF47C",
", c #EAA940",
"< c #FBB754",
"1 c #5D391C",
"2 c #FEC264",
"3 c #F2AA41",
"4 c #FFE66E",
"5 c #E3AD59",
"6 c #803C19",
"7 c #FFB542",
"8 c #FEB958",
"9 c #B5843B",
"0 c None",
/* pixels */
"000000000000009.$55@,000000000000",
"00000000000099O$5#*,777=000000000",
"00000000O...9O$,#22377&7=00000000",
"0000X9OO.$55O,#3<22,777====700000",
"0000X9O$5#**@3:8822,:7-7&=4-=0000",
"0000X9$3#<22,::8822,::87-=4-=0000",
"0001XO,3<822,::8222,::8:82=-=>000",
"000oXO3:882,8::8222,:88:82=7=4000",
"000oX$#8822,:888222,::8:822744000",
"0006XO#:822,::++222+:88:822744000",
"0006XO#8822+++++222++88:8227=4000",
"00069$#:+++++:88222++:::8227=>000",
"000X9@<++22,:88+222++88:+227=>000",
"001XO++:82+,:8:+2+++++++++2%=4>00",
"001XO3<+82++:8++222++:88++2%-=>00",
"001XO38++2++::++222++:8:++23-=>00",
"001XO#8++2,::888222++::8++23==>00",
"001XO38:82++:8:8222++:88++237=>00",
"001XO388++++++88222++::8++237=>00",
"001XO38882++:888222++:8:++2,&=4>0",
"001XO38882++:+88822++:::++,:7=4>0",
"00o9$3:++++++++8222++888++,:7-4>0",
"0069@3:822++::88222++:8:++,:774>0",
"06XO,::82+,+:888222++:8:++,:7=4>0",
"06XO3::8+2,++888222++:8:++,:774>0",
"06XO#8:++2,:+888222++:88++,:774>0",
"06XO38++22,:++82222++:88++,:7744;",
"06XO#++822,::++822++:+:++8,::7=4;",
"06XO3+:822,:8+822++,::++22,::-=4>",
"06XO38:822,:8888+22,:::822,::-=4;",
"0XX$3::822,::888222,:::822,:8-=4;",
"0X9$3<:<22,:<:<2222,:::<<<,::8=4;",
"XX9$####**$33##****$333##*$3##&4>",
"999O$$$@@5O$$@@5555O$$$@@5O$@5#=4"
};
