/* XPM */
static char *Tokin_B_wood[] = {
/* width height ncolors chars_per_pixel */
"43 46 25 1",
/* colors */
"  c #000000",
". c #D19849",
"X c #946A2E",
"o c #CF9239",
"O c #CA0D0D",
"+ c #E5A644",
"@ c #F3B255",
"# c #DB9F44",
"$ c #F8B046",
"% c #FFC35D",
"& c #FABB58",
"* c #FFCD60",
"= c #FEC05B",
"- c #FEB140",
"; c #FFF47C",
": c #EAA940",
"> c #FBB754",
", c #FEC264",
"< c #F2AA41",
"1 c #FFE66E",
"2 c #E3AD59",
"3 c #FFB542",
"4 c #FEB958",
"5 c #B5843B",
"6 c None",
/* pixels */
"666666666666666666#22#<-4666666666666666666",
"666666666666666ooo#2@#<4344,<66666666666666",
"666666666666.oo###2@&+-44==,<33366666666666",
"666666666...2o#+2:@&,:-34=,,<333%*166666666",
"66666665..222o:<@@@,,:--44,,,<3%3*116666666",
"66666X55o#22@#<<>->4,:--44,,,<33%*11*666666",
"66666X55.+@&,+---44,,:4-44,,,:3=%*1;*666666",
"66666X5.#@&,,:--444,,:--44,,,:-3=*1;*666666",
"66666X5.+@,,,:---44,,:--44,,,:--3%11**66666",
"66666X5.2@,,,:--4-4,,:4-44,,,:--4%*1**66666",
"66666X5o2@>,,:----4,:--444,,,:--4=*1**66666",
"6666XX5#:@,,,:-4444,:---44,,,:--4=*1**66666",
"6666XXo#@>,,,:--4-4,:---44,,,:--4=*1%*66666",
"6666XXo+@>,,,:--OO4,:--444,,,:-444*1=*16666",
"6666X5.+@>,,,:--4OO,:---44,,,:--44*1=**6666",
"6666X5o+@>,,,:--4OOO:---44,,,:--44**=*16666",
"6666X5o:@,,,,:--4OO,:---44,,,:--44,*>**6666",
"6666X5o2@>,,,:---OO4:---44,,,:--44=*3**6666",
"6666X5.2@,,,,:---OO,:--4444,,:--44,*3*1*666",
"666XX5#@@4,,,:---4O,:--444,,,:---4,*3**1666",
"666XXo#@>4,,,:---4O,:-444OOO,:--44,*3*11666",
"666XXo+<>,,,,:---4O4:--OOOOO,:-4-4,*3*11666",
"666XXo+@>,,,,:---4O,:OOOOO,,,:---4,,3=*1666",
"666XXo:@>,,,,:---44OOOO444,,,:---44,%=**666",
"66655o:@>,,,,:---4OOO--44,,,,:---444$311166",
"66X55o:@44,,,:--4OO,:-444,,,,:---44,$311*66",
"66X55#@>44,,,:--OO4,:---4,,,,:---44,$3*1*66",
"66X55#<>44,,,:-OO44,:--44,,,,:---44,$3***66",
"66X55+<>44,,,:-O-44,:-444,,,,:---444<3***66",
"66X55:<--4,,,:O-444,:--44,,,,:---44,<3=*166",
"66X5o:@>44,,,:O-444,:-444,,,,:-4444,<3=*166",
"6XX5o:<-44,,,:O4444,:---44,,,:---44,<3=1166",
"6X5.o<<-44,,,:-O-44,:-4444OOO:-4-444<3311;6",
"6X5.o<-444,,,:--OOOOOOOOOOOOO:---44,<3*1116",
"6X5.2#---4,,,:-4-4OOOOOOOOO,,:---44,:3311;6",
"6X5.2#--44,,,:-4444,:--4444,,:---4,,:3**1;6",
"6X5.2+--44,,,:---44,:---44,,,:---4,,:33*1;6",
"6X5.2+---4,,,:-4444,:---444,,:--444,:33*1;6",
"6X5.2+---4,,,:-4444,:---444,,:---4,,:33*1;*",
"XX5#@+-444,,,:-4444,:---44,,,:---444:33*1;*",
"XX5#@+--44,,,:--444,:----4,,,:---44,:3=*1;*",
"X5o+&+--44,,,:---44,,:---4,,,:-4-44,:-3**;*",
"X5o+&+---4,,,:---44,,:--44,,,:--44,,:-3**;*",
"X5.+@+<<<>,,,+<<<<>,,+<<<>,,,+<<<>,,+-4%*;*",
"55o+@#<<@@&&&#<<@@@&&#<<<@&&&#<<<@&&#<-3*1*",
"5.o+2#:@@@@@@#::@@@@@#:::@@@@#:::@@@#:<-%1="
};
