/* XPM */
static char *Evil_Wolf_B_wood[] = {
/* width height ncolors chars_per_pixel */
"21 22 31 1",
/* colors */
"  c #000000",
". c #D19849",
"X c #946A2E",
"o c #72361A",
"O c #5F301B",
"+ c #FFFE89",
"@ c #CF9239",
"# c #E5A644",
"$ c #F3B255",
"% c #DB9F44",
"& c #F8B046",
"* c #FABB58",
"= c #FFCD60",
"- c #FEC05B",
"; c #FFFF86",
": c #FEB140",
"> c #FFF47C",
", c #EAA940",
"< c #FBB754",
"1 c #5D391C",
"2 c #FEC264",
"3 c #F2AA41",
"4 c #FFE66E",
"5 c #E3AD59",
"6 c #803C19",
"7 c #562C1A",
"8 c #FFB542",
"9 c #FEB958",
"0 c #443115",
"q c #B5843B",
"w c None",
/* pixels */
"wwwwwwwwwq.2wwwwwwwww",
"wwwwwwXqq.$23:8wwwwww",
"wwwXXq@%#$2=&88==wwww",
"ww1Xq%,3<<22,8884>www",
"ww1q@3::9922,:984;www",
"ww1q%:::9O22,O:-=;+ww",
"ww1q3:O:o922,o:9=>+ww",
"w0X@3:6699ooooooo>+ww",
"w0X,::6699o,9::9O>+ww",
"w0X,:o9O92O777700>+ww",
"w0X$1:9o926,:::9o4;ww",
"w0X6::6692OO777774;4w",
"w1X,:o9o92o,6:992=>4w",
"w1X3699o92o,:7992=>4w",
"w1q3::9O927,:9797=>4w",
"0X@3::9O927,:9772=>4w",
"0X@:o:9o92o,:::oo24=w",
"0q%::Ooo92o:6o99o24=4",
"0q%:::o:9666:9:922==4",
"1q%:::9996,::99922==4",
"1q@333$$$*%33$$$**2-4",
"Xqq@@@....@@@@...553="
};
