/* XPM */
static char *Fragrant_Elephant_B_wood[] = {
/* width height ncolors chars_per_pixel */
"22 23 32 1",
/* colors */
"  c #000000",
". c #D19849",
"X c #946A2E",
"o c #72361A",
"O c #5F301B",
"+ c #FFFE89",
"@ c #CF9239",
"# c #E5A644",
"$ c #F3B255",
"% c #DB9F44",
"& c #F8B046",
"* c #FFC35D",
"= c #FABB58",
"- c #FFCD60",
"; c #FEC05B",
": c #FFFF86",
"> c #FEB140",
", c #FFF47C",
"< c #EAA940",
"1 c #FBB754",
"2 c #5D391C",
"3 c #FEC264",
"4 c #F2AA41",
"5 c #FFE66E",
"6 c #E3AD59",
"7 c #803C19",
"8 c #562C1A",
"9 c #FFB542",
"0 c #FEB958",
"q c #443115",
"w c #B5843B",
"e c None",
/* pixels */
"eeeeeeeeeew.6<eeeeeeee",
"eeeeeeww.w.63&99eeeeee",
"eeeXww@%6<6=3&99;05eee",
"ee2X.@<411133499*-,:ee",
"ee2w6#>>>0033<>99-,+ee",
"eeqw$<>>>7033o>0>*,+ee",
"ee2w$<>>OOOOOOO>0*,+ee",
"ee2w%>>Oo003o<>>0*,+ee",
"ee2.%>o7>00o3<>>035:ee",
"eqX@47>77ooooOOO035:5e",
"eqX@>>0O003O<>0803-,5e",
"eqw%3>>Oo777oooo03-,5e",
"e2w%>>>007oO<>>003-,5e",
"e2w%>>>0o0oo<>o70335-e",
"e2w%>>0o>oo3OO000335-5",
"qX.#>o70O0838>0>033--5",
"qX6<>>>o0OO3<800033--5",
"qw$<>>o0o0o<<oo>033--5",
"qw$<>>0o>0o<>>oo033--5",
"qw$<>>>0o77<>>07733--5",
"qw$<>>>00o3<>>00033--5",
"2w6%444$$$=%44$$$==3;5",
"Xw.@@@@....@@@@...664-"
};
