/* XPM */
static char *Free_King_B_wood[] = {
/* width height ncolors chars_per_pixel */
"22 23 32 1",
/* colors */
"  c #000000",
". c #D19849",
"X c #946A2E",
"o c #72361A",
"O c #5F301B",
"+ c #FFFE89",
"@ c #CF9239",
"# c #E5A644",
"$ c #F3B255",
"% c #DB9F44",
"& c #F8B046",
"* c #FFC35D",
"= c #FABB58",
"- c #FFCD60",
"; c #FEC05B",
": c #FFFF86",
"> c #FEB140",
", c #FFF47C",
"< c #EAA940",
"1 c #FBB754",
"2 c #5D391C",
"3 c #FEC264",
"4 c #F2AA41",
"5 c #FFE66E",
"6 c #E3AD59",
"7 c #803C19",
"8 c #562C1A",
"9 c #FFB542",
"0 c #FEB958",
"q c #443115",
"w c #B5843B",
"e c None",
/* pixels */
"eeeeeeeeeeew6<eeeeeeee",
"eeeeeeeww.w.$&99eeeeee",
"eeeeXXw@%<6$3&99-*eeee",
"eeeXw@%<$1133<99--5,ee",
"ee2X.%4>>0o33<>99-,+ee",
"ee2X6#>7777ooooo>*,+ee",
"eeqw$<>>>O033O>>0;5:ee",
"eeqw%>>>o00o3<o>0;5:5e",
"ee2w%>>7>77ooo>o03-,5e",
"ee2X477>>00o<0>>O3-,5e",
"ee2w4>000033<>0003-,5e",
"eqX@3>OOo777ooooo3-,5e",
"eqX@>>>00733<8>00335-e",
"eqw%>>>oo033<7>00335-5",
"eqw%>>7o>033<O00033--5",
"eqw%>>>0>033<>0>033--5",
"eqw%>>>0OOO88880033--5",
"e2w%>>>0>03o<>>>033--5",
"e2w%>>00>oooo700033--5",
"e2.%>>>0>037>>0>033--5",
"qX6#>>>0Oo77ooo0033--5",
"2w6%444$$$=%44$$$==3;5",
"Xw.@@@@....@@@@...664-"
};
