/* XPM */
static char *Gold_General_B_wood[] = {
/* width height ncolors chars_per_pixel */
"21 22 31 1",
/* colors */
"  c #000000",
". c #D19849",
"X c #946A2E",
"o c #72361A",
"O c #5F301B",
"+ c #FFFE89",
"@ c #CF9239",
"# c #E5A644",
"$ c #F3B255",
"% c #DB9F44",
"& c #F8B046",
"* c #FABB58",
"= c #FFCD60",
"- c #FEC05B",
"; c #FFFF86",
": c #FEB140",
"> c #FFF47C",
", c #EAA940",
"< c #FBB754",
"1 c #5D391C",
"2 c #FEC264",
"3 c #F2AA41",
"4 c #FFE66E",
"5 c #E3AD59",
"6 c #803C19",
"7 c #562C1A",
"8 c #FFB542",
"9 c #FEB958",
"0 c #443115",
"q c #B5843B",
"w c None",
/* pixels */
"wwwwwwwwwq.2wwwwwwwww",
"wwwwwwXqq.$23:8wwwwww",
"wwwXXq@%#$2=&88==wwww",
"ww1Xq%,3<<22,8884>www",
"ww1q@3::9922,:984;www",
"ww1q%:::9922,::-=;+ww",
"ww1q3:::99o2,::9=>+ww",
"w0X@3:::96oo,::9=>+ww",
"w0X,:::6o92,OO:9=>+ww",
"w0X,:9OO922,:779=>+ww",
"w0X$:OO:922,::oo24;ww",
"w0X,66996oOO7:9774;4w",
"w1X,::9:92o,::992=>4w",
"w1X3:99ooooOO7992=>4w",
"w1q3::9:927,:9:92=>4w",
"0X@3::9O927,:7992=>4w",
"0X@:::9oo2o,oo:9224=w",
"0q%::99:92o::999224=4",
"0q%::ooo6666666622==4",
"1q%:::9992,::99922==4",
"1q@333$$$*%33$$$**2-4",
"Xqq@@@....@@@@...553="
};
