/* XPM */
static char *Iron_General_B_wood[] = {
/* width height ncolors chars_per_pixel */
"22 22 32 1",
/* colors */
"  c #000000",
". c #D19849",
"X c #946A2E",
"o c #72361A",
"O c #5F301B",
"+ c #FFFE89",
"@ c #CF9239",
"# c #E5A644",
"$ c #F3B255",
"% c #DB9F44",
"& c #F8B046",
"* c #FFC35D",
"= c #FABB58",
"- c #FFCD60",
"; c #FEC05B",
": c #FFFF86",
"> c #FEB140",
", c #FFF47C",
"< c #EAA940",
"1 c #FBB754",
"2 c #5D391C",
"3 c #FEC264",
"4 c #F2AA41",
"5 c #FFE66E",
"6 c #E3AD59",
"7 c #803C19",
"8 c #562C1A",
"9 c #FFB542",
"0 c #FEB958",
"q c #443115",
"w c #B5843B",
"e c None",
/* pixels */
"eeeeeeeeeew63eeeeeeeee",
"eeeeeeeXww.$-99eeeeeee",
"eeeeXXw@%#$3-999*eeeee",
"eee2Xw%<41133&999-,eee",
"eeeow%4>>0033<9;95,eee",
"eeqX.#o>>003O<>>;-,+ee",
"eeqX@>OO>00ooo>o0-,+ee",
"ee2w%7o>7003o<>o0-,+ee",
"ee2X47>>>o0ooOOOOO,+ee",
"ee2wo>000033<>080-,+ee",
"eqXO32OOo037oo>o035:ee",
"eqX@>>70003O<8>8035:5e",
"eqw77ooooo3o<7>703-,5e",
"eqw%>>70>03oOO0O03-,5e",
"e2wo>>70>233<>08038,5e",
"e2w%o>o0O038880808-,5e",
"e2.%o>o0>o3<o>>o0o-,5e",
"qX.#>>Ooo03oo70oo3-,5e",
"qX6<oo>0>03<7>7773-,5e",
"qw$<o>>00037oo000o35-e",
"2w6%444$$$=%44$$$=3--5",
"Xw.@@@@....@@@@...669-"
};
