/* XPM */
static char *Side_Chariot_B_wood[] = {
/* width height ncolors chars_per_pixel */
"20 20 31 1",
/* colors */
"  c #000000",
". c #D19849",
"X c #946A2E",
"o c #72361A",
"O c #5F301B",
"+ c #FFFE89",
"@ c #CF9239",
"# c #F3B255",
"$ c #DB9F44",
"% c #F8B046",
"& c #FFC35D",
"* c #FABB58",
"= c #FFCD60",
"- c #FEC05B",
"; c #FFFF86",
": c #FEB140",
"> c #FFF47C",
", c #EAA940",
"< c #FBB754",
"1 c #5D391C",
"2 c #FEC264",
"3 c #F2AA41",
"4 c #FFE66E",
"5 c #E3AD59",
"6 c #803C19",
"7 c #562C1A",
"8 c #FFB542",
"9 c #FEB958",
"0 c #443115",
"q c #B5843B",
"w c None",
/* pixels */
"wwwwwwwwq@.5,wwwwwww",
"wwwwXq@q.$*2%8:8wwww",
"www1X@,,5#22%8&-4www",
"wwwoq,::<922,88=4;ww",
"ww0X@3::99o2,:8=4+ww",
"ww1X,:::99o2o::&>+ww",
"ww1q,::6ooooOO:&>+ww",
"ww1q399992O,:99-4;ww",
"w0X.3:9:926,:o:-4;+w",
"w0X,:6666oOO7779=>+w",
"w0X,::9oo2o,::99=>+w",
"w0X,:99o92o,:799=>+w",
"w1X,::oO12770079=>+w",
"w1X3:o999O7,:999=>+w",
"w1q3o:9:92ooo::9=>+w",
"0X@3:99:92,:6oo924;w",
"0X@:::9:92,::6:924;4",
"1q$:::9992,::9992=>4",
"1q@333###*$33###*244",
"Xqq@@@....@@@@...52="
};
