/* XPM */
static char *Standard_Bearer_B_wood[] = {
/* width height ncolors chars_per_pixel */
"21 22 31 1",
/* colors */
"  c #000000",
". c #D19849",
"X c #946A2E",
"o c #72361A",
"O c #5F301B",
"+ c #FFFE89",
"@ c #CF9239",
"# c #E5A644",
"$ c #F3B255",
"% c #DB9F44",
"& c #F8B046",
"* c #FABB58",
"= c #FFCD60",
"- c #FEC05B",
"; c #FFFF86",
": c #FEB140",
"> c #FFF47C",
", c #EAA940",
"< c #FBB754",
"1 c #5D391C",
"2 c #FEC264",
"3 c #F2AA41",
"4 c #FFE66E",
"5 c #E3AD59",
"6 c #803C19",
"7 c #562C1A",
"8 c #FFB542",
"9 c #FEB958",
"0 c #443115",
"q c #B5843B",
"w c None",
/* pixels */
"wwwwwwwwwq.2wwwwwwwww",
"wwwwwwXqq.$23:8wwwwww",
"wwwXXq@%#$2=&88==wwww",
"ww1Xq%,3<<22,8884>www",
"ww1q@3:69922oo984;www",
"ww1q%::O9922O::-=;+ww",
"ww1q3:::o92o,::9=>+ww",
"w0X@3o6666oooooo=>+ww",
"w0X,::::992,9::9=>+ww",
"w0X,:oOOOO277970=>+ww",
"w0X$:O9:962o::o924;ww",
"w0X,:6666o2O::7924;4w",
"w1X,:o9:9o26::692=>4w",
"w1X3:6oooo2O:9O92=>4w",
"w1q3:69:972,:9792=>4w",
"0X@3:o999O2,:9792=>4w",
"0X@::o9:9o,o::o9224=w",
"0q%::99ooo,:6oo9224=4",
"0q%:::9:62,::6:922==4",
"1q%:::9992,::99922==4",
"1q@333$$$*%33$$$**2-4",
"Xqq@@@....@@@@...553="
};
