/* XPM */
static char *Bishop_B_wood[] = {
/* width height ncolors chars_per_pixel */
"52 54 29 1",
/* colors */
"  c #000000",
". c #D19849",
"X c #946A2E",
"o c #72361A",
"O c #5F301B",
"+ c #CF9239",
"@ c #E5A644",
"# c #F3B255",
"$ c #DB9F44",
"% c #F8B046",
"& c #FFC35D",
"* c #FABB58",
"= c #FFCD60",
"- c #FEC05B",
"; c #FEB140",
": c #FFF47C",
"> c #EAA940",
", c #FBB754",
"< c #5D391C",
"1 c #FEC264",
"2 c #F2AA41",
"3 c #FFE66E",
"4 c #E3AD59",
"5 c #803C19",
"6 c #562C1A",
"7 c #FFB542",
"8 c #FEB958",
"9 c #B5843B",
"0 c None",
/* pixels */
"00000000000000000000000$$4$2,80000000000000000000000",
"00000000000000000000++.$@#$28---=0000000000000000000",
"0000000000000000009++$$4#*@;77-&=%700000000000000000",
"000000000000000...++$4>#*1>;7---=%777-10000000000000",
"0000000000000+..44+>>#2#11>;88--=%7-7--=%70000000000",
"00000000009.++$444$2##;,11>;;8881277---=77-=00000000",
"00000009..++$@4##*@2;,;811>8;8881>778--=77=300000000",
"000000099.+@>>#*11>;88;811>8;8881>;;;8-=77=330000000",
"000000X9..+>2#,111>;88;811>;;8881>;;;881%7==30000000",
"000000X9.4$2;,8111>;;;;811>;8;881>;;;881%7==30000000",
"000000X9.4$2888111>;88;811>;88881>;;;881%7=330000000",
"000000X9.4$;8;8111>;;8;811>;;8811>;;;88127-330000000",
"000000X9.4@;888111>;;88811>;;88111>;8;811%-330000000",
"000000X9.+@;;;8111>;;8;881>;;88111>;;8811%7=33000000",
"000000X9.$2;888111>;;;8811>8;88111>;88811%7333000000",
"00000XX94$2;8;8111>;;88811>;;88111>;;8811%7333000000",
"00000X9+4$2;888111>;;o8811>;;88111>;;;811%7=33000000",
"00000X9.4$;;888111>;;55511>8;88111>;;888127-33000000",
"00000X9.4$;;;88811>;;5581>;;855111>;;881127-33000000",
"00000X9.4@;;8;8111>;5555555o555511>;;881127=33:00000",
"00000X9.4@;;;88111>;55;81>;;558111>;;881127733:00000",
"00000X9.4@;;888111>558;81>;;588111>;88811>7=33:00000",
"0000XX94#@;88881115o;8;81>;5;8811o5;;8811>77=3:00000",
"0000XX+4#@;;88811oOoOoOooooooooooo55;8811>7==3:00000",
"0000XX.4*@;;;811oo>558881>5o;881155;;8811>77=3:00000",
"0000X9.4*@;;885511>oo;888>oo;8811oo;;8881>77=3300000",
"0000X9.4*>;8881111>oo;811>oo88881oo;;8811>7&733:0000",
"0000X9.4*>;8888111>ooooooOO6O666666;;;811>77=33:0000",
"0000X9.4*>;;888111>oo;811>668881166;;8811>7-==3:0000",
"0000X9.4*>;8;81111>oo;888><<88811Oo;8;811>;-==3:0000",
"000XX9$#1>;;881111>55;881>558881155;;;811>;7==3:0000",
"000XX+$#1>;;881111>OO;881>6688811OO;;;8818;77-3:0000",
"000X9+@#1>;;881111>55555555ooooooo5;;;888>;8&=3:=000",
"000X9+@#1>;;888111>558881>;88811166;;;881>;8&73:=000",
"000X9+>#1>;8888111>oo;881>;;;8111oo;;;881>;7-73:=000",
"000X9.>#1>;;88811155;8881>;;88111oo;;;881>;;77=:=000",
"00XX9+>#1>;;88811155;;881>;888111oo;;;888>;;77=:=000",
"00XX+$2,1>;;;;811<O;;8881>;;88111OO;;;881>;;7&=:=000",
"00XX.$2,1>;888815o>;;8881>;88oooooo;88881>;;7&=3==00",
"00X9+$2,1>;;;8o511>;88881>;;;88555>;;;881>;;8&33==00",
"00X9+@2,1>;;;88111>;8;881>;8888811>;8;888>;;8-=3==00",
"00XX+>#,1>;;888111>;;;881>;;888111>;;;881>;88-=3==00",
"0099+>#,11>;;;8111>;8;881>;8888111>;;;881>;;8-=,==00",
"0X99+>#811>;;88111>;88881>;;888811>;;;811>;88-=7==00",
"0X99$#,811>;;88111>;;;881>;;;88111>;;;811>;;88=7===0",
"0X99$2,881>;;;8111>;88881>;;;88811>;;8881>;;88=7===0",
"0X99$2;811>;;;8111>;88881>;;;88811>;;;811>;;88=7===0",
"0X99@#,881>;888111>;88881>;;;88111>;;;888>;;88=7===0",
"0X99>2;881>;;88111>;;8881>;;;;8111>;;;881>;88817-==0",
"099+>#,;81>;;88111>;;;8811>;;;8111>;8;881>;;881%-==0",
"X9.+>2;;81>;;;8111>;;;8811>;;88111>;;8811>;;881%7===",
"99.+>2,,,1@222,111@2222,11@222,111@222,11@2,,,127-=3",
"99.+>##2#*$22##***$22###**$222#***$222#**$222#*>77==",
"9..+>>#>##$>######$>>#####$>>>####$>>>###$>>>##@;77="
};
