/* XPM */
static char *Knight_W_wood[] = {
/* width height ncolors chars_per_pixel */
"43 46 30 1",
/* colors */
"  c #000000",
". c #D19849",
"X c #946A2E",
"o c #72361A",
"O c #5F301B",
"+ c #CF9239",
"@ c #E5A644",
"# c #F3B255",
"$ c #DB9F44",
"% c #F8B046",
"& c #FFC35D",
"* c #FABB58",
"= c #FFCD60",
"- c #FEC05B",
"; c #FEB140",
": c #FFF47C",
"> c #EAA940",
", c #FBB754",
"< c #5D391C",
"1 c #FEC264",
"2 c #F2AA41",
"3 c #FFE66E",
"4 c #E3AD59",
"5 c #803C19",
"6 c #562C1A",
"7 c #FFB542",
"8 c #FEB958",
"9 c #443115",
"0 c #B5843B",
"q c None",
/* pixels */
"0..@4#$>######$>>>###$>>####$>#####$>##8=3-",
"00+@#*$2#2#***$22###*$22###*$2###**$22,-=3=",
"X0.@*1@;;;,111@;;;,,1@;;,,,1@;,,,11@;;7&=:=",
"X0+@*1>;;8811>>;;;881>;;8881>;;;811>;;-=3:=",
"X0.@*1>;;8811>;;;8881>;;8881>;;;811>;77=3:=",
"XX.@*1>;;;811>;;8;881>;88881>;;8881>;7&=3:=",
"XX+$#1>;8;811>;;;8881>;88881>;;;811>;87=3:=",
"XX0$#1>;;8811>;;8;881>;;;881>;;;811>;7&=3:q",
"qX0.41>;;8811>;;8;811>;;8881>;;;811>;77=3:q",
"qX0.4*>;;8111>;;8;811>;88881668;881>;77=3:q",
"qX0.4@,;;8OO<OOooooooooooo8169;8881>;77=3:q",
"qX0.4$;888166>;;85511>8;8881oo;8881>;7==3:q",
"qX0.4$;;;8111>;885511>8;8881oo;;881>77=33:q",
"qXX04$2;88111>;88O<11>;;8881<<;;881>77733:q",
"qqX0.$2;88111>;;;5511>;8;88155;;881>77733:q",
"qqX0.+2,88111>;88oo11>;88881oo;;851>77=33qq",
"qqX0.+2,;81666O<<<ooooooo811oo;;581>77=33qq",
"qqX0.+2,8811OO;;8oo11>;;8811oo;oo81127=33qq",
"qqX00+2;;8111>;;8oo81>;;881155;o8811%7=33qq",
"qqX00$2,88111>;;;oo11>8;881155;58811%7333qq",
"qqX00$2,;8111>;;55511>;;551155558811%7333qq",
"qqX00+>,88111>;;;8811>;;oo11555;;811%-33qqq",
"qqqX0+>#88111>;;8;811>8;8551555;88817-=3qqq",
"qqqXX+>2,8555555555555555815555;88117==3qqq",
"qqqXX+@#;8155>;88551>;;;881155;;881=7=33qqq",
"qqqXX+$2,8111>;;8551>;;;881155;;881=7==3qqq",
"qqqXX+$#,8111>;;8551>;;8881155;8881=7=33qqq",
"qqqXX0$#,8111>;;8551>;;;ooOoo555551=7==qqqq",
"qqqqX0+4#,1OoOoOoOoooooo8o11o5;;881=7=3qqqq",
"qqqqX0+>#111oo;;8551>;;;881155;;881=,==qqqq",
"qqqqX0+@#,111>;;;oo8>;;;8811oo;;88-=-==qqqq",
"qqqqXX+$#1111>;;;oo1>;;88881oo;;88==-=3qqqq",
"qqqqXX0$#,111>;;ooo1>;;8881666;;;8=3-==qqqq",
"qqqqqX0.4#111>;;;811>;8888111>;;88=3-=3qqqq",
"qqqqqX0+4*111>;;;888>;;888111>;8;8=3-=3qqqq",
"qqqqqX0.@*111>;;;881>;8888111>;;;-=3==qqqqq",
"qqqqqXX+$#111>;;;881>;8888111>;;;-=33=qqqqq",
"qqqqqXX0$#111>;;;881>;;881111>;;7-====qqqqq",
"qqqqqqX0.4*11>;;8881>;8881111>;77&=3==qqqqq",
"qqqqqqX0.$#*1@;;;881>;;;81111>777&=3==qqqqq",
"qqqqqqX00.4#*@2;,,,1>;;8811112777==3-=qqqqq",
"qqqqqqq00.444$222#,1>;8881111%777&==qqqqqqq",
"qqqqqqqq0..44+>>###*@;;8-1===%777&qqqqqqqqq",
"qqqqqqqqqqq..++$@44#@288-1===%7qqqqqqqqqqqq",
"qqqqqqqqqqqqqq+$$$@4$22;8-==qqqqqqqqqqqqqqq",
"qqqqqqqqqqqqqqqqqq$4+>#,8qqqqqqqqqqqqqqqqqq"
};
