/* XPM */
static char *Silver_W_wood[] = {
/* width height ncolors chars_per_pixel */
"46 49 30 1",
/* colors */
"  c #000000",
". c #D19849",
"X c #946A2E",
"o c #72361A",
"O c #5F301B",
"+ c #CF9239",
"@ c #E5A644",
"# c #F3B255",
"$ c #DB9F44",
"% c #F8B046",
"& c #FFC35D",
"* c #FABB58",
"= c #FFCD60",
"- c #FEC05B",
"; c #FEB140",
": c #FFF47C",
"> c #EAA940",
", c #FBB754",
"< c #5D391C",
"1 c #FEC264",
"2 c #F2AA41",
"3 c #FFE66E",
"4 c #E3AD59",
"5 c #803C19",
"6 c #562C1A",
"7 c #FFB542",
"8 c #FEB958",
"9 c #443115",
"0 c #B5843B",
"q c None",
/* pixels */
"00+$4####$>######$>>>###$>>####$>#####$>##8=3-",
"00+$>2#**$2#2#***$22###*$22###*$2###**$228-33=",
"0X+$##,11@222,111@222,,1@22,,,1@2,,,11@;;7==:=",
"XX+$#;811>;;8811>>;;;881>;;8881>;;;811>;7&=3:=",
"XX+$#,811>;;8811>;;;8881>;;8881>;;;811>;77=::q",
"XX+$2,811>;;;811>;;8;881>;88881>;;8881>;7==3:q",
"XX+$2,811>;8;811>;;;8881>;88881>;;;811>;-7=3:q",
"XX0+>#811>;;8811>;;8;881>;;;881>;;;811>77=33:q",
"qX0+>#,11>;;8811>;;8;811>;;8881>;;;811>77733:q",
"qX0+>#,11>;;8111>;;8;811>;88881>;8;881>77733:q",
"qX0+@#,1>8;;OO11>;88;81o>;;8881>9;8881>77-33qq",
"qX0.@#11>;889961>;;8;555>8;888ooo;8881>77=33qq",
"qXX+$#11>;;oooo5>;85555558;8ooooo5;881>77=33qq",
"qXX0$#11>;;88166>668;<O1>O<<O<1>;;;881>77=33qq",
"qqX0+4*1>;;881155;;;;551>;8;551>;;;881>77=33qq",
"qqX0+4*1>;888111<;88;oo1>;8ooo1oo;;881>77=33qq",
"qqX0+@*1>;8;81116O;8;oo1>;o8oo1oo;;881>77333qq",
"qqX0.@*1>;88816O>o;88oo1>oo8oo11o;8;811%7333qq",
"qqX0+$#@>;;;ooo1>o;8;oo1ooo85511>o;8811%7=33qq",
"qqXX0$#@;;8ooo11>;o;8oo1>8o8oo11>;88811%-33qqq",
"qqqX0.4@;;8;8511>;588551>;;85511>;;88117-33qqq",
"qqqX0.4@;;888111>;o;8o<1o<<ooo5555;;8117-33qqq",
"qqqX0.4@;;888551>;58;551>5o85511>;;88817==3qqq",
"qqqX0.4$;;;885555555555>;;885511>;5881=7==3qqq",
"qqqX0.4$;;8;8551>;88855>;;;85511>5;881=7=33qqq",
"qqqX0.4$;;;88oo1>;;8;55>;55555555;;881=7==3qqq",
"qqqX0.4$2;888551>;;8;55>;;5581115;8881=7=33qqq",
"qqqXX04$28888oo55o55555>;;;8811o>;;881=7==3qqq",
"qqqqX0.$2;888OO1>;;88oo>oo;881oo>;;881=7=3qqqq",
"qqqqX0.+2;;81oo1>;;8855>5o;88151>;;881=,==qqqq",
"qqqqX0.+2;888551>;;;8oo>;oo88551>;;88-=-==qqqq",
"qqqqX0.+2,8855ooooooooo>;;8o8oo1>;;88==-=3qqqq",
"qqqqX0.+2,888oo1>;;;81o>;;886611>;;;8=3-==qqqq",
"qqqqX0.+22888111>;;;811>;8889911>;;88=3-=3qqqq",
"qqqqX00+>#;81111>;;;888>;;888111>;8;-=3==qqqqq",
"qqqqq00+>2,81111>;;;881>;8888111>;;;-=3==qqqqq",
"qqqqqX00@2,81111>;;;881>;8888111>;;;-=33=qqqqq",
"qqqqqX00$2,81111>;;;881>;;881111>;;7-=3==qqqqq",
"qqqqqX00+>#,8111>;;8881>;8881111>;;7&=3==qqqqq",
"qqqqqq0X+4#,8111>;;;881>;;;81111>;;7&=3==qqqqq",
"qqqqqqXX+$##,111>;;8881>;;881111>;77==:=qqqqqq",
"qqqqqqXX0+4#,111>;;;881>;8881111>777==3=qqqqqq",
"qqqqqqqX0+$>#111@;;8881>;;881111>777==3=qqqqqq",
"qqqqqqqX0.$4#***@22,,,1>;888111127-&==3-qqqqqq",
"qqqqqqqq0++$@44#$>###,1>777--1112777==qqqqqqqq",
"qqqqqqqqq++$$444+$4>##1>7-----11>;87qqqqqqqqqq",
"qqqqqqqqqqqqqq44+++$@#1>77---=1qqqqqqqqqqqqqqq",
"qqqqqqqqqqqqqqqqqq.+$4#@7---qqqqqqqqqqqqqqqqqq",
"qqqqqqqqqqqqqqqqqqqq$@#@;qqqqqqqqqqqqqqqqqqqqq"
};
