/* XPM */
static char *noname[] = {
/* width height ncolors chars_per_pixel */
"31 31 29 1",
/* colors */
"  c #D19849",
". c #946A2E",
"X c #72361A",
"o c #5F301B",
"O c #CF9239",
"+ c #E5A644",
"@ c #F3B255",
"# c #DB9F44",
"$ c #F8B046",
"% c #FFC35D",
"& c #FABB58",
"* c #FFCD60",
"= c #FEC05B",
"- c #FEB140",
"; c #FFF47C",
": c #EAA940",
"> c #FBB754",
", c #5D391C",
"< c #FEC264",
"1 c #F2AA41",
"2 c #FFE66E",
"3 c #E3AD59",
"4 c #803C19",
"5 c #562C1A",
"6 c #FFB542",
"7 c #FEB958",
"8 c #443115",
"9 c #B5843B",
"0 c None",
/* pixels */
"00000000000000#-600000000000000",
"0000000000099 O:-67100000000000",
"0000000099O  3#166=$66700000000",
"0000099 9O#3@&+-66=$66===*00000",
"0004.9 3O:1@<<:---71666%%*=*000",
"000X9 @&+>>7<<:---7:-66==2*2000",
"000,9+@<:--7<<:--77:--77=**2000",
"000X93<<:-77<<:--77:---77*%2000",
"00049@<<:7777::--77:---77*=2000",
"00,.O@<<:477<:--77<:X--77*=2200",
"00,.O@<::4XXXXoooooo,o-77*>2200",
"00,.O@<:-oo7<:5577:----77<6*200",
"00,.#@<:-X47<:XX777X--777<6*200",
"00,.#><:-44Xoo55555557-77<6*200",
"00,.+><:-XX7<:4X77:--7-77<6*200",
"004.:><:-XX7<:o5-<o-77-77<6*200",
"00.9:><:-o,55588555577777<$*200",
"0,.9:><:-oo7<:55-<<777-77<$*;;0",
"0,.917<:-XX7<:XX-<:-77-77<$*2;0",
"0,.O17<:-XXXXX4XXXXXXX-77<1=2;0",
"0,.#17<:-X-7<:--<7:7X4777<16*;0",
"0,.#17<:---7::--<o:-XX-77<16*20",
"0,9O>7<:-4-74-X-<X4-4477<<16*;0",
"0X93-7<:44-44-44<44-4477<<:6*;0",
"0.9#>7<:44-44-44<7:-4477<<:6*;0",
"0. #-7<:---7:--<7<:X4-77<<:6*20",
"9. #-7<:---7:--7<444--77<<:6*22",
"9. #-7<:--77:---<<:---77<<:6=22",
"9. #-7<7-777:--<<:----77<:-6=*2",
"99O:1@&#@1@@#111&#1@@@@@&#116**",
"99.999999O  9O3:&+:##   9999O:@"
};
