/* XPM */
static char *noname[] = {
/* width height ncolors chars_per_pixel */
"27 28 29 1",
/* colors */
"  c #D19849",
". c #946A2E",
"X c #72361A",
"o c #FFFE89",
"O c #CF9239",
"+ c #CA0D0D",
"@ c #E5A644",
"# c #F3B255",
"$ c #DB9F44",
"% c #F8B046",
"& c #FFC35D",
"* c #FABB58",
"= c #FFCD60",
"- c #FEC05B",
"; c #FFFF86",
": c #FEB140",
"> c #FFF47C",
", c #EAA940",
"< c #FBB754",
"1 c #5D391C",
"2 c #FEC264",
"3 c #F2AA41",
"4 c #FFE66E",
"5 c #E3AD59",
"6 c #803C19",
"7 c #FFB542",
"8 c #FEB958",
"9 c #B5843B",
"0 c None",
/* pixels */
"000000000000527000000000000",
"000000000099 5,770000000000",
"00000009.9O$523777-30000000",
"0000099 9$,#223777&%7700000",
"000X.9 5$33<22,:77-%77=4000",
"00019$#2@88822,:::8377=>000",
"000195<2,::822,::88,774>000",
"000X9#22,:8822,::88,:7=>000",
"0016O#22,+888+,::88,:7=>>00",
"001.O#22,++82++:882,:7->>00",
"001.O#2,++882++:8+,::774>00",
"001.$<2,+++++++++++::774>00",
"001.,<2++:882++:888:::=4>00",
"001.,82+:::82++::8,::874>00",
"00X9,8+,:::82++:88,::874>00",
"00.93+2,:::82++8:2,+8874>00",
"01.9382++++++++++++++8-=>o0",
"01.O382,:::82++::228887=>o0",
"01.O382,:::82++::2,:887=4o0",
"019O:82,:::82++::8,::87=4o0",
"0195:82,:::82++:28,8888&4o0",
"019#:82,:::8,++:22,:88:&4o0",
"06 $882,:::8,++:28,::88&4;0",
"0. #:82,:::8,+::28,:8:8-4;0",
"9. @882,:::8,:2828,:::8-4;=",
"9.5@:82,:::8,::282,:::884;=",
"995$3#*$333#$33#**$333##=>-",
"9999999999  O,33559O9999 #$"
};
