/* XPM */
static char *noname[] = {
/* width height ncolors chars_per_pixel */
"31 31 29 1",
/* colors */
"  c #D19849",
". c #946A2E",
"X c #72361A",
"o c #5F301B",
"O c #CF9239",
"+ c #E5A644",
"@ c #F3B255",
"# c #DB9F44",
"$ c #F8B046",
"% c #FFC35D",
"& c #FABB58",
"* c #FFCD60",
"= c #FEC05B",
"- c #FEB140",
"; c #FFF47C",
": c #EAA940",
"> c #FBB754",
", c #5D391C",
"< c #FEC264",
"1 c #F2AA41",
"2 c #FFE66E",
"3 c #E3AD59",
"4 c #803C19",
"5 c #562C1A",
"6 c #FFB542",
"7 c #FEB958",
"8 c #443115",
"9 c #B5843B",
"0 c None",
/* pixels */
"99.9999 9OO  3O:11@OOO  9  9O:1",
"99 #11@&#11@&&#111@#11@@@&&+6**",
"9. @>77<:--7<<:---7:--777<:6**2",
"9. #777<:--7<<:---7:--777<:6=;2",
"9. #-77<:-XXXXXXXXXX---777:62;*",
"0. #>77<:7X7<<44--7:---77<:6*20",
"0.9#-77<:--7<<XX-77:--7777:6*;0",
"0X9O-7<<:-7ooooooXX:---77<:6*;0",
"0,9O17<<:77X7:XX-77:---77<16*;0",
"0,9O17<<:-77<:XX77<:---77<16*20",
"0,.O17<::-XXXXoooooo---77<16*;0",
"0,.O17<:--o7<:-777:--o-77<1=2;0",
"0,.917<:--77<X--777X4-777<$*220",
"0,.9:><:---7<o---755-7-77<$*220",
"00.9:><:---7<4--744--7-77<$*200",
"004.:><:---7<o-7oo:-77-77<6*200",
"00,.+><:-o,55588555557777<6*200",
"00,.#><:--o7<5-55<<777-77<6*;00",
"00,.#@<:---7XX---<:-77-77<6*200",
"00,.O@<:-XX7<:-X-7:--X-77<6*200",
"00,.O@<:--44<44444:4X7777*>2200",
"00,.O@<:---44:-X<<XX77-77*=2200",
"00049@<:---74X--<X4--777<*=2000",
"000493<:---7:4--44:-7-77<*%2000",
"000,9+<:-444444444444-77<**2000",
"000X. @+1-47:--44<:--67=*2*2000",
"0004.9 O::1@+--7<<:666=%**=*000",
"00000999OO#3#11-<<1666==<*00000",
"0000000099O O#:<<$6666700000000",
"0000000000099OO:<16700000000000",
"000000000000003-*00000000000000"
};
