/* XPM */
static char *noname[] = {
/* width height ncolors chars_per_pixel */
"31 31 27 1",
/* colors */
"  c #D19849",
". c #946A2E",
"X c #72361A",
"o c #CF9239",
"O c #CA0D0D",
"+ c #E5A644",
"@ c #F3B255",
"# c #DB9F44",
"$ c #F8B046",
"% c #FFC35D",
"& c #FABB58",
"* c #FFCD60",
"= c #FEC05B",
"- c #FEB140",
"; c #FFF47C",
": c #EAA940",
"> c #FBB754",
", c #5D391C",
"< c #FEC264",
"1 c #F2AA41",
"2 c #FFE66E",
"3 c #E3AD59",
"4 c #803C19",
"5 c #FFB542",
"6 c #FEB958",
"7 c #B5843B",
"8 c None",
/* pixels */
"88888888888888#-588888888888888",
"8888888888877 o:-56188888888888",
"8888888877o  3#155=$55688888888",
"8888877 7o#3@&+-55=$55===*88888",
"8884.7 3o:1@<<:---61555%%*=*888",
"888X7 @&+>>6<<:---6:-55==2*2888",
"888,7+@<:--6<<:--66:--66=**2888",
"888X73<<:-66<<OO-66:--O66*%2888",
"88847@<<:OOOOOOOOOOOOOOOO*=2888",
"88,.o@<<:OO6<O-OO6<O---66*=2288",
"88,.o@<::OO6OO-OOOOOOOO66*>2288",
"88,.o@<:-OOOOO-OO6:O---66<5*288",
"88,.#@<:-OO6OO-OOOOOOOO66<5*288",
"88,.#><:-OO6OO-OO6:O-6-66<5*288",
"88,.+><:-OO6OO-OOOOOOOO66<5*288",
"884.:><:-OO6OO-OO<:O66-O6<5*288",
"88.7:><:-OO6O:-OOOOOOOOOO<$*288",
"8,.7:><:-OO6<:--O<<666-66<$*;;8",
"8,.716<:-OO6OOOOOOOOO6-66<$*2;8",
"8,.o16<:-OO6OO---6:-O6-66<1=2;8",
"8,.#16<:-OO6OOOOOOOOO6666<15*;8",
"8,.#16<:-OO6OO--<<:-O6O66<15*28",
"8,7o>6<:-OO6OOOOOOOOOOOO<<15*;8",
"8X73-6<:-OO6OO--<6:-6-66<<:5*;8",
"8.7#>6<:OO-6OOOOOOOOOOO6<<:5*;8",
"8. #-6<:O--6:--<6<:--OO6<<:5*28",
"7. #-6<O---6O-O6O<O--OO6<<:5*22",
"7. #-6<:--6O:-O-O<O-OO66<<:5=22",
"7. #-6<6-666:--<<:-O--66<:-5=*2",
"77o:1@&#@1@@#111&#1@@@@@&#115**",
"77.777777o  7o3:&+:##   7777o:@"
};
