/* XPM */
static char *noname[] = {
/* width height ncolors chars_per_pixel */
"31 31 29 1",
/* colors */
"  c #D19849",
". c #946A2E",
"X c #72361A",
"o c #5F301B",
"O c #CF9239",
"+ c #E5A644",
"@ c #F3B255",
"# c #DB9F44",
"$ c #F8B046",
"% c #FFC35D",
"& c #FABB58",
"* c #FFCD60",
"= c #FEC05B",
"- c #FEB140",
"; c #FFF47C",
": c #EAA940",
"> c #FBB754",
", c #5D391C",
"< c #FEC264",
"1 c #F2AA41",
"2 c #FFE66E",
"3 c #E3AD59",
"4 c #803C19",
"5 c #562C1A",
"6 c #FFB542",
"7 c #FEB958",
"8 c #443115",
"9 c #B5843B",
"0 c None",
/* pixels */
"99.9999 9OO  3O:11@OOO  9  9O:1",
"99 #11@&#11@&&#111@#11@@@&&+6**",
"9. @>77<:--7<<:---7:--777<:6**2",
"9. #777<:--7<<:---7:--777<:6=;2",
"9. #-77<:--7<<:---7:---777:62;*",
"0. #>7XX:77744:-447:--4774:6*20",
"0.9#-744:--7XX:XXX7:-XX77o:6*;0",
"0X9O-7<Xo-7oo<:o-X7:XX-7X<:6*;0",
"0,9O17<<:7777::--X7X-X-XX<16*;0",
"0,9O17<X4-77XX--7X<:-X-XX<16*20",
"0,.O144444XXXXo-oo:-,o-XX<16*;0",
"0,.O1X<Xo-77o5-558:55o-X4<1=2;0",
"0,.917<oo-774X-X7X7X-4744<$*220",
"0,.9:><4444Xoo---7:--7-5,<$*220",
"00.9:><XX--7X4-X444444444<$*200",
"004.:><4X--7Xo-5-<o-o7-,,<6*200",
"00,.+><4Xo,555-8-<5-577,,<6*200",
"00,.#><XX--755-55555ooXXX<6*;00",
"00,.#@<XX--7XX---XX-XX-X4<6*200",
"00,.OXXoXXXXXX4--7:--7-X4<6*200",
"00,.OX<XX--744--4444X4444*>2200",
"00,.O@<Xo--74X--<o:-XX-7X*=2200",
"00049@<:4--7:X--<7:-4477<*=2000",
"000493<:---7:---<7:-7-77<*%2000",
"000,9+<:---7:-<7<7:---77<**2000",
"000X. @+1--7:--<7<:--67=*2*2000",
"0004.9 O::1@+--7<<:666=%**=*000",
"00000999OO#3#11-<<1666==<*00000",
"0000000099O O#:<<$6666700000000",
"0000000000099OO:<16700000000000",
"000000000000003-*00000000000000"
};
