/* XPM */
static char *noname[] = {
/* width height ncolors chars_per_pixel */
"31 31 29 1",
/* colors */
"  c #D19849",
". c #946A2E",
"X c #72361A",
"o c #5F301B",
"O c #CF9239",
"+ c #E5A644",
"@ c #F3B255",
"# c #DB9F44",
"$ c #F8B046",
"% c #FFC35D",
"& c #FABB58",
"* c #FFCD60",
"= c #FEC05B",
"- c #FEB140",
"; c #FFF47C",
": c #EAA940",
"> c #FBB754",
", c #5D391C",
"< c #FEC264",
"1 c #F2AA41",
"2 c #FFE66E",
"3 c #E3AD59",
"4 c #803C19",
"5 c #562C1A",
"6 c #FFB542",
"7 c #FEB958",
"8 c #443115",
"9 c #B5843B",
"0 c None",
/* pixels */
"99.9999 9OO  3O:11@OOO  9  9O:1",
"99 #11@&#11@&&#111@#11@@@&&+6**",
"9. @>77<:--7<<:---7:--777<:6**2",
"9. #777<:--7<<:---7:--777<:6=;2",
"9. #-77<:--7<<:---7:---777:62;*",
"0. #>77<:oX7<<:---44---47<:6*20",
"0.9#-77<:447<<:XXXXo--XXo7:6*;0",
"0X9O-7X<:oo7<o:o-7XX-XX7X<:6*;0",
"0,9O17Xo:XX77X:X-7XX-XX77<16*;0",
"0,9O174<:447<X-X77XX-XX77<16*20",
"0,.O174::4X7<X-o77oo-oo77<X6*;0",
"0,.O17X:-oo7<5-55885-oX7741=2;0",
"0,.917,:-X47<X--77XX-4474<$*220",
"0,.9:>4:-447<o---755-5557<$*220",
"00.9:>X:-XX7<4-X4444-4447<$*200",
"004.:>4:-XX7<o-5-<oo7,,77<6*200",
"00,.+>X:-o,7<5-8-<5575o77<X*200",
"00,.#>X:-oo7<5-5-<557oX77X6*;00",
"00,.#@X:-XX7<X-X-<XX7XX74<6*200",
"00,.O@XoXXXXXX-XXXXX-XXX4<6*200",
"00,.O@<:-X47<:--<4:477447*>2200",
"00,.O@XXooX44X--,o:-7XXX7*=2200",
"00049@<4---7:---<7:-4474<*=2000",
"000493<:---7:---<7:-7477<*%2000",
"000,9+<:---7:-<7<7:---77<**2000",
"000X. @+1--7:--<7<:--67=*2*2000",
"0004.9 O::1@+--7<<:666=%**=*000",
"00000999OO#3#11-<<1666==<*00000",
"0000000099O O#:<<$6666700000000",
"0000000000099OO:<16700000000000",
"000000000000003-*00000000000000"
};
