/* XPM */
static char *noname[] = {
/* width height ncolors chars_per_pixel */
"31 31 27 1",
/* colors */
"  c #D19849",
". c #946A2E",
"X c #72361A",
"o c #CF9239",
"O c #CA0D0D",
"+ c #E5A644",
"@ c #F3B255",
"# c #DB9F44",
"$ c #F8B046",
"% c #FFC35D",
"& c #FABB58",
"* c #FFCD60",
"= c #FEC05B",
"- c #FEB140",
"; c #FFF47C",
": c #EAA940",
"> c #FBB754",
", c #5D391C",
"< c #FEC264",
"1 c #F2AA41",
"2 c #FFE66E",
"3 c #E3AD59",
"4 c #803C19",
"5 c #FFB542",
"6 c #FEB958",
"7 c #B5843B",
"8 c None",
/* pixels */
"88888888888888#-588888888888888",
"8888888888877 o:-56188888888888",
"8888888877o  3#155=$55688888888",
"8888877 7o#3@&+-55=$55===*88888",
"8884.7 3o:1@<<:---61555%%*=*888",
"888X7 @&+>>6<<:---6:-55==2*2888",
"888,7+@<:--6<<:--66:--66=**2888",
"888X73<<:-66<<:--66:---66*%2888",
"88847@<<:6666::--66:---66*=2888",
"88,.o@<<:O66<:--66<:O--66*=2288",
"88,.o@<::OOOOOOOOOOOOO-66*>2288",
"88,.o@<:-OO6<:OO66:----66<5*288",
"88,.#@<:-OO6<:OO666O--666<5*288",
"88,.#><:-OOOOOOOOOOOO6-66<5*288",
"88,.+><:-OO6<:OO66:--6-66<5*288",
"884.:><:-OO6<:OO-<O-66-66<5*288",
"88.7:><:-OOOOOOOOOOO66666<$*288",
"8,.7:><:-OO6<:OO-<<666-66<$*;;8",
"8,.716<:-OO6<:OO-<:-66-66<$*2;8",
"8,.o16<:-OOOOOOOOOOOOO-66<1=2;8",
"8,.#16<:-O-6<:--<6:6OO666<15*;8",
"8,.#16<:---6::--<O:-OO-66<15*28",
"8,7o>6<:-O-6O-O-<OO-OO66<<15*;8",
"8X73-6<:OO-OO-OO<OO-OO66<<:5*;8",
"8.7#>6<:OO-OO-OO<6:-OO66<<:5*;8",
"8. #-6<:---6:--<6<:OO-66<<:5*28",
"7. #-6<:---6:--6<OOO--66<<:5*22",
"7. #-6<:--66:---<<:---66<<:5=22",
"7. #-6<6-666:--<<:----66<:-5=*2",
"77o:1@&#@1@@#111&#1@@@@@&#115**",
"77.777777o  7o3:&+:##   7777o:@"
};
