/* XPM */
static char *noname[] = {
/* width height ncolors chars_per_pixel */
"26 27 26 1",
/* colors */
"  c #D19849",
". c #946A2E",
"X c #CF9239",
"o c #CA0D0D",
"O c #E5A644",
"+ c #F3B255",
"@ c #DB9F44",
"# c #F8B046",
"$ c #FFC35D",
"% c #FABB58",
"& c #FFCD60",
"* c #FEC05B",
"= c #FEB140",
"- c #FFF47C",
"; c #EAA940",
": c #FBB754",
"> c #5D391C",
", c #FEC264",
"< c #F2AA41",
"1 c #FFE66E",
"2 c #E3AD59",
"3 c #803C19",
"4 c #FFB542",
"5 c #FEB958",
"6 c #B5843B",
"7 c None",
/* pixels */
"66.6666 6XX@+%O;@X 6X66 ++",
"662@<<+%@<<+%%@<<<+@<<+$11",
"6.2+555,;==5,,;oo=5;==5&1-",
"6. O555,o==5,,oooo5;==*&--",
"7. @=55ooo=5,,o==o5;==41-7",
"73 @555oooo5,,o===5;==41-7",
"7>6@=55,;=oo,,ooooo;==$1-7",
"7>6@=5,,;=5oo,o==55;==41-7",
"7>6X=5,,;55oo;ooooo;=441-7",
"7>.X<5,,;=o5o;oo55,;=441-7",
"7>.X<5,;oo55o;oooooo=4*--7",
"7>.6<5,;oo55o;oo55;==4*--7",
"77.6<5,;==55,oo=55o==41-77",
"77>6<5,oooooooooooo==*&-77",
"77>.;5,oo==5oo==5oo==$&-77",
"77>.;:,oo==5oo=5=oo=o$&-77",
"77>.@:,ooooooooooooo5&1-77",
"77>.X:,;===5oo===,o55&&-77",
"77>.X+,;===o,;===o;=*&1-77",
"77>3X+,;==o5,;==oo;=4&1-77",
"77736+,;=oooooooo5;5*1-777",
"777>6+,;===5;;==,,;4$11777",
"777>6@+O===5;===,5<441-777",
"777..6 X;<<:;=44&*#4$*1777",
"77777666XX@+O4&*&*;==77777",
"77777777666 @==,:,77777777",
"77777777777OO4777777777777"
};
