/* XPM */
static char *noname[] = {
/* width height ncolors chars_per_pixel */
"31 31 29 1",
/* colors */
"  c #D19849",
". c #946A2E",
"X c #72361A",
"o c #5F301B",
"O c #CF9239",
"+ c #E5A644",
"@ c #F3B255",
"# c #DB9F44",
"$ c #F8B046",
"% c #FFC35D",
"& c #FABB58",
"* c #FFCD60",
"= c #FEC05B",
"- c #FEB140",
"; c #FFF47C",
": c #EAA940",
"> c #FBB754",
", c #5D391C",
"< c #FEC264",
"1 c #F2AA41",
"2 c #FFE66E",
"3 c #E3AD59",
"4 c #803C19",
"5 c #562C1A",
"6 c #FFB542",
"7 c #FEB958",
"8 c #443115",
"9 c #B5843B",
"0 c None",
/* pixels */
"00000000000000#-600000000000000",
"0000000000099 O:-67100000000000",
"0000000099O  3#166=$66700000000",
"0000099 9O#3@&+-66=$66===*00000",
"0004.9 3O:1@<<:---71666%%*=*000",
"000X9 @X+>>7<<:---7:-664=2*2000",
"000,9+@44444XXXXXXXooXXX=**2000",
"000X93<Xo-77<<:--77:--XX7*%2000",
"00049@<oo7777XX--77:--XX7*=2000",
"00,.O@<X4-74<X--77XX--XX7*=2200",
"00,.O@<44-7XXXoooooo--oX7*>2200",
"00,.O@<Xo-7oo:-77785--XX7<6*200",
"00,.#@<oo-744XXXXXXX--447<6*200",
"00,.#><44--Xo:---755-7557<6*200",
"00,.+><XX--XX44X4444-7447<6*200",
"004.:><4X--XX:-7-<:-77,,7<6*200",
"00.9:><4X--55:---<5-77o,7<$*200",
"0,.9:><XX--o5555555577XX7<$*;;0",
"0,.917<XX--XX:---<:-77XX7<$*2;0",
"0,.O17<oX--XXX4XXXXXX7XX7<1=2;0",
"0,.#17<XX--444--<7:4X7447<16*;0",
"0,.#17<Xo--7::--,<:XX7XX7<16*20",
"0,9O>7<44--7:-X-XX:44744<<16*;0",
"0X93-7<44-474-44<7:44-44<<:6*;0",
"0.9#>744--4744<7<744--44<<:6*;0",
"0. #-44:---7:--<44XX--4444:6*20",
"9. #47<:---7:44444:---744<:6*22",
"9. #-7<:--77:---<<:---77<<:6=22",
"9. #-7<7-777:--<<:----77<:-6=*2",
"99O:1@&#@1@@#111&#1@@@@@&#116**",
"99.999999O  9O3:&+:##   9999O:@"
};
