/* XPM */
static char *noname[] = {
/* width height ncolors chars_per_pixel */
"31 31 29 1",
/* colors */
"  c #D19849",
". c #946A2E",
"X c #72361A",
"o c #5F301B",
"O c #CF9239",
"+ c #E5A644",
"@ c #F3B255",
"# c #DB9F44",
"$ c #F8B046",
"% c #FFC35D",
"& c #FABB58",
"* c #FFCD60",
"= c #FEC05B",
"- c #FEB140",
"; c #FFF47C",
": c #EAA940",
"> c #FBB754",
", c #5D391C",
"< c #FEC264",
"1 c #F2AA41",
"2 c #FFE66E",
"3 c #E3AD59",
"4 c #803C19",
"5 c #562C1A",
"6 c #FFB542",
"7 c #FEB958",
"8 c #443115",
"9 c #B5843B",
"0 c None",
/* pixels */
"99.9999 9OO  3O:11@OOO  9  9O:1",
"99 #11@&#11@&&#111@#11@@@&&+6**",
"9. @>77<:--7<<:---7:--777<:6**2",
"9. #777<:--7<<:---7:--777<:6=;2",
"9. #-7XX:--7<XXXXX7:---777o62;*",
"0. #>oXXX77X444---7:---744:6*20",
"0.9#-7744--4X<:--XX:o-7Xo7:6*;0",
"0X9O-7<Xo-oo<<:oo7X:X-XX7<:6*;0",
"0,9O17<oo7XX7XX-X77:--XX7<16*;0",
"0,9O17<X4-44<:X-77<:--XX7<16*20",
"0,.O17<44-XX<:--7ooo--oX7<16*;0",
"0,.O17<Xo-ooo5555885--XX7<1=2;0",
"0,.917<oo-77<:--77XX--447<$*220",
"0,.9:><44--Xoo555555-7557<$*220",
"00.9:><XX--7X:--7744-7447<$*200",
"004.:><4X--7<:-7-<oo77,,7<6*200",
"00,.+><4X--55588555577o,7<6*200",
"00,.#><XX--o5:---<5577XX7<6*;00",
"00,.#@<XX--XXXXXXXXX77XX7<6*200",
"00,.O@<oX--XX:---7XX-7XX7<6*200",
"00,.O@<XX--44444444477447*>2200",
"00,.O@<Xo--44:--<o:X77XX7*=2200",
"00049@<44--7:---XX:--744<*=2000",
"000493<44--7:---<7:-7-44<*%2000",
"000,9+<44444444444444444<**2000",
"000X. @41--7:--<7<:--674*2*2000",
"0004.9 O::1@+--7<<:666=%**=*000",
"00000999OO#3#11-<<1666==<*00000",
"0000000099O O#:<<$6666700000000",
"0000000000099OO:<16700000000000",
"000000000000003-*00000000000000"
};
