/* XPM */
static char *noname[] = {
/* width height ncolors chars_per_pixel */
"31 31 29 1",
/* colors */
"  c #D19849",
". c #946A2E",
"X c #72361A",
"o c #5F301B",
"O c #CF9239",
"+ c #E5A644",
"@ c #F3B255",
"# c #DB9F44",
"$ c #F8B046",
"% c #FFC35D",
"& c #FABB58",
"* c #FFCD60",
"= c #FEC05B",
"- c #FEB140",
"; c #FFF47C",
": c #EAA940",
"> c #FBB754",
", c #5D391C",
"< c #FEC264",
"1 c #F2AA41",
"2 c #FFE66E",
"3 c #E3AD59",
"4 c #803C19",
"5 c #562C1A",
"6 c #FFB542",
"7 c #FEB958",
"8 c #443115",
"9 c #B5843B",
"0 c None",
/* pixels */
"00000000000000#-600000000000000",
"000000000099  O:--7:-0000000000",
"0000009 9OO#33#-66=166777000000",
"0000.9O O+:@&<+--6=166==%2*0000",
"000049#3#11><<:---7:666=*2*0000",
"0000493<:777<<:---7:---=*;*0000",
"000049@<:--7<<:--77:--77%2*0000",
"000,. @<:-77<<:--77:---7=2*2000",
"000,. &<:7777::--77:---7=2*2000",
"000,.#&<4444XXXXXX<:X--7=2*2000",
"000,.+<::-77<:--7oo-,--772*2000",
"000,93<:--7oo:5557855oX77**2000",
"000X93<:--44<:XX77XX--777*%2000",
"00049@<:-4-X<:55-7:557-77*=2000",
"00,.O@<:X--X<:4X77:-44-77*=2200",
"00,.O@<:---X<:o5-<:-7,,77<6*200",
"00,.#@<:---5<:88-<<-77777<6*200",
"00,.#><:-ooo555555577o-77<6*;00",
"004.:><:---X<:XX-<XX7X-77<6*200",
"00.9:><:---X<:4X-7XXXXXX7<$*200",
"0,.O:><:---4<:44<7:477777<$*2;0",
"0,. 17<:---4::XX<<:XX7-77<$=220",
"0,.O@7<:--44:-XX<7:-4477<<1=*;0",
"0,9#17<:4447:-44<7:-7444<<16*;0",
"0,9O>7<:4--7:-47<7:---77<<16*;0",
"049O-7<:---7:--<7<:---77<<:6*20",
"0.9#-7<:---7:--7<<:---77<<:6*20",
"9. #-7<:--77:---<<:---77<<:6*22",
"9. #-7<7-777:--<<:----77<:-6=*2",
"99O:1@&#@1@@#111&#1@@@@@&#116**",
"99.999 9O   O#31<+::##  9O9OO1@"
};
