/* XPM */
static char *noname[] = {
/* width height ncolors chars_per_pixel */
"29 30 31 1",
/* colors */
"  c #D19849",
". c #946A2E",
"X c #72361A",
"o c #5F301B",
"O c #FFFE89",
"+ c #CF9239",
"@ c #E5A644",
"# c #F3B255",
"$ c #DB9F44",
"% c #F8B046",
"& c #FFC35D",
"* c #FABB58",
"= c #FFCD60",
"- c #FEC05B",
"; c #FFFF86",
": c #FEB140",
"> c #FFF47C",
", c #EAA940",
"< c #FBB754",
"1 c #5D391C",
"2 c #FEC264",
"3 c #F2AA41",
"4 c #FFE66E",
"5 c #E3AD59",
"6 c #803C19",
"7 c #562C1A",
"8 c #FFB542",
"9 c #FEB958",
"0 c #443115",
"q c #B5843B",
"w c None",
/* pixels */
"wwwwwwwwwwwww5,8wwwwwwwwwwwww",
"wwwwwwwwwwwqq $:88wwwwwwwwwww",
"wwwwwwww.qq 55@888&%8wwwwwwww",
"wwwwwwqqq+$5*2,888&%88&wwwwww",
"wwww6.q +,3<22,::8-%888=4wwww",
"wwww6q$#@<<922,:::9,8884>wwww",
"wwww6q52,::922,::99,:8&4>wwww",
"wwww6+#2,:9922,::99,::84>wwww",
"www1. *2,XXX9,,X:99,::8=>Owww",
"www1.$*26696X,:XXXXXXXXX4Owww",
"www1.@266:992X:oo9,:::oX4Owww",
"www1q52X::992,:779,:::XX4Owww",
"www1q#1,::962,:XXXXX66664;www",
"www6q626666Xo,:779,::9774;www",
"ww1.+#2,:XX92,:X69,::966=;4ww",
"ww1.+#2,:XX9X,:7ooooo111=>4ww",
"ww1.$<X6Xo1777:0727:9999=>4ww",
"ww1.@<2,:oo92,:7722799XX=>4ww",
"wwX.,<X,:XX9XX:XX2,XX9X9&>=ww",
"ww.q,9Xo:XX9X,:XX9,:XX:9&4=ww",
"w1. 392X:X692,:669,99669-4=4w",
"w1. 392,:oX96X:X12,:X9XXX4=4w",
"w1.+<92,:6666::XX966:99624=4w",
"w1q@:9266669,::6666:9:992==4w",
"w1q$<9666::9,:6669,:::992==4w",
"w.q$:96,:::9,:6292,:::992=-4w",
"q. $:92,:::9,::922,:::992=-4=",
"q. $:92,::99,:::22,:::992284=",
"qq $3#*#3###$33**$3333##*@8==",
"qq.qqqqqqq+ q$,3*++  +qqqq+33"
};
