/* XPM */
static char *noname[] = {
/* width height ncolors chars_per_pixel */
"27 28 31 1",
/* colors */
"  c #D19849",
". c #946A2E",
"X c #72361A",
"o c #5F301B",
"O c #FFFE89",
"+ c #CF9239",
"@ c #E5A644",
"# c #F3B255",
"$ c #DB9F44",
"% c #F8B046",
"& c #FFC35D",
"* c #FABB58",
"= c #FFCD60",
"- c #FEC05B",
"; c #FFFF86",
": c #FEB140",
"> c #FFF47C",
", c #EAA940",
"< c #FBB754",
"1 c #5D391C",
"2 c #FEC264",
"3 c #F2AA41",
"4 c #FFE66E",
"5 c #E3AD59",
"6 c #803C19",
"7 c #562C1A",
"8 c #FFB542",
"9 c #FEB958",
"0 c #443115",
"q c #B5843B",
"w c None",
/* pixels */
"qq.qqqqqqq+ 5#@3,+ qqqqq ##",
"qq5$33#*$33#**$333#$33##&>4",
"q.5#9992,::922,:::9,::99=;=",
"q. @9992,::922,:::9,::9-=;=",
"w. $:992,::922,:::9,:::-4>w",
"w6 $9oXXXoXX6666666666:&4;w",
"w1q$:962,::9X2,X:99,::9&4>w",
"w1q$:922,:oo22,:oX9,:::&4Ow",
"w1q+:922,XX99,,::XX,::8=4Ow",
"w1.+3922,:992,::992,::8=4Ow",
"w1.+392666XXXXoooooo::8=>Ow",
"w1.q392,o:99277999,:::8=>Ow",
"ww.q392,::992,::999:::-4>ww",
"wwXq,666:::92o:::9,:7784>ww",
"ww1.,9XXX::XX,:X66666984>ww",
"ww1.,<2,XXX92,:9:o,:o984>ww",
"ww1.$<2,Xo192,:0777779=4>ww",
"ww1.+#2,X:oo2,:7:229o-84>ww",
"ww1.+#2XX::X2,:XXXXXX-->>ww",
"ww16+#Xo:::9X,:::X,:X-=>>ww",
"www6qXXXXX6666:66666X-4>www",
"wwwXq5X,:::9,,::12,:9&=>www",
"www1q$#@:::9,:::29,88=4>www",
"www6.q +,33<,:::2-%8&844www",
"wwwwwqqq+$,#@:2-=&%888wwwww",
"wwwwwww.qq+$+:8=&=%8wwwwwww",
"wwwwwwwwwwqqq,:-2wwwwwwwwww",
"wwwwwwwwwwww+:8wwwwwwwwwwww"
};
