/* XPM */
static char *noname[] = {
/* width height ncolors chars_per_pixel */
"27 28 31 1",
/* colors */
"  c #D19849",
". c #946A2E",
"X c #72361A",
"o c #5F301B",
"O c #FFFE89",
"+ c #CF9239",
"@ c #E5A644",
"# c #F3B255",
"$ c #DB9F44",
"% c #F8B046",
"& c #FFC35D",
"* c #FABB58",
"= c #FFCD60",
"- c #FEC05B",
"; c #FFFF86",
": c #FEB140",
"> c #FFF47C",
", c #EAA940",
"< c #FBB754",
"1 c #5D391C",
"2 c #FEC264",
"3 c #F2AA41",
"4 c #FFE66E",
"5 c #E3AD59",
"6 c #803C19",
"7 c #562C1A",
"8 c #FFB542",
"9 c #FEB958",
"0 c #443115",
"q c #B5843B",
"w c None",
/* pixels */
"wwwwwwwwwwww528wwwwwwwwwwww",
"wwwwwwwwwwqq 5,88wwwwwwwwww",
"wwwwwwwq.q+$523888-3wwwwwww",
"wwwwwqq q$,#223888&%88wwwww",
"wwwX.q 5$33<22,:88-%88=4www",
"www1q$#2@99922,:::9388=>www",
"www1q5<2,:6922,::99,o84>www",
"wwwXq#XXoooo2ooooXXXXX=>www",
"ww16+#X2,X999,X::99XX8=>>ww",
"ww1.+#6X66662,:X99XX:8->>ww",
"ww1.+#6,,:9X2,:oo9o::884>ww",
"ww1.$<XXoooo2,:9700::884>ww",
"ww1.,<1,:X992,::XXX:::=4>ww",
"ww1.,966666X2,77:9777984>ww",
"wwXq,6X,:::926::99,66684>ww",
"ww.q392,:::92,:9:2,:9984>ww",
"w1.q392,:::977:::27:99-=>Ow",
"w1.+392XXooo77777777998=>Ow",
"w1.+392,:::92,:::2,:998=4Ow",
"w1q+:92,XX:92,::XX,::98=4Ow",
"w1q5:92,:X692,:669,9999&4Ow",
"w1q#:92,:::6,,X:22,:X9:&4Ow",
"w6 $966666666XXXXX66669&4;w",
"w. #:92,:::9,:::29,:9:9-4;w",
"q. @992,:::9,:2929,:::9-4;=",
"q.5@:92,:::9,::292,:::994;=",
"qq5$3#*$333#$33#**$333##=>-",
"qqqqqqqqqq  +,3355q+qqqq #$"
};
