/* XPM */
static char *noname[] = {
/* width height ncolors chars_per_pixel */
"48 50 29 1",
/* colors */
"  c #D19849",
". c #946A2E",
"X c #72361A",
"o c #5F301B",
"O c #CF9239",
"+ c #E5A644",
"@ c #F3B255",
"# c #DB9F44",
"$ c #F8B046",
"% c #FFC35D",
"& c #FABB58",
"* c #FFCD60",
"= c #FEC05B",
"- c #FFFF86",
"; c #FEB140",
": c #FFF47C",
"> c #EAA940",
", c #FBB754",
"< c #5D391C",
"1 c #FEC264",
"2 c #F2AA41",
"3 c #FFE66E",
"4 c #E3AD59",
"5 c #803C19",
"6 c #562C1A",
"7 c #FFB542",
"8 c #FEB958",
"9 c #B5843B",
"0 c None",
/* pixels */
"00000000000000000000000@8*0000000000000000000000",
"00000000000000000009OO#+@11$70000000000000000000",
"00000000000000000.99O#4@,127*=300000000000000000",
"00000000000000000.9O#>@,81277*300000000000000000",
"0000000000000000..OO>2;,8827***30000000000000000",
"0000000000000000.9 O2;;881>77=3*0000000000000000",
"0000000000000000.9##2;8888>77***0000000000000000",
"000000000000000.. ++;;;881>;7*3*3000000000000000",
"000000000000000.9 4+;;;881>;7%=*3000000000000000",
"00000000000000..9#@+;;;881>;777*3300000000000000",
"00000000000000.. ++;;;;881>;;=**3300000000000000",
"00000000000000.9 @+;;;;881>;;8%*3300000000000000",
"0000000000000..9#@,;;;8881>;;7=733*0000000000000",
"0000000000000..O>@>;;8;881>;;;=**:*0000000000000",
"0000000000000.9O@,>;;85581>;;87%*:*0000000000000",
"000000000000..9+21>;88<<81>;;88=*3*3000000000000",
"000000000000..O>211;86o8<1>;;88=%3**000000000000",
"000000000000.9O>;1188oX88X>;88;8%3%*000000000000",
"00000000000.99#2;1>;XX;88XX;;888=*=*300000000000",
"00000000000.99>2;8>XX8;881XX;8;8=*7**00000000000",
"0000000000..9O2;1855888881>5X8888*7*330000000000",
"0000000000.99O2;1oX;88;881>;oX<8117*3*0000000000",
"0000000000.9O>2;XX>;;888155;;55X51$=**0000000000",
"000000000..9O2;5185555555555;85555$7*33000000000",
"000000000.. O55818>;;;5511>;;8885527*33000000000",
"000000000.9552;181>;;;5511>;;;881127=*3000000000",
"00000000..9##;;811>;;;5511>;;55811>7**3-00000000",
"00000000.. 4+;5555XX55X55555555511>77*3:00000000",
"00000000.9#@+;;11>;;;;Xo1>;;;;8811>77*3:00000000",
"0000000..O+@>;;;1>;888551>;;5;8811>;7*3:-0000000",
"0000000.9 41>;1X1>;;88XX>;;;XXX81>8;7%3::0000000",
"0000000.9#@1>;;;55;;88XX>;;8XX811>;88%33:0000000",
"000000.. #@1>;;;8XX;;8XX>1;Xo;811>;;;=*3:*000000",
"000000.. @@1>;;;8XX;88XX>;;o88811>;;88*3:*000000",
"00000..9#2,1>;;;8XX;;;XX>;X;8;811>;;88*33*300000",
"00000.9942,1>;;;8>;;8855>;;88;855>;8881*3**00000",
"00000.9O@,81<<6<o<<<ooooo<66666666;8;81*3**00000",
"0000.. O@;81>;;88>;;;888>;;;88811>;8881*3=*30000",
"0000.9 4@;81>;;81>;;;;81>;;;8;81>>;;;811*,**0000",
"0000.9O#,;81>;881>;;;111>;;88;81>;;88811*7**0000",
"000..OO2;;81>8881>;;;;81>;;;8;81>;;8;811*7**3000",
"000.9 #2;;81>8881>;;;;81>;;;8881>;;8881117=**000",
"000.9##;;;81>;;81>;;;;81>;;;8881>;;888111$7*3000",
"00..O++;;;81>;881>;;;;81>;;;8881>;;;8881127***00",
"00.9O4+;;;81>;;81>;88;81>;;;;811>;;8;811127*3300",
"0..9#@+;;;81>;;81>;88881>;;;;811>;;;88111>773*30",
"0.. 4@>;;;81>;;81>8;8881>;;;;811>;;888111>77**30",
"0.. 4@+;;;,1+;;,1+;;,,,1+;;;;,11+;,,,,111>;7**30",
" .9#>@#222@&#22@&#22@@@&#2@@2@&&#22@@@&&&#2;%*33",
" .999O9OOOO 9OO  9OO#+4@+22@>4449OOO     9OO 481"
};
