/* XPM */
static char *noname[] = {
/* width height ncolors chars_per_pixel */
"48 50 25 1",
/* colors */
"  c #D19849",
". c #946A2E",
"X c #CF9239",
"o c #CA0D0D",
"O c #E5A644",
"+ c #F3B255",
"@ c #DB9F44",
"# c #F8B046",
"$ c #FFC35D",
"% c #FABB58",
"& c #FFCD60",
"* c #FEC05B",
"= c #FFFF86",
"- c #FEB140",
"; c #FFF47C",
": c #EAA940",
"> c #FBB754",
", c #FEC264",
"< c #F2AA41",
"1 c #FFE66E",
"2 c #E3AD59",
"3 c #FFB542",
"4 c #FEB958",
"5 c #B5843B",
"6 c None",
/* pixels */
"66666666666666666666666+4&6666666666666666666666",
"66666666666666666665XX@O+,,#36666666666666666666",
"66666666666666666.55X@2+>,<3&*166666666666666666",
"66666666666666666.5X@:+>4,<33&166666666666666666",
"6666666666666666..XX:<->44<3&&&16666666666666666",
"6666666666666666.5 X<--44,:33*1&6666666666666666",
"6666666666666666.5@@<-4444:33&&&6666666666666666",
"666666666666666.. OO---44,:-3&1&1666666666666666",
"666666666666666.5 2O---44,:-3$*&1666666666666666",
"66666666666666..5@+O---44,:-333&1166666666666666",
"66666666666666.. OO----44,:--*&&1166666666666666",
"66666666666666.5 +O----44,:--4$&1166666666666666",
"6666666666666..5@+>---444,:--3*311&6666666666666",
"6666666666666..X:+:--4-44,:---*&&;&6666666666666",
"6666666666666.5X+oo--4-44oo--4oo&;&6666666666666",
"666666666666..5O<oo-44-44oo--4oo&1&1666666666666",
"666666666666.oooooooooo44oo--4oo$1&&666666666666",
"666666666666.5X:-oo444-44oo-44oo$1$&666666666666",
"66666666666.55@<-oo-44-44oo--4oo*&*&166666666666",
"66666666666.55:<oo:--4-44,:--oo4*&3&&66666666666",
"6666666666..5X<o,4:444444,:-oo444&3&116666666666",
"6666666666.55X<-oo:-44-44,:----4,,3&1&6666666666",
"6666666666.5X:<-oo:--44o,,:--44oo,#*&&6666666666",
"666666666..5X<-oo4o-4-4ooooooooooo#3&11666666666",
"666666666.. X<,oo4:ooo4oo,:--44oo,<3&11666666666",
"666666666.5 @<oo4,:-oo4oo,:---4oo,<3*&1666666666",
"66666666..5@@-o4,,:---4oooooooooo,:3&&1=66666666",
"66666666.. 2Ooooooooo-4oo,:---4oo,:33&1;66666666",
"66666666.5@+o--,oo----4oo:----4oo,:33&1;66666666",
"6666666..XOo:---oo-4444oooooooooo,:-3&1;=6666666",
"6666666.5 2,oooooooooo4oo--o--4oo:4-3$1;;6666666",
"6666666.5@+,:---oo--444oo--o444,,:-44$11;6666666",
"666666.. @+,:---oo-o-44oo,-o4-4,ooo--*&1;&666666",
"666666.. ++,oo--oo-ooo,oo---o4oooo--44&1;&666666",
"66666..5@<>,:oo-oo-o--4oo---oo4,,:--44&11&166666",
"66666.552<>,:oo-ooo-444oo--44o4,,:-444,&1&&66666",
"66666.5X+>4,:--4ooooo44oo--o4ooo,:-4-4,&1&&66666",
"6666.. X+-4,oooooo---4ooooo-44ooooo444,&1*&16666",
"6666.5 2+-4,:ooo,:----ooo---4-4ooo---4,,&>&&6666",
"6666.5X@>-4,:o44,:---,o,:--44-4,oo-444,,&3&&6666",
"666..XX<--4,:444,:----4,:---4-4,:--4-4,,&3&&1666",
"666.5 @<--4,:444,:----4,:---444,:--444,,,3*&&666",
"666.5@@---4,:--4,:----4,:---444,:--444,,,#3&1666",
"66..XOO---4,:-44,:----4,:---444,:---444,,<3&&&66",
"66.5X2O---4,:--4,:-44-4,:----4,,:--4-4,,,<3&1166",
"6..5@+O---4,:--4,:-4444,:----4,,:---44,,,:331&16",
"6.. 2+:---4,:--4,:4-444,:----4,,:--444,,,:33&&16",
"6.. 2+O--->,O-->,O-->>>,O---->,,O->>>>,,,:-3&&16",
" .5@:+@<<<+%@<<+%@<<+++%@<++<+%%@<<+++%%%@<-$&11",
" .555X5XXXX 5XX  5XX@O2+O<<+:2225XXX     5XX 24,"
};
