/* XPM */
static char *noname[] = {
/* width height ncolors chars_per_pixel */
"48 50 25 1",
/* colors */
"  c #D19849",
". c #946A2E",
"X c #CF9239",
"o c #CA0D0D",
"O c #E5A644",
"+ c #F3B255",
"@ c #DB9F44",
"# c #F8B046",
"$ c #FFC35D",
"% c #FABB58",
"& c #FFCD60",
"* c #FEC05B",
"= c #FFFF86",
"- c #FEB140",
"; c #FFF47C",
": c #EAA940",
"> c #FBB754",
", c #FEC264",
"< c #F2AA41",
"1 c #FFE66E",
"2 c #E3AD59",
"3 c #FFB542",
"4 c #FEB958",
"5 c #B5843B",
"6 c None",
/* pixels */
" 5555XX 5XX   5XXX X@O+++,%@:O@XX  5XX X  5XX:44",
" 5 X:<+%@<<+%%@<<<+@<<+++%%@<<+<<+%@++++%%O-3&1&",
"6.5 2+>,O-->,,O--->O-->>>,O->->>->,O-->>,,:33&16",
"6.552+>,:--4,,:---4:--444,:--44--4,:--44,,<3&&16",
"6..5@+>,:--4,,:---4:---444:-44-4-4,:--44,,#3&116",
"66.. 2+,:444,,:---4:---44,:---4--4:---44,,#*&&66",
"66..XO+,:--4,,:--44:--4444:--4--44:---44,,3&&&66",
"666.5@+,:-44,,:--44:---44,:--44-44:-44-4,&3&&666",
"666.5 2,:4444::--44:---44,:--4--44:----4,&>&&666",
"666..X2%:-44,:--44,:---44,:-----44:--444&&*&1666",
"6666.52@O-44,:oo44:----44o:--44444o--444&1&&6666",
"6666.5 X<-44,:ooo4:----ooo:--444ooo-444*&1&&6666",
"6666.. X<-44,ooooo4--ooooo:---oooooo444*11&16666",
"66666.5X:<-4,:--ooo-o4-oo,:ooooo4,:---4&1;&66666",
"66666.55:<-4,:--44o--4-oo,:--ooo4oo---*&1;&66666",
"66666..5@<-4,:-4-,oo44-oo,:-o4oo4oo--3*11;&66666",
"666666..X:<4,:oooo,o444oo,ooo4oo4,oo-4$1;;666666",
"666666..X@<>,ooo-,,4o4-oo,:-o4oo4,:--*&1;;666666",
"6666666.5X<>,:---,:-o4-oo,:--4oo4,:-3$&1;6666666",
"6666666.5X:+,:-oo4:-o4-oo,oooooooooo3$&;;6666666",
"6666666..X@+,:-oooooooooo,:--4oo4,:-o&1;=6666666",
"66666666.5X+O:-oo,:-44-oo,:---oo,,:o$31;66666666",
"66666666..X2O--oo4:--44oo,:oooooooo33*1;66666666",
"66666666..5@@--oooooooooo,:--4-4,o:3311=66666666",
"666666666.5 @<,oo4:---4oo,oo-444oo<3*11666666666",
"666666666.. X<-oo,:---4oo,ooo-4oo,<3&&1666666666",
"666666666..5X<ooooooooooo,:--o4oo,#31&1666666666",
"6666666666.5X:<oo,:---44o,:---oo,,#*&16666666666",
"6666666666.55O<,,:----44,:----oo,,3&&16666666666",
"6666666666..5@<-,:oo4444,:----44o&3&&16666666666",
"66666666666..X2<,oo-4444:-----oo,#&&&66666666666",
"66666666666..X@<oo--4oo4:--44oo,,3&1166666666666",
"666666666666.5X:oo---oo,:,--4oo,&3&&666666666666",
"666666666666.5X:oo--4oo,:oooooooooo&666666666666",
"666666666666..5@oo---oo4:---4oo&1*&1666666666666",
"6666666666666.5Xoo--4oo4:--44oo&1&&6666666666666",
"6666666666666.. 2O---444:---4-*&1&&6666666666666",
"6666666666666..5@@---444:---44*11&16666666666666",
"66666666666666.5 @<---4,:---43$1&&66666666666666",
"66666666666666.5 X<--,,,:--443&1&&66666666666666",
"66666666666666..5X<---4,:---43&1&166666666666666",
"666666666666666.55:<--4,:---*$&;&666666666666666",
"666666666666666.55@<--4,:---*&1;&666666666666666",
"6666666666666666.5X:<-4,:--3$&1;6666666666666666",
"6666666666666666..X2+-4,:--33&;;6666666666666666",
"6666666666666666..X@++>,:3333&;;6666666666666666",
"66666666666666666.5XO++,:3333&;66666666666666666",
"66666666666666666.5X O+%:3333&166666666666666666",
"6666666666666666666X  @+O-4*36666666666666666666",
"6666666666666666666666+,<66666666666666666666666"
};
