/* XPM */
static char *noname[] = {
/* width height ncolors chars_per_pixel */
"46 49 29 1",
/* colors */
"  c #D19849",
". c #946A2E",
"X c #72361A",
"o c #5F301B",
"O c #CF9239",
"+ c #E5A644",
"@ c #F3B255",
"# c #DB9F44",
"$ c #F8B046",
"% c #FFC35D",
"& c #FABB58",
"* c #FFCD60",
"= c #FEC05B",
"- c #FFFF86",
"; c #FEB140",
": c #FFF47C",
"> c #EAA940",
", c #FBB754",
"< c #5D391C",
"1 c #FEC264",
"2 c #F2AA41",
"3 c #FFE66E",
"4 c #E3AD59",
"5 c #803C19",
"6 c #562C1A",
"7 c #FFB542",
"8 c #FEB958",
"9 c #B5843B",
"0 c None",
/* pixels */
" 999OOO 9OO   9OOO#O#>@@@&@O#OOOO  9OOOO  9#22",
" 9 O>2@&#22@&&#222@#22@@@&&#22@22@&#@@@@&127**",
" 9 4@,,1+;;,11+;;;,+;;,,,1+;,;,,;,1+;;,,11$=**",
"O. O@,81>;;811>;;;8>;;8881>;;88;;81>;;88117***",
"9.9O2,81>;;811>;;;8>;;;888>;88;8;81>;;88117**3",
"0.9O@,81>88811>;;;8>;;;881>;;;8;;8>;;;881*7*30",
"0.9O2,81>;;811>;;88>;;8888>;;8;;88>;;;881*7*30",
"0.9O>,11>;8811>;;88>;;;881>;;88;88>;88;81*7*30",
"0.99>,11>8888>>;;88>;;;881>;;8;;88>;;;;81*7*30",
"0.99>,11>;881>;;881>;;;881>;;;;;88>;;8881*,*30",
"0..9>@1>>;881>;;88>;;;;881>;;88888>;;8881*=*30",
"0..9+@1>;;88o6;888>;;;;X81>;;888X8>;88881*=*30",
"0..9#@1>;;885XX;888;;55581>;;;5558>;88881*=*30",
"00.9#@1>;;;Xoo66;8>66666<1>;ooo<<o>;;;81*3%300",
"00..O@1>;;;81>5X855;;558855555;881>;;;81*3*300",
"00..O@1>;;;81>;6o1>;8<<881>;XX8881>;;;81*3*300",
"00..O@1>;;;81>;;611;86o881>XXX8XX1>;;881*3*300",
"00..O@1>;;;81>;;66188oX881X;XX;XX1>;;881*3*300",
"00..O41>;;;81>XX;X>;8XX88XX;XX8851>;;881*3*300",
"00..O4&>;;;8XX5;;X>;;XX85XX;XX;88X>;;881*3*300",
"00..9+&>;;;555;;18588558815;XX8881>;8881*3*300",
"00..9#&>;;;8>X;;11X;8XX881>;oX;811>;8;813:*300",
"000.9#&>;;;8>;;;185;;5585555555X55>;;;8*3:*000",
"000.9#@>;;;8>55;185;8558155;55;811>;;88*3**000",
"000.9 @+;;;8>5555555555811>;5588115;;88*3*3000",
"0005. @+;;;8>55181>;;55811>;558815>;;;8*3*3000",
"0005. 4+;;;8>55811>;;5581555555551>;8;8*3*3000",
"0005. 4+;;88>55;11>;;5X81155;;88X1>;;8=*3*3000",
"0005.O4@;888>55XXXooXoX81>;;;;8X11>;;8=*3*3000",
"000..94+,;88>55;1>;88X5855;;;;X511>;;8133*3000",
"0000.94#,881>5X;1>;;8XX85X;;;;X81>8;;8*3:*0000",
"0000.94#,881>55;11;;8XX8>XX88XX11>;888*3:*0000",
"0000.94#,;81XXXXXXXXXXX1>1;X8o611>;;;8*3:*0000",
"0000.9 #,881>XX;8>;;88X1>;;;o6811>;;88*3:*0000",
"0000.9 #2;81>;;;8>;;;;88>;;;o<811>;;88*3:*0000",
"0000.. #@;81>;;;8>;;8888>;;88;811>;88=*3:*0000",
"0000.. O@881>;;88>;;;888>;;;8;811>;8;=*3:*0000",
"0000.. O@;81>;;88>;;;888>;;;88811>;88=*3:*0000",
"00000.9#@;81>;;81>;;;;81>;;;8;81>>;;;=3::00000",
"00000..O@;81>;881>;;;111>;;88;81>;;88%3:-00000",
"00000..O>2,1>8881>;;;;81>;;;8;81>;;87%3::00000",
"00000..O#>@&+,,81>;;;;81>;;;8881>77==%3::00000",
"00000..9O#+4#22,1>;;;;81>;;;8881277=%%33:00000",
"00000009OO 4O>@@&+;;;;81>;77===*$777=%*0000000",
"0000000000  9OO+4#2@,;81>7777=**$77=0000000000",
"0000000000000OO  O#4@@,127777=**20000000000000",
"000000000000000  9 O+4@127777=0000000000000000",
"000000000000000000OO #@1>770000000000000000000",
"000000000000000000000@,10000000000000000000000"
};
