/* XPM */
static char *Bishop_W_wood[] = {
/* width height ncolors chars_per_pixel */
"24 24 30 1",
/* colors */
"  c #000000",
". c #D19849",
"X c #946A2E",
"o c #72361A",
"O c #5F301B",
"+ c #CF9239",
"@ c #E5A644",
"# c #F3B255",
"$ c #DB9F44",
"% c #F8B046",
"& c #FFC35D",
"* c #FABB58",
"= c #FFCD60",
"- c #FEC05B",
"; c #FEB140",
": c #FFF47C",
"> c #EAA940",
", c #FBB754",
"< c #5D391C",
"1 c #FEC264",
"2 c #F2AA41",
"3 c #FFE66E",
"4 c #E3AD59",
"5 c #803C19",
"6 c #562C1A",
"7 c #FFB542",
"8 c #FEB958",
"9 c #443115",
"0 c #B5843B",
"q c None",
/* pixels */
"X0.$4+++$$$$4++$$$444+7=",
"<X.#*$2222#**$2#2#***2=3",
"q50#1>;;88811>;;;8111%=3",
"q<0#1>;;8;811>;;8811>7=3",
"q<041>;;88o11>;;88o1>7=3",
"q<041>;;;o811>;;;511>7=:",
"q<041>;;58811>;8o811>7=3",
"q<041>;;O8811>;;o8112-3:",
"q<X4@;;;ooooooooo811%=3q",
"q<X.@;;;5881o>;;o111%=3q",
"qq502;;;5881o8;;O111%=:q",
"qq<X>;88OOOO666691117=3q",
"qq<X4;;8o811o;;;o1117=:q",
"qq<X$;;85811O;;861617=:q",
"qq<X+2;8oooo55o55511733q",
"qqq<0288;81o>;88O11=-3qq",
"qqq<0>;8;861>;86811==3qq",
"qqq<X>;88OO66666811==3qq",
"qqq9X>;8;81>>;;;811==3qq",
"qqq<X$#,;81>;;88-====3qq",
"qqq<X+$42#1>;7-7&===7=qq",
"qqqqX000.@*>77&-&==qqqqq",
"qqqqqqq00+4$;7-8-qqqqqqq",
"qqqqqqqqq0.+>;qqqqqqqqqq"
};
