/* XPM */
static char *Cat_Sword_B_wood[] = {
/* width height ncolors chars_per_pixel */
"23 24 30 1",
/* colors */
"  c #000000",
". c #D19849",
"X c #946A2E",
"o c #72361A",
"O c #5F301B",
"+ c #CF9239",
"@ c #E5A644",
"# c #F3B255",
"$ c #DB9F44",
"% c #F8B046",
"& c #FFC35D",
"* c #FABB58",
"= c #FFCD60",
"- c #FEC05B",
"; c #FEB140",
": c #FFF47C",
"> c #EAA940",
", c #FBB754",
"< c #5D391C",
"1 c #FEC264",
"2 c #F2AA41",
"3 c #FFE66E",
"4 c #E3AD59",
"5 c #803C19",
"6 c #562C1A",
"7 c #FFB542",
"8 c #FEB958",
"9 c #443115",
"0 c #B5843B",
"q c None",
/* pixels */
"qqqqqqqqqq04@qqqqqqqqqq",
"qqqqqqqq00.#27;-qqqqqqq",
"qqqqqX000.41%777&=qqqqq",
"qqqXX0+$4#11>7-7==3,qqq",
"qqq<X+22,,11>;;--=3=3qq",
"qqq<X>;;8811>;;8813=3qq",
"qqq<0>;;88o1>;;811==3qq",
"qqq502;58o1>O;;8O1==3qq",
"qq9X+#8OO11>688891=-3qq",
"qq9X$;8o511ooooooo173:q",
"qq9X>;58511>6;886117=:q",
"qq9X>o8;o11>;;881117=3q",
"qq<X>,8oo11OO6OOOO17=:q",
"qq<0>;o;<116;8681617=3q",
"qq<02o88O116;8681617=3q",
"q<X+2;8;o1>ooooooo1%=3q",
"q<X$;88;o1>o;8o81o1%=3q",
"q<X>;;8;51>5;858151%=3q",
"q<X>;;OOo1>ooo<Ooo12-33",
"q502;;8581>o;888151>7=:",
"<X02;;8881>;;;88811>7=3",
"<X+2;;;811>;;8;8111>73:",
"<0+2222#**$222##***$7=:",
"X00++++$44+++$$$444+@73"
};
