/* XPM */
static char *Copper_General_W_wood[] = {
/* width height ncolors chars_per_pixel */
"23 24 30 1",
/* colors */
"  c #000000",
". c #D19849",
"X c #946A2E",
"o c #72361A",
"O c #5F301B",
"+ c #CF9239",
"@ c #E5A644",
"# c #F3B255",
"$ c #DB9F44",
"% c #F8B046",
"& c #FFC35D",
"* c #FABB58",
"= c #FFCD60",
"- c #FEC05B",
"; c #FEB140",
": c #FFF47C",
"> c #EAA940",
", c #FBB754",
"< c #5D391C",
"1 c #FEC264",
"2 c #F2AA41",
"3 c #FFE66E",
"4 c #E3AD59",
"5 c #803C19",
"6 c #562C1A",
"7 c #FFB542",
"8 c #FEB958",
"9 c #443115",
"0 c #B5843B",
"q c None",
/* pixels */
"X0.4+++$$$$4++$$$444+7=",
"<0@*$2222#**$2#2#***2=3",
"<041>;;88811>;;;81117=3",
"<041>;;8;811>;;88112733",
"<X41>oo88811>;;88o1%=3q",
"<X.*oo;O8851>;;;551%=3q",
"q5.#5;;;88o1>ooo8117=3q",
"q<0#o;;;88O1O;;o8o17=3q",
"q<0$o;;;88o1>o;o8o1733q",
"q<0$5;5558o1o;;o11o-3qq",
"q<X>5;5;o8o>8;;O11==3qq",
"q<X>o8O8O1O>6669966=3qq",
"q<X4<;Oo515>;;;o11==3qq",
"q<X$5;8881O>;666616=3qq",
"q<X+o;ooo1o>;;88153=3qq",
"qq<0588;81o>O888O13=3qq",
"qq<0o5oO<66>;9;66=3=qqq",
"qq<X>o88811>;8661=:3qqq",
"qq<X$2,;81>>;;;81=:3qqq",
"qq<X+@#2,1>;;88-=3:=qqq",
"qqqXX0.@#1@;7-7&==3=qqq",
"qqqqqX00.4$;7==-11qqqqq",
"qqqqqqq0000>7&&qqqqqqqq",
"qqqqqqqqqq0+;qqqqqqqqqq"
};
