/* XPM */
static char *Flying_Dragon_B_wood[] = {
/* width height ncolors chars_per_pixel */
"23 24 30 1",
/* colors */
"  c #000000",
". c #D19849",
"X c #946A2E",
"o c #72361A",
"O c #5F301B",
"+ c #CF9239",
"@ c #E5A644",
"# c #F3B255",
"$ c #DB9F44",
"% c #F8B046",
"& c #FFC35D",
"* c #FABB58",
"= c #FFCD60",
"- c #FEC05B",
"; c #FEB140",
": c #FFF47C",
"> c #EAA940",
", c #FBB754",
"< c #5D391C",
"1 c #FEC264",
"2 c #F2AA41",
"3 c #FFE66E",
"4 c #E3AD59",
"5 c #803C19",
"6 c #562C1A",
"7 c #FFB542",
"8 c #FEB958",
"9 c #443115",
"0 c #B5843B",
"q c None",
/* pixels */
"qqqqqqqqqq04@qqqqqqqqqq",
"qqqqqqqq00.#27;-qqqqqqq",
"qqqqqX000.41%777&=qqqqq",
"qqqXX0+$4#11>7-7==3,qqq",
"qqq<X+22,,11>;;--=3=3qq",
"qqq<X>;;o811o;;8813=3qq",
"qqq<0>5555o1ooooo1==3qq",
"qqq502;;881>O;;811==3qq",
"qq9X+#8O8O1>666991=-3qq",
"qq9X$;8;511>;;;8o1173:q",
"qq9X>;555oO>66666117=:q",
"qq9X>;8;811>5;881117=3q",
"qq<X>,ooooo>O6OOO117=:q",
"qq<0>;o;816>98;81117=3q",
"qq<02;oOOO6>66666117=3q",
"q<X+2;o;81o>o;;8111%=3q",
"q<X$;8ooooo;5oooo11%=3q",
"q<X>;;o;815;58;8111%=3q",
"q<X>;;O8o15;o888o112-33",
"q502;;5885>;;ooo111>7=:",
"<X02;;8881>;;;88811>7=3",
"<X+2;;;811>;;8;8111>73:",
"<0+2222#**$222##***$7=:",
"X00++++$44+++$$$444+@73"
};
