/* XPM */
static char *P_Horned_Falcon_B_wood[] = {
/* width height ncolors chars_per_pixel */
"24 24 27 1",
/* colors */
"  c #000000",
". c #D19849",
"X c #946A2E",
"o c #CF9239",
"O c #CA0D0D",
"+ c #E5A644",
"@ c #F3B255",
"# c #DB9F44",
"$ c #F8B046",
"% c #FFC35D",
"& c #FABB58",
"* c #FFCD60",
"= c #FEC05B",
"- c #FEB140",
"; c #FFF47C",
": c #EAA940",
"> c #FBB754",
", c #5D391C",
"< c #FEC264",
"1 c #F2AA41",
"2 c #FFE66E",
"3 c #E3AD59",
"4 c #803C19",
"5 c #FFB542",
"6 c #FEB958",
"7 c #B5843B",
"8 c None",
/* pixels */
"88888888887.o:-888888888",
"8888888777.3#-5%%8888888",
"88888X77.+3&:555*<<58888",
"88X777o+@@<<:-=5%***2888",
"88,7o:11>6<O:--66<**2888",
"88,X+OOOOOOOOOOOOO**2888",
"88,X:O--6O<O:-O6<<**2888",
"88,7:O--OO<OOOOOOO**2888",
"88,71O6OO<<O-6O6<<*=2888",
"8,X.1OO-O<<OOOOOOO<52;88",
"8,X#-O66O<<O--O6<<<5*;88",
"8,X:-O6-6<<OOOOOOO<5*288",
"8,X:-O6-OOOOOOO6<<<$*;88",
"8,X:-O6-O<<:-6O6<<<$*288",
"8,X:-O66OOOOOOO6<<<1=2;8",
"8471-O6-O<::--O6O<<:5*;8",
",X71-O6-OOOOOOOOO<<:5*28",
",Xo--O6-O<:--6-6<<<:5*;8",
",7o-OO66OOOOOOOO<<<:5*28",
",7#-O-666<:--66OO<<:5*;8",
",7#O--6O6O:O-O6OO<<:5*28",
",7#---O6O<O-O6OO<<<:52;8",
",7o1111@&&#11O@@&&&#-522",
"X77oooo#33ooo###333o#1**"
};
