/* XPM */
static char *Phoenix_W_wood[] = {
/* width height ncolors chars_per_pixel */
"24 24 30 1",
/* colors */
"  c #000000",
". c #D19849",
"X c #946A2E",
"o c #72361A",
"O c #5F301B",
"+ c #CF9239",
"@ c #E5A644",
"# c #F3B255",
"$ c #DB9F44",
"% c #F8B046",
"& c #FFC35D",
"* c #FABB58",
"= c #FFCD60",
"- c #FEC05B",
"; c #FEB140",
": c #FFF47C",
"> c #EAA940",
", c #FBB754",
"< c #5D391C",
"1 c #FEC264",
"2 c #F2AA41",
"3 c #FFE66E",
"4 c #E3AD59",
"5 c #803C19",
"6 c #562C1A",
"7 c #FFB542",
"8 c #FEB958",
"9 c #443115",
"0 c #B5843B",
"q c None",
/* pixels */
"X0.$4+++$$$$4++$$$444+7=",
"<X.#*$2222#**$2#2#***2=3",
"q50#1>;;8O661>;;;8111%=3",
"q<0#15;;55811>;;881oo7=3",
"q<04ooo;o8o1o>o;o8oo>7=3",
"q<04O>o;Oo8515;5;851>7=:",
"q<041>5;58811>;8;8O1>7=3",
"q<041>o;OOOOOOOO88o12-3:",
"q<X4@;O;;8811>;o88o1%=3q",
"q<X.@;o;;55ooooo81o1%=3q",
"qq502;5;;881>8;O81O1%=:q",
"qq<X>;o88OOO666681617=3q",
"qq<X4;O8;511>;;o81o17=:q",
"qq<X$;5885oOO66681617=:q",
"qq<X+2o8;o11>;;58151733q",
"qqq<0258;oooOO6O81O=-3qq",
"qqq<0>58;8116;8;816==3qq",
"qqq<X>o88811>;88816==3qq",
"qqq9X>ooooooooooooo==3qq",
"qqq<X$#,;81>;;88-====3qq",
"qqq<X+$42#1>;7-7&===7=qq",
"qqqqX000.@*>77&-&==qqqqq",
"qqqqqqq00+4$;7-8-qqqqqqq",
"qqqqqqqqq0.+>;qqqqqqqqqq"
};
