/* XPM */
static char *Phoenix_B_wood[] = {
/* width height ncolors chars_per_pixel */
"24 24 29 1",
/* colors */
"  c #000000",
". c #D19849",
"X c #946A2E",
"o c #72361A",
"O c #5F301B",
"+ c #CF9239",
"@ c #E5A644",
"# c #F3B255",
"$ c #DB9F44",
"% c #F8B046",
"& c #FFC35D",
"* c #FABB58",
"= c #FFCD60",
"- c #FEC05B",
"; c #FEB140",
": c #FFF47C",
"> c #EAA940",
", c #FBB754",
"< c #5D391C",
"1 c #FEC264",
"2 c #F2AA41",
"3 c #FFE66E",
"4 c #E3AD59",
"5 c #803C19",
"6 c #562C1A",
"7 c #FFB542",
"8 c #FEB958",
"9 c #B5843B",
"0 c None",
/* pixels */
"00000000009.+>;000000000",
"0000000999.4$;7&&0000000",
"00000X99.@4*>777=1170000",
"00X999+@##11>;-7&===3000",
"00<9+>22,811>;;881==3000",
"00<X@OOooooooooooo==3000",
"00<X>o;;8811>;;81o==3000",
"00<9>5;;881o8;;81O==3000",
"00<92o88OOO6666816=-3000",
"0<X.2O8;511>;;o81o173:00",
"0<X$;5885oOO66681617=:00",
"0<X>;o8;o11>;;581517=300",
"0<X>;58;oooOO6O81O1%=:00",
"0<X>;58;<11>;8;8161%=300",
"0<X>;o88OO6666681612-3:0",
"0592;o8;o1>>;;;81o1>7=:0",
"<X92;O8;oooo5ooo1o1>7=30",
"<X+;;o8;81>;;8;5151>7=:0",
"<9+;;o88o15;o8<O1o1o7=30",
"<9$;558585>o;o8o15557=:0",
"<9$55;8881>;;;55815>7=30",
"<9$;;;;811>;5558111>73:0",
"<9+2222#**$222##***$;733",
"X99++++$44+++$$$444+$2=="
};
