/* XPM */
static char *Reverse_Chariot_W_wood[] = {
/* width height ncolors chars_per_pixel */
"22 23 31 1",
/* colors */
"  c #000000",
". c #D19849",
"X c #946A2E",
"o c #72361A",
"O c #5F301B",
"+ c #CF9239",
"@ c #E5A644",
"# c #F3B255",
"$ c #DB9F44",
"% c #F8B046",
"& c #FFC35D",
"* c #FABB58",
"= c #FFCD60",
"- c #FEC05B",
"; c #FFFF86",
": c #FEB140",
"> c #FFF47C",
", c #EAA940",
"< c #FBB754",
"1 c #5D391C",
"2 c #FEC264",
"3 c #F2AA41",
"4 c #FFE66E",
"5 c #E3AD59",
"6 c #803C19",
"7 c #562C1A",
"8 c #FFB542",
"9 c #FEB958",
"0 c #443115",
"q c #B5843B",
"w c None",
/* pixels */
"Xq.5+++$$$$5++$$$555%=",
"oX.#$3333#**$3#3#**2-4",
"w6.#,::99922,:::922==4",
"w1q#,::9:922,::99228=4",
"w1q5,ooo9922,:o99o=-4w",
"w1q5,::O9922,6::62==4w",
"w1q5,:::692oo:9o92==4w",
"w1X5@:::9O2O,:O992==4w",
"w1Xq3:::9oo2,:o992==4w",
"ww6q3:::96o2,:o9224=4w",
"ww1q,:::oo2o9:O9224=4w",
"ww1X,<99O22,79792=4=ww",
"ww0q,:9o666oooo92=>4ww",
"ww0X,:99922,::792=>4ww",
"ww0X$:9:922,::692=>4ww",
"ww0X+#9ooooOO7O92=>4ww",
"www6q39:922,:97924>4ww",
"www1q,<9922,:99924;4ww",
"www1X+#3<2,,::8-=4;www",
"www6Xq.$#2,88-&&=4>www",
"wwwwwXqq.5@88-8-24wwww",
"wwwwwwwXq.$8899wwwwwww",
"wwwwwwwwwq+3wwwwwwwwww"
};
