/* XPM */
static char *Side_Mover_B_wood[] = {
/* width height ncolors chars_per_pixel */
"22 23 30 1",
/* colors */
"  c #000000",
". c #D19849",
"X c #946A2E",
"o c #72361A",
"O c #5F301B",
"+ c #CF9239",
"@ c #E5A644",
"# c #F3B255",
"$ c #DB9F44",
"% c #F8B046",
"& c #FFC35D",
"* c #FABB58",
"= c #FFCD60",
"- c #FEC05B",
"; c #FEB140",
": c #FFF47C",
"> c #EAA940",
", c #FBB754",
"< c #5D391C",
"1 c #FEC264",
"2 c #F2AA41",
"3 c #FFE66E",
"4 c #E3AD59",
"5 c #803C19",
"6 c #562C1A",
"7 c #FFB542",
"8 c #FEB958",
"9 c #443115",
"0 c #B5843B",
"q c None",
/* pixels */
"qqqqqqqqqq0+;qqqqqqqqq",
"qqqqqqq000.$777qqqqqqq",
"qqqqX00.$44>7=7==qqqqq",
"qqq<X+$4#11>77&=33=qqq",
"qqq50>2,,11>;;--3:=qqq",
"qq<X+2;8811>;;81=:3qqq",
"qq<X$2;881>O;O81=3=qqq",
"qq<X4,O811>6868113=3qq",
"qq<X>,o815oooooo13=3qq",
"qq<X5555o1>6;6811==3qq",
"qq<0>8o81o55o5551==3qq",
"qq50#8o811>;88811==3qq",
"q9X+28O8166996661==3qq",
"q9X$;oOO16>;68861=-3qq",
"q9X>o8o8oooooooo11733q",
"q9X>O8o81o;;o88o117=3q",
"q<Xo;8o815555555117=3q",
"q<0>;8O81>o;88O1117=3q",
"q<02;8581>o;88o111%=3q",
"<X+2;88815;;;88511%=3q",
"<X$2;;811>;;8;8111%=:q",
"<X$222#**$222##***@7=:",
"XX++++$44+++$$$444+273"
};
