/* XPM */
static char *Stone_General_W_wood[] = {
/* width height ncolors chars_per_pixel */
"23 24 29 1",
/* colors */
"  c #000000",
". c #D19849",
"X c #946A2E",
"o c #72361A",
"O c #5F301B",
"+ c #CF9239",
"@ c #E5A644",
"# c #F3B255",
"$ c #DB9F44",
"% c #F8B046",
"& c #FFC35D",
"* c #FABB58",
"= c #FFCD60",
"- c #FEC05B",
"; c #FEB140",
": c #FFF47C",
"> c #EAA940",
", c #FBB754",
"< c #5D391C",
"1 c #FEC264",
"2 c #F2AA41",
"3 c #FFE66E",
"4 c #E3AD59",
"5 c #803C19",
"6 c #562C1A",
"7 c #FFB542",
"8 c #FEB958",
"9 c #B5843B",
"0 c None",
/* pixels */
"X9.4+++$$$$4++$$$444+7=",
"<9@*$2222#**$2#2#***2=3",
"<941>;;88811>;;;81117=3",
"<941>;;8;811>;;88112733",
"<X41>;;88811>;;8811%=30",
"<X.*>;o;88115;;;811%=30",
"05.#>;5555ooo;8;o117=30",
"0<9#>;O;8811O;;o8117=30",
"0<9$;;O;8811o;oo8117330",
"0<9$;;5;8811o;o811=-300",
"0<X>;;5;881>OOO811==300",
"0<X>;8OOOOO6668811==300",
"0<X4;;8;811>;o;811==300",
"0<X$;;88811>;68811==300",
"0<X+2;8;811>5o88113=300",
"00<928oooooOO6OOO13=300",
"00<9>;8O811>;8;81=3=000",
"00<X>;88811>;8881=:3000",
"00<X$2,;81>>;;;81=:3000",
"00<X+@#2,1>;;88-=3:=000",
"000XX9.@#1@;7-7&==3=000",
"00000X99.4$;7==-1100000",
"00000009999>7&&00000000",
"00000000009+;0000000000"
};
