/* XPM */
static char *Vertical_Mover_B_wood[] = {
/* width height ncolors chars_per_pixel */
"23 24 28 1",
/* colors */
"  c #000000",
". c #D19849",
"X c #946A2E",
"o c #CF9239",
"O c #CA0D0D",
"+ c #E5A644",
"@ c #F3B255",
"# c #DB9F44",
"$ c #F8B046",
"% c #FFC35D",
"& c #FABB58",
"* c #FFCD60",
"= c #FEC05B",
"- c #FEB140",
"; c #FFF47C",
": c #EAA940",
"> c #FBB754",
", c #5D391C",
"< c #FEC264",
"1 c #F2AA41",
"2 c #FFE66E",
"3 c #E3AD59",
"4 c #803C19",
"5 c #FFB542",
"6 c #FEB958",
"7 c #443115",
"8 c #B5843B",
"9 c None",
/* pixels */
"999999999983+9999999999",
"9999999988.@15-=9999999",
"99999X888.3<$555%*99999",
"999XX8o#3@<<:5=5**2>999",
"999,Xo11>><<:--==*2*299",
"999,X:--66<<:--66<2*299",
"999,8:--66<<:--6<<**299",
"999481--66<:6--6<<**299",
"997Xo@OOOOO:OOOOOO*=299",
"997X#-O-O<<:O--6OO<52;9",
"997X:-OOOOO:-O66O<<5*;9",
"997X:-O-6<O:--OO<<<5*29",
"99,X:>OOOOO:-6OO<<<5*;9",
"99,8:-O-O<<:-O-6O<<5*29",
"99,81-OOOOO:O666OO<5*29",
"9,Xo1-6-6<::---6<<<$*29",
"9,X#-66-6<:-O666<<<$*29",
"9,X:--6-OOOOOOOO<<<$*29",
"9,X:--666O:--6O6<<<1=22",
"9481--666<O--O66<<<:5*;",
",X81--6OOOOOOOOOO<<:5*2",
",Xo1---6<<:--6-6<<<:52;",
",8o1111@&&#111@@&&&#5*;",
"X88oooo#33ooo###333o+52"
};
