/* XPM */
static char *noname[] = {
/* width height ncolors chars_per_pixel */
"21 22 30 1",
/* colors */
"  c #D19849",
". c #946A2E",
"X c #72361A",
"o c #5F301B",
"O c #CF9239",
"+ c #E5A644",
"@ c #F3B255",
"# c #DB9F44",
"$ c #F8B046",
"% c #FFC35D",
"& c #FABB58",
"* c #FFCD60",
"= c #FEC05B",
"- c #FFFF86",
"; c #FEB140",
": c #FFF47C",
"> c #EAA940",
", c #FBB754",
"< c #5D391C",
"1 c #FEC264",
"2 c #F2AA41",
"3 c #FFE66E",
"4 c #E3AD59",
"5 c #803C19",
"6 c #562C1A",
"7 c #FFB542",
"8 c #FEB958",
"9 c #443115",
"0 c #B5843B",
"q c None",
/* pixels */
"qqqqqqqqq#;*qqqqqqqqq",
"qqqqqq00.O>811>qqqqqq",
"qqqq000 O>;=**$77qqqq",
"qq<.0#4@+;;81*$77=3qq",
"qq<.>@,1>;;81X>77*:qq",
"qq<0@881>o8X55557*:qq",
"qq<028515;;81X>;73:qq",
"qq5028XX>;ooooooo*:qq",
"q9.O28Xo>8888>>;7*:3q",
"q9.O;51X>;55XXXXX*-3q",
"q9.O5815>;X81>;;o**3q",
"q905;8XX;;o81>;86%*3q",
"q90#;o1o;;555XXXX%33q",
"q<0#5815;;;8oo;;;=*3q",
"q< +;81X;;XX1>5;55=3q",
"q< +;815;XX81>;6;1=3q",
"q5 +X815;;<81>;96133q",
".. +;XXX;;o866;;663:3",
"0.4+;8X>;XXX1>;;;1733",
"0.4>;81>;XX81>;;;87**",
"004@2@&+222@&+22&@233",
"0.000000OO>@#OOO 00+4"
};
