/* XPM */
static char *noname[] = {
/* width height ncolors chars_per_pixel */
"20 20 31 1",
/* colors */
"  c #D19849",
". c #946A2E",
"X c #72361A",
"o c #5F301B",
"O c #FFFE89",
"+ c #CF9239",
"@ c #E5A644",
"# c #F3B255",
"$ c #DB9F44",
"% c #F8B046",
"& c #FFC35D",
"* c #FABB58",
"= c #FFCD60",
"- c #FEC05B",
"; c #FFFF86",
": c #FEB140",
"> c #FFF47C",
", c #EAA940",
"< c #FBB754",
"1 c #5D391C",
"2 c #FEC264",
"3 c #F2AA41",
"4 c #FFE66E",
"5 c #E3AD59",
"6 c #803C19",
"7 c #562C1A",
"8 c #FFB542",
"9 c #FEB958",
"0 c #443115",
"q c #B5843B",
"w c None",
/* pixels */
"wwwwwwwww$:=wwwwwwww",
"wwwwww.q.+,-=2wwwwww",
"wwww.qq +,:&==%8wwww",
"ww1.q$5#@::92=88==ww",
"ww1.,#<2X::92238=4ww",
"ww1q#o9X,9X92268=4ww",
"ww1q3662,:6922X8=>ww",
"w0.+3oX2,ooooooo->>w",
"w0.+X9X2,9X99,X88>>w",
"w0.6:962,:992,::=4Ow",
"w0q$:66,,6XXXXoo&44w",
"w0q$X9X,:o99o,:7-44w",
"w1qo:91,:X996,:X-4>w",
"w1 @:96,:66Xoo77844w",
"w1 @:9X,:X:9X,:X9=4w",
".. @:96,:X:9X,:784==",
"q.5@XXX,:o17770084;=",
"q.5,:X2,:o:92,:7:=>4",
"qq5@3#*@333#*@3332==",
"q.qqqqqq++,<#+++qq+,"
};
