/* XPM */
static char *noname[] = {
/* width height ncolors chars_per_pixel */
"22 23 27 1",
/* colors */
"  c #D19849",
". c #946A2E",
"X c #CF9239",
"o c #CA0D0D",
"O c #E5A644",
"+ c #F3B255",
"@ c #DB9F44",
"# c #F8B046",
"$ c #FFC35D",
"% c #FABB58",
"& c #FFCD60",
"* c #FEC05B",
"= c #FEB140",
"- c #FFF47C",
"; c #EAA940",
": c #FBB754",
"> c #5D391C",
", c #FEC264",
"< c #F2AA41",
"1 c #FFE66E",
"2 c #E3AD59",
"3 c #803C19",
"4 c #FFB542",
"5 c #FEB958",
"6 c #443115",
"7 c #B5843B",
"8 c None",
/* pixels */
"8888888888@5&888888888",
"88888887.7X+,,;=888888",
"8888777 XO<5&&#4448888",
"88>.7 O+@<=5,,#444&&88",
"88>.@+:,;==5,,;4441188",
"88>7+55,oooooooo=41188",
"88>7<o5,;==5,,;o=*1188",
"8837<5oo;=o5,,;o=*&&88",
"86.7<5,o;5oo5;;o=5&&18",
"86.X<5,,;=o5,;=o551&18",
"86.Xoooo;=o5o;=o554118",
"86.X=5o;oooooo=o554&18",
"867@=5o;==o5,;=o55$&18",
"8>7@=5o;==o5,;=o=5#&18",
"8>7@=5o;==o5,;=o55o&18",
"8> O=5oo==o5,;=ooo<&-8",
"8> O=o,oo==5,;==o,,&-8",
"8. Ooo,;ooo5,;===,,&-8",
"7. O=o,;==oooooo=,<*-1",
"7.2O=5,;===5,oo==5;411",
"7.2:=5,;===5,;==,5;&11",
"77O+<+%@<<<+@@<<%%O411",
"77777777XX@+O<@X 77X;2"
};
