/* XPM */
static char *noname[] = {
/* width height ncolors chars_per_pixel */
"22 23 27 1",
/* colors */
"  c #D19849",
". c #946A2E",
"X c #CF9239",
"o c #CA0D0D",
"O c #E5A644",
"+ c #F3B255",
"@ c #DB9F44",
"# c #F8B046",
"$ c #FFC35D",
"% c #FABB58",
"& c #FFCD60",
"* c #FEC05B",
"= c #FEB140",
"- c #FFF47C",
"; c #EAA940",
": c #FBB754",
"> c #5D391C",
", c #FEC264",
"< c #F2AA41",
"1 c #FFE66E",
"2 c #E3AD59",
"3 c #803C19",
"4 c #FFB542",
"5 c #FEB958",
"6 c #443115",
"7 c #B5843B",
"8 c None",
/* pixels */
"8888888888@5&888888888",
"88888887.7X+,,;=888888",
"8888777 XO<5&&#4448888",
"88>.7 O+@<=5,,#444&&88",
"88>.@+:,;==5,,;4441188",
"88>7+55,;o55,o;==41188",
"88>7<55,ooooooo==*1188",
"8837<5,oo=55o,;==*&&88",
"86.7<5oo;55o5;;==5&&18",
"86.X<o,ooooooooo551&18",
"86.X=5,o;=5o,;=o554118",
"86.X=5,ooooooooo554&18",
"867@=5,;=ooo,;==55$&18",
"8>7@=5,;o=oo,;oo=5#&18",
"8>7@=5,o=oo5oo==55#&18",
"8> O=oo;o=o5o;=5=,<&-8",
"8> O=5,o=oo5,o===,,&-8",
"8. O=5o;o=o5,oo==,,&-8",
"7. O=5,o==o5,;oo=,<*-1",
"7.2O=5,;ooo5,;=oo5;411",
"7.2:=5,;=o=5,;==,5;&11",
"77O+<+%@<<<+@@<<%%O411",
"77777777XX@+O<@X 77X;2"
};
