/* XPM */
static char *noname[] = {
/* width height ncolors chars_per_pixel */
"21 22 28 1",
/* colors */
"  c #D19849",
". c #946A2E",
"X c #CF9239",
"o c #CA0D0D",
"O c #E5A644",
"+ c #F3B255",
"@ c #DB9F44",
"# c #F8B046",
"$ c #FFC35D",
"% c #FABB58",
"& c #FFCD60",
"* c #FEC05B",
"= c #FFFF86",
"- c #FEB140",
"; c #FFF47C",
": c #EAA940",
"> c #FBB754",
", c #5D391C",
"< c #FEC264",
"1 c #F2AA41",
"2 c #FFE66E",
"3 c #E3AD59",
"4 c #803C19",
"5 c #FFB542",
"6 c #FEB958",
"7 c #443115",
"8 c #B5843B",
"9 c None",
/* pixels */
"999999999@-&999999999",
"99999988.X:6<<:999999",
"9999888 X:-*&&#559999",
"99,.8@3+O--6<&#55*299",
"99,.:+><:--6<<:55&;99",
"99,8+66<:666<<:-5&;99",
"99,8166<:-oo<<:-52;99",
"994816<<:-oo<<:-5&;99",
"97.X16<<:6o66:o-5&;29",
"97.Xoooooooooooo6&=29",
"97.X-6<::oo6<:--6&&29",
"978@-6<:-o66<:-66$&29",
"978@-6<:oooooo--6$229",
"9,8@-6<oo--6<o---*&29",
"9, O-6<o---6<o--6**29",
"9, O-6o:---6<o-6-<*29",
"94 O-o<:--o6<o---<229",
".. Oo6<:---ooo---<2;2",
"8.3O-6<:---6o:---<522",
"8.3:-6<:---6<:---65&&",
"883+1+%O111+%O11%+122",
"8.888888XX:+@XXX 88O3"
};
