/* XPM */
static char *noname[] = {
/* width height ncolors chars_per_pixel */
"20 20 31 1",
/* colors */
"  c #D19849",
". c #946A2E",
"X c #72361A",
"o c #5F301B",
"O c #FFFE89",
"+ c #CF9239",
"@ c #E5A644",
"# c #F3B255",
"$ c #DB9F44",
"% c #F8B046",
"& c #FFC35D",
"* c #FABB58",
"= c #FFCD60",
"- c #FEC05B",
"; c #FFFF86",
": c #FEB140",
"> c #FFF47C",
", c #EAA940",
"< c #FBB754",
"1 c #5D391C",
"2 c #FEC264",
"3 c #F2AA41",
"4 c #FFE66E",
"5 c #E3AD59",
"6 c #803C19",
"7 c #562C1A",
"8 c #FFB542",
"9 c #FEB958",
"0 c #443115",
"q c #B5843B",
"w c None",
/* pixels */
"wwwwwwwww$:=wwwwwwww",
"wwwwww.q.+,-=2wwwwww",
"wwww.qq +,:&==%8wwww",
"ww1.q$5#@::92=88==ww",
"ww1.,#<2,::X2X38=4ww",
"ww1q#9X2,99X26,8=4ww",
"ww1q3962,666XXXX=>ww",
"w0.+ooXXo:9o2o,8->>w",
"w0.+:9X2,XXXXXXX8>>w",
"w0.+:962,:992,::=4Ow",
"w0q$:96,,6XXXXoo&44w",
"w0q$:XXX:o99o,:7-44w",
"w1q@o91,oX666XXX-4>w",
"w1 @696,:6:9o,:7844w",
"w1 6:9X,:XXXX66X9=4w",
".. @:96,::X92,o984==",
"q.5@:9X,::192,0:84;=",
"q.5,:92,:o:92,:7:=>4",
"qq5@3#*@333#*@3332==",
"q.qqqqqq++,<#+++qq+,"
};
