/* XPM */
static char *noname[] = {
/* width height ncolors chars_per_pixel */
"54 56 29 1",
/* colors */
"  c #D19849",
". c #946A2E",
"X c #72361A",
"o c #5F301B",
"O c #CF9239",
"+ c #E5A644",
"@ c #F3B255",
"# c #DB9F44",
"$ c #F8B046",
"% c #FFC35D",
"& c #FABB58",
"* c #FFCD60",
"= c #FEC05B",
"- c #FFFF86",
"; c #FEB140",
": c #FFF47C",
"> c #EAA940",
", c #FBB754",
"< c #5D391C",
"1 c #FEC264",
"2 c #F2AA41",
"3 c #FFE66E",
"4 c #E3AD59",
"5 c #803C19",
"6 c #562C1A",
"7 c #FFB542",
"8 c #FEB958",
"9 c #B5843B",
"0 c None",
/* pixels */
"00000000000000000000000000&>70000000000000000000000000",
"00000000000000000000000  44#;7=70000000000000000000000",
"00000000000000000000OO  #4#287==7=*0000000000000000000",
"00000000000000000O OOO#+4@+;7==77%*$770000000000000000",
"000000000000009OOO#O#>>@@@+;887=7=*$77==00000000000000",
"00000000000   OO##4#222@,1>;;;877=2777%%**$00000000000",
"000000009OO 44O>>@@+2;,,88>;;8;;882777==**$77700000000",
"000000999O#+4@#22@,>;;;881>;;88;88>78=7=**$777*3000000",
"000000999#4@@++;;,8>;;;881>;;8;;88>;;;7811277*33000000",
"000000.99+@@1>;;881>;;;881>;;;;;88>;;88811277=33000000",
"000000.9O>@,1>;;88>;;;;881>;;88888>;;88811>77=33000000",
"00000..9O>,81>;888>;;;;881>;;88888>;888811>777*3300000",
"00000.99#2,81>;;888;;;8881>;;;8;88>;888811>77733300000",
"00000.99#2;81>;;;8>;;8;881>;;;8881>;;;8111>77733-00000",
"00000.99#2;81>;;88>;;8;881>;;8;881>;;;8111>;7*33-00000",
"00000.99>2;81>;8;1>;88;881>;;88881>;;;8111>;77*3-00000",
"00000.99>2;81>;;;11;888881>;;88881>;;88111>;77*3:00000",
"00000.9O>2;81>;;;11888;881>;88;881>;;88111>;77*3:00000",
"00000.9O>2;81>;;;1>;88;881>;;88881>;;88111>;8%*3:00000",
"0000..9O>2;81>;;;8>;;8;881>;;8;881>5588111>;77*3:*0000",
"0000.. O2;;81>;;5555X5555555XXX55555558111>;77*3:*0000",
"0000.. O2;;8>>;;11>;88;881X<;;;811>;8;8111>;7=*3:*0000",
"0000.9 O2;;8>;;;18>;;8881155;88811>;;;8111>;;7*3:*0000",
"0000.9 O2;;8>;;;18>;8;881155;8;811>;;8811>>;;7**:*0000",
"0000.9 #2;;8>;1818>;;;881155;88811>;;8811>;;;=%*:*0000",
"0000.9 #2;;8>;;181>;;;881155;;8811>;;;811>;;87%*:*0000",
"0000.94#2;;8>;;811>;;;881155;;8811>;8;811>;;;8%*:*0000",
"000..94#2;88>;;;11>;;;881155;;8811>;;8811>;;87%*:*3000",
"000..94@;888>;;11>;;;;881>XX;;8811XX;8811>;;87=33*3000",
"000..O4#,;88>;;;15XXXX55555555X55X5558111>;;87=33*3000",
"000.. 4+,881>;1;1>;;8888>;XX;;881>8;;8111>;88;=*3*3000",
"000.. 4+,881>;;;11;;8888>;XX88811>;888111>;;8;=*3*3000",
"000.9 4+8;81>;;;8>;;;881>1XX8;611>;;;8111>;88;=*3*3000",
"000.9 4+8881>;;;8>;;8811>;oo88866>;;88111>;88;=*3**000",
"000.9 @+;;81>;;;8>;;;;88>;X<8;81oo;;88111>;;;;8*3**000",
"00..9#@+8;81>;;;8>;;8888>;558;815XX888111>;88;8*3%*300",
"00..9#@+8881>;;88>;;;888>;668;811668;8111>;;8;8*3=*300",
"00..O+&+8;81>;;88>;;;888>;5588811>;888111>;;888*3=*300",
"00..O+&,8;81>;;81>;;;;81>;Xo8;81>>;;;8111>;;8;8=*=*300",
"00..O4+>8;81>;881>;;;111>;<<8;81>;;8XX111>;;;881*=3300",
"00..O4+;;;81>88XX5555555XXXXXXXXXXXXXX111>;;8881*,**00",
"00..O4+;;;81>8881>;;;;81>;;;8881>;;888111>;;;881*7**00",
"00.9O@+;;;81>;;81>;;;;81>;;;8881>;;888111>;;8;81*73*00",
"0..9O@+;;;81>;881>;;;;81>;;;8881>;;;88811>;;;;81$7*330",
"0..9#@+;;;81>;;81>;88;81>;;;;811>;;8;8111>;88881$7**30",
"0..O#@+;;;81>;;81>;88881>;;;;811>;;;88111>;;8;81$7**30",
"0.. +@>;;;81>;;81>8;8881>;;;;811>;;888111>;;8;8127*330",
"0.. 4@>;;;81>;;81>;;8881>;;;;811>;8888111>;;8;8127**30",
"0.9 >@>;;;81>;;81>;;8881>;88;811>;;888111>;;888127=*30",
"0.9 >@>;;881>;;81>;;;881>;;8;811>;;;81111>;;888127=*30",
"0.9 >,>;;;81>;;81>;;;881>;88;811>;;888111>;;;88827=*30",
" .9#>,>;8881>;;81>;;;881>;;8;811>;8881111>;;;811>7733*",
" .9#2,>;8881>;;81>;;;811>;;8;811>;8888111>;;;811>7733*",
" 99+>@+;;,,1+;;,1+;;,,11+;;;;,11+;;,,,111+;;;,11>7**3*",
" 9 #>@#22@@&#22@&#22@@&&#22@2@&&#2@2@&&&&#222@@@+;7*3*",
" 999O 9OO   9OO  9O   44O>@@@@&@####     9OOO   9O +,@"
};
