/* XPM */
static char *noname[] = {
/* width height ncolors chars_per_pixel */
"52 54 30 1",
/* colors */
"  c #D19849",
". c #946A2E",
"X c #72361A",
"o c #5F301B",
"O c #CF9239",
"+ c #E5A644",
"@ c #F3B255",
"# c #DB9F44",
"$ c #F8B046",
"% c #FFC35D",
"& c #FABB58",
"* c #FFCD60",
"= c #FEC05B",
"- c #FFFF86",
"; c #FEB140",
": c #FFF47C",
"> c #EAA940",
", c #FBB754",
"< c #5D391C",
"1 c #FEC264",
"2 c #F2AA41",
"3 c #FFE66E",
"4 c #E3AD59",
"5 c #803C19",
"6 c #562C1A",
"7 c #FFB542",
"8 c #FEB958",
"9 c #443115",
"0 c #B5843B",
"q c None",
/* pixels */
" 000OO  0OO   0OOO OOO+4@&&+2>>### 0OO    0OOO   O;2",
" 0 O>2@&#22@&&#222@#22@@@&&#22@22@&#@@@@&&#22@@,17**",
" 0 +@@,1+;;,11+;;;,+;;,,,1+;,;,,;,1+;;,,11+;;;,=*=**",
" 0 O@,81>;;811>;;;8>;;8881>;;88;;81>;;8811>;;;8=3=**",
"q.0O2,81>;;811>;;;8>;;;888>;88;8;81>;;8811>;;88%3%*q",
"q.0O@,81>88811>;;;8>;;;881>;;;8;;8>;;;8811>;;;8%3**q",
"q.0O>,81>;;811>;;88>;;8888>;;8;;88>;;;8811>;;;8%3**q",
"q.00>@11>;8811>;;88>;;;881>;;88;88>;88;811>;;;=%**3q",
"q.00>@11>8888>>;;88>;;;881>;;8;;88>;;;;811>;;8=*3*3q",
"q.00#@11>;881>;;881>;;;881>;;;;;88>;;88811>;;;=*3*3q",
"q.00#@1>>;881>;;88>;;;;881>;;88888>;;88811>;;;=*3*3q",
"q..0#@1>;;881>;888>;;;;881>;;88888>;888811>;;77*3*3q",
"qq.0O@1>;;881>;;888;;;8881>;;;8;88>;888811>;;7%*3*qq",
"qq..O@1>;;;81>;;;8>;;8;881>;;;8881>;;;8111>;;7%*:*qq",
"qq..O41>;;;81>;X55>;;8;8855;;8;88155;;8111>;;=%*:*qq",
"qq..O4&>;;;81>;6ooo;88;88XX;;8888XX;;;8111>;;7%*:*qq",
"qq..O+&>;;;81>;9;16688888<X;;888XX>;;88111>;;7**:*qq",
"qq..O+&>;;;81>;6;116o8;88XX;88;8XX>;;88111>;;7*3:*qq",
"qq..0#&+;;;81>;;XX>;X8;88XX;;88X51>;;88111>;8=*3:*qq",
"qq..0#@+;;;81>;;XX>;XX;88XX;;8;XX1>;;88111>;77*3:*qq",
"qqq.0#@+;;;81>;;15588588855;;88551>;888111>;77*3:qqq",
"qqq.0 @+;;;8>>;;11>XXXX88XX;;;<<11>;8;8111>;7%*3:qqq",
"qqq.0 4+;;;8>;;;XX5;;558155;;85X11>;;;8111>;77*3-qqq",
"qqq.. 4+;;;8>;;;15>;8558155;;85511>;;8811>>;77*3-qqq",
"qqq.0 4+;;;8>;1518>;5555555555X5555555811>;;7*33-qqq",
"qqq..O4#;;;8>;;555>;;558155;;;5511>;;;811>;;=733-qqq",
"qqq..04#;;;8>;;5555;;;88155;;;5511>;8;811>;77*33-qqq",
"qqqq.04#;;88>;;511XX;;88155;;;5511>;;8811>;7%733qqqq",
"qqqq.04@2888>;;X1>;oX;881oX;;;XX11XXX8811>;7%=3:qqqq",
"qqqq.0 #,;88>;;;55;8XX88155;;;X55X>;;8111>;7%=3:qqqq",
"qqqq.0 #@881>;1;X5;;XX88>XX;XXXX1>8;;8111>;=%=3-qqqq",
"qqqq.0 O@,81>;;;155;8XX8>XX88XX11>;888111>;7**3-qqqq",
"qqqq.0 O@;81>;;;8>;XXXX1>XX;8;811>;;;8111>;=**3-qqqq",
"qqqq.. O@,81>;;;XXX;8XX1>;;;88811>;;88111>;=**3-qqqq",
"qqqq..0O2;81>;;;8X;;XXXXXXX<o<<<oo6o88111>777*3-qqqq",
"qqqqq.0O@;81>;;;8>;;8558>;;88;811>;888111>7%**3qqqqq",
"qqqqq.0O@,81>;;88>;;;888>;;;8;811>;8;8111>77**3qqqqq",
"qqqqq.0O4281>;;88>;;;888>;;;88811>;888111>77*33qqqqq",
"qqqqq.0 4281>;;81>;;;;81>;;;8;81>>;;;8111>77**3qqqqq",
"qqqqq..0+2,1>;881>;;;111>;;88;81>;;888111>77*3:qqqqq",
"qqqqq..O#2,1>8881>;;;;81>;;;8;81>;;8;8111>7733:qqqqq",
"qqqqq..0#2,1>8881>;;;;81>;;;8881>;;888111>77*3:qqqqq",
"qqqqq..0O>,1>;;81>;;;;81>;;;8881>;;8881112773*:qqqqq",
"qqqqqq.0O>@1>;881>;;;;81>;;;8881>;;;8881127=**qqqqqq",
"qqqqqq.0O>@1+;;81>;88;81>;;;;811>;;8;811127*33qqqqqq",
"qqqqqq.0O#4@+2;,1>;88881>;;;;811>;;;88111$7=3*qqqqqq",
"qqqqqq.00O#4#>2@1+,;8881>;;;;811>778==***$77**qqqqqq",
"qqqqqqqq0O  O#>@@#22,,81>;;;;81127====***$77qqqqqqqq",
"qqqqqqqqqqq 0OO#4O>2@@,1>;887811277%%%***qqqqqqqqqqq",
"qqqqqqqqqqqqqOO  O##>@@&+;;87=**$777=*qqqqqqqqqqqqqq",
"qqqqqqqqqqqqqqqq 0OOO+4@#;8=7=**$77=qqqqqqqqqqqqqqqq",
"qqqqqqqqqqqqqqqqqqqOO #4#2;=7=**$qqqqqqqqqqqqqqqqqqq",
"qqqqqqqqqqqqqqqqqqqqq   O>;87=qqqqqqqqqqqqqqqqqqqqqq",
"qqqqqqqqqqqqqqqqqqqqqqqq#;7qqqqqqqqqqqqqqqqqqqqqqqqq"
};
