/* XPM */
static char *noname[] = {
/* width height ncolors chars_per_pixel */
"59 59 30 1",
/* colors */
"  c #000000",
". c #D19849",
"X c #946A2E",
"o c #72361A",
"O c #5F301B",
"+ c #CF9239",
"@ c #E5A644",
"# c #F3B255",
"$ c #DB9F44",
"% c #F8B046",
"& c #FFC35D",
"* c #FABB58",
"= c #FFCD60",
"- c #FEC05B",
"; c #FEB140",
": c #FFF47C",
"> c #EAA940",
", c #FBB754",
"< c #5D391C",
"1 c #FEC264",
"2 c #F2AA41",
"3 c #FFE66E",
"4 c #E3AD59",
"5 c #803C19",
"6 c #562C1A",
"7 c #FFB542",
"8 c #FEB958",
"9 c #443115",
"0 c #B5843B",
"q c None",
/* pixels */
"qqqqqqqqqqqqqqqqqqqqqqqqqqqqqqqqqqqqqqqqqqqqqqqqqqqqqqqqqqq",
"qqqqqqqqqqqqqqqqqqqqqqqqqqqqqqqqqqqqqqqqqqqqqqqqqqqqqqqqqqq",
"qqqqqqqqqqqqqqqqqqqqqqqqqqqqqqqqqqqqqqqqqqqqqqqqqqqqqqqqqqq",
"qqqqqqqqqqqqqqqqqqqqqqqqqqqqqqqqqqqqqqqqqqqqqqqqqqqqqqqqqqq",
"qqqqqqqqqqqqqqqqqqqqqqqqqqqqqqqqqqqqqqqqqqqqqqqqqqqqqqqqqqq",
"qqqqqqqqqqqqqqqqqqqqqqqqqqqqqqqqqqqqqqqqqqqqqqqqqqqqqqqqqqq",
"qqqqqqqqqqqqqqqqqqqqqqqqqqq$4$2,8qqqqqqqqqqqqqqqqqqqqqqqqqq",
"qqqqqqqqqqqqqqqqqqqqqqqq.+.$4$2;7--=qqqqqqqqqqqqqqqqqqqqqqq",
"qqqqqqqqqqqqqqqqqqqqqq++.+@4#@;7--&=%7qqqqqqqqqqqqqqqqqqqqq",
"qqqqqqqqqqqqqqqqqqq..0++$>#**@;8---=%7-7--qqqqqqqqqqqqqqqqq",
"qqqqqqqqqqqqqqqqq...4+$4#2#11>;;8--=%77---=%7qqqqqqqqqqqqqq",
"qqqqqqqqqqqqqq+...444$>2#2,11>8;8881277---=77-3qqqqqqqqqqqq",
"qqqqqqqqqqq0.0++$@4##@2,,;811>8;8881>777--=77=3qqqqqqqqqqqq",
"qqqqqqqqqqq000$@4#**1@;88;811>;;8881>;;;8-=77==3qqqqqqqqqqq",
"qqqqqqqqqqX0.+@>##111>;;;;811>;8;881>;;;881%7==3qqqqqqqqqqq",
"qqqqqqqqqqX0.+>#,,111>;88;811>;88881>;;;881%7=33qqqqqqqqqqq",
"qqqqqqqqqqX0.+2,;8111>;;8;811>;;8811>;;;881%7=33qqqqqqqqqqq",
"qqqqqqqqqqX0.+2,88111>;;88811>;;88111>;8;8117-33qqqqqqqqqqq",
"qqqqqqqqqqX00+2;;8111>;;8;881>;;88111>;;8811%-=3qqqqqqqqqqq",
"qqqqqqqqqqX00>2,88111>;;;8811>8;88111>;88811%7333qqqqqqqqqq",
"qqqqqqqqqqX0+>2,;811155588811>;;88111>;;8811%7333qqqqqqqqqq",
"qqqqqqqqqXX0+>288811ooo;;8811>;;88o55>;;;811%7333qqqqqqqqqq",
"qqqqqqqqqX0.+2288811555;8;511>5;88551>;;8881%7=33qqqqqqqqqq",
"qqqqqqqqqX0.+25;888555;;;;55>;5588511>;;551127-33qqqqqqqqqq",
"qqqqqqqqqX0.+2555555555555555;o555555555555127=33qqqqqqqqqq",
"qqqqqqqqqX0.+55;88oo5>;;8;55>;;;55111>;;555527733:qqqqqqqqq",
"qqqqqqqqqX0.+55885551>558;51>;;855111>;8551127=33:qqqqqqqqq",
"qqqqqqqqqX0.55,885o11>o58;81>;;;ooOoo5555511>7733:qqqqqqqqq",
"qqqqqqqqXX04$2;8ooO11Oo;8O81>;;;oo111>;;o<11>7==3:qqqqqqqqq",
"qqqqqqqqX0.4$2;;55111o;;8551>;;;5o111>;;oo11>77=3:qqqqqqqqq",
"qqqqqqqqX0.4$;;oo555oooo5ooo>;;;oo55oooooo81>77=33qqqqqqqqq",
"qqqqqqqqX0.4$;8555111oo;;811>;;8oo811>;;8811>7&733:qqqqqqqq",
"qqqqqqqqX0.4@;oooo111oo;;811>;;866111>;;;o11>77=33:qqqqqqqq",
"qqqqqqqqX0.4@;oooo111oo;;O11>;8869111>;;8oo1>7-==3:qqqqqqqq",
"qqqqqqqqX0.4@oo;oo111oo;;oo8>;;8OO6OOooooo5o>;-==3:qqqqqqqq",
"qqqqqqqXX04#55;5555555555555>;885o111>;;;811>57==3:qqqqqqqq",
"qqqqqqqXX+$<@;;<O<111OO;;881>;8866111>;;;5518;77-3:qqqqqqqq",
"qqqqqqqX0.@*@;;oo511155;;881>;;8ooooo555oOO<>;8&=3:=qqqqqqq",
"qqqqqqqX0+@*>;;55o11155;8581>;8899611>;;;Ooo5;8&73:=qqqqqqq",
"qqqqqqqX0+4*>;8ooo111oo;;o<1>;;;81111o;;;555>;7-73:=qqqqqqq",
"qqqqqqqX0+4*>;;oo5555555oooo>;;8o1111o55;5o1>;;77=:=qqqqqqq",
"qqqqqqXX0+#1>;;66O11155;;881>;88o11o1>oo;OO8>;;77=:=qqqqqqq",
"qqqqqqXX+$#1>;;55O111Oo;8881>o;8oO1OO>;;;Oo1>;;7&=:=qqqqqqq",
"qqqqqqX0+$#1>;8555111Oo;8Oo1>oO8oo1ooo;85551>;;7&=3==qqqqqq",
"qqqqqqX0+$#1>;;ooo1115588555>55;55115o;;Oo81>;;8&33==qqqqqq",
"qqqqqqX0+@#1>;;OOO<OOooOOOOO>;o888o11>;ooo88>;;8-=3==qqqqqq",
"qqqqqqX0+4#1>;;OOO111>;;;881>;;8O8111>;55o81>;88-=3==qqqqqq",
"qqqqqqX0+4#11>;OO8111>;8;881>;8886611>6OO881>;;8-=,==qqqqqq",
"qqqqqXX0+##11>O;88111>;88881>;;888ooooooo811>;88-=7==qqqqqq",
"qqqqqXX+$#,11>;;88111>;;;881>;;;881OOOOO;811>;;88=7===qqqqq",
"qqqqqXX+$#,81>;;;8111>;88881>;;;8881O66;8881>;;88=7===qqqqq",
"qqqqqXX+$2,11>;;;8111>;88881>;;;88811>;;;811>;;88=7===qqqqq",
"qqqqqXX.@#,81>;888111>;88881>;;;88111>;;;888>;;88=7===qqqqq",
"qqqqqXX+>2,81>;;88111>;;8881>;;;;8111>;;;881>;88817-==qqqqq",
"qqqqq00+4#;81>;;88111>;;;8811>;;;8111>;8;881>;;881%-==qqqqq",
"qqqqX00+>2;81>;;;8111>;;;8811>;;88111>;;8811>;;881%7===qqqq",
"qqqq000$>#,,1@222,111@2222,11@222,111@222,11@2,,,127-=3qqqq",
"qqqq000$4#2#*$22##***$22###**$222#***$222#**$222#*>77==qqqq",
"qqqq..+$>#>##$>######$>>#####$>>>####$>>>###$>>>##@;77=qqqq"
};
