/* XPM */
static char *noname[] = {
/* width height ncolors chars_per_pixel */
"31 32 29 1",
/* colors */
"  c #D19849",
". c #946A2E",
"X c #72361A",
"o c #5F301B",
"O c #CF9239",
"+ c #E5A644",
"@ c #F3B255",
"# c #DB9F44",
"$ c #F8B046",
"% c #FFC35D",
"& c #FABB58",
"* c #FFCD60",
"= c #FEC05B",
"- c #FEB140",
"; c #FFF47C",
": c #EAA940",
"> c #FBB754",
", c #5D391C",
"< c #FEC264",
"1 c #F2AA41",
"2 c #FFE66E",
"3 c #E3AD59",
"4 c #803C19",
"5 c #562C1A",
"6 c #FFB542",
"7 c #FEB958",
"8 c #443115",
"9 c #B5843B",
"0 c None",
/* pixels */
"00000000000000#-600000000000000",
"0000000000099 O:-67100000000000",
"0000000099O  3#166=$66700000000",
"0000099 9O#3@&+-66=$66===*00000",
"0004.9 3O:1@<<:---71666%%*=*000",
"000X9 @&+>>7<<:---7:-66==2*2000",
"000,9+@<:--7<<:--77:--77=**2000",
"000X93<<:-77oo:--77:---77*%2000",
"00049@<<:7XXXX:--77:X--77*=2000",
"00,4O@<<4447<:-X77<X---77*=2200",
"00,.O@444-77<X-ooooo,ooX7*>2200",
"00,.OX<:-o77<5-557:---XX7<6*200",
"00,.O@,:-X474X-XX77---447<6*200",
"00,.#>44-447oo-5555555557<6*200",
"00,.+>XX---7<:-X47:--7447<6*200",
"004.:><:XX-7<:-5o<:-77,,7<6*200",
"00.9:>X4Xo,5<:-8555555o,7<$*200",
"00.9:><:Xo-7<:-55<<777-77<$*;00",
"0,.91><:XX-X<:-XX<:-77X77<$*2;0",
"0,.91XXoXXXXX:-XXXXXXXXX7<$=2;0",
"0,. 17<:XX-7<:-447:777777<1=*;0",
"0,.#17<X-o-7::-X,oXXXXXXXX16*20",
"0,9O>744-447:--X<7:--7774416*;0",
"0,9+-44:--47:---474-4-4744:6*;0",
"049444<:--44:-<4<4:4-4744<:6*;0",
"0.9#47<:---44--<7<:---44<<:6*20",
"0. #-7<:---4:--7<<:-4477<<:6*20",
"9. #-7<:--77:---<<:---77<<:6*22",
"9. #-7<7-777:--<<:----77<:-6=22",
"9.O1-7<:7-77:---<:-77777<:-6=*2",
"99O:1@&#@@@&#1&1&#11@@@@#1116**",
"99.999999O  9O#:&&:##   9999 @@"
};
