/* XPM */
static char *noname[] = {
/* width height ncolors chars_per_pixel */
"31 32 29 1",
/* colors */
"  c #D19849",
". c #946A2E",
"X c #72361A",
"o c #5F301B",
"O c #CF9239",
"+ c #E5A644",
"@ c #F3B255",
"# c #DB9F44",
"$ c #F8B046",
"% c #FFC35D",
"& c #FABB58",
"* c #FFCD60",
"= c #FEC05B",
"- c #FEB140",
"; c #FFF47C",
": c #EAA940",
"> c #FBB754",
", c #5D391C",
"< c #FEC264",
"1 c #F2AA41",
"2 c #FFE66E",
"3 c #E3AD59",
"4 c #803C19",
"5 c #562C1A",
"6 c #FFB542",
"7 c #FEB958",
"8 c #443115",
"9 c #B5843B",
"0 c None",
/* pixels */
"99.9999 9OO  3O:11@OOO  9  9O:1",
"99 #11@&#11@&&#111@#11@@@&&+6**",
"9. @>77<:--7<<:---7:--777<:6**2",
"9. #777<:--7<<:---7:--777<:6=;2",
"9. #-77<:--7XX:---7:---777:62;*",
"0. #>77<:7XX<<:---7:---74446*20",
"0.9#-77<:447X<X-X7X:--7Xo7:6*;0",
"049O-7<<oo7o<o:o-X7:--XX7<:6*;0",
"0,9O-7<<oX777::--7X:--XX7<:6*;0",
"0,9O17<<4444XXXXXXXX--XX7<16*20",
"0,.O17<::-77<:--77oo--oX7<16*;0",
"0,.O17<:--ooo5555885--XX7<1=*;0",
"0,.917<:--74<:--77XX--447<$=220",
"0,.91><:---7<:---755-7557<$*220",
"00.9:><:-XXXX44X4444-7447<$*200",
"00.9:><:-XX7<:-7-<oo77,,7<$*200",
"004.:><:-o,7<:---<5577o,7<6*200",
"00,.+><:-ooo5555555577XX7<6*;00",
"00,.#><:-XX7<:---<XX77XX7<6*200",
"00,.O@<:-XX7<:---7XX-7XX7<6*200",
"00,.O@<:-X444444444477447<6*200",
"00,.O@<:---7::X-<<:X77XX7*>2200",
"00,4 @<:---7:X--<7:--744<*=2200",
"000.9@<:---7:---<7:-7-44<*=2000",
"000X93<:4444444444444444<*%2000",
"000,9+<:-447:--<7<:---74<**2000",
"000X. @+1--7:--7<<:--67=*2*2000",
"0004.9 O::@@+---<<:666=%**=*000",
"0000099OO #3#11<<16666==<$00000",
"0000000099O O#:1<$6==7700000000",
"0000000000099O :<16600000000000",
"00000000000000:-*00000000000000"
};
