/* XPM */
static char *noname[] = {
/* width height ncolors chars_per_pixel */
"33 34 29 1",
/* colors */
"  c #D19849",
". c #946A2E",
"X c #72361A",
"o c #5F301B",
"O c #CF9239",
"+ c #E5A644",
"@ c #F3B255",
"# c #DB9F44",
"$ c #F8B046",
"% c #FFC35D",
"& c #FABB58",
"* c #FFCD60",
"= c #FEC05B",
"- c #FEB140",
"; c #FFF47C",
": c #EAA940",
"> c #FBB754",
", c #5D391C",
"< c #FEC264",
"1 c #F2AA41",
"2 c #FFE66E",
"3 c #E3AD59",
"4 c #803C19",
"5 c #562C1A",
"6 c #FFB542",
"7 c #FEB958",
"8 c #443115",
"9 c #B5843B",
"0 c None",
/* pixels */
"99.9999 9OO   O:11@#:#     99OO11",
"O9 #11@&#11@&&#111@#11@@@&&#11%*=",
"9. @>>><:--><<:--->:-->>><:-76*2*",
"9. #>77<:--7<<:---7:--777<:--=*2*",
"9. #-77<:--7<X:---7:---777:-7%*;*",
"0. #>77<:77X4<4-4-4:-4-77<:--6220",
"0.9#-77<:-44<<X-X7X:o-777o:-6%*20",
"0.9O-7<<:-oo<<:--77:---7X<:-6*220",
"049O17<<:7XXXXXXXXXXX--XX<:-6**20",
"0,9O17<<:-77<:--77<XX-XX7<:-66*20",
"0,9O17<::4XXXXoooooo,-oX7<:-6*2;0",
"0,.O17<:--o7o:-777:55-XX7<:-6*2;0",
"0,.917<:--774XXXXXXX4-447<:-6=220",
"0,.91><:---7o:---7:557557<:-6*;;0",
"0,.9:><:---7X44X444447447<:-622;0",
"00.9:><:---7<:-7o<:-77,,7<:662;00",
"00.9:><:Xo,5558855<-57o,7<:662;00",
"00..+><:-o-7<5--55<5o7XX7<:6*2200",
"004.#><:--XXXXXXXX:XX7XX7<:662;00",
"00,.#@<:---7<X--XX:XX7XX7<:662200",
"00,.O@<:--44444444:4X7447<:662;00",
"00,.O@<:---7:X--,o:XXXXX7<:6=*200",
"00,. @<:--444XXXXX:44744<<:6=2;00",
"00,.O@<:---7:4--44:47-44<<:6*;200",
"00,4O@<:4444444444444444<<:6*;;00",
"000493<:--47:--<74X---77<<:6*2000",
"000493<:---7:--7<<:---77<<16*2000",
"000X9+&:--77:---<<:---77<<16*2000",
"0004. 3@1>>>:--<<:----77<166*2000",
"000..9 O3:@@+---<:-77===*$66=*000",
"000009 9  #3#1&1<:66====166600000",
"0000000099O OO#:<<66==77:00000000",
"0000000000009OOO@+666000000000000",
"000000000000000:>$000000000000000"
};
