/* XPM */
static char *noname[] = {
/* width height ncolors chars_per_pixel */
"31 32 29 1",
/* colors */
"  c #D19849",
". c #946A2E",
"X c #72361A",
"o c #5F301B",
"O c #CF9239",
"+ c #E5A644",
"@ c #F3B255",
"# c #DB9F44",
"$ c #F8B046",
"% c #FFC35D",
"& c #FABB58",
"* c #FFCD60",
"= c #FEC05B",
"- c #FEB140",
"; c #FFF47C",
": c #EAA940",
"> c #FBB754",
", c #5D391C",
"< c #FEC264",
"1 c #F2AA41",
"2 c #FFE66E",
"3 c #E3AD59",
"4 c #803C19",
"5 c #562C1A",
"6 c #FFB542",
"7 c #FEB958",
"8 c #443115",
"9 c #B5843B",
"0 c None",
/* pixels */
"00000000000000#-600000000000000",
"0000000000099 O:-67100000000000",
"0000000099O  3#166=$66700000000",
"0000099 9O#3@&+-66=$66===*00000",
"0004.9 3O:1@<<:---71666%%*=*000",
"000X9 @&+>>7<<:---7:-66==2*2000",
"000,9+@4:--7<<:--77:oX77=**2000",
"000X93<XoooooooooXXXXXX77*%2000",
"00049@<oo7777::--77:---77*=2000",
"00,4O@<X4-77<:--7X<:---77*=2200",
"00,.O@<44-7X<:--o7:----77*>2200",
"00,.O@<Xo-7oo55558855o-77<6*200",
"00,.O@<oo-744:--777-44777<6*200",
"00,.#><44--Xo:---7:-55-77<6*200",
"00,.+><XX--XX44X444444-77<6*200",
"004.:><4X--XX:-7-<:-o,-77<6*200",
"00.9:><4X--55:---<<-55777<$*200",
"00.9:><XX--o55555555oo-77<$*;00",
"0,.91><XX--XX:---<:-77-77<$*2;0",
"0,.917<oX--XX:---7:X-7-77<$=2;0",
"0,. 17<XX--444444444X7777<1=*;0",
"0,.#17<Xo--44:--<<:-77-77<16*20",
"0,9O>7<44--44XXXXX444447<<16*;0",
"0,9+-7<44--74---<7:-7447<<:6*;0",
"049O>7<44--7:4<4<4:4-447<<:6*;0",
"0.9#-744---74-4<4<X-4477<<:6*20",
"0. #444:---7:--7<<:44-77<<:6*20",
"9. #-7<:--77:---<4X---77<<:6*22",
"9. #-7<7-777:--<<:----77<:-6=22",
"9.O1-7<:7-77:---<:-77777<:-6=*2",
"99O:1@&#@@@&#1&1&#11@@@@#1116**",
"99.999999O  9O#:&&:##   9999 @@"
};
