/* XPM */
static char *noname[] = {
/* width height ncolors chars_per_pixel */
"31 32 27 1",
/* colors */
"  c #D19849",
". c #946A2E",
"X c #72361A",
"o c #CF9239",
"O c #CA0D0D",
"+ c #E5A644",
"@ c #F3B255",
"# c #DB9F44",
"$ c #F8B046",
"% c #FFC35D",
"& c #FABB58",
"* c #FFCD60",
"= c #FEC05B",
"- c #FEB140",
"; c #FFF47C",
": c #EAA940",
"> c #FBB754",
", c #5D391C",
"< c #FEC264",
"1 c #F2AA41",
"2 c #FFE66E",
"3 c #E3AD59",
"4 c #803C19",
"5 c #FFB542",
"6 c #FEB958",
"7 c #B5843B",
"8 c None",
/* pixels */
"77.7777 7oo  3o:11@ooo  7  7o:1",
"77 #11@&#11@&&#111@#11@@@&&+5**",
"7. @>66<:--6<<:---6:--666<:5**2",
"7. #66OO:--6OO:--OO:--6OO<:5=;2",
"7. #-6OOO--6OO:--OO:--OOO6:52;*",
"8. #>66<O666<O:--O6:--O66<:5*28",
"8.7#-66<:--6<<:--66:--6666:5*;8",
"847o-6<<:-66<<:--66:---66<:5*;8",
"8,7o-6<OOO66O::--6O:OO-66<:5*;8",
"8,7o16<O:OO6OOOOOOO:OOOOO<15*28",
"8,.o16<::OO6OO--6OO-OO-6O<15*;8",
"8,.o16<:-OO6OO-66OO-OO-66<1=*;8",
"8,.716<:-OO6OO--6OO-OO666<$=228",
"8,.71><:-OO6OO---OO-OO-66<$*228",
"88.7:><OOOO6OOOOOOO-OOOOO<$*288",
"88.7:><O-OO6OO-6-OO-OO-66<$*288",
"884.:><:---6<:---<<-66666<5*288",
"88,.+><:---6O:---<O666-66<5*;88",
"88,.#><:---6OOOOOOO-66-66<5*288",
"88,.o@<:---6OO---OO--6-66<5*288",
"88,.o@<:---6OO--<OO666666<5*288",
"88,.o@<:---6OO--<OO-66-66*>2288",
"88,4 @<:OOOOOOOOOOOOOOO6<*=2288",
"888.7@<:-O-6:---<6:-6-66<*=2888",
"888X73<:---6:-<6<6:---66<*%2888",
"888,7+<:---6:--<6<:---66<**2888",
"888X. @+1--6:--6<<:--56=*2*2888",
"8884.7 o::@@+---<<:555=%**=*888",
"8888877oo #3#11<<15555==<$88888",
"8888888877o o#:1<$5==6688888888",
"8888888888877o :<15588888888888",
"88888888888888:-*88888888888888"
};
