/* XPM */
static char *noname[] = {
/* width height ncolors chars_per_pixel */
"29 30 31 1",
/* colors */
"  c #D19849",
". c #946A2E",
"X c #72361A",
"o c #5F301B",
"O c #FFFE89",
"+ c #CF9239",
"@ c #E5A644",
"# c #F3B255",
"$ c #DB9F44",
"% c #F8B046",
"& c #FFC35D",
"* c #FABB58",
"= c #FFCD60",
"- c #FEC05B",
"; c #FFFF86",
": c #FEB140",
"> c #FFF47C",
", c #EAA940",
"< c #FBB754",
"1 c #5D391C",
"2 c #FEC264",
"3 c #F2AA41",
"4 c #FFE66E",
"5 c #E3AD59",
"6 c #803C19",
"7 c #562C1A",
"8 c #FFB542",
"9 c #FEB958",
"0 c #443115",
"q c #B5843B",
"w c None",
/* pixels */
"qq.qqqqqqq+  5$33,$q++qqq  $3",
"qq $33#*$33X**$333#$33###2===",
"q. #9992,oo9727:7:77::9992844",
"q. $9992,6:9X2X:X:X,::999=-4=",
"w.q$:992XX:922,:::9,:::99&-4w",
"w1q$<992XoXX66666666:::99==4w",
"w1q+:992,::92XX::9Xo::999==4w",
"w1.+3922,:oooooooXXX:::994=4w",
"w1.+3922,9999XX::9XX:::9-4=4w",
"w1.q3922,:66XXXXXXXX:::9-4=4w",
"ww.q,92,,:992Xo:99oo:::9&4=ww",
"wwX.,<2,:oooo7777007:::96>=ww",
"ww1.@<1o::992X::99XX::96=>4ww",
"ww1.$<666:6X2,:::9,::979=>4ww",
"ww1.+62XX::XX66X666::66-=>4ww",
"ww1.+#26X::9X,o7:2,:911-=;4ww",
"www6q#26X:177700777797o&4;www",
"www1q#2XX:oo2,77:2779oX&4;www",
"www1q52XX:XX2,XX:2XX9XX=4Owww",
"www1.@2oX:XXXX6XXXXX:XX=4Owww",
"www1.$*XX::92,6629,9966=4Owww",
"www1. *Xo::66XXX1oX:9XX=>Owww",
"wwww.+#66::9,:::29,::664;wwww",
"wwww6q566666666666666664;wwww",
"wwww6q5$3::9,:2929,888=4;wwww",
"wwww6. +$,3<,::2923888==>wwww",
"wwwwwwqqq+$5$3:92=%888&wwwwww",
"wwwwwwwwqqq +,38==%88wwwwwwww",
"wwwwwwwwwwwqq+,22%wwwwwwwwwww",
"wwwwwwwwwwwww@:8wwwwwwwwwwwww"
};
