/* XPM */
static char *noname[] = {
/* width height ncolors chars_per_pixel */
"31 32 27 1",
/* colors */
"  c #D19849",
". c #946A2E",
"X c #72361A",
"o c #CF9239",
"O c #CA0D0D",
"+ c #E5A644",
"@ c #F3B255",
"# c #DB9F44",
"$ c #F8B046",
"% c #FFC35D",
"& c #FABB58",
"* c #FFCD60",
"= c #FEC05B",
"- c #FEB140",
"; c #FFF47C",
": c #EAA940",
"> c #FBB754",
", c #5D391C",
"< c #FEC264",
"1 c #F2AA41",
"2 c #FFE66E",
"3 c #E3AD59",
"4 c #803C19",
"5 c #FFB542",
"6 c #FEB958",
"7 c #B5843B",
"8 c None",
/* pixels */
"88888888888888#-588888888888888",
"8888888888877 o:-56188888888888",
"8888888877o  3#155=$55688888888",
"8888877 7o#3@&+-55=$55===*88888",
"8884.7 3o:1@<<:---61555%%*=*888",
"888X7 @&+>>6<<:---6:-55==2*2888",
"888,7+@<:--6<<:--66:--66=**2888",
"888X73<<:-66<<:--66:---66*%2888",
"88847@<<:6666::--66:---66*=2888",
"88,4o@<<:-6O<:-OO6<:---66*=2288",
"88,.o@<::O6OO:-OO6:O---66*>2288",
"88,.o@<:-OOO<OOOOOOOO--66<5*288",
"88,.o@<:-OO6<:-OO66---O66<5*288",
"88,.#><:OOOO<:-OO6:--OOO6<5*288",
"88,.+><:O-OO<:-OO6:-OO-66<5*288",
"884.:><O--OO<:-OO<:OO6-O6<5*288",
"88.7:>O:--OOOOOOOOOOOOOOO<$*288",
"88.7:><:--OO<:---OO666-66<$*;88",
"8,.71><:-OOO<:--OO:-66-66<$*2;8",
"8,.716<:-OOO<:-OOOOOOOOOO<$=2;8",
"8,. 16<:O-OO<:OOOO:6666OO<1=*;8",
"8,.#16<O--OO:O--OO:-66-OO<15*28",
"8,7o>6O:--OO:O--OOOOOOOOO<15*;8",
"8,7+-6<:--OO:---OO:-6-6OO<:5*;8",
"847o>6<:--OO:-<6OO:---6OO<:5*;8",
"8.7#-6<:O-OO:--<OOOOOOOOO<:5*28",
"8. #-6<:OOO6:--6O<:---66O<:5*28",
"7. #-6<:-O66:---<<:---66<<:5*22",
"7. #-6<6-666:--<<:----66<:-5=22",
"7.o1-6<:6-66:---<:-66666<:-5=*2",
"77o:1@&#@@@&#1&1&#11@@@@#1115**",
"77.777777o  7o#:&&:##   7777 @@"
};
