/* XPM */
static char *noname[] = {
/* width height ncolors chars_per_pixel */
"31 32 29 1",
/* colors */
"  c #D19849",
". c #946A2E",
"X c #72361A",
"o c #5F301B",
"O c #CF9239",
"+ c #E5A644",
"@ c #F3B255",
"# c #DB9F44",
"$ c #F8B046",
"% c #FFC35D",
"& c #FABB58",
"* c #FFCD60",
"= c #FEC05B",
"- c #FEB140",
"; c #FFF47C",
": c #EAA940",
"> c #FBB754",
", c #5D391C",
"< c #FEC264",
"1 c #F2AA41",
"2 c #FFE66E",
"3 c #E3AD59",
"4 c #803C19",
"5 c #562C1A",
"6 c #FFB542",
"7 c #FEB958",
"8 c #443115",
"9 c #B5843B",
"0 c None",
/* pixels */
"00000000000000#-600000000000000",
"0000000000099 O:-67100000000000",
"0000000099O  3#166=$66700000000",
"0000099 9O#3@&+-66=$66===*00000",
"0004.9 3O:1@<<:---71666%%*=*000",
"000X9 @&+>>7<<:---7:-66==2*2000",
"000,9+@<:--7<<:--77:--77=**2000",
"000X93<<:-77<<:--77:---77*%2000",
"00049@<<:7777::--7XX---77*=2000",
"00,4O@<<:-44XXXXXXX:---77*=2200",
"00,.O@<::-XX<:--7o:----77*>2200",
"00,.O@<:-oo7<:-757:----77<6*200",
"00,.O@<:oX77<:XX777---777<6*200",
"00,.#><4444Xoo55555555-77<6*200",
"00,.+>X:XX-7<:4X77:-44-77<6*200",
"004.:X<:XX-7<:o5-<:-o,-77<6*200",
"00.9:><:Xo-7<:88-<<-55777<$*200",
"00.9:><:Xooo55555555oo-77<$*;00",
"0,.91><:X--7<XXX-<:-7X-77<$*2;0",
"0,.917<:---7<X4X-7X--7-77<$=2;0",
"0,. 17<:---7<4-4<7:4X7777<1=*;0",
"0,.#17<:---74X-X,<:-X7-77<16*20",
"0,9O>7<:---74X-XX7:--747<<16*;0",
"0,9+-7<:---44---44:-7-47<<:6*;0",
"049O>7<:--44:-<744444447<<:6*;0",
"0.9#-7<:-447:--<7<XX4477<<:6*20",
"0. #-7<:4--7:--7<<:---77<<:6*20",
"9. #-7<:--77:---<<:---77<<:6*22",
"9. #-7<7-777:--<<:----77<:-6=22",
"9.O1-7<:7-77:---<:-77777<:-6=*2",
"99O:1@&#@@@&#1&1&#11@@@@#1116**",
"99.999999O  9O#:&&:##   9999 @@"
};
