/* XPM */
static char *noname[] = {
/* width height ncolors chars_per_pixel */
"33 34 27 1",
/* colors */
"  c #D19849",
". c #946A2E",
"X c #72361A",
"o c #CF9239",
"O c #CA0D0D",
"+ c #E5A644",
"@ c #F3B255",
"# c #DB9F44",
"$ c #F8B046",
"% c #FFC35D",
"& c #FABB58",
"* c #FFCD60",
"= c #FEC05B",
"- c #FEB140",
"; c #FFF47C",
": c #EAA940",
"> c #FBB754",
", c #5D391C",
"< c #FEC264",
"1 c #F2AA41",
"2 c #FFE66E",
"3 c #E3AD59",
"4 c #803C19",
"5 c #FFB542",
"6 c #FEB958",
"7 c #B5843B",
"8 c None",
/* pixels */
"77.7777 7oo   o:11@#:#     77oo11",
"o7 #11@&#11@&&#111@#11@@@&&#11%*=",
"7. @>>><:--><<:--->:-->>><:-65*2*",
"7. #>66<:--6<<:---6:--666<:--=*2*",
"7. #-66<:--6<<:-O-6:---666:-6%*;*",
"8. #>66<:OO6<<OO--6O---66<:O-5228",
"8.7#-66<OO-O<OO--6OO--6666OO5%*28",
"8.7o-6<OO-66OO:--66OO--66OO-5*228",
"847o16<OO666OO:--66:O--6OO:-5**28",
"8,7o16<OO-66OO--66<:OO-6O<:-55*28",
"8,7o16<OO-66OO--66:--O-O6<:-5*2;8",
"8,.o16<OO-66OO-666:--OO66<:-5*2;8",
"8,.716<OO-66OO--66OOOOOOOO:-5=228",
"8,.71><OO--6OO---6:O-OO66<:-5*;;8",
"8,.7:><OO--6OO--66:--OO66<:-522;8",
"88.7:><OO--6OO-6-<:OOOOOO<:552;88",
"88.7:><OO--6OO---<<-6OO66<:552;88",
"88..+><OO--6OO---<<666-6OO:5*2288",
"884.#><OO--6OO---OO-6OO6OO:552;88",
"88,.#@<OO--6OO---OO--OO66O:552288",
"88,.o@<OOOOOOOOO<O:666O66<OO52;88",
"88,.o@<:O--6OO--<O:-66-6OO:5=*288",
"88,. @<:---6OO--<6:-OOOOO<:5=2;88",
"88,.o@<:---6OO--<OOOOO66<<:5*;288",
"88,4o@<:---6:O<6<OO---66<<:5*;;88",
"888473<:---6:--<6<:---66<<:5*2888",
"888473<:---6:--6<<:---66<<15*2888",
"888X7+&:--66:---<<:---66<<15*2888",
"8884. 3@1>>>:--<<:----66<155*2888",
"888..7 o3:@@+---<:-66===*$55=*888",
"888887 7  #3#1&1<:55====155588888",
"8888888877o oo#:<<55==66:88888888",
"8888888888887ooo@+555888888888888",
"888888888888888:>$888888888888888"
};
